<svg width="48" height="12" viewBox="0 0 48 12" fill="none"
  xmlns="http://www.w3.org/2000/svg">
  <g clip-path="url(#clip0_355_16452)">
    <path d="M17.5249 1.52429L17.4958 2.16744H15.292V9.4819H14.4981V2.18016H12.2471V1.52429H17.5249Z" fill="#003BB3"/>
    <path d="M15.5613 9.75081H14.2295V2.43999H11.9785V1.25725H17.805L17.7541 2.43635H15.5613V9.75081ZM14.7673 9.20577H15.0235V1.89858H17.24V1.79321H12.5163V1.90403H14.7673V9.20577Z" fill="#003BB3"/>
    <path d="M25.2536 9.5146H24.4941V1.58243H25.2772C26.7306 3.78682 28.1938 5.99727 29.6666 8.21377L29.712 8.20105V1.58243H30.4896V9.5146H29.712C28.2501 7.2981 26.7815 5.07493 25.3063 2.84511L25.2536 2.85783V9.5146Z" fill="#003BB3"/>
    <path d="M30.753 9.78168H29.563L25.5169 3.65723V9.78168H24.2197V1.31355H25.4152L29.4321 7.39258V1.31355H30.7475L30.753 9.78168ZM29.8446 9.23664H30.2079V1.85133H29.9772V8.40273L29.5484 8.52809L25.1263 1.85133H24.763V9.24573H24.9864V2.65072L25.4279 2.53626L29.8446 9.23664Z" fill="#003BB3"/>
    <path d="M42.5495 6.68949C42.4168 7.5979 43.1436 8.59351 44.1174 8.86966C45.0912 9.14582 46.3884 8.89873 46.8317 7.57973H47.6293C47.5191 8.07074 47.2588 8.51526 46.8844 8.85149C46.2249 9.45286 45.4309 9.6418 44.557 9.59275C44.0889 9.57214 43.6318 9.44342 43.2217 9.21667C42.9037 9.04272 42.6233 8.80756 42.3966 8.52475C42.1699 8.24193 42.0014 7.91705 41.9009 7.56883C41.6381 6.75976 41.6541 5.88598 41.9463 5.08707C42.3423 4.00789 43.1436 3.39926 44.2754 3.23393C45.0773 3.08978 45.9036 3.26732 46.5755 3.7281C46.9063 3.95849 47.1808 4.26069 47.3784 4.61212C47.576 4.96354 47.6915 5.35509 47.7165 5.75747C47.7455 6.05725 47.7165 6.36065 47.7165 6.68586L42.5495 6.68949ZM46.9534 6.05543C46.9534 5.25785 46.6918 4.61834 46.0141 4.19684C45.6233 3.96404 45.1751 3.84557 44.7203 3.85488C44.2655 3.8642 43.8224 4.00093 43.4415 4.24953C42.8274 4.68919 42.564 5.30691 42.5204 6.05543H46.9534Z" fill="#003BB3"/>
    <path d="M44.8135 9.87071C44.7244 9.87071 44.6318 9.87071 44.5428 9.87071C44.0334 9.84708 43.5363 9.70725 43.0893 9.46193C42.7402 9.27171 42.4321 9.01442 42.1827 8.70483C41.9333 8.39523 41.7474 8.03943 41.6359 7.65784C41.3549 6.79297 41.3728 5.85877 41.6867 5.00531C42.1046 3.86072 42.9839 3.15943 44.2303 2.97957C45.1011 2.82545 45.9976 3.02133 46.7247 3.52461C47.0874 3.77738 47.3885 4.1085 47.6058 4.49345C47.8232 4.87839 47.9511 5.30729 47.9802 5.74838C47.9959 5.96664 47.9989 6.18563 47.9892 6.40425C47.9892 6.50054 47.9892 6.60228 47.9892 6.7022V6.95837H42.8041C42.8313 7.66148 43.4291 8.39365 44.1885 8.6044C45.0751 8.85149 46.2015 8.6044 46.5776 7.48888L46.6394 7.3072H47.9638L47.8911 7.63059C47.7686 8.17701 47.4798 8.67206 47.0645 9.0477C46.4495 9.60401 45.6422 9.89917 44.8135 9.87071ZM44.8444 3.46466C44.6668 3.46488 44.4895 3.47824 44.3138 3.50463C43.2637 3.65542 42.5515 4.22045 42.1991 5.18336C41.9269 5.92614 41.9129 6.73893 42.1591 7.4907C42.2499 7.80597 42.4021 8.1002 42.6069 8.35649C42.8118 8.61277 43.0652 8.82606 43.3528 8.98411C43.7275 9.19025 44.1446 9.30772 44.5718 9.32749C45.4566 9.37654 46.1543 9.15671 46.7029 8.65527C46.9523 8.43255 47.1458 8.15437 47.268 7.84316H47.0173C46.9041 8.12321 46.7337 8.3765 46.5168 8.58676C46.3 8.79702 46.0416 8.9596 45.7582 9.06405C45.2068 9.25993 44.6083 9.28024 44.045 9.12219C42.9385 8.81515 42.1319 7.68328 42.2845 6.65133L42.3172 6.42242H47.4569C47.4569 6.40788 47.4569 6.39335 47.4569 6.37881C47.4659 6.18139 47.4628 5.9836 47.4478 5.78654C47.4254 5.42304 47.3213 5.06928 47.1433 4.75158C46.9653 4.43388 46.7179 4.16042 46.4195 3.95156C45.9593 3.62652 45.4077 3.45602 44.8444 3.46466ZM47.2244 6.32431H42.2354L42.2518 6.03907C42.3045 5.14884 42.6442 4.49115 43.2855 4.04059C43.7109 3.76352 44.2052 3.61076 44.7127 3.59952C45.2202 3.58829 45.7207 3.71903 46.1579 3.977C46.8701 4.42211 47.2189 5.10342 47.2226 6.06269L47.2244 6.32431ZM42.8186 5.77927H46.6739C46.6636 5.50356 46.585 5.23472 46.4452 4.99689C46.3053 4.75906 46.1086 4.55969 45.8727 4.41666C45.5272 4.211 45.1311 4.10609 44.7291 4.11379C44.3271 4.1215 43.9353 4.24151 43.598 4.46027C43.3815 4.6134 43.2 4.81085 43.0656 5.03952C42.9312 5.26819 42.847 5.52283 42.8186 5.78654V5.77927Z" fill="#003BB3"/>
    <path d="M17.4414 6.40971C17.4414 5.48859 17.6994 4.66739 18.3825 4.01697C18.9138 3.51353 19.6129 3.22484 20.3446 3.20668C21.4492 3.15763 22.3976 3.49918 23.0698 4.41304C23.4201 4.89723 23.6215 5.47304 23.6494 6.06996C23.7235 6.75964 23.5894 7.45572 23.2642 8.06845C23.0342 8.48784 22.7049 8.84454 22.3052 9.10739C21.9056 9.37025 21.4476 9.53127 20.9714 9.5764C20.3792 9.6658 19.7738 9.58777 19.2237 9.35111C18.1336 8.87148 17.5885 7.99214 17.4505 6.83666C17.4414 6.7331 17.4414 6.63136 17.4414 6.52962C17.4305 6.48965 17.4414 6.44968 17.4414 6.40971ZM22.87 6.35884C22.87 6.30433 22.8591 6.21167 22.8536 6.1172C22.7791 4.87269 22.0234 4.03514 20.7897 3.88253C20.3038 3.81029 19.8076 3.90222 19.3798 4.14376C18.952 4.3853 18.617 4.76266 18.4279 5.21607C18.1712 5.8513 18.1285 6.55286 18.3062 7.21455C18.5169 8.0521 19.0329 8.62621 19.8795 8.84968C20.7589 9.07314 21.5601 8.89691 22.2105 8.23741C22.7101 7.73052 22.8591 7.08556 22.87 6.35884Z" fill="#003BB3"/>
    <path d="M20.4821 9.87433C20.0115 9.87644 19.5455 9.78053 19.114 9.59272C17.9876 9.10037 17.339 8.18288 17.1809 6.86752C17.1809 6.78394 17.1682 6.70219 17.1664 6.62225C17.1664 6.59681 17.1664 6.57138 17.1664 6.54594C17.1646 6.51326 17.1646 6.48051 17.1664 6.44783V6.41332C17.1664 5.32323 17.5007 4.48387 18.1911 3.82618C18.7687 3.2776 19.5294 2.96296 20.3258 2.94322C21.5976 2.88508 22.595 3.32656 23.2872 4.25677C23.6684 4.78194 23.8875 5.40718 23.9177 6.0554C23.9954 6.7957 23.8499 7.54233 23.4998 8.19923C23.2481 8.65354 22.8897 9.03979 22.4554 9.32466C22.0211 9.60953 21.5241 9.78446 21.0071 9.83436C20.8332 9.85942 20.6578 9.87277 20.4821 9.87433ZM20.5475 3.47191C20.4803 3.47191 20.4149 3.47191 20.3476 3.47191C19.6805 3.48696 19.0428 3.74917 18.5581 4.20771C17.9803 4.75275 17.6987 5.47948 17.6987 6.40423V6.51324C17.6987 6.54049 17.6987 6.56774 17.6987 6.595C17.6987 6.66585 17.6987 6.73307 17.7114 6.79666C17.8459 7.92671 18.3746 8.67887 19.3248 9.09492C19.83 9.31125 20.3856 9.38235 20.929 9.30022C21.8919 9.17123 22.5787 8.72066 23.0238 7.92671C23.3248 7.36175 23.4471 6.71867 23.3744 6.08266C23.3519 5.53726 23.1686 5.01071 22.8476 4.56926C22.3007 3.83345 21.5467 3.47191 20.5475 3.47191ZM20.5766 9.20938C20.319 9.20832 20.0626 9.17475 19.8135 9.10945C18.9051 8.87509 18.2892 8.24465 18.0476 7.29265C17.8549 6.57435 17.9015 5.81286 18.1802 5.12338C18.391 4.6153 18.7653 4.19203 19.2437 3.92056C19.7222 3.64909 20.2775 3.54491 20.8218 3.62452C22.179 3.79348 23.0383 4.72369 23.1201 6.10991C23.1201 6.17713 23.1201 6.24617 23.1328 6.29159V6.35518V6.35881C23.1328 6.93292 23.0383 7.76865 22.4061 8.42088C22.1713 8.67044 21.8877 8.86917 21.5731 9.0048C21.2584 9.14042 20.9192 9.21005 20.5766 9.20938ZM20.5002 4.13504C20.1133 4.12641 19.7328 4.2349 19.4086 4.44628C19.0844 4.65766 18.8316 4.96207 18.6834 5.3196C18.449 5.90316 18.4101 6.54703 18.5726 7.15457C18.767 7.92126 19.2303 8.40453 19.9534 8.58803C20.3153 8.69992 20.7014 8.70817 21.0678 8.61183C21.4342 8.5155 21.7663 8.31843 22.0264 8.04299C22.4133 7.64874 22.5932 7.13459 22.6059 6.36426V6.32429C22.6059 6.26979 22.6059 6.19893 22.5932 6.12989C22.5278 5.00529 21.8665 4.2822 20.7637 4.14413C20.6761 4.13608 20.5882 4.13305 20.5002 4.13504Z" fill="#003BB3"/>
    <path d="M31.4907 6.40971C31.4907 5.48859 31.7487 4.66739 32.4336 4.01697C32.9643 3.51365 33.6627 3.22494 34.3939 3.20668C35.5004 3.15763 36.4469 3.49918 37.1191 4.41304C37.4701 4.89683 37.6716 5.47288 37.6987 6.06996C37.7725 6.75942 37.639 7.45523 37.3153 8.06845C36.8121 8.96232 36.029 9.44014 35.0207 9.5764C34.4285 9.66571 33.8231 9.58768 33.273 9.35111C32.1829 8.87148 31.6378 7.99214 31.5016 6.83666C31.4888 6.73673 31.4888 6.63499 31.4834 6.53325C31.4888 6.48965 31.4907 6.44968 31.4907 6.40971ZM36.9284 6.35884C36.9284 6.30433 36.9175 6.21167 36.912 6.1172C36.8393 4.87269 36.0817 4.03514 34.8481 3.88253C34.3621 3.80997 33.8659 3.90175 33.438 4.14334C33.0101 4.38492 32.6752 4.76246 32.4863 5.21607C32.2287 5.85109 32.1859 6.55296 32.3646 7.21455C32.5753 8.0521 33.0913 8.62621 33.9361 8.84968C34.8172 9.07314 35.6166 8.89691 36.267 8.23741C36.7703 7.73052 36.9193 7.08556 36.9284 6.35884Z" fill="#003BB3"/>
    <path d="M34.5413 9.87433C34.0706 9.87644 33.6047 9.78053 33.1732 9.59272C32.0486 9.10037 31.3982 8.18288 31.2419 6.86752C31.231 6.78394 31.2292 6.70219 31.2256 6.62225C31.2256 6.59681 31.2256 6.57138 31.2256 6.54594C31.2256 6.52051 31.2256 6.4769 31.2256 6.44783V6.41332C31.2256 5.32323 31.5599 4.48387 32.2521 3.82618C32.8295 3.27731 33.5904 2.96262 34.3868 2.94322C35.6586 2.88508 36.656 3.32656 37.3464 4.25677C37.7274 4.78218 37.9471 5.40718 37.9787 6.0554C38.0555 6.79566 37.91 7.54203 37.5608 8.19923C37.309 8.65344 36.9505 9.03961 36.5163 9.32446C36.082 9.60932 35.585 9.78431 35.0681 9.83436C34.8936 9.85936 34.7176 9.87271 34.5413 9.87433ZM34.6067 3.47191C34.5413 3.47191 34.474 3.47191 34.4068 3.47191C33.7403 3.48706 33.1032 3.74929 32.6191 4.20771C32.0395 4.75275 31.7597 5.47948 31.7597 6.40423V6.4442C31.7597 6.46782 31.7597 6.48962 31.7597 6.51324C31.7597 6.53686 31.7597 6.56774 31.7597 6.595C31.7597 6.66585 31.7597 6.73307 31.7706 6.79484C31.9069 7.92671 32.4338 8.67887 33.3858 9.09492C33.8903 9.31138 34.4454 9.38249 34.9882 9.30022C35.9529 9.17123 36.6378 8.72066 37.0848 7.92671C37.3847 7.36136 37.5069 6.71863 37.4354 6.08266C37.4129 5.53726 37.2296 5.01071 36.9086 4.56926C36.3617 3.83345 35.6095 3.47191 34.6067 3.47191ZM34.6357 9.20938C34.3788 9.20821 34.123 9.17463 33.8745 9.10945C32.9661 8.87509 32.3484 8.24465 32.1067 7.29265C31.9147 6.57416 31.9619 5.81266 32.2412 5.12338C32.4505 4.61375 32.8242 4.18872 33.3029 3.91582C33.7815 3.64293 34.3376 3.53784 34.8828 3.61725C36.24 3.78621 37.0993 4.71642 37.1811 6.10264C37.1811 6.16805 37.1811 6.23527 37.1938 6.28432V6.35154V6.35881C37.1938 6.93292 37.1011 7.76865 36.4671 8.42088C36.2319 8.67049 35.9481 8.86924 35.6331 9.00486C35.3181 9.14048 34.9787 9.21008 34.6357 9.20938ZM34.5594 4.13504C34.1724 4.12591 33.7917 4.23419 33.4674 4.44564C33.1431 4.65708 32.8904 4.96177 32.7426 5.3196C32.5063 5.90275 32.4674 6.54722 32.6318 7.15457C32.8244 7.92126 33.2895 8.40453 34.0107 8.58803C34.3727 8.69992 34.7588 8.70817 35.1251 8.61183C35.4915 8.5155 35.8236 8.31843 36.0837 8.04299C36.4725 7.64874 36.6506 7.13459 36.6633 6.36244V6.31884C36.6633 6.26615 36.6542 6.19711 36.6506 6.13716C36.5833 5.01256 35.9238 4.28947 34.821 4.15139C34.7342 4.1411 34.6469 4.13564 34.5594 4.13504Z" fill="#003BB3"/>
    <path d="M38.7215 3.94067H37.8604V3.29752H38.7179V1.74597H39.49V3.29571H41.2124V3.93522H39.5173C39.5173 4.04968 39.5009 4.13689 39.5009 4.22228C39.5009 5.38867 39.5009 6.55506 39.5009 7.71963C39.5012 7.90798 39.5188 8.09591 39.5536 8.28102C39.5716 8.42053 39.637 8.5496 39.7389 8.64654C39.8408 8.74349 39.973 8.80239 40.1132 8.81334C40.373 8.84605 40.6382 8.84423 40.9017 8.85513C40.9998 8.85513 41.0997 8.85513 41.2105 8.85513V9.47284C41.1586 9.48502 41.1057 9.49292 41.0525 9.49646C40.7491 9.49646 40.4439 9.49646 40.1441 9.49646C39.2502 9.46013 38.7433 8.95142 38.7324 8.06119C38.7161 6.78942 38.7324 5.52856 38.7233 4.26043L38.7215 3.94067Z" fill="#003BB3"/>
    <path d="M40.5873 9.76897C40.4365 9.76897 40.2839 9.76897 40.1313 9.76897C39.083 9.72718 38.4743 9.10765 38.4616 8.06844C38.4507 7.1782 38.4507 6.27343 38.4616 5.39773C38.4616 5.01984 38.4616 4.64194 38.4616 4.26405V4.21681H37.5986V3.03588H38.4562V1.47707H39.7661V3.0268H41.4884V4.20409H39.7697V4.64012C39.7697 5.65027 39.7697 6.69311 39.7697 7.72869C39.7714 7.90056 39.7878 8.07197 39.8188 8.24103C39.8303 8.32188 39.8699 8.39608 39.9307 8.45058C39.9915 8.50508 40.0696 8.53638 40.1512 8.53899C40.3329 8.56261 40.5146 8.56624 40.6963 8.57351H40.9107C40.9706 8.57351 41.0342 8.57351 41.1033 8.57351H41.4775V9.70174L41.2522 9.7399H41.2104C41.1586 9.75218 41.1056 9.75888 41.0524 9.75988H40.5873V9.76897ZM38.1291 3.67177H38.9903V5.39228C38.9903 6.26435 38.9903 7.1673 38.9903 8.05572C38.9994 8.80061 39.3864 9.19486 40.144 9.22392C40.3729 9.22392 40.6091 9.22392 40.8362 9.22392H40.9361V9.12037H40.8834H40.6745C40.4729 9.11823 40.2716 9.1055 40.0713 9.08221C39.8745 9.06461 39.6895 8.98114 39.5461 8.8453C39.4026 8.70946 39.3092 8.5292 39.281 8.33369C39.2498 8.13118 39.237 7.92625 39.2428 7.72143C39.2428 6.69493 39.2428 5.65027 39.2428 4.63286V4.21499C39.2428 4.14777 39.2428 4.08237 39.2537 4.01333C39.2537 3.98244 39.2537 3.94792 39.2537 3.91159L39.2701 3.66087H40.947V3.55731H39.2247V2.01302H38.9885V3.56639H38.1328L38.1291 3.67177Z" fill="#003BB3"/>
    <path d="M11.0406 6.12633C10.9684 6.2449 10.9218 6.37733 10.904 6.51503C10.8861 6.65273 10.8974 6.79265 10.9371 6.92572C10.9928 7.10387 10.9883 7.2954 10.9243 7.47076C10.8507 7.64985 10.7239 7.80204 10.561 7.9068C10.4363 7.98326 10.333 8.08996 10.2606 8.217C10.1882 8.34404 10.149 8.48731 10.1467 8.63352C10.1355 8.82709 10.0609 9.01158 9.93451 9.15864C9.80813 9.3057 9.63695 9.40717 9.44728 9.44745C9.30562 9.48028 9.17407 9.54705 9.06393 9.64199C8.9538 9.73694 8.86838 9.85722 8.81503 9.99249C8.73206 10.1773 8.5928 10.3312 8.41715 10.4322C8.2368 10.5281 8.03109 10.5655 7.82851 10.5393C7.71186 10.5198 7.59223 10.5281 7.47947 10.5638C7.3667 10.5995 7.26403 10.6615 7.17991 10.7446C7.08744 10.8459 6.97532 10.9273 6.85038 10.9838C6.72544 11.0404 6.5903 11.0709 6.45318 11.0735C6.34994 11.0728 6.24728 11.0581 6.14796 11.0299C5.79725 10.9328 5.42676 10.9328 5.07605 11.0299C4.98869 11.0518 4.89905 11.0634 4.80898 11.0644C4.67225 11.0636 4.53717 11.0346 4.41214 10.9793C4.28711 10.9239 4.17481 10.8435 4.08225 10.7428C4.00216 10.6594 3.90272 10.597 3.79276 10.5612C3.68279 10.5254 3.56568 10.5173 3.45182 10.5375C3.23904 10.5648 3.023 10.5268 2.83229 10.4285C2.6488 10.3258 2.50348 10.1665 2.41806 9.97432C2.36266 9.84419 2.27763 9.7288 2.16976 9.63733C2.06189 9.54586 1.93415 9.48084 1.79671 9.44745C1.60434 9.4018 1.43211 9.29464 1.30617 9.14222C1.18272 8.97992 1.11059 8.78442 1.09906 8.58083C1.09411 8.45703 1.06013 8.33612 0.999853 8.22788C0.939575 8.11963 0.854689 8.02707 0.752049 7.95767C0.568876 7.83958 0.42771 7.66662 0.348718 7.4635C0.276713 7.25607 0.270369 7.0315 0.33055 6.82035C0.364594 6.6978 0.368834 6.56888 0.342919 6.44436C0.317003 6.31984 0.261682 6.20332 0.181572 6.10453C0.0871174 5.98944 0.0262775 5.8505 0.00576042 5.70303C-0.0147567 5.55557 0.00584592 5.4053 0.0652967 5.2688C0.246848 4.85704 0.328403 4.40818 0.303298 3.95888C0.292901 3.80396 0.324758 3.64913 0.395472 3.5109C0.466186 3.37267 0.573102 3.25624 0.704812 3.17402C0.823013 3.09668 0.920977 2.99216 0.990514 2.8692C1.06005 2.74625 1.09914 2.60843 1.10451 2.46728C1.11485 2.27289 1.18603 2.08668 1.30799 1.93496C1.43559 1.78555 1.60737 1.68057 1.79853 1.63518C1.93952 1.60552 2.07121 1.54208 2.18229 1.45031C2.29336 1.35854 2.3805 1.24118 2.43623 1.10831C2.50624 0.925278 2.63503 0.770667 2.80239 0.668734C2.96976 0.566801 3.16623 0.523316 3.36098 0.545101C3.71344 0.574169 3.92601 0.508765 4.11859 0.307099C4.25641 0.158271 4.43756 0.0565742 4.63638 0.0164102C4.83745 -0.0163614 5.04374 0.0161095 5.22502 0.109067C5.35039 0.170107 5.48801 0.201827 5.62745 0.201827C5.76689 0.201827 5.9045 0.170107 6.02987 0.109067C6.21122 0.0086918 6.42205 -0.0248299 6.62559 0.0143502C6.82912 0.0535302 7.01244 0.162925 7.14357 0.32345C7.22349 0.410698 7.32295 0.477758 7.4338 0.519129C7.54465 0.5605 7.66373 0.575004 7.78127 0.561452C8.00628 0.532452 8.23468 0.575715 8.4335 0.684995C8.62655 0.803741 8.77624 0.981467 8.86045 1.19188C8.9047 1.29762 8.97393 1.39104 9.06222 1.46414C9.1505 1.53724 9.25521 1.58783 9.36734 1.61157C9.58709 1.65779 9.78633 1.773 9.936 1.94041C10.0765 2.11042 10.1553 2.32305 10.1595 2.54359C10.1898 2.78556 10.3137 3.00602 10.5047 3.15767C10.6392 3.29524 10.7608 3.44485 10.868 3.6046L10.9389 3.70271C10.9724 3.75642 10.9932 3.81714 10.9995 3.88015C11.0058 3.94316 10.9975 4.00678 10.9752 4.06607C10.9161 4.21301 10.8924 4.37179 10.906 4.52959C10.9195 4.68739 10.97 4.83978 11.0533 4.97447C11.159 5.1485 11.2138 5.34864 11.2116 5.55222C11.2093 5.75579 11.1501 5.95467 11.0406 6.12633Z" fill="#003BB3"/>
    <path d="M11.0497 4.97658C10.9664 4.84189 10.9159 4.68949 10.9023 4.53169C10.8888 4.37389 10.9125 4.21512 10.9716 4.06818C10.9938 4.00889 11.0021 3.94527 10.9958 3.88225C10.9895 3.81924 10.9688 3.75853 10.9352 3.70481L10.8644 3.60671C10.7572 3.44695 10.6355 3.29735 10.501 3.15977C10.311 3.00705 10.1884 2.78595 10.1595 2.54388C10.1549 2.32396 10.0761 2.11205 9.936 1.94251C9.78633 1.77511 9.58709 1.65989 9.36734 1.61367C9.25521 1.58993 9.1505 1.53935 9.06222 1.46625C8.97393 1.39315 8.9047 1.29973 8.86045 1.19399C8.77624 0.983573 8.62654 0.805848 8.4335 0.687102C8.23468 0.577822 8.00628 0.534559 7.78127 0.563559C7.66373 0.577111 7.54465 0.562607 7.4338 0.521236C7.32295 0.479865 7.22349 0.412805 7.14357 0.325557C7.01269 0.164733 6.82948 0.0549835 6.62593 0.0154687C6.42238 -0.024046 6.21142 0.00918386 6.02987 0.109357C5.9045 0.170397 5.76689 0.202117 5.62745 0.202117C5.48801 0.202117 5.35039 0.170397 5.22502 0.109357C5.04374 0.0163996 4.83745 -0.0160712 4.63638 0.0167004C4.43665 0.0588499 4.25539 0.163152 4.11859 0.314656C3.92601 0.516322 3.71344 0.581727 3.36098 0.545391C3.16645 0.523481 2.97015 0.566703 2.80281 0.66829C2.63547 0.769876 2.50655 0.92409 2.43623 1.10678C2.38074 1.23999 2.29371 1.35772 2.18262 1.44982C2.07153 1.54192 1.93971 1.60563 1.79853 1.63547C1.60807 1.67939 1.43637 1.78241 1.30799 1.9298C1.18603 2.08152 1.11485 2.26773 1.10451 2.46212C1.09914 2.60327 1.06005 2.74109 0.990514 2.86404C0.920977 2.987 0.823013 3.09152 0.704812 3.16886C0.573102 3.25108 0.466186 3.36751 0.395472 3.50574C0.324758 3.64397 0.292901 3.7988 0.303298 3.95372C0.329272 4.40484 0.247699 4.85567 0.0652967 5.26908C0.00584592 5.40559 -0.0147567 5.55586 0.00576042 5.70332C0.0262775 5.85079 0.0871174 5.98973 0.181572 6.10482C0.260752 6.20409 0.315083 6.32083 0.340047 6.44534C0.365012 6.56985 0.359887 6.69851 0.3251 6.82064C0.264919 7.03179 0.271262 7.25636 0.343268 7.46379C0.423694 7.66768 0.566846 7.84073 0.752049 7.95796C0.855173 8.02772 0.940357 8.12085 1.00066 8.22978C1.06096 8.3387 1.09468 8.46033 1.09906 8.58475C1.11059 8.78835 1.18272 8.98385 1.30617 9.14615C1.43265 9.29721 1.60482 9.40306 1.79671 9.44774C1.93456 9.47917 2.06317 9.54235 2.1723 9.63224C2.28143 9.72213 2.36807 9.83625 2.42533 9.96553C2.51074 10.1577 2.65606 10.317 2.83956 10.4197C3.02717 10.5196 3.24051 10.5608 3.45182 10.5378C3.56544 10.5194 3.68184 10.5291 3.79081 10.5662C3.89978 10.6033 3.99799 10.6665 4.0768 10.7504C4.16936 10.851 4.28166 10.9315 4.40669 10.9868C4.53172 11.0422 4.6668 11.0711 4.80352 11.072C4.8936 11.071 4.98324 11.0594 5.0706 11.0374C5.42131 10.9404 5.7918 10.9404 6.14251 11.0374C6.24182 11.0657 6.34449 11.0803 6.44773 11.081C6.58485 11.0784 6.71999 11.0479 6.84493 10.9914C6.96987 10.9349 7.08199 10.8535 7.17446 10.7522C7.25828 10.6666 7.36147 10.6025 7.47531 10.5652C7.58914 10.5278 7.71028 10.5185 7.82851 10.5378C8.03109 10.564 8.2368 10.5265 8.41715 10.4306C8.59252 10.3301 8.73174 10.1769 8.81503 9.99278C8.86838 9.85751 8.9538 9.73722 9.06393 9.64228C9.17407 9.54734 9.30562 9.48057 9.44728 9.44774C9.63656 9.40667 9.80714 9.30463 9.93284 9.15727C10.0585 9.00991 10.1324 8.82538 10.1431 8.63199C10.1454 8.48578 10.1846 8.34251 10.257 8.21547C10.3294 8.08843 10.4327 7.98173 10.5573 7.90527C10.7202 7.80052 10.847 7.64833 10.9207 7.46924C10.9847 7.29388 10.9891 7.10235 10.9334 6.92419C10.8938 6.79112 10.8825 6.65121 10.9003 6.5135C10.9182 6.3758 10.9647 6.24338 11.037 6.1248C11.1457 5.95355 11.2045 5.75535 11.2068 5.5525C11.209 5.34965 11.1546 5.1502 11.0497 4.97658ZM10.8826 6.03941C10.7984 6.17907 10.7444 6.33479 10.7241 6.49656C10.7038 6.65833 10.7175 6.82256 10.7645 6.9787C10.8119 7.12439 10.8074 7.282 10.7517 7.42475C10.6961 7.56749 10.5927 7.68657 10.4592 7.76174C10.3123 7.85444 10.1905 7.9821 10.1049 8.13333C10.0193 8.28455 9.97253 8.45463 9.9687 8.62836C9.95918 8.78318 9.89938 8.93066 9.79838 9.04839C9.69738 9.16611 9.5607 9.24764 9.40913 9.28059C9.24203 9.31659 9.08608 9.39237 8.95451 9.50148C8.82294 9.6106 8.71963 9.74984 8.65334 9.90739C8.58917 10.0622 8.47457 10.1908 8.32814 10.2722C8.1817 10.3537 8.01203 10.3833 7.84667 10.3561C7.70309 10.3334 7.55617 10.345 7.41789 10.3898C7.2796 10.4346 7.15386 10.5115 7.05091 10.6141C6.94637 10.7331 6.80937 10.819 6.65673 10.8613C6.50409 10.9036 6.34243 10.9004 6.19156 10.8521C6.01406 10.8029 5.83073 10.7779 5.64652 10.7776C5.43802 10.779 5.2305 10.8065 5.02881 10.8594C4.95652 10.8788 4.882 10.8885 4.80716 10.8885C4.69572 10.8876 4.58567 10.8636 4.48402 10.818C4.38236 10.7723 4.29132 10.706 4.2167 10.6232C4.11847 10.5195 3.99663 10.441 3.86156 10.3945C3.72649 10.348 3.58218 10.3349 3.44092 10.3561C3.26748 10.3858 3.08911 10.3564 2.93432 10.2728C2.77952 10.1891 2.65724 10.056 2.58702 9.89467C2.51952 9.74101 2.417 9.60528 2.28766 9.49834C2.15831 9.39139 2.00574 9.3162 1.84213 9.27877C1.68061 9.24321 1.53604 9.15362 1.43232 9.02479C1.3286 8.89597 1.27192 8.73561 1.27166 8.57022C1.26608 8.42006 1.22537 8.27331 1.1528 8.14174C1.08023 8.01016 0.977816 7.89744 0.85379 7.81261C0.696959 7.71774 0.577018 7.5724 0.513638 7.40041C0.450257 7.22843 0.447198 7.04001 0.504964 6.86606C0.545625 6.71726 0.550358 6.56093 0.518771 6.40995C0.487185 6.25896 0.420182 6.11764 0.323283 5.99762C0.248103 5.90724 0.199056 5.79803 0.181445 5.68179C0.163833 5.56556 0.178327 5.44672 0.223359 5.33812C0.41705 4.90157 0.503633 4.42505 0.475895 3.94827C0.468356 3.82485 0.494455 3.70171 0.551408 3.59196C0.608361 3.48221 0.694032 3.38998 0.799286 3.3251C0.939803 3.2327 1.05639 3.10826 1.13945 2.96203C1.22252 2.8158 1.26969 2.65194 1.27711 2.48392C1.27999 2.3244 1.33804 2.1708 1.44138 2.04925C1.54472 1.92769 1.68697 1.84568 1.84395 1.81715C2.01129 1.78111 2.16743 1.70512 2.29904 1.59566C2.43065 1.4862 2.53382 1.34652 2.59974 1.18854C2.65482 1.04044 2.75747 0.914799 2.89161 0.831291C3.02575 0.747783 3.18379 0.71113 3.341 0.727071C3.50479 0.757284 3.67353 0.746376 3.83207 0.695325C3.99061 0.644275 4.13401 0.554677 4.2494 0.434566C4.35747 0.307895 4.50576 0.222177 4.66946 0.191751C4.83317 0.161326 5.00235 0.188038 5.14872 0.26742C5.29708 0.340505 5.46025 0.378516 5.62563 0.378516C5.79101 0.378516 5.95418 0.340505 6.10254 0.26742C6.25074 0.184387 6.42374 0.157062 6.59032 0.190378C6.7569 0.223693 6.90608 0.315454 7.01094 0.4491C7.10915 0.55615 7.23129 0.638454 7.36737 0.68929C7.50346 0.740126 7.64965 0.758052 7.79399 0.741606C7.98276 0.708226 8.17725 0.743321 8.34245 0.840576C8.50765 0.93783 8.63271 1.09086 8.69512 1.27211C8.75021 1.40352 8.83635 1.51961 8.94615 1.61043C9.05595 1.70124 9.18614 1.76407 9.32555 1.79354C9.50785 1.82287 9.67376 1.91612 9.79359 2.05659C9.91342 2.19706 9.97936 2.37559 9.9796 2.56023C10.0119 2.84567 10.1555 3.10684 10.3793 3.28695C10.5044 3.41745 10.6181 3.55847 10.719 3.70845L10.7881 3.80656C10.8046 3.83525 10.8145 3.86728 10.817 3.90029C10.8195 3.9333 10.8146 3.96646 10.8026 3.99732C10.7332 4.17074 10.7058 4.35815 10.7229 4.54418C10.74 4.7302 10.8009 4.90952 10.9007 5.06742C10.9901 5.21451 11.0358 5.38397 11.0326 5.55605C11.0294 5.72813 10.9774 5.89576 10.8826 6.03941Z" fill="#003BB3"/>
    <path d="M4.00586 6.14625L4.24386 5.92097L4.76892 6.46601L6.36952 4.22771L6.64568 4.42756L4.82887 6.97108L4.00586 6.14625Z" fill="white"/>
    <path d="M5.5996 9.54549H5.51058V9.15306H5.75948L5.7722 9.54549H5.59052H5.5996ZM5.5778 9.48008H5.70861L5.69953 9.22028H5.58143L5.5778 9.48008ZM5.22352 9.52913H5.19082L4.99097 9.5037H4.95827L5.01823 9.1149H5.05093L5.23261 9.13852H5.26531L5.22352 9.52913ZM5.04184 9.43829C5.08363 9.43829 5.12723 9.45101 5.17084 9.45465L5.19809 9.19666L5.08 9.18212L5.04184 9.43829ZM6.07197 9.52005L6.02292 9.12944H6.05744L6.23912 9.10218H6.27182L6.34086 9.48916H6.30816C6.24275 9.50006 6.17553 9.51097 6.11013 9.51823L6.07197 9.52005ZM6.09741 9.18757L6.12284 9.44738L6.25184 9.42739L6.20823 9.17122L6.09741 9.18757ZM4.67485 9.44738H4.64215C4.57856 9.43103 4.51315 9.41286 4.44956 9.39287H4.41686L4.5295 9.01679H4.56221L4.74389 9.06585H4.77659L4.67485 9.44738ZM4.49317 9.3311L4.61853 9.36744L4.68212 9.1149L4.57492 9.08402L4.49317 9.3311ZM6.6043 9.42558L6.50074 9.04586H6.53344L6.71512 8.99318L6.74782 8.98228L6.86955 9.35654L6.83866 9.36744C6.77508 9.38742 6.70967 9.40741 6.64427 9.42376L6.6043 9.42558ZM6.58976 9.08402L6.6588 9.33474L6.78416 9.29658L6.7024 9.05131L6.58976 9.08402ZM4.14434 9.2657H4.11346L3.93178 9.18576L3.90089 9.17122L4.06622 8.80786L4.09529 8.82058C4.15161 8.84783 4.20793 8.87145 4.26243 8.89325L4.29332 8.90597L4.14434 9.2657ZM3.99718 9.13307L4.11709 9.18576L4.21338 8.94412L4.0971 8.90234L3.99718 9.13307ZM7.1457 9.23844L6.99128 8.87508L7.02216 8.86237L7.18567 8.78788L7.21656 8.77334L7.38916 9.1258L7.36009 9.14034C7.30013 9.16941 7.23836 9.19848 7.17841 9.22391L7.1457 9.23844ZM7.07848 8.91324L7.18204 9.15124L7.30013 9.09673L7.18567 8.86418L7.07848 8.91324ZM3.65199 9.03315L3.62292 9.01679C3.56478 8.98409 3.50846 8.94776 3.45214 8.91142L3.42307 8.89325L3.63382 8.56441L3.66289 8.58258L3.81732 8.67705L3.84639 8.6934L3.65199 9.03315ZM3.51573 8.87327L3.62837 8.94231L3.74828 8.72066L3.64654 8.65888L3.51573 8.87327ZM7.63079 8.98954L7.42731 8.65343L7.45638 8.63527L7.60899 8.53897L7.63624 8.51899L7.85608 8.8442L7.82882 8.86418L7.65986 8.97137L7.63079 8.98954ZM7.51997 8.67524L7.65623 8.90234C7.69256 8.88053 7.7289 8.85692 7.76523 8.83148L7.61989 8.6171L7.51997 8.67524ZM3.17962 8.72066L3.15237 8.69885C3.09968 8.65888 3.04881 8.61528 2.99794 8.57168L2.9725 8.54988L3.22867 8.25192L3.25411 8.27372C3.29953 8.31369 3.34676 8.35184 3.394 8.39L3.42125 8.40998L3.17962 8.72066ZM3.06698 8.53897C3.09968 8.56804 3.1342 8.5953 3.16872 8.62255L3.32678 8.41725L3.23594 8.34276L3.06698 8.53897ZM8.08863 8.66252L7.84154 8.35729H7.86698C7.91421 8.31914 7.95963 8.27917 8.00505 8.2392L8.02867 8.21558L8.29211 8.50809L8.26849 8.52989C8.21762 8.57592 8.16675 8.61952 8.11588 8.6607L8.08863 8.66252ZM7.9342 8.36638L8.09953 8.56804L8.19763 8.48265L8.02504 8.29007C7.99415 8.32641 7.96508 8.35729 7.9342 8.37728V8.36638ZM2.76357 8.35729L2.73995 8.33368C2.69271 8.28644 2.64729 8.23557 2.60369 8.18651L2.58189 8.16108L2.87621 7.90128L2.89801 7.92671C2.93798 7.97213 2.97977 8.01755 3.02156 8.06115L3.04517 8.08477L2.76357 8.35729ZM2.67636 8.17561L2.76357 8.2719L2.94525 8.09022L2.87076 7.99393L2.67636 8.17561ZM8.49014 8.30461L8.20308 8.03572L8.22489 8.0121C8.26607 7.9685 8.30604 7.92308 8.3448 7.87584L8.3666 7.85041L8.66819 8.10294L8.64639 8.12838C8.60278 8.18106 8.55736 8.23012 8.51376 8.27917L8.49014 8.30461ZM8.29574 8.03209L8.47742 8.21377L8.56463 8.11566L8.36478 7.94851C8.35751 7.96668 8.33026 7.99393 8.30301 8.02482L8.29574 8.03209ZM2.39476 7.94488L2.37477 7.91944C2.3348 7.86494 2.29665 7.80862 2.26031 7.75412L2.24215 7.72505L2.56917 7.51066L2.58916 7.53792C2.62004 7.58697 2.65456 7.63784 2.6909 7.68689L2.71088 7.71415L2.39476 7.94488ZM2.3348 7.74503C2.35842 7.78137 2.38386 7.8177 2.40929 7.85222L2.61822 7.69961L2.551 7.6015L2.3348 7.74503ZM8.8426 7.87402L8.52103 7.64874L8.53919 7.62149C8.57371 7.57243 8.60823 7.52156 8.63912 7.47069L8.65729 7.44344L8.98976 7.65056L8.97341 7.67963C8.93707 7.73595 8.90074 7.79227 8.86259 7.84677L8.8426 7.87402ZM8.62095 7.63057L8.83352 7.77955C8.85895 7.74321 8.88257 7.70688 8.90619 7.67054L8.68636 7.53246L8.62095 7.63057ZM2.10225 7.47614L2.0859 7.44889C2.05502 7.39075 2.02413 7.3308 1.99506 7.26721L1.98053 7.23814L2.34389 7.06918L2.35842 7.10007C2.38386 7.15275 2.41111 7.20726 2.44018 7.26176L2.45471 7.29083L2.10225 7.47614ZM2.06955 7.26721L2.1295 7.38349L2.36206 7.26721L2.30755 7.16184L2.06955 7.26721ZM9.13874 7.3962L8.78991 7.21452L8.80445 7.18545C8.8317 7.13095 8.85713 7.07645 8.88257 7.02194L8.89529 6.99106L9.25865 7.15094L9.24411 7.18182C9.21868 7.24178 9.18961 7.30355 9.15872 7.3635L9.13874 7.3962ZM8.87894 7.18909L9.10967 7.30718C9.12966 7.26721 9.14782 7.22724 9.16599 7.18909L8.92981 7.08553C8.91346 7.1146 8.90255 7.15094 8.87894 7.18545V7.18909ZM1.8697 6.96562L1.8588 6.93474C1.83458 6.87054 1.81277 6.80695 1.7934 6.74397V6.71309L2.16766 6.59681L2.17856 6.6277C2.19673 6.68583 2.21489 6.74397 2.2367 6.80938L2.2476 6.84026L1.8697 6.96562ZM1.8697 6.75669C1.88242 6.79847 1.89695 6.84026 1.91149 6.88023L2.15494 6.79121L2.11679 6.68038L1.8697 6.75669ZM9.36221 6.88205L8.98976 6.75487L9.00066 6.72399C9.02065 6.66767 9.03882 6.60953 9.05517 6.55139L9.06425 6.51869L9.44215 6.6277L9.43306 6.65858C9.41489 6.72399 9.39491 6.78757 9.37311 6.85116L9.36221 6.88205ZM9.07333 6.72217L9.3186 6.80756C9.33132 6.76577 9.34586 6.72399 9.35676 6.6822L9.10785 6.61134C9.09695 6.6386 9.08424 6.67675 9.07333 6.72217ZM1.71164 6.4333V6.40059C1.6971 6.33701 1.68439 6.26978 1.67349 6.20438V6.17168L2.06228 6.10809V6.14079C2.06228 6.20075 2.08227 6.2607 2.09498 6.32247V6.35517L1.71164 6.4333ZM1.73889 6.22618C1.73889 6.26978 1.75343 6.31157 1.76251 6.35517L2.01686 6.30067C2.01686 6.26252 2.00051 6.22255 1.99506 6.1844L1.73889 6.22618ZM9.50755 6.34609L9.12057 6.27342V6.24072C9.13147 6.18258 9.14056 6.12262 9.14964 6.05904V6.02633L9.54025 6.08084V6.11354C9.54025 6.17894 9.52027 6.24617 9.50755 6.31157V6.34609ZM9.19869 6.22073L9.45305 6.26797C9.45305 6.22618 9.4694 6.18258 9.47485 6.13898L9.21868 6.10446C9.21323 6.14261 9.20596 6.17713 9.19869 6.22073ZM1.63533 5.88462V5.85192C1.63533 5.7847 1.63533 5.71748 1.63533 5.65025V5.61755L2.02776 5.60847V5.64299C2.02776 5.70294 2.02776 5.7629 2.02776 5.82467V5.85919L1.63533 5.88462ZM1.69165 5.68296V5.81377L1.95146 5.7956C1.95146 5.75563 1.95146 5.71566 1.95146 5.67751L1.69165 5.68296ZM9.58386 5.7956L9.19143 5.77561V5.74291C9.19143 5.68296 9.19143 5.623 9.19143 5.56123V5.50673H9.58386V5.56305C9.58386 5.63027 9.58386 5.69931 9.58386 5.76471V5.7956ZM9.26228 5.71384L9.52027 5.72656C9.52027 5.67569 9.52027 5.623 9.52027 5.57213H9.26592C9.26592 5.61937 9.26592 5.66661 9.25501 5.71384H9.26228ZM2.0205 5.35048L1.62988 5.32505V5.29053C1.62988 5.22512 1.64078 5.1579 1.64805 5.09068V5.05798L2.03866 5.1034V5.1361C2.03866 5.19605 2.02595 5.25782 2.02231 5.31778L2.0205 5.35048ZM1.69347 5.26872L1.95146 5.28689L1.96236 5.1688L1.70437 5.13973L1.69347 5.26872ZM9.17871 5.25601V5.2233C9.17871 5.16335 9.16599 5.10158 9.15691 5.04162V5.00711L9.5457 4.95078V4.98349C9.5566 5.05071 9.56387 5.11793 9.56932 5.18334V5.21785L9.17871 5.25601ZM9.22413 5.06524C9.22413 5.10521 9.23503 5.14337 9.23866 5.18334L9.49665 5.1579C9.49665 5.11611 9.48757 5.07251 9.4803 5.02891L9.22413 5.06524ZM2.07682 4.85994L1.69165 4.77819V4.74549C1.70619 4.6819 1.72072 4.61467 1.73707 4.55109L1.74616 4.51838L2.12587 4.61831V4.64919C2.10952 4.70733 2.0968 4.76729 2.08408 4.83087L2.07682 4.85994ZM1.77159 4.72368L2.02595 4.77637C2.02595 4.73822 2.0423 4.70006 2.05138 4.66191L1.80066 4.59651C1.78976 4.64193 1.78068 4.68553 1.77159 4.72368ZM9.10059 4.75639V4.72368C9.08787 4.66555 9.07152 4.60559 9.05517 4.542L9.04427 4.51112L9.42216 4.40029V4.43299C9.44215 4.4984 9.4585 4.5638 9.47485 4.62739V4.6601L9.10059 4.75639ZM9.12057 4.56199C9.13147 4.60014 9.14056 4.63829 9.15146 4.67463L9.40218 4.61468C9.3937 4.57349 9.3828 4.53171 9.36947 4.48932L9.12057 4.56199ZM2.20763 4.38031L1.84427 4.24586L1.85517 4.21498C1.87879 4.15321 1.9024 4.08962 1.92784 4.0333L1.94237 4.00241L2.30573 4.15321L2.29302 4.18409C2.2694 4.24041 2.2476 4.29673 2.22761 4.35487L2.20763 4.38031ZM1.92421 4.19863L2.16766 4.28765L2.21126 4.17683L1.97144 4.0769C1.95509 4.1205 1.93874 4.16229 1.92421 4.20226V4.19863ZM8.95524 4.27675L8.94434 4.24586C8.92254 4.18954 8.89892 4.13322 8.87349 4.07872L8.85895 4.04965L9.22231 3.88614L9.23685 3.91702C9.2641 3.97879 9.29135 4.04056 9.31497 4.0987L9.32769 4.12959L8.95524 4.27675ZM8.95524 4.08235C8.97159 4.11869 8.98613 4.15321 9.00066 4.18954L9.2423 4.09507C9.22595 4.0551 9.20959 4.01513 9.19143 3.97516L8.95524 4.08235ZM2.41474 3.91339L2.06773 3.73171L2.08408 3.70264C2.11497 3.64268 2.14949 3.58455 2.18219 3.52096L2.20036 3.49189L2.53647 3.69174L2.52012 3.72081C2.48923 3.77349 2.46016 3.82618 2.43109 3.87887L2.41474 3.91339ZM2.15857 3.70082L2.38749 3.82255L2.44563 3.71899L2.22216 3.58636L2.15857 3.70082ZM8.75358 3.82255L8.72087 3.79711C8.69181 3.74624 8.66092 3.69355 8.62822 3.64268L8.61005 3.61362L8.94252 3.40468L8.96069 3.43193C8.99703 3.48826 9.03155 3.54639 9.06425 3.60453L9.08424 3.6336L8.75358 3.82255ZM8.71906 3.64087C8.73904 3.67357 8.76084 3.70809 8.77901 3.74079L9.00611 3.61362L8.93889 3.50279L8.71906 3.64087ZM2.66728 3.48826L2.34752 3.25752L2.36751 3.23027C2.40748 3.17758 2.44745 3.12308 2.48923 3.07039L2.51103 3.04496L2.81807 3.29022L2.79627 3.31748C2.75812 3.3629 2.72178 3.41195 2.68726 3.461L2.66728 3.48826ZM2.44199 3.24299L2.65274 3.3956C2.67455 3.3629 2.69998 3.33201 2.7236 3.30112L2.52193 3.13943L2.44199 3.24299ZM8.47379 3.4065L8.4538 3.38106C8.41747 3.33383 8.3775 3.28477 8.33935 3.23935L8.31754 3.21392L8.61732 2.95957L8.63912 2.985C8.68272 3.03587 8.72451 3.08856 8.76448 3.14125L8.78446 3.1685L8.47379 3.4065ZM8.41202 3.22482L8.48469 3.31748L8.69181 3.15941L8.61005 3.05767L8.41202 3.22482ZM2.9834 3.10491L2.69998 2.83239L2.7236 2.80877C2.77084 2.75972 2.81807 2.71248 2.86713 2.66706L2.89075 2.64344L3.15963 2.92868L3.13601 2.9523L3.00702 3.07947L2.9834 3.10491ZM2.80172 2.83057L2.9834 3.01225C3.01065 2.98318 3.03972 2.95593 3.06698 2.92868L2.8853 2.747L2.80172 2.83057ZM8.15221 3.03224L8.1286 3.00862C8.08681 2.96683 8.04321 2.92505 7.99597 2.88508L7.97235 2.86146L8.23397 2.56895L8.25759 2.59075C8.30846 2.63617 8.35751 2.68159 8.40475 2.72883L8.42837 2.75245L8.15221 3.03224ZM8.06682 2.85056L8.15221 2.9305L8.33389 2.74882L8.23942 2.65979L8.06682 2.85056ZM3.35948 2.75608L3.10876 2.45268L3.1342 2.43088C3.18688 2.39091 3.24139 2.34912 3.29589 2.31097L3.32315 2.29098L3.55025 2.61256L3.52299 2.63072L3.37765 2.73973L3.35948 2.75608ZM3.2105 2.45994L3.37038 2.66343L3.46486 2.59257L3.31406 2.38182L3.2105 2.45994ZM7.77614 2.69431L7.74888 2.67433C7.70165 2.63981 7.65078 2.60347 7.59991 2.57077L7.57265 2.5526L7.79067 2.22558L7.81974 2.24374C7.87424 2.28008 7.92875 2.32005 7.98325 2.36002L8.0105 2.38L7.77614 2.69431ZM7.65804 2.54352C7.69075 2.56532 7.72345 2.58712 7.75433 2.61074L7.90876 2.40362C7.87424 2.37637 7.83791 2.35094 7.80157 2.32732L7.65804 2.54352ZM3.76281 2.47993L3.56478 2.14019L3.59385 2.12383C3.65199 2.09113 3.71013 2.05843 3.77553 2.02754L3.8046 2.01119L3.98628 2.36002L3.95539 2.37637L3.79733 2.46358L3.76281 2.47993ZM3.65562 2.16562L3.78643 2.38909L3.88999 2.33277L3.77008 2.10203L3.65562 2.16562ZM7.34919 2.42906L7.32012 2.41452C7.26743 2.38545 7.21293 2.35639 7.15842 2.33095L7.12935 2.31642L7.30013 1.95306L7.3292 1.96759C7.39097 1.99666 7.45153 2.02754 7.51088 2.06025L7.53995 2.0766L7.34919 2.42906ZM7.21838 2.28553C7.2529 2.3037 7.28741 2.32005 7.32193 2.34003L7.44911 2.10567L7.33284 2.04571L7.21838 2.28553ZM4.20975 2.25464L4.06077 1.89128L4.09165 1.87857C4.15343 1.85313 4.2152 1.82951 4.27333 1.80771L4.30604 1.79499L4.43503 2.16744L4.40414 2.17834L4.23518 2.24193L4.20975 2.25464ZM4.14798 1.92762L4.24608 2.16744L4.35691 2.12565L4.2697 1.88038L4.14798 1.92762ZM6.90407 2.21104L6.87137 2.20014C6.81505 2.17834 6.75872 2.15835 6.70059 2.14019L6.66788 2.12929L6.78779 1.75502L6.8205 1.76592C6.88469 1.7853 6.94525 1.80711 7.00218 1.83133L7.03306 1.84405L6.90407 2.21104ZM6.75327 2.08568L6.8641 2.12565L6.95494 1.8822L6.8314 1.84041L6.75327 2.08568ZM4.6912 2.08568L4.58764 1.70779L4.61853 1.6987L4.81474 1.6551H4.84745L4.92557 2.04026H4.89287C4.83291 2.05116 4.77477 2.0657 4.71118 2.08023L4.6912 2.08568ZM4.67485 1.75321L4.7239 2.00756L4.83836 1.98212L4.78931 1.72777C4.75297 1.73504 4.71118 1.74594 4.66758 1.75502L4.67485 1.75321ZM6.42443 2.06206H6.39173C6.33359 2.04935 6.27364 2.03663 6.21005 2.02754H6.17735L6.24093 1.63511H6.27364L6.46985 1.67508H6.50255L6.42443 2.06206ZM6.2591 1.96032L6.37356 1.98212L6.42988 1.72959L6.30271 1.70415L6.2591 1.96032ZM5.17447 1.99848L5.13268 1.60786H5.16539C5.232 1.6006 5.29922 1.59514 5.36705 1.59151H5.39975L5.42156 1.98394H5.38885L5.20717 1.99848H5.17447ZM5.20717 1.66782L5.23442 1.9258L5.35252 1.9149L5.33617 1.65328C5.29256 1.6551 5.24896 1.65873 5.20717 1.66418V1.66782ZM5.92299 1.98757H5.89029C5.83034 1.98757 5.77038 1.97849 5.70861 1.97667H5.67591L5.68681 1.58424H5.72133C5.78673 1.58424 5.85577 1.58424 5.92118 1.59514H5.95388L5.92299 1.98757ZM5.74131 1.90945H5.85759L5.87939 1.65147H5.74858L5.74131 1.90945Z" fill="white"/>
  </g>
  <defs>
    <clipPath id="clip0_355_16452">
      <rect width="48" height="11.0662" fill="white"/>
    </clipPath>
  </defs>
</svg>
