<svg width="37" height="36" viewBox="0 0 37 36" fill="none" xmlns="http://www.w3.org/2000/svg">
<path opacity="0.8" d="M20.7001 35.4001C29.5919 35.4001 36.8001 28.1919 36.8001 19.3001C36.8001 10.4083 29.5919 3.20007 20.7001 3.20007C11.8083 3.20007 4.6001 10.4083 4.6001 19.3001C4.6001 28.1919 11.8083 35.4001 20.7001 35.4001Z" fill="#FFD699"/>
<path d="M16.4103 22.474C16.2955 22.5722 16.1625 22.6467 16.0189 22.6935C15.8753 22.7403 15.7239 22.7583 15.5733 22.7466C15.2692 22.7228 14.987 22.5793 14.7888 22.3475C14.6906 22.2327 14.616 22.0997 14.5692 21.9561C14.5225 21.8125 14.5044 21.6611 14.5162 21.5105C14.5399 21.2064 14.6835 20.9242 14.9153 20.726L22.9653 13.826C23.1971 13.6277 23.4981 13.5297 23.8022 13.5534C24.1063 13.5771 24.3885 13.7207 24.5868 13.9525C24.785 14.1843 24.883 14.4853 24.8593 14.7894C24.8356 15.0935 24.6921 15.3757 24.4603 15.574L16.4103 22.474Z" fill="#FF9900"/>
<path d="M14.5127 7.80002C14.5127 7.49503 14.6339 7.20252 14.8495 6.98685C15.0652 6.77119 15.3577 6.65002 15.6627 6.65002C15.9677 6.65002 16.2602 6.77119 16.4759 6.98685C16.6915 7.20252 16.8127 7.49503 16.8127 7.80002V21.6C16.8127 21.905 16.6915 22.1975 16.4759 22.4132C16.2602 22.6289 15.9677 22.75 15.6627 22.75C15.3577 22.75 15.0652 22.6289 14.8495 22.4132C14.6339 22.1975 14.5127 21.905 14.5127 21.6V7.80002Z" fill="#FF9900"/>
<path fill-rule="evenodd" clip-rule="evenodd" d="M0 17C-3.15053e-08 19.1143 0.416439 21.2079 1.22554 23.1612C2.03464 25.1146 3.22056 26.8894 4.71558 28.3844C6.2106 29.8795 7.98546 31.0654 9.9388 31.8745C11.8921 32.6836 13.9857 33.1 16.1 33.1C18.2143 33.1 20.3079 32.6836 22.2612 31.8745C24.2145 31.0654 25.9894 29.8795 27.4844 28.3844C28.9794 26.8894 30.1654 25.1146 30.9745 23.1612C31.7836 21.2079 32.2 19.1143 32.2 17C32.2 12.73 30.5038 8.63494 27.4844 5.6156C24.4651 2.59627 20.37 0.900024 16.1 0.900024C11.83 0.900024 7.73492 2.59627 4.71558 5.6156C1.69624 8.63494 6.36277e-08 12.73 0 17ZM29.9 17C29.9 20.66 28.4461 24.1701 25.8581 26.7581C23.2701 29.3461 19.76 30.8 16.1 30.8C12.44 30.8 8.92993 29.3461 6.34193 26.7581C3.75392 24.1701 2.3 20.66 2.3 17C2.3 13.34 3.75392 9.82995 6.34193 7.24195C8.92993 4.65395 12.44 3.20002 16.1 3.20002C19.76 3.20002 23.2701 4.65395 25.8581 7.24195C28.4461 9.82995 29.9 13.34 29.9 17Z" fill="#FF9900"/>
</svg>
