<svg width="574" height="554" viewBox="0 0 574 554" fill="none"
  xmlns="http://www.w3.org/2000/svg">
  <path d="M238.28 441.902C239.296 442.029 240.182 441.638 240.258 441.028C240.334 440.419 239.572 439.822 238.556 439.695C237.54 439.568 236.655 439.959 236.579 440.569C236.503 441.178 237.265 441.775 238.28 441.902Z" fill="#16110D"/>
  <path d="M245.177 439.028C246.193 439.155 247.078 438.764 247.154 438.154C247.23 437.545 246.469 436.948 245.453 436.821C244.437 436.694 243.552 437.085 243.475 437.694C243.399 438.304 244.161 438.901 245.177 439.028Z" fill="#16110D"/>
  <path d="M233.634 435.717C234.323 436.177 234.231 436.913 233.45 437.189C232.668 437.465 231.564 437.327 230.875 436.867C230.185 436.407 230.277 435.672 231.058 435.396C231.84 435.12 232.944 435.258 233.634 435.717Z" fill="#16110D"/>
  <path d="M240.739 432.682C241.429 433.142 241.337 433.877 240.555 434.153C239.773 434.429 238.67 434.291 237.98 433.832C237.29 433.372 237.382 432.636 238.164 432.36C238.946 432.084 240.049 432.222 240.739 432.682Z" fill="#16110D"/>
  <path d="M227.679 431.05C228.368 431.51 228.276 432.246 227.495 432.522C226.713 432.797 225.609 432.66 224.919 432.2C224.23 431.74 224.322 431.004 225.103 430.728C225.885 430.452 226.989 430.59 227.679 431.05Z" fill="#16110D"/>
  <path d="M234.577 428.175C235.267 428.635 235.175 429.371 234.393 429.647C233.611 429.923 232.508 429.785 231.818 429.325C231.128 428.865 231.22 428.13 232.002 427.854C232.783 427.578 233.887 427.716 234.577 428.175Z" fill="#16110D"/>
  <path d="M221.516 426.544C222.206 427.004 222.114 427.74 221.332 428.016C220.551 428.292 219.447 428.154 218.757 427.694C218.068 427.234 218.159 426.498 218.941 426.222C219.723 425.946 220.827 426.084 221.516 426.544Z" fill="#16110D"/>
  <path d="M228.62 423.508C229.31 423.968 229.218 424.704 228.436 424.98C227.654 425.256 226.551 425.118 225.861 424.658C225.171 424.198 225.263 423.463 226.045 423.187C226.826 422.911 227.93 423.049 228.62 423.508Z" fill="#16110D"/>
  <path d="M214.044 423.555C215.06 423.682 215.945 423.291 216.021 422.682C216.098 422.072 215.336 421.475 214.32 421.348C213.304 421.221 212.419 421.612 212.343 422.222C212.266 422.831 213.028 423.428 214.044 423.555Z" fill="#16110D"/>
  <path d="M222.46 419.002C223.15 419.462 223.058 420.198 222.276 420.474C221.494 420.75 220.39 420.612 219.701 420.152C219.011 419.692 219.103 418.956 219.885 418.68C220.666 418.404 221.77 418.542 222.46 419.002Z" fill="#16110D"/>
  <path d="M209.4 417.371C210.089 417.83 209.997 418.566 209.216 418.842C208.434 419.118 207.33 418.98 206.64 418.52C205.951 418.06 206.043 417.325 206.824 417.049C207.629 416.589 208.733 416.727 209.4 417.371Z" fill="#16110D"/>
  <path d="M214.802 415.99C215.818 416.117 216.703 415.726 216.779 415.117C216.855 414.507 216.094 413.91 215.078 413.783C214.062 413.656 213.177 414.047 213.1 414.657C213.024 415.266 213.786 415.863 214.802 415.99Z" fill="#16110D"/>
  <path d="M203.261 412.68C203.95 413.14 203.858 413.876 203.077 414.152C202.295 414.428 201.191 414.29 200.501 413.83C199.812 413.37 199.904 412.634 200.685 412.359C201.467 412.083 202.571 412.22 203.261 412.68Z" fill="#16110D"/>
  <path d="M210.364 409.645C211.054 410.104 210.962 410.84 210.18 411.116C209.398 411.392 208.295 411.254 207.605 410.794C206.915 410.335 207.007 409.599 207.789 409.323C208.571 409.047 209.674 409.185 210.364 409.645Z" fill="#16110D"/>
  <path d="M195.786 409.692C196.802 409.819 197.687 409.427 197.764 408.818C197.84 408.208 197.078 407.611 196.062 407.484C195.046 407.357 194.161 407.749 194.085 408.358C194.009 408.968 194.77 409.565 195.786 409.692Z" fill="#16110D"/>
  <path d="M202.685 406.817C203.701 406.944 204.586 406.553 204.662 405.943C204.738 405.334 203.976 404.737 202.961 404.61C201.945 404.483 201.059 404.874 200.983 405.484C200.907 406.093 201.669 406.69 202.685 406.817Z" fill="#16110D"/>
  <path d="M191.141 403.506C191.831 403.966 191.739 404.702 190.957 404.978C190.176 405.254 189.072 405.116 188.382 404.656C187.693 404.196 187.784 403.461 188.566 403.185C189.348 402.909 190.452 403.047 191.141 403.506Z" fill="#16110D"/>
  <path d="M196.73 402.15C197.746 402.277 198.631 401.885 198.707 401.276C198.783 400.666 198.021 400.069 197.005 399.942C195.99 399.815 195.104 400.207 195.028 400.816C194.952 401.426 195.714 402.023 196.73 402.15Z" fill="#16110D"/>
  <path d="M183.669 400.518C184.685 400.645 185.57 400.253 185.646 399.644C185.723 399.034 184.961 398.437 183.945 398.31C182.929 398.183 182.044 398.575 181.968 399.184C181.891 399.794 182.653 400.391 183.669 400.518Z" fill="#16110D"/>
  <path d="M192.085 395.965C192.775 396.425 192.683 397.161 191.901 397.436C191.119 397.712 190.015 397.575 189.326 397.115C188.636 396.655 188.728 395.919 189.51 395.643C190.291 395.367 191.395 395.505 192.085 395.965Z" fill="#16110D"/>
  <path d="M179.024 394.333C179.714 394.793 179.622 395.529 178.84 395.805C178.059 396.081 176.955 395.943 176.265 395.483C175.575 395.023 175.667 394.287 176.449 394.011C177.231 393.735 178.334 393.873 179.024 394.333Z" fill="#16110D"/>
  <path d="M186.13 391.297C186.819 391.757 186.728 392.493 185.946 392.769C185.164 393.045 184.06 392.907 183.371 392.447C182.681 391.987 182.773 391.252 183.554 390.976C184.336 390.7 185.44 390.838 186.13 391.297Z" fill="#16110D"/>
  <path d="M173.069 389.666C173.759 390.125 173.667 390.861 172.885 391.137C172.104 391.413 171 391.275 170.31 390.815C169.62 390.356 169.712 389.62 170.494 389.344C171.276 389.068 172.379 389.206 173.069 389.666Z" fill="#16110D"/>
  <path d="M179.968 386.792C180.657 387.251 180.565 387.987 179.784 388.263C179.002 388.539 177.898 388.401 177.208 387.941C176.519 387.482 176.611 386.746 177.392 386.47C178.174 386.194 179.278 386.332 179.968 386.792Z" fill="#16110D"/>
  <path d="M166.907 385.16C167.597 385.62 167.505 386.355 166.723 386.631C165.941 386.907 164.838 386.769 164.148 386.31C163.458 385.85 163.55 385.114 164.332 384.838C165.114 384.562 166.217 384.7 166.907 385.16Z" fill="#16110D"/>
  <path d="M174.011 382.124C174.7 382.584 174.608 383.32 173.827 383.596C173.045 383.872 171.941 383.734 171.251 383.274C170.562 382.814 170.654 382.078 171.435 381.802C172.217 381.526 173.321 381.664 174.011 382.124Z" fill="#16110D"/>
  <path d="M160.768 380.469C161.458 380.929 161.366 381.665 160.584 381.941C159.803 382.217 158.699 382.079 158.009 381.619C157.319 381.159 157.411 380.424 158.193 380.148C158.975 379.872 160.079 380.01 160.768 380.469Z" fill="#16110D"/>
  <path d="M167.85 377.618C168.54 378.078 168.448 378.814 167.666 379.09C166.885 379.366 165.781 379.228 165.091 378.768C164.401 378.308 164.493 377.572 165.275 377.297C166.057 377.021 167.161 377.158 167.85 377.618Z" fill="#16110D"/>
  <path d="M154.79 375.986C155.48 376.446 155.388 377.182 154.606 377.458C153.824 377.733 152.721 377.596 152.031 377.136C151.341 376.676 151.433 375.94 152.215 375.664C152.996 375.388 154.1 375.526 154.79 375.986Z" fill="#16110D"/>
  <path d="M160.193 374.607C161.208 374.734 162.094 374.342 162.17 373.733C162.246 373.123 161.484 372.526 160.468 372.399C159.452 372.272 158.567 372.664 158.491 373.273C158.415 373.883 159.177 374.48 160.193 374.607Z" fill="#16110D"/>
  <path d="M148.651 371.296C149.341 371.756 149.249 372.492 148.467 372.768C147.686 373.044 146.582 372.906 145.892 372.446C145.202 371.986 145.294 371.25 146.076 370.974C146.858 370.698 147.961 370.836 148.651 371.296Z" fill="#16110D"/>
  <path d="M154.214 370.123C155.23 370.25 156.115 369.859 156.191 369.249C156.268 368.64 155.506 368.043 154.49 367.916C153.474 367.789 152.589 368.18 152.512 368.79C152.436 369.399 153.198 369.996 154.214 370.123Z" fill="#16110D"/>
  <path d="M149.594 363.754C150.284 364.214 150.192 364.95 149.411 365.226C148.629 365.502 147.525 365.364 146.835 364.904C146.146 364.444 146.238 363.708 147.019 363.432C147.801 363.156 148.905 363.294 149.594 363.754Z" fill="#16110D"/>
  <path d="M344.257 510.255C344.946 510.714 344.854 511.45 344.073 511.726C343.291 512.002 342.187 511.864 341.498 511.404C340.808 510.944 340.9 510.209 341.681 509.933C342.463 509.657 343.567 509.795 344.257 510.255Z" fill="#16110D"/>
  <path d="M351.153 507.38C351.843 507.84 351.751 508.575 350.97 508.851C350.188 509.127 349.084 508.989 348.394 508.53C347.705 508.07 347.797 507.334 348.578 507.058C349.383 506.598 350.487 506.736 351.153 507.38Z" fill="#16110D"/>
  <path d="M358.259 504.344C358.948 504.804 358.856 505.54 358.075 505.816C357.293 506.092 356.189 505.954 355.499 505.494C354.81 505.034 354.902 504.299 355.683 504.023C356.465 503.747 357.569 503.885 358.259 504.344Z" fill="#16110D"/>
  <path d="M365.155 501.47C365.845 501.93 365.753 502.666 364.972 502.942C364.19 503.218 363.086 503.08 362.396 502.62C361.707 502.16 361.798 501.424 362.58 501.148C363.385 500.688 364.673 500.849 365.155 501.47Z" fill="#16110D"/>
  <path d="M372.261 498.435C372.95 498.895 372.858 499.63 372.077 499.906C371.295 500.182 370.191 500.044 369.501 499.585C368.812 499.125 368.904 498.389 369.685 498.113C370.467 497.837 371.571 497.975 372.261 498.435Z" fill="#16110D"/>
  <path d="M379.159 495.56C379.849 496.02 379.757 496.756 378.975 497.032C378.194 497.308 377.09 497.17 376.4 496.71C375.71 496.25 375.802 495.515 376.584 495.239C377.573 494.802 378.676 494.94 379.159 495.56Z" fill="#16110D"/>
  <path d="M386.263 492.525C386.952 492.985 386.86 493.721 386.079 493.997C385.297 494.273 384.193 494.135 383.503 493.675C382.814 493.215 382.906 492.479 383.687 492.203C384.469 491.927 385.573 492.065 386.263 492.525Z" fill="#16110D"/>
  <path d="M393.159 489.65C393.849 490.11 393.757 490.846 392.975 491.122C392.194 491.398 391.09 491.26 390.4 490.8C389.71 490.34 389.802 489.604 390.584 489.329C391.573 488.892 392.676 489.03 393.159 489.65Z" fill="#16110D"/>
  <path d="M400.264 486.615C400.954 487.075 400.862 487.81 400.081 488.086C399.299 488.362 398.195 488.224 397.505 487.765C396.816 487.305 396.907 486.569 397.689 486.293C398.471 486.017 399.575 486.155 400.264 486.615Z" fill="#16110D"/>
  <path d="M407.163 483.741C407.853 484.2 407.761 484.936 406.979 485.212C406.198 485.488 405.094 485.35 404.404 484.89C403.714 484.431 403.806 483.695 404.588 483.419C405.577 482.982 406.68 483.12 407.163 483.741Z" fill="#16110D"/>
  <path d="M414.266 480.705C414.956 481.165 414.864 481.901 414.082 482.177C413.301 482.453 412.197 482.315 411.507 481.855C410.818 481.395 410.909 480.659 411.691 480.383C412.473 480.107 413.577 480.245 414.266 480.705Z" fill="#16110D"/>
  <path d="M421.349 477.854C422.039 478.314 421.947 479.049 421.165 479.325C420.383 479.601 419.279 479.463 418.59 479.004C417.9 478.544 417.992 477.808 418.774 477.532C419.578 477.072 420.682 477.21 421.349 477.854Z" fill="#16110D"/>
  <path d="M331.196 508.623C331.886 509.083 331.794 509.818 331.012 510.094C330.23 510.37 329.127 510.232 328.437 509.772C327.747 509.313 327.839 508.577 328.621 508.301C329.403 508.025 330.506 508.163 331.196 508.623Z" fill="#16110D"/>
  <path d="M336.575 507.426C337.591 507.553 338.477 507.162 338.553 506.553C338.629 505.943 337.867 505.346 336.851 505.219C335.835 505.092 334.95 505.483 334.874 506.093C334.798 506.702 335.559 507.299 336.575 507.426Z" fill="#16110D"/>
  <path d="M345.198 502.713C345.888 503.172 345.796 503.908 345.014 504.184C344.232 504.46 343.129 504.322 342.439 503.862C341.749 503.403 341.841 502.667 342.623 502.391C343.405 502.115 344.508 502.253 345.198 502.713Z" fill="#16110D"/>
  <path d="M352.097 499.838C352.787 500.298 352.695 501.034 351.913 501.31C351.131 501.586 350.028 501.448 349.338 500.988C348.648 500.528 348.74 499.792 349.522 499.517C350.326 499.057 351.43 499.195 352.097 499.838Z" fill="#16110D"/>
  <path d="M359.202 496.803C359.892 497.263 359.8 497.998 359.018 498.274C358.236 498.55 357.133 498.412 356.443 497.953C355.753 497.493 355.845 496.757 356.627 496.481C357.408 496.205 358.512 496.343 359.202 496.803Z" fill="#16110D"/>
  <path d="M366.099 493.929C366.789 494.388 366.697 495.124 365.915 495.4C365.133 495.676 364.029 495.538 363.34 495.078C362.65 494.619 362.742 493.883 363.524 493.607C364.328 493.147 365.616 493.308 366.099 493.929Z" fill="#16110D"/>
  <path d="M373.204 490.893C373.894 491.353 373.802 492.089 373.02 492.365C372.238 492.641 371.135 492.503 370.445 492.043C369.755 491.583 369.847 490.847 370.629 490.571C371.41 490.295 372.514 490.433 373.204 490.893Z" fill="#16110D"/>
  <path d="M380.101 488.019C380.79 488.479 380.699 489.215 379.917 489.49C379.135 489.766 378.031 489.629 377.342 489.169C376.652 488.709 376.744 487.973 377.526 487.697C378.514 487.26 379.618 487.398 380.101 488.019Z" fill="#16110D"/>
  <path d="M387.204 484.983C387.894 485.443 387.802 486.179 387.02 486.455C386.238 486.731 385.135 486.593 384.445 486.133C383.755 485.673 383.847 484.937 384.629 484.661C385.41 484.385 386.514 484.523 387.204 484.983Z" fill="#16110D"/>
  <path d="M394.103 482.109C394.793 482.569 394.701 483.304 393.919 483.58C393.137 483.856 392.033 483.718 391.344 483.259C390.654 482.799 390.746 482.063 391.527 481.787C392.516 481.35 393.62 481.488 394.103 482.109Z" fill="#16110D"/>
  <path d="M401.208 479.073C401.898 479.533 401.806 480.269 401.024 480.545C400.242 480.821 399.139 480.683 398.449 480.223C397.759 479.763 397.851 479.028 398.633 478.752C399.414 478.476 400.518 478.614 401.208 479.073Z" fill="#16110D"/>
  <path d="M408.105 476.199C408.794 476.659 408.702 477.395 407.921 477.671C407.139 477.947 406.035 477.809 405.346 477.349C404.656 476.889 404.748 476.153 405.529 475.877C406.518 475.44 407.622 475.578 408.105 476.199Z" fill="#16110D"/>
  <path d="M415.21 473.164C415.9 473.624 415.808 474.359 415.026 474.635C414.244 474.911 413.14 474.773 412.451 474.314C411.761 473.854 411.853 473.118 412.635 472.842C413.416 472.566 414.52 472.704 415.21 473.164Z" fill="#16110D"/>
  <path d="M325.032 504.116C325.722 504.576 325.63 505.312 324.849 505.588C324.067 505.864 322.963 505.726 322.273 505.266C321.583 504.806 321.675 504.07 322.457 503.794C323.262 503.334 324.366 503.472 325.032 504.116Z" fill="#16110D"/>
  <path d="M332.137 501.081C332.827 501.541 332.735 502.276 331.954 502.552C331.172 502.828 330.068 502.69 329.378 502.231C328.689 501.771 328.781 501.035 329.562 500.759C330.344 500.483 331.448 500.621 332.137 501.081Z" fill="#16110D"/>
  <path d="M319.079 499.449C319.769 499.909 319.677 500.644 318.895 500.92C318.113 501.196 317.01 501.058 316.32 500.599C315.63 500.139 315.722 499.403 316.504 499.127C317.285 498.851 318.389 498.989 319.079 499.449Z" fill="#16110D"/>
  <path d="M325.976 496.575C326.666 497.034 326.574 497.77 325.792 498.046C325.01 498.322 323.906 498.184 323.217 497.724C322.527 497.265 322.619 496.529 323.401 496.253C324.205 495.793 325.309 495.931 325.976 496.575Z" fill="#16110D"/>
  <path d="M312.94 494.759C313.63 495.219 313.538 495.955 312.756 496.23C311.975 496.506 310.871 496.369 310.181 495.909C309.491 495.449 309.583 494.713 310.365 494.437C311.147 494.161 312.25 494.299 312.94 494.759Z" fill="#16110D"/>
  <path d="M319.837 491.884C320.526 492.344 320.435 493.08 319.653 493.356C318.871 493.632 317.767 493.494 317.078 493.034C316.388 492.574 316.48 491.839 317.261 491.563C318.043 491.287 319.331 491.448 319.837 491.884Z" fill="#16110D"/>
  <path d="M306.776 490.253C307.466 490.712 307.374 491.448 306.592 491.724C305.811 492 304.707 491.862 304.017 491.402C303.327 490.943 303.419 490.207 304.201 489.931C304.983 489.655 306.086 489.793 306.776 490.253Z" fill="#16110D"/>
  <path d="M313.882 487.217C314.571 487.677 314.479 488.413 313.698 488.689C312.916 488.965 311.812 488.827 311.123 488.367C310.433 487.907 310.525 487.172 311.306 486.896C312.088 486.62 313.192 486.758 313.882 487.217Z" fill="#16110D"/>
  <path d="M300.821 485.585C301.511 486.045 301.419 486.781 300.637 487.057C299.855 487.333 298.752 487.195 298.062 486.735C297.372 486.275 297.464 485.539 298.246 485.263C299.028 484.987 300.131 485.125 300.821 485.585Z" fill="#16110D"/>
  <path d="M307.719 482.711C308.409 483.171 308.317 483.907 307.536 484.183C306.754 484.459 305.65 484.321 304.96 483.861C304.271 483.401 304.363 482.665 305.144 482.389C305.926 482.113 307.03 482.251 307.719 482.711Z" fill="#16110D"/>
  <path d="M294.659 481.079C295.349 481.539 295.257 482.275 294.475 482.551C293.693 482.827 292.59 482.689 291.9 482.229C291.21 481.769 291.302 481.033 292.084 480.757C292.865 480.482 293.969 480.619 294.659 481.079Z" fill="#16110D"/>
  <path d="M301.764 478.044C302.454 478.503 302.362 479.239 301.581 479.515C300.799 479.791 299.695 479.653 299.005 479.193C298.316 478.734 298.407 477.998 299.189 477.722C299.971 477.446 301.075 477.584 301.764 478.044Z" fill="#16110D"/>
  <path d="M288.704 476.412C289.394 476.872 289.302 477.607 288.52 477.883C287.738 478.159 286.635 478.021 285.945 477.562C285.255 477.102 285.347 476.366 286.129 476.09C286.91 475.814 288.014 475.952 288.704 476.412Z" fill="#16110D"/>
  <path d="M295.602 473.537C296.292 473.997 296.2 474.733 295.418 475.009C294.637 475.285 293.533 475.147 292.843 474.687C292.153 474.227 292.245 473.491 293.027 473.215C293.809 472.94 294.913 473.077 295.602 473.537Z" fill="#16110D"/>
  <path d="M282.542 471.905C283.232 472.365 283.14 473.101 282.358 473.377C281.576 473.653 280.473 473.515 279.783 473.055C279.093 472.595 279.185 471.86 279.967 471.584C280.748 471.308 281.852 471.446 282.542 471.905Z" fill="#16110D"/>
  <path d="M289.647 468.87C290.337 469.33 290.245 470.066 289.463 470.342C288.682 470.618 287.578 470.48 286.888 470.02C286.198 469.56 286.29 468.824 287.072 468.548C287.854 468.273 288.957 468.41 289.647 468.87Z" fill="#16110D"/>
  <path d="M276.587 467.238C277.276 467.698 277.185 468.434 276.403 468.71C275.621 468.986 274.517 468.848 273.828 468.388C273.138 467.928 273.23 467.193 274.011 466.917C274.793 466.641 275.897 466.779 276.587 467.238Z" fill="#16110D"/>
  <path d="M283.483 464.364C284.173 464.824 284.081 465.559 283.299 465.835C282.518 466.111 281.414 465.973 280.724 465.514C280.034 465.054 280.126 464.318 280.908 464.042C281.69 463.766 282.793 463.904 283.483 464.364Z" fill="#16110D"/>
  <path d="M270.425 462.732C271.114 463.192 271.022 463.928 270.241 464.204C269.459 464.48 268.355 464.342 267.666 463.882C266.976 463.422 267.068 462.686 267.849 462.41C268.631 462.134 269.735 462.272 270.425 462.732Z" fill="#16110D"/>
  <path d="M277.528 459.696C278.218 460.156 278.126 460.892 277.344 461.168C276.562 461.444 275.459 461.306 274.769 460.846C274.079 460.386 274.171 459.651 274.953 459.375C275.735 459.099 276.838 459.237 277.528 459.696Z" fill="#16110D"/>
  <path d="M264.284 458.042C264.974 458.501 264.882 459.237 264.1 459.513C263.318 459.789 262.215 459.651 261.525 459.191C260.835 458.732 260.927 457.996 261.709 457.72C262.49 457.444 263.594 457.582 264.284 458.042Z" fill="#16110D"/>
  <path d="M271.366 455.19C272.056 455.65 271.964 456.386 271.182 456.662C270.401 456.938 269.297 456.8 268.607 456.34C267.917 455.88 268.009 455.145 268.791 454.869C269.596 454.409 270.7 454.547 271.366 455.19Z" fill="#16110D"/>
  <path d="M258.308 453.559C258.998 454.018 258.906 454.754 258.124 455.03C257.342 455.306 256.238 455.168 255.549 454.708C254.859 454.248 254.951 453.513 255.733 453.237C256.537 452.777 257.641 452.915 258.308 453.559Z" fill="#16110D"/>
  <path d="M265.227 450.5C265.917 450.96 265.825 451.696 265.043 451.972C264.262 452.248 263.158 452.11 262.468 451.65C261.778 451.19 261.87 450.454 262.652 450.178C263.434 449.902 264.538 450.04 265.227 450.5Z" fill="#16110D"/>
  <path d="M252.167 448.868C252.857 449.328 252.765 450.064 251.983 450.34C251.201 450.616 250.097 450.478 249.408 450.018C248.718 449.558 248.81 448.822 249.592 448.547C250.373 448.271 251.477 448.408 252.167 448.868Z" fill="#16110D"/>
  <path d="M259.249 446.017C259.939 446.477 259.847 447.213 259.065 447.489C258.284 447.765 257.18 447.627 256.49 447.167C255.8 446.707 255.892 445.971 256.674 445.695C257.479 445.235 258.582 445.373 259.249 446.017Z" fill="#16110D"/>
  <path d="M246.189 444.385C246.878 444.845 246.786 445.581 246.005 445.857C245.223 446.133 244.119 445.995 243.43 445.535C242.74 445.075 242.832 444.339 243.613 444.063C244.418 443.603 245.522 443.741 246.189 444.385Z" fill="#16110D"/>
  <path d="M253.11 441.327C253.8 441.787 253.708 442.522 252.926 442.798C252.145 443.074 251.041 442.936 250.351 442.477C249.661 442.017 249.753 441.281 250.535 441.005C251.317 440.729 252.42 440.867 253.11 441.327Z" fill="#16110D"/>
  <path d="M425.879 474.497C426.66 474.221 427.764 474.359 428.454 474.818C429.144 475.278 429.052 476.014 428.27 476.29C427.488 476.566 426.385 476.428 425.695 475.968C425.005 475.508 425.097 474.773 425.879 474.497Z" fill="#16110D"/>
  <path d="M435.352 471.944C436.042 472.404 435.95 473.14 435.168 473.416C434.387 473.692 433.283 473.554 432.593 473.094C431.903 472.634 431.995 471.898 432.777 471.622C433.559 471.346 434.663 471.484 435.352 471.944Z" fill="#16110D"/>
  <path d="M419.717 469.99C420.498 469.714 421.602 469.852 422.292 470.312C422.982 470.772 422.89 471.508 422.108 471.784C421.326 472.06 420.222 471.922 419.533 471.462C418.866 470.818 418.935 470.266 419.717 469.99Z" fill="#16110D"/>
  <path d="M427.694 468.932C428.71 469.059 429.596 468.668 429.672 468.058C429.748 467.449 428.986 466.852 427.97 466.725C426.954 466.598 426.069 466.989 425.993 467.599C425.917 468.208 426.679 468.805 427.694 468.932Z" fill="#16110D"/>
  <path d="M550.567 493.253C551.257 493.712 551.165 494.448 550.383 494.724C549.602 495 548.498 494.862 547.808 494.402C547.118 493.943 547.21 493.207 547.992 492.931C548.774 492.655 550.061 492.816 550.567 493.253Z" fill="#16110D"/>
  <path d="M557.649 490.402C558.339 490.861 558.247 491.597 557.465 491.873C556.684 492.149 555.58 492.011 554.89 491.551C554.2 491.091 554.292 490.356 555.074 490.08C555.856 489.804 556.959 489.942 557.649 490.402Z" fill="#16110D"/>
  <path d="M564.571 487.343C565.261 487.803 565.169 488.538 564.387 488.814C563.605 489.09 562.502 488.952 561.812 488.493C561.122 488.033 561.214 487.297 561.996 487.021C562.778 486.745 564.065 486.906 564.571 487.343Z" fill="#16110D"/>
  <path d="M571.651 484.491C572.341 484.951 572.249 485.687 571.467 485.963C570.686 486.239 569.582 486.101 568.892 485.641C568.202 485.181 568.294 484.446 569.076 484.17C569.858 483.894 570.961 484.032 571.651 484.491Z" fill="#16110D"/>
  <path d="M537.509 491.621C538.198 492.081 538.106 492.817 537.325 493.093C536.543 493.369 535.439 493.231 534.75 492.771C534.06 492.311 534.152 491.575 534.933 491.299C535.715 491.024 536.819 491.161 537.509 491.621Z" fill="#16110D"/>
  <path d="M544.589 488.77C545.278 489.229 545.187 489.965 544.405 490.241C543.623 490.517 542.519 490.379 541.83 489.919C541.14 489.46 541.232 488.724 542.013 488.448C542.795 488.172 543.899 488.31 544.589 488.77Z" fill="#16110D"/>
  <path d="M551.511 485.711C552.2 486.171 552.108 486.907 551.327 487.183C550.545 487.459 549.441 487.321 548.751 486.861C548.062 486.401 548.154 485.665 548.935 485.389C549.717 485.113 551.005 485.274 551.511 485.711Z" fill="#16110D"/>
  <path d="M558.591 482.86C559.28 483.319 559.188 484.055 558.407 484.331C557.625 484.607 556.521 484.469 555.832 484.009C555.142 483.549 555.234 482.814 556.015 482.538C556.797 482.262 557.901 482.4 558.591 482.86Z" fill="#16110D"/>
  <path d="M565.512 479.801C566.202 480.261 566.11 480.997 565.329 481.273C564.547 481.549 563.443 481.411 562.753 480.951C562.064 480.491 562.156 479.756 562.937 479.48C563.719 479.204 565.007 479.365 565.512 479.801Z" fill="#16110D"/>
  <path d="M571.077 478.629C572.093 478.755 572.978 478.364 573.055 477.755C573.131 477.145 572.369 476.548 571.353 476.421C570.337 476.294 569.452 476.685 569.376 477.295C569.3 477.905 570.061 478.502 571.077 478.629Z" fill="#16110D"/>
  <path d="M531.53 487.138C532.22 487.598 532.128 488.333 531.346 488.609C530.564 488.885 529.461 488.747 528.771 488.288C528.081 487.828 528.173 487.092 528.955 486.816C529.737 486.54 530.84 486.678 531.53 487.138Z" fill="#16110D"/>
  <path d="M538.45 484.079C539.14 484.539 539.048 485.275 538.266 485.551C537.484 485.827 536.381 485.689 535.691 485.229C535.001 484.769 535.093 484.033 535.875 483.757C536.657 483.482 537.76 483.619 538.45 484.079Z" fill="#16110D"/>
  <path d="M525.391 482.447C526.081 482.907 525.989 483.643 525.207 483.919C524.426 484.195 523.322 484.057 522.632 483.597C521.943 483.137 522.034 482.402 522.816 482.126C523.598 481.85 524.702 481.988 525.391 482.447Z" fill="#16110D"/>
  <path d="M532.288 479.573C532.978 480.033 532.886 480.769 532.104 481.045C531.323 481.321 530.219 481.183 529.529 480.723C528.839 480.263 528.931 479.527 529.713 479.251C530.702 478.814 531.805 478.952 532.288 479.573Z" fill="#16110D"/>
  <path d="M519.23 477.941C519.919 478.401 519.827 479.137 519.046 479.413C518.264 479.689 517.16 479.551 516.471 479.091C515.781 478.631 515.873 477.895 516.654 477.62C517.459 477.16 518.747 477.321 519.23 477.941Z" fill="#16110D"/>
  <path d="M526.333 474.906C527.023 475.366 526.931 476.102 526.149 476.377C525.367 476.653 524.264 476.516 523.574 476.056C522.884 475.596 522.976 474.86 523.758 474.584C524.539 474.308 525.643 474.446 526.333 474.906Z" fill="#16110D"/>
  <path d="M482.88 516.18C483.569 516.64 483.478 517.375 482.696 517.651C481.914 517.927 480.81 517.789 480.121 517.33C479.431 516.87 479.523 516.134 480.304 515.858C481.086 515.582 482.19 515.72 482.88 516.18Z" fill="#16110D"/>
  <path d="M489.962 513.328C490.651 513.788 490.56 514.524 489.778 514.8C488.996 515.076 487.892 514.938 487.203 514.478C486.513 514.018 486.605 513.282 487.386 513.006C488.168 512.731 489.272 512.868 489.962 513.328Z" fill="#16110D"/>
  <path d="M496.882 510.27C497.571 510.73 497.479 511.466 496.698 511.742C495.916 512.018 494.812 511.88 494.123 511.42C493.433 510.96 493.525 510.224 494.306 509.948C495.088 509.672 496.192 509.81 496.882 510.27Z" fill="#16110D"/>
  <path d="M469.819 514.548C470.509 515.008 470.417 515.744 469.635 516.02C468.853 516.296 467.75 516.158 467.06 515.698C466.37 515.238 466.462 514.502 467.244 514.226C468.026 513.95 469.129 514.088 469.819 514.548Z" fill="#16110D"/>
  <path d="M476.901 511.696C477.591 512.156 477.499 512.892 476.717 513.168C475.936 513.444 474.832 513.306 474.142 512.846C473.452 512.386 473.544 511.651 474.326 511.375C475.108 511.099 476.211 511.237 476.901 511.696Z" fill="#16110D"/>
  <path d="M483.821 508.638C484.511 509.098 484.419 509.834 483.637 510.11C482.855 510.386 481.752 510.248 481.062 509.788C480.372 509.328 480.464 508.592 481.246 508.317C482.028 508.041 483.131 508.178 483.821 508.638Z" fill="#16110D"/>
  <path d="M490.903 505.787C491.593 506.247 491.501 506.982 490.719 507.258C489.937 507.534 488.834 507.396 488.144 506.937C487.454 506.477 487.546 505.741 488.328 505.465C489.11 505.189 490.213 505.327 490.903 505.787Z" fill="#16110D"/>
  <path d="M497.825 502.728C498.515 503.188 498.423 503.924 497.641 504.2C496.859 504.476 495.756 504.338 495.066 503.878C494.376 503.418 494.468 502.682 495.25 502.406C496.032 502.13 497.135 502.268 497.825 502.728Z" fill="#16110D"/>
  <path d="M462.323 511.743C463.339 511.87 464.225 511.479 464.301 510.869C464.377 510.26 463.615 509.663 462.599 509.536C461.583 509.409 460.698 509.8 460.622 510.41C460.546 511.019 461.308 511.616 462.323 511.743Z" fill="#16110D"/>
  <path d="M470.762 507.006C471.452 507.466 471.36 508.202 470.579 508.478C469.797 508.754 468.693 508.616 468.003 508.156C467.314 507.696 467.406 506.961 468.187 506.685C468.969 506.409 470.073 506.547 470.762 507.006Z" fill="#16110D"/>
  <path d="M477.843 504.155C478.532 504.615 478.44 505.351 477.659 505.626C476.877 505.902 475.773 505.765 475.083 505.305C474.394 504.845 474.486 504.109 475.267 503.833C476.049 503.557 477.153 503.695 477.843 504.155Z" fill="#16110D"/>
  <path d="M484.764 501.096C485.454 501.556 485.362 502.292 484.581 502.568C483.799 502.844 482.695 502.706 482.005 502.246C481.316 501.786 481.407 501.051 482.189 500.775C482.971 500.499 484.075 500.637 484.764 501.096Z" fill="#16110D"/>
  <path d="M457.702 505.375C458.392 505.834 458.3 506.57 457.518 506.846C456.736 507.122 455.633 506.984 454.943 506.524C454.253 506.065 454.345 505.329 455.127 505.053C455.908 504.777 457.012 504.915 457.702 505.375Z" fill="#16110D"/>
  <path d="M464.784 502.523C465.474 502.983 465.382 503.719 464.6 503.995C463.818 504.271 462.715 504.133 462.025 503.673C461.335 503.213 461.427 502.477 462.209 502.201C462.99 501.925 464.094 502.063 464.784 502.523Z" fill="#16110D"/>
  <path d="M451.54 500.868C452.23 501.328 452.138 502.064 451.356 502.34C450.574 502.616 449.471 502.478 448.781 502.018C448.091 501.558 448.183 500.822 448.965 500.547C449.93 500.294 451.034 500.431 451.54 500.868Z" fill="#16110D"/>
  <path d="M457.128 499.511C458.144 499.638 459.029 499.247 459.105 498.638C459.182 498.028 458.42 497.431 457.404 497.304C456.388 497.177 455.503 497.568 455.427 498.178C455.35 498.787 456.112 499.384 457.128 499.511Z" fill="#16110D"/>
  <path d="M445.585 496.201C446.275 496.661 446.183 497.396 445.401 497.672C444.619 497.948 443.515 497.81 442.826 497.351C442.136 496.891 442.228 496.155 443.01 495.879C443.791 495.603 444.895 495.741 445.585 496.201Z" fill="#16110D"/>
  <path d="M452.483 493.327C453.173 493.787 453.081 494.522 452.299 494.798C451.518 495.074 450.414 494.936 449.724 494.477C449.034 494.017 449.126 493.281 449.908 493.005C450.874 492.752 451.977 492.89 452.483 493.327Z" fill="#16110D"/>
  <path d="M439.423 491.695C440.113 492.155 440.021 492.89 439.239 493.166C438.457 493.442 437.354 493.304 436.664 492.844C435.974 492.385 436.066 491.649 436.848 491.373C437.652 490.913 438.756 491.051 439.423 491.695Z" fill="#16110D"/>
  <path d="M446.526 488.659C447.216 489.119 447.124 489.855 446.342 490.131C445.561 490.407 444.457 490.269 443.767 489.809C443.077 489.349 443.169 488.613 443.951 488.338C444.733 488.062 445.836 488.199 446.526 488.659Z" fill="#16110D"/>
  <path d="M433.468 487.027C434.157 487.487 434.065 488.223 433.284 488.499C432.502 488.775 431.398 488.637 430.708 488.177C430.019 487.717 430.111 486.982 430.892 486.706C431.674 486.43 432.778 486.568 433.468 487.027Z" fill="#16110D"/>
  <path d="M440.364 484.153C441.054 484.613 440.962 485.349 440.18 485.625C439.399 485.901 438.295 485.763 437.605 485.303C436.916 484.843 437.007 484.107 437.789 483.831C438.594 483.372 439.698 483.509 440.364 484.153Z" fill="#16110D"/>
  <path d="M434.411 479.486C435.101 479.946 435.009 480.682 434.227 480.957C433.445 481.233 432.342 481.096 431.652 480.636C430.962 480.176 431.054 479.44 431.836 479.164C432.617 478.888 433.721 479.026 434.411 479.486Z" fill="#16110D"/>
  <path d="M343.921 469.841L343.049 469.203L343.099 468.649L343.656 464.605L173.863 344.832C170.021 342.06 168.412 337.26 170.127 332.763L276.632 29.2196L274.234 26.9526C273.881 26.7342 273.73 26.3481 273.966 25.8112C274 25.442 274.402 25.1065 274.789 24.9557L275.745 24.6709C278.23 23.9674 283.03 22.359 283.03 22.359C285.515 21.6555 288.267 22.0934 290.548 23.6051L462.103 144.47C465.945 147.242 467.553 152.042 465.839 156.539L358.644 461.508C357.888 463.673 356.427 465.401 354.278 466.507L343.921 469.841ZM276.13 26.5676L278.512 29.0193L171.721 333.653C170.46 337.261 171.767 341.289 174.904 343.624L345.569 464.035L345.03 467.895L353.473 465.131C355.034 464.343 356.277 462.967 356.798 461.34L463.842 155.984C465.103 152.377 463.796 148.348 460.659 146.013L289.289 25.1652C287.544 23.8887 285.346 23.5015 283.415 24.2556C283.231 24.2388 278.447 25.6626 276.13 26.5676Z" fill="#16110D"/>
  <path d="M341.303 469.974C339.826 469.839 338.383 469.335 336.974 468.461L165.604 347.613C161.763 344.841 160.154 340.041 161.868 335.544L268.693 30.5408C269.685 27.8393 271.717 25.9776 274.218 25.0895C276.904 24.2182 279.656 24.6561 281.921 26.3525L453.291 147.201C457.132 149.972 458.741 154.773 457.026 159.27L350.017 464.256C349.025 466.957 346.993 468.819 344.492 469.707C343.72 470.009 342.411 470.075 341.303 469.974ZM338.032 467.069C339.777 468.345 341.975 468.732 344.09 467.995C346.205 467.258 347.834 465.731 348.574 463.752L455.583 158.765C456.844 155.158 455.537 151.129 452.4 148.795L281.03 27.9463C279.286 26.6699 277.087 26.2826 274.972 27.0199C272.857 27.7572 271.228 29.2835 270.489 31.2635L163.479 336.25C162.218 339.857 163.525 343.886 166.662 346.22L338.032 467.069Z" fill="#16110D"/>
  <path d="M337.923 454.028C337.37 453.978 336.648 453.726 336.128 453.306L177.34 341.427C175.059 339.915 174.221 336.86 175.011 334.326L277.415 43.0659C277.886 41.992 278.708 41.1366 279.665 40.8518C280.807 40.5839 281.914 40.6852 282.971 41.3403L441.759 153.22C444.04 154.731 444.878 157.786 444.088 160.32L341.684 451.58C341.214 452.654 340.391 453.51 339.434 453.794C338.846 454.113 338.293 454.062 337.923 454.028ZM176.639 334.847C175.916 336.643 176.654 338.758 178.231 339.833L337.018 451.712C337.538 452.132 338.092 452.182 338.663 452.048C339.234 451.915 339.653 451.395 339.889 450.858L442.292 159.597C443.015 157.802 442.278 155.687 440.701 154.612L281.913 42.7327C281.393 42.3129 280.839 42.2622 280.268 42.3962C279.698 42.5301 279.278 43.0501 279.043 43.5871L176.639 334.847Z" fill="#16110D"/>
  <path d="M417.35 279.596L353.451 462.458L354.676 462.887L418.575 280.024L417.35 279.596Z" fill="#FF9900"/>
  <path d="M438.531 219.971L432.562 236.933L433.787 237.363L439.755 220.402L438.531 219.971Z" fill="#FF9900"/>
  <path d="M429.852 244.42L423.875 261.379L425.099 261.81L431.076 244.851L429.852 244.42Z" fill="#FF9900"/>
  <path d="M454.113 178.921L452.854 178.433L460.183 157.325C461.815 151.703 457.503 147.958 457.336 147.757L313.076 45.9553L313.732 44.8983L458.175 146.717C458.528 146.935 463.527 151.301 461.459 157.627L454.113 178.921Z" fill="#FF9900"/>
  <path d="M286.795 25.8713L286.047 26.9316L305.74 40.8204L306.488 39.7601L286.795 25.8713Z" fill="#FF9900"/>
  <path d="M337.906 454.213C337.352 454.162 336.63 453.91 336.11 453.49L177.323 341.611C175.041 340.099 174.204 337.044 174.994 334.511L277.397 43.2505C277.868 42.1766 278.691 41.3211 279.648 41.0364C280.789 40.7685 281.897 40.8698 282.954 41.5249L441.741 153.404C444.023 154.916 444.86 157.971 444.07 160.505L421.932 223.445L363.181 181.958C362.124 181.303 360.849 181 359.691 181.453C358.533 181.905 357.525 182.744 357.239 183.835L355.239 189.422C353.995 192.845 355.302 196.874 358.271 199.007L416.166 239.671L412.132 251.215L370.896 221.755C369.839 221.1 368.564 220.797 367.406 221.25C366.247 221.702 365.24 222.541 364.954 223.631L362.954 229.219C361.71 232.642 363.017 236.671 365.986 238.804L406.551 267.458L402.551 278.633L361.482 249.374C360.425 248.719 359.15 248.416 357.992 248.869C356.834 249.321 355.826 250.16 355.54 251.251L353.54 256.838C352.296 260.261 353.603 264.29 356.572 266.423L396.97 294.876L392.935 306.42L351.867 277.161C350.81 276.506 349.535 276.203 348.377 276.656C347.218 277.108 346.211 277.947 345.925 279.038L343.925 284.625C342.681 288.048 343.988 292.077 346.957 294.21L387.354 322.663L383.354 333.838L342.47 304.596C341.413 303.941 340.138 303.638 338.98 304.091C337.821 304.543 336.814 305.382 336.528 306.473L334.528 312.06C333.284 315.483 334.591 319.512 337.56 321.645L377.773 350.081L377.521 350.802L342.07 451.429C341.599 452.503 340.776 453.359 339.819 453.644C338.846 454.113 338.275 454.247 337.906 454.213ZM280.822 42.4468C280.637 42.4299 280.268 42.3961 280.066 42.5639C279.496 42.6978 279.076 43.2178 278.841 43.7548L176.622 335.032C175.899 336.827 176.636 338.942 178.213 340.017L337.001 451.897C337.521 452.316 338.075 452.367 338.645 452.233C339.216 452.099 339.636 451.579 339.871 451.042L375.087 350.952L336.099 323.373C332.425 320.803 330.816 316.002 332.329 311.673L334.33 306.085C334.868 304.273 336.278 303.099 338.007 302.513C339.736 301.926 341.565 302.28 343.142 303.355L382.113 331.118L384.853 323.551L345.697 295.77C342.023 293.2 340.415 288.4 341.928 284.07L343.928 278.483C344.466 276.671 345.877 275.497 347.605 274.91C349.334 274.324 351.164 274.677 352.741 275.752L391.879 303.717L394.653 295.781L355.497 268C351.823 265.43 350.215 260.629 351.728 256.3L353.728 250.713C354.266 248.9 355.676 247.726 357.405 247.14C359.134 246.553 360.963 246.907 362.54 247.982L401.679 275.947L404.419 268.38L365.079 240.582C361.405 238.012 359.796 233.211 361.309 228.882L363.309 223.295C363.847 221.482 365.258 220.308 366.987 219.722C368.716 219.136 370.545 219.489 372.122 220.564L411.445 248.546L414.219 240.609L357.364 200.786C353.69 198.216 352.082 193.415 353.594 189.086L355.595 183.498C356.133 181.686 357.543 180.512 359.272 179.926C361.001 179.339 362.83 179.693 364.407 180.768L421.061 220.759L442.426 160.168C443.148 158.373 442.411 156.258 440.834 155.183L282.046 43.3034C281.543 42.6989 281.191 42.4806 280.822 42.4468Z" fill="#16110D"/>
  <path d="M286.385 268.565C285.277 268.464 284.203 267.994 283.331 267.355L162.843 182.434C162.323 182.014 162.005 181.427 162.072 180.688C162.14 179.95 162.56 179.43 163.147 179.111L177.702 172.624C185.29 169.037 191.268 162.696 194.041 154.76L235.074 37.8897C235.326 37.1682 235.746 36.6481 236.501 36.5311C237.273 36.2294 237.81 36.4647 238.515 36.9014L359.002 121.823C360.747 123.099 361.467 125.399 360.728 127.379L319.981 243.158C316.989 251.447 310.776 258.325 302.802 262.063L289.607 267.929C288.617 268.583 287.492 268.667 286.385 268.565ZM163.902 181.042L284.389 265.963C285.798 266.836 287.46 266.988 289.004 266.385L302.199 260.518C309.786 256.931 315.765 250.591 318.538 242.654L359.1 126.858C359.587 125.599 359.152 124.256 357.927 123.4L237.44 38.4784C237.272 38.2769 237.07 38.4446 237.07 38.4446C237.07 38.4446 236.869 38.6123 236.852 38.7969L195.82 155.667C192.828 163.956 186.615 170.833 178.641 174.572L163.902 181.042L163.465 181.746L163.902 181.042Z" fill="#16110D"/>
  <path d="M260.506 63.7094L259.445 65.23L357.374 133.515L358.434 131.995L260.506 63.7094Z" fill="#16110D"/>
  <path d="M233.92 45.1205L232.859 46.6411L253.54 61.0617L254.6 59.541L233.92 45.1205Z" fill="#16110D"/>
  <path d="M279.058 242.201L277.998 243.722L302.632 260.899L303.693 259.378L279.058 242.201Z" fill="#16110D"/>
  <path d="M273.862 240.615L198.603 188.311L199.477 186.902L211.388 195.065L274.92 239.223L273.862 240.615Z" fill="#16110D"/>
  <path d="M178.859 172.362L177.799 173.883L198.479 188.303L199.54 186.783L178.859 172.362Z" fill="#16110D"/>
  <path d="M215.039 189.407L213.979 190.927L309.019 257.187L310.079 255.666L215.039 189.407Z" fill="#16110D"/>
  <path d="M206.207 183.067L205.146 184.587L210.013 187.98L211.073 186.459L206.207 183.067Z" fill="#16110D"/>
  <path d="M185.492 168.626L184.432 170.146L205.112 184.567L206.173 183.046L185.492 168.626Z" fill="#16110D"/>
  <path d="M280.257 215.852L279.184 217.363L317.715 244.74L318.789 243.229L280.257 215.852Z" fill="#16110D"/>
  <path d="M214.847 170.641L213.787 172.162L267.313 209.486L268.374 207.965L214.847 170.641Z" fill="#16110D"/>
  <path d="M194.137 156.243L193.076 157.764L213.757 172.184L214.817 170.664L194.137 156.243Z" fill="#16110D"/>
  <path d="M380.246 426.814L331.275 392.365C329.699 391.29 327.886 390.752 326.191 390.969C326.006 390.952 325.822 390.935 325.62 391.103C315.852 392.071 309.068 399.082 309.068 399.082L313.865 403.616L316.484 403.483L309.709 422.595C301.893 444.963 309.851 469.89 329.261 483.578C333.287 486.367 337.415 488.047 341.812 488.822L340.348 494.645C340.332 494.829 340.332 494.829 340.516 494.846C342.984 494.327 362.018 489.739 371.809 478.349C374.311 475.413 376.495 471.89 377.772 468.098L386.042 444.842C388.329 438.163 386.017 430.878 380.246 426.814Z" fill="#003BB3"/>
  <path d="M382.893 434.501L333.923 400.052C332.346 398.977 330.533 398.439 328.838 398.657C328.654 398.64 328.469 398.623 328.268 398.791C322.628 399.392 317.928 401.94 315.124 404.103L316.433 404.037L314.432 409.625L316.496 411.489L319.114 411.356L312.34 430.468C308.558 441.291 308.45 452.636 311.583 463.16C315.489 471.336 321.325 478.757 329.026 484.115C333.052 486.903 337.18 488.584 341.576 489.358L340.113 495.181C340.096 495.366 340.096 495.366 340.281 495.383C342.748 494.864 361.782 490.276 371.573 478.886C374.075 475.95 376.259 472.427 377.537 468.635L385.807 445.378C386.58 443.029 386.783 440.814 386.633 438.38C385.644 436.987 384.47 435.576 382.893 434.501Z" fill="#9FC5FF"/>
  <path d="M316.5 403.299L314.79 401.653C314.79 401.653 321.591 394.457 331.342 393.674C331.527 393.691 331.711 393.707 331.913 393.54C332.282 393.573 332.651 393.607 333.02 393.641L331.275 392.365C329.699 391.29 327.886 390.752 326.191 390.969C326.006 390.952 325.822 390.935 325.62 391.103C315.852 392.071 309.068 399.082 309.068 399.082L313.865 403.616L316.5 403.299Z" fill="#15100C"/>
  <path d="M336.912 487.443C336.208 487.006 335.503 486.569 334.799 486.132C315.388 472.444 307.43 447.517 315.247 425.149L322.021 406.037L319.403 406.17L316.501 403.299L309.727 422.411C301.91 444.778 309.868 469.705 329.278 483.394C331.543 485.09 334.211 486.451 336.912 487.443Z" fill="#130E0C"/>
  <path d="M366.341 442.481C366.156 442.464 366.156 442.464 366.173 442.28L367.636 436.457C363.24 435.682 358.927 433.985 355.086 431.213C345.993 424.797 329.13 417.857 314.416 409.809L309.894 422.612C302.078 444.979 310.035 469.906 329.446 483.595C333.472 486.384 337.6 488.064 341.996 488.839L340.533 494.661C340.516 494.846 340.516 494.846 340.701 494.863C343.168 494.344 362.202 489.756 371.993 478.366C374.495 475.43 376.679 471.907 377.957 468.115L386.227 444.859C387.454 441.62 387.389 438.263 386.384 435.007C377.57 439.785 368.053 442.079 366.341 442.481Z" fill="#15100C"/>
  <path d="M340.045 495.92L339.525 495.5C339.173 495.282 339.207 494.912 339.24 494.543L340.435 489.626C336.055 488.667 332.112 487.004 328.438 484.434C308.86 470.544 300.567 445.214 308.601 422.494L315.073 404.657L313.378 404.875L307.725 399.518L308.346 398.83C308.564 398.478 315.533 391.483 325.486 390.532C325.671 390.549 325.855 390.566 326.057 390.398C328.121 390.215 330.118 390.77 331.863 392.046L380.833 426.495C386.772 430.761 389.419 438.449 386.914 445.48L378.644 468.736C377.35 472.713 375.166 476.236 372.462 479.34C362.453 491.082 342.865 495.619 340.582 496.155L340.045 495.92ZM317.692 402.477L310.414 423.032C302.648 444.846 310.623 469.588 329.513 482.857C333.187 485.427 337.315 487.107 341.694 488.066L342.617 488.151L341.171 493.789C345.938 492.55 362.186 487.893 370.734 477.879C373.438 474.775 375.236 471.403 376.681 467.812L384.951 444.556C387.187 438.431 384.858 431.331 379.607 427.686L330.637 393.237C329.228 392.363 327.785 391.859 326.106 391.892C325.922 391.875 325.737 391.858 325.536 392.026C317.849 392.626 312.006 397.489 310.175 399.183L313.933 402.878L317.692 402.477Z" fill="#16110D"/>
  <path d="M317.192 489.361C334.505 501.555 358.66 493.899 365.703 473.881L373.973 450.625C376.259 443.946 373.947 436.661 368.176 432.597L319.206 398.148C314.828 395.141 308.701 397 306.936 402.051L297.657 428.194C289.807 450.93 297.765 475.857 317.192 489.361Z" fill="#003BB3"/>
  <path d="M355.547 479.095L364.826 452.953C366.305 448.993 364.847 444.578 361.341 442.21L331.781 421.45C327.403 418.443 321.276 420.303 319.511 425.353L310.232 451.496C309.711 453.123 309.173 454.936 308.652 456.563C305.926 468.041 310.568 480.379 320.181 487.215C320.181 487.215 320.366 487.232 320.349 487.417C330.499 494.488 342.75 494.864 352.873 490.019C353.412 486.16 354.287 482.703 355.547 479.095Z" fill="#9FC5FF"/>
  <path d="M332.411 495.966C326.873 495.459 321.285 493.459 316.571 490.05C296.993 476.159 288.7 450.829 296.735 428.11L306.013 401.967C307.005 399.266 309.054 397.219 311.739 396.348C314.425 395.477 317.362 395.932 319.627 397.628L368.597 432.077C374.535 436.343 377.183 444.031 374.678 451.062L366.408 474.318C362.912 484.05 355.339 491.548 345.368 494.731C341.155 496.021 336.841 496.371 332.411 495.966ZM315.33 397.793C314.407 397.709 313.467 397.809 312.51 398.094C310.395 398.831 308.766 400.357 308.01 402.522L298.731 428.665C290.966 450.478 298.94 475.22 317.83 488.489C325.883 494.066 335.784 495.716 345.184 492.667C354.584 489.618 361.738 482.64 364.999 473.445L373.269 450.188C375.504 444.064 373.176 436.963 367.925 433.318L318.955 398.869C317.696 398.382 316.438 397.895 315.33 397.793Z" fill="#16110D"/>
  <path d="M339.218 448.004L332.239 442.898C331.534 442.461 330.762 442.763 330.51 443.485L326.442 455.398L326.257 455.381C321.827 454.976 317.763 458.7 317.291 463.868C316.818 469.037 320.138 473.436 324.569 473.841C328.999 474.247 333.063 470.523 333.536 465.354C333.823 462.216 332.784 459.329 330.72 457.465L333.242 450.25C333.259 450.065 333.645 449.914 333.813 450.116L336.245 452.013C337.637 453.072 339.568 452.317 339.888 450.858C340.375 449.599 339.922 448.441 339.218 448.004Z" fill="#15100C"/>
  <path d="M324.503 474.581C319.519 474.125 315.879 469.138 316.386 463.6C316.876 458.247 320.973 454.154 325.806 454.224L329.622 443.032C329.858 442.495 330.278 441.975 331.05 441.673C331.62 441.539 332.359 441.607 332.879 442.027L339.858 447.133C340.898 447.972 341.501 449.517 341.014 450.775C340.728 451.866 339.922 452.537 338.948 453.006C337.991 453.291 336.884 453.19 336.011 452.551L334.099 451.073L332.048 457.215C334.094 459.263 334.932 462.318 334.645 465.457C333.954 470.978 329.487 475.037 324.503 474.581ZM326.007 456.104C322.13 455.749 318.47 459.137 318.047 463.752C317.625 468.367 320.61 472.363 324.487 472.718C328.548 473.089 332.024 469.684 332.446 465.069C332.7 462.3 331.828 459.615 329.933 457.952L329.598 457.549L332.17 449.78C332.388 449.428 332.606 449.075 332.992 448.925C333.379 448.774 333.748 448.808 334.083 449.211L336.516 451.108C336.868 451.327 337.405 451.562 337.791 451.411C338.177 451.26 338.58 450.925 338.815 450.388C339.051 449.851 338.749 449.079 338.229 448.659L331.25 443.553C331.065 443.536 331.065 443.536 331.065 443.536C331.065 443.536 330.881 443.519 330.864 443.704L326.544 456.339L326.007 456.104Z" fill="#16110D"/>
  <path d="M330.526 443.3L326.457 455.214L326.273 455.197C321.842 454.792 317.779 458.515 317.306 463.684C317.07 466.269 317.79 468.568 319.115 470.365C319.283 470.566 319.283 470.566 319.45 470.768C319.618 470.969 319.786 471.171 319.97 471.187C320.994 472.212 322.42 472.901 323.897 473.036C322.202 471.205 321.482 468.906 321.752 465.952C322.225 460.783 326.289 457.06 330.719 457.465L330.904 457.482L330.921 457.297L333.442 450.082C333.459 449.898 333.845 449.747 334.013 449.948L336.445 451.846C337.838 452.904 339.768 452.15 340.088 450.69C340.357 449.784 340.089 448.643 339.216 448.004L332.422 442.915C331.55 442.277 330.778 442.579 330.526 443.3Z" fill="#003BB3"/>
  <path d="M325.994 474.531L323.426 474.11C321.782 473.773 320.171 473.067 318.98 471.842C318.813 471.64 318.645 471.439 318.477 471.237C318.293 471.22 318.309 471.036 318.142 470.834C316.649 468.836 315.962 466.167 316.199 463.583C316.689 458.229 320.786 454.137 325.619 454.206L329.435 443.014C329.671 442.477 330.09 441.957 330.863 441.656C331.433 441.522 331.987 441.573 332.339 441.791L332.692 442.009L339.486 447.098C340.526 447.938 341.129 449.482 340.642 450.741C340.356 451.832 339.55 452.502 338.576 452.972C337.62 453.257 336.512 453.155 335.64 452.517L333.727 451.039L331.693 456.996L331.172 458.623L330.249 458.539C326.372 458.184 322.712 461.573 322.29 466.188C322.036 468.957 322.606 470.87 324.132 472.499L325.994 474.531ZM326.004 456.103C322.128 455.749 318.467 459.137 318.045 463.752C317.842 465.967 318.395 468.065 319.535 469.845L319.703 470.046C319.871 470.248 320.038 470.449 320.038 470.449C320.391 470.668 320.726 471.071 321.078 471.289C320.475 469.745 320.258 468.049 320.444 466.019C320.933 460.665 325.031 456.573 329.864 456.642L332.167 449.779C332.386 449.427 332.604 449.075 332.99 448.924C333.376 448.773 333.745 448.807 334.081 449.21L336.513 451.108C336.865 451.326 337.402 451.561 337.788 451.411C338.175 451.26 338.578 450.924 338.813 450.387C339.048 449.85 338.746 449.078 338.226 448.658L331.248 443.553C331.063 443.536 331.063 443.536 331.063 443.536C331.063 443.536 330.878 443.519 330.861 443.703L326.541 456.338L326.004 456.103Z" fill="#16110D"/>
  <path d="M370.78 428.554C367.709 427.528 366.15 424.221 367.36 421.167L373.143 404.757C376.908 394.119 373.34 382.251 364.684 375.13C361.916 372.83 356.647 371.417 353.206 372.405C349.563 373.561 346.726 376.094 345.465 379.701L339.195 397.37C338.17 400.441 334.862 402 331.809 400.79C328.738 399.764 327.179 396.457 328.389 393.403L334.407 376.456C336.911 369.425 342.084 363.756 349.184 361.427C356.285 359.098 363.819 360.159 369.943 364.443C383.75 374.268 389.563 392.112 383.999 408.17L378.217 424.58C376.973 428.003 373.666 429.562 370.78 428.554Z" fill="#003BB3"/>
  <path d="M371.618 368.505C365.495 364.222 357.96 363.16 350.859 365.489C343.943 367.835 338.569 373.673 336.082 380.519L330.064 397.466C329.829 398.003 329.761 398.741 329.711 399.295C330.382 400.101 331.254 400.739 332.328 401.21C335.398 402.235 338.521 400.659 339.714 397.79L345.984 380.121C347.245 376.514 350.099 373.796 353.725 372.825C357.166 371.837 362.25 373.233 365.203 375.55C369.715 379.128 372.784 384.248 374.325 389.787C376.755 395.78 377.07 402.51 374.835 408.635L369.052 425.045C368.817 425.582 368.749 426.32 368.699 426.874C369.37 427.68 370.242 428.318 371.316 428.789C374.386 429.814 377.509 428.239 378.702 425.369L384.485 408.959C387.04 401.375 387.212 393.386 385.085 386.118C382.571 379 377.926 372.805 371.618 368.505Z" fill="#9FC5FF"/>
  <path d="M360.91 371.62C358.142 369.319 352.873 367.906 349.432 368.895C345.79 370.051 342.952 372.583 341.691 376.191L335.421 393.86C334.396 396.931 331.089 398.489 328.035 397.279C327.85 397.263 327.85 397.262 327.683 397.061C328.269 398.79 329.443 400.2 331.255 400.738C334.326 401.764 337.449 400.188 338.642 397.319L344.912 379.65C346.172 376.042 349.027 373.325 352.652 372.354C356.094 371.365 361.178 372.761 364.131 375.079C364.466 375.482 365.003 375.717 365.338 376.12C364.181 374.525 362.638 373.081 360.91 371.62Z" fill="#15100C"/>
  <path d="M373.851 368.523C382.052 378.581 384.696 392.411 380.191 405.029L374.409 421.44C373.383 424.511 370.076 426.07 367.023 424.859C366.838 424.843 366.838 424.843 366.67 424.641C367.257 426.37 368.431 427.78 370.243 428.319C373.314 429.344 376.436 427.768 377.629 424.899L383.412 408.489C388.421 394.427 384.469 378.616 373.851 368.523Z" fill="#15100C"/>
  <path d="M371.97 429.779C371.416 429.729 370.862 429.678 370.325 429.443C366.902 428.199 365.008 424.489 366.252 421.066L372.034 404.655C375.581 394.37 372.348 382.905 363.843 376.17C361.428 374.088 356.528 372.709 353.271 373.714C349.83 374.702 347.362 377.269 346.135 380.507L339.865 398.176C339.344 399.804 338.101 401.179 336.54 401.967C334.979 402.755 333.116 402.771 331.488 402.25C329.86 401.729 328.485 400.486 327.697 398.925C326.909 397.363 326.893 395.5 327.415 393.873L333.432 376.925C335.971 369.526 341.714 363.722 348.814 361.393C356.116 358.896 364.02 359.992 370.311 364.476C384.47 374.52 390.418 392.934 384.636 409.345L378.853 425.755C377.878 428.272 374.924 430.05 371.97 429.779ZM371.048 427.647C373.565 428.622 376.301 427.197 377.276 424.68L383.059 408.27C388.589 392.581 382.926 375.124 369.287 365.499C363.516 361.435 356.166 360.39 349.451 362.568C342.921 364.763 337.766 370.248 335.278 377.094L329.261 394.042C328.773 395.3 328.84 396.609 329.477 397.784C330.114 398.959 330.969 399.782 332.228 400.27C333.486 400.757 334.795 400.691 335.97 400.054C337.145 399.417 337.968 398.561 338.456 397.303L344.726 379.634C346.003 375.842 349.059 372.957 353.088 371.65C357.1 370.528 362.536 372.142 365.304 374.443C374.313 381.782 377.847 394.018 374.048 405.026L368.266 421.436C367.089 424.121 368.514 426.857 371.048 427.647Z" fill="#16110D"/>
  <path d="M365.029 477.171L365.735 475.56C365.735 475.56 370.905 473.985 375.203 471.772L374.296 473.551C369.981 475.948 365.415 477.02 365.029 477.171Z" fill="#003BB3"/>
  <path d="M214.319 294.861L229.341 302.21C230.779 302.9 232.35 301.12 231.364 299.786L221.626 286.057C221.101 285.208 219.759 285.066 219.156 285.924L213.69 292.337C213.087 293.195 213.311 294.473 214.319 294.861Z" fill="#458FFF"/>
  <path d="M229.47 302.94C229.868 303.059 230.082 303.21 230.447 303.146L223.944 293.932C223.42 293.083 222.078 292.941 221.475 293.8L218.183 297.574L229.47 302.94Z" fill="#FAE9CC"/>
  <path d="M230.478 303.329C229.931 303.424 229.351 303.338 228.922 303.036L213.9 295.687C213.289 295.418 212.796 294.751 212.486 294.053C212.358 293.322 212.596 292.528 213.048 291.885L218.513 285.472C218.966 284.829 219.664 284.518 220.426 284.573C221.189 284.628 221.832 285.08 222.293 285.564L232.032 299.294C232.771 300.293 232.597 301.453 231.812 302.343C231.542 302.955 231.026 303.233 230.478 303.329ZM220.38 286.463C220.198 286.495 220.015 286.527 220.047 286.71L214.581 293.122C214.431 293.337 214.462 293.519 214.494 293.702C214.526 293.884 214.741 294.035 214.955 294.186L229.977 301.534C230.406 301.836 230.707 301.407 230.89 301.375C231.072 301.343 231.191 300.946 230.945 300.613L221.206 286.883C220.96 286.55 220.746 286.399 220.38 286.463Z" fill="#16110D"/>
  <path d="M219.201 291.562C216.543 294.661 212.065 294.879 208.998 292.404L37.4187 145.12C34.7807 142.946 34.4758 139.048 36.832 136.378L38.2521 134.812C40.4256 132.174 44.3242 131.869 46.9941 134.226L218.573 281.51C221.426 283.834 221.858 288.463 219.201 291.562Z" fill="#458FFF"/>
  <path d="M218.522 286.6L46.9435 139.316C44.3055 137.142 40.407 137.447 38.2015 139.903L36.7814 141.468C36.6307 141.683 36.48 141.897 36.3293 142.112C36.402 143.605 37.2051 144.97 38.3415 146.088L209.92 293.373C213.019 296.03 213.691 292.337 216.166 289.27C216.5 289.024 216.618 288.627 216.92 288.198C216.998 286.49 220.056 287.838 218.522 286.6Z" fill="white"/>
  <path d="M215.053 294.735C212.679 295.15 210.329 294.62 208.334 292.899L36.7551 145.614C33.8707 143.108 33.4701 138.661 35.945 135.594L37.3651 134.029C38.6345 132.678 40.3329 131.628 42.2228 131.674C44.0808 131.538 45.8838 132.164 47.4173 133.401L218.996 280.685C222.342 283.676 222.838 288.67 219.847 292.016C218.61 293.549 216.879 294.416 215.053 294.735ZM41.994 133.596C40.7158 133.82 39.684 134.376 38.8986 135.266L37.4786 136.832C35.6064 139.041 35.8156 142.391 38.0246 144.263L209.604 291.548C212.242 293.721 216.14 293.416 218.528 290.929C220.702 288.291 220.397 284.392 217.909 282.004L46.3305 134.72C45.226 133.784 43.852 133.46 42.5419 133.5C42.1767 133.564 42.1767 133.564 41.994 133.596Z" fill="#16110D"/>
  <path d="M213.433 286.549C210.776 289.648 206.297 289.866 203.23 287.392L209.214 292.556C212.313 295.213 216.759 294.813 219.417 291.714C222.074 288.615 221.673 284.169 218.574 281.511L212.591 276.347C215.69 279.004 215.908 283.482 213.433 286.549Z" fill="#458FFF"/>
  <path d="M215.943 287.992C214.737 289.708 212.856 290.789 212.372 291.25C211.587 292.14 209.752 291.332 208.688 291.706L209.546 292.309C212.216 294.665 216.329 294.51 218.932 292.174C219.645 289.791 218.769 286.933 217.108 284.965C217.14 285.148 216.847 286.705 215.943 287.992Z" fill="#FDECCC"/>
  <path d="M215.48 295.035C215.297 295.067 214.932 295.131 214.75 295.163C212.527 295.363 210.509 294.587 208.944 293.167L202.96 288.002L204.23 286.651C206.868 288.825 210.766 288.52 213.154 286.033C214.241 284.714 214.716 283.125 214.611 281.45C214.507 279.775 213.672 278.227 212.353 277.14L213.622 275.789L219.606 280.954C221.171 282.374 222.253 284.255 222.453 286.478C222.653 288.701 221.877 290.718 220.457 292.284C218.822 293.699 217.306 294.716 215.48 295.035ZM207.821 289.976L210.03 291.848C211.349 292.934 212.938 293.41 214.613 293.305C216.289 293.2 217.836 292.365 218.923 291.046C220.01 289.727 220.485 288.139 220.38 286.464C220.276 284.788 219.441 283.241 218.122 282.154L215.913 280.282C215.945 280.464 216.009 280.829 216.04 281.012C216.241 283.235 215.464 285.253 214.044 286.818C212.624 288.384 210.743 289.465 208.52 289.665C208.369 289.88 208.004 289.944 207.821 289.976Z" fill="#16110D"/>
  <path d="M37.8244 134.512L36.4043 136.077C34.5322 138.286 34.4949 141.304 36.0054 143.486C36.4664 143.97 36.7128 144.303 36.9273 144.454C38.4927 145.874 41.8665 144.72 44.5559 141.804C47.0947 139.102 48.2276 135.893 46.9955 134.227L46.5346 133.743C43.8965 131.569 39.998 131.874 37.8244 134.512Z" fill="#458FFF"/>
  <path d="M41.1786 138.63L40.0919 139.949C38.5211 141.729 38.42 144.382 39.684 146.231C39.9304 146.564 40.3595 146.865 40.3914 147.048C41.7423 148.317 44.5683 147.259 46.9563 144.772C49.1937 142.499 50.0252 139.719 49.0395 138.386L48.5786 137.902C46.4015 136.212 43.0508 136.421 41.1786 138.63Z" fill="#458FFF"/>
  <path d="M36.9246 140.126C36.1392 141.016 35.7509 142.025 35.5453 143.002C35.5772 143.185 35.6091 143.367 35.7917 143.335C36.2526 143.819 36.4991 144.153 36.7136 144.303C38.279 145.723 41.6528 144.569 44.3422 141.653C45.6116 140.302 46.5158 139.015 46.8402 137.641C44.2022 135.467 40.4863 135.74 38.3127 138.378L36.9246 140.126Z" fill="#9FC5FF"/>
  <path d="M39.4061 145.715C38.1279 145.938 36.9685 145.764 36.2611 144.947C36.0466 144.796 35.8001 144.463 35.3392 143.979C33.5504 141.281 33.6745 137.684 35.7293 135.443L37.1494 133.877C39.6562 130.993 44.1026 130.592 47.1696 133.067L47.8451 133.702C49.3236 135.702 48.2546 139.276 45.2318 142.439C43.2958 144.282 41.2322 145.396 39.4061 145.715ZM41.5638 133.294C40.4682 133.486 39.2537 134.074 38.4683 134.964L37.0483 136.53C35.4775 138.309 35.3764 140.962 36.6405 142.811C36.8869 143.144 37.3159 143.446 37.3478 143.628C38.2697 144.596 41.2783 143.506 43.6664 141.018C46.0545 138.531 46.8859 135.751 46.1467 134.751L45.6857 134.267C44.5813 133.331 43.0247 133.039 41.5638 133.294Z" fill="#16110D"/>
  <path d="M51.9398 143.087L50.7324 144.493L167.613 244.824L168.82 243.418L51.9398 143.087Z" fill="#16110D"/>
  <path d="M171.598 245.73L170.391 247.136L188.115 262.349L189.322 260.942L171.598 245.73Z" fill="#16110D"/>
  <path d="M217.813 293.311L227.768 299.663C228.84 300.417 230.151 300.376 231.365 299.787L231.351 301.86L229.31 302.028L213.709 294.593L217.813 293.311Z" fill="#15100C"/>
  <path d="M211.101 288.274L217.084 293.439L213.615 294.045L209.675 293.04L205.408 289.081L208.791 289.054L211.101 288.274Z" fill="#15100C"/>
  <path d="M42.2566 143.711L211.102 288.274L206.719 289.04L205.409 289.081L37.39 144.938L40.9553 144.879L42.2566 143.711Z" fill="#15100C"/>
  <path d="M42.2543 143.711C42.2543 143.711 34.7463 138.436 37.824 134.511L35.6824 137.332L35.0335 140.08L35.5759 143.184L37.698 145.636L40.985 145.062L42.2543 143.711Z" fill="#15100C"/>
  <path d="M39.1608 145.381C38.4304 145.509 37.8825 145.605 37.6999 145.637L37.723 144.692C37.723 144.692 39.9781 144.674 41.3113 143.688L41.8042 144.355C40.9869 145.062 40.0738 145.222 39.1608 145.381Z" fill="#458FFF"/>
  <path d="M208.005 289.944C206.91 290.136 206.148 290.081 205.965 290.113L205.988 289.168C205.988 289.168 208.608 289.086 210.521 288.187L211.046 289.037C209.982 289.411 208.919 289.785 208.005 289.944Z" fill="#458FFF"/>
  <path d="M214.505 294.83C214.323 294.862 214.14 294.894 214.14 294.894L213.98 293.981C213.98 293.981 215.473 293.908 216.806 292.923L217.331 293.772C216.149 294.543 215.053 294.734 214.505 294.83Z" fill="#458FFF"/>
  <path d="M289.441 176.144L288.619 174.952C288.133 174.163 288.201 173.425 288.637 172.72L290.334 170.455L282.613 171.425L281.774 170.417C281.271 169.813 281.339 169.074 281.591 168.353L285.002 161.591L272.563 165.293C271.607 165.578 270.533 165.107 270.248 164.151C269.963 163.194 270.249 162.103 271.223 161.634L275.504 159.605C276.162 152.406 274.604 147.051 271.955 143.458C264.968 152.685 255.278 162.968 245.561 163.382C240.14 163.63 235.19 160.758 231.25 154.999C225.347 146.269 228.321 140.212 230.639 137.259C236.92 129.643 251.992 127.671 263.636 132.646C266.673 134.04 269.14 135.569 271.37 137.634C274.159 133.608 276.359 129.9 277.468 127.954C277.922 127.065 279.063 126.797 279.952 127.251C280.842 127.704 281.109 128.846 280.656 129.735C279.346 131.849 277.111 135.926 273.92 140.287C277.744 145.291 279.553 151.972 278.86 159.54L288.428 156.692L289.267 157.7C289.77 158.304 289.87 159.244 289.618 159.966L285.787 167.247L294.448 166.178L295.27 167.37C295.756 168.159 295.688 168.898 295.251 169.602L293.555 171.867L300.336 170.998C302.871 169.741 308.21 166.32 308.363 162.611C308.515 160.95 307.375 159.17 305.311 157.306C304.624 156.685 304.339 155.728 304.977 154.856C305.615 153.983 306.757 153.715 307.612 154.538C310.732 157.057 312.157 159.794 312.072 162.764C311.648 169.427 302.684 173.819 301.71 174.288L301.324 174.439L300.955 174.405L289.441 176.144ZM253.482 133.764C245.544 133.038 237.722 135.115 233.96 139.611C231.021 143.251 231.17 147.732 234.792 152.903C238.079 157.671 241.585 160.04 245.899 159.69C254.307 159.342 263.409 149.378 269.976 140.671C267.577 138.404 265.111 136.876 262.963 135.935C259.909 134.725 256.62 134.051 253.482 133.764Z" fill="#9FC5FF"/>
  <path d="M281.882 124.449C281.177 124.012 280.876 123.24 280.943 122.501C281.246 121.226 281.23 119.363 281.164 118.054C281.064 117.114 281.887 116.259 282.642 116.142C283.766 116.058 284.639 116.697 284.722 117.821C284.772 119.315 284.77 121.362 284.417 123.191C284.114 124.467 282.956 124.919 281.882 124.449Z" fill="#9FC5FF"/>
  <path d="M288.412 185.358C287.741 184.552 288.027 183.461 288.833 182.79C293.03 179.637 301.928 173.936 306.173 176.372C307.062 176.826 308.085 177.85 308.453 179.931C308.537 181.056 307.697 182.096 306.405 181.978C305.482 181.893 304.979 181.289 304.694 180.332C304.543 179.946 304.56 179.761 304.392 179.56C302.614 178.652 296.369 181.804 290.795 185.762C290.006 186.248 288.898 186.147 288.412 185.358Z" fill="#9FC5FF"/>
  <path d="M288.453 172.703L287.631 171.511C287.145 170.722 287.212 169.983 287.649 169.279L289.345 167.014L281.625 167.983L280.786 166.976C280.283 166.371 280.35 165.633 280.603 164.911L284.013 158.15L271.575 161.852C270.618 162.137 269.545 161.666 269.26 160.709C268.975 159.753 269.261 158.662 270.235 158.192L274.515 156.164C275.174 148.965 273.616 143.61 270.966 140.017C263.98 149.244 254.29 159.526 244.573 159.94C239.152 160.189 234.202 157.316 230.261 151.558C224.359 142.827 227.333 136.77 229.65 133.818C235.931 126.202 251.004 124.23 262.648 129.204C265.685 130.599 268.151 132.127 270.382 134.193C273.17 130.167 275.371 126.459 276.48 124.513C276.933 123.623 278.075 123.356 278.964 123.809C279.853 124.263 280.121 125.404 279.668 126.293C278.357 128.407 276.123 132.484 272.932 136.846C276.755 141.85 278.564 148.53 277.872 156.099L287.44 153.251L288.278 154.258C288.782 154.863 288.882 155.803 288.63 156.524L284.799 163.806L293.46 162.737L294.281 163.929C294.767 164.718 294.7 165.456 294.263 166.161L292.567 168.426L299.348 167.557C301.883 166.299 307.221 162.879 307.375 159.17C307.527 157.508 306.386 155.729 304.323 153.865C303.635 153.243 303.35 152.287 303.989 151.414C304.627 150.542 305.768 150.274 306.624 151.097C309.744 153.616 311.169 156.352 311.083 159.323C310.66 165.985 301.696 170.378 300.722 170.847L300.336 170.998L299.967 170.964L288.453 172.703ZM252.511 130.138C244.573 129.412 236.751 131.489 232.989 135.985C230.05 139.625 230.198 144.106 233.821 149.277C237.107 154.045 240.614 156.414 244.927 156.064C253.336 155.716 262.437 145.752 269.004 137.045C266.606 134.778 264.139 133.25 261.992 132.309C258.921 131.283 255.649 130.425 252.511 130.138Z" fill="#16110D"/>
  <path d="M280.896 121.007C280.191 120.571 279.889 119.798 279.957 119.06C280.26 117.785 280.244 115.922 280.178 114.613C280.077 113.673 280.9 112.817 281.656 112.7C282.78 112.617 283.652 113.255 283.736 114.38C283.785 115.873 283.784 117.921 283.431 119.75C283.145 120.841 281.97 121.478 280.896 121.007Z" fill="#16110D"/>
  <path d="M287.423 181.916C286.753 181.11 287.038 180.02 287.844 179.349C292.042 176.196 300.94 170.495 305.185 172.931C306.074 173.384 307.097 174.408 307.465 176.49C307.548 177.614 306.709 178.654 305.417 178.536C304.494 178.452 303.99 177.847 303.706 176.89C303.555 176.504 303.572 176.32 303.404 176.118C301.625 175.211 295.38 178.363 289.806 182.32C289.202 182.824 287.91 182.705 287.423 181.916Z" fill="#16110D"/>
  <path d="M240.602 351.391L239.965 350.216C239.479 349.427 239.546 348.688 239.983 347.984L241.058 346.407L234.848 347.142L234.194 346.151C233.691 345.547 233.758 344.808 234.01 344.087L236.715 338.936L226.963 341.767C226.006 342.051 224.932 341.581 224.648 340.624C224.363 339.667 224.649 338.577 225.622 338.107L228.929 336.548C229.47 330.641 228.18 326.428 226.05 323.255C220.121 331.089 211.708 339.627 203.669 340.008C198.802 340.308 194.759 337.704 191.304 332.734C186.24 325.011 188.761 319.844 190.86 317.244C196.301 310.668 209.309 308.879 219.51 313.349C222.01 314.509 224.124 315.819 226.02 317.481C227.951 314.68 229.698 311.861 231.009 309.747C231.462 308.858 232.604 308.59 233.493 309.044C234.382 309.497 234.65 310.639 234.196 311.528C233.105 313.29 231.122 316.645 228.569 320.134C231.722 324.332 233.263 329.871 232.874 336.165L240.914 333.735L241.753 334.743C242.256 335.347 242.356 336.287 242.104 337.009L239.147 342.881L246.112 342.029L246.749 343.204C247.235 343.993 247.168 344.732 246.547 345.419L245.488 346.812L250.574 346.16C252.723 345.054 257.071 342.287 257.341 339.333C257.46 338.041 256.655 336.664 254.927 335.203C254.239 334.582 253.954 333.625 254.593 332.753C255.231 331.881 256.372 331.613 257.228 332.435C259.828 334.535 261.085 337.07 260.866 339.47C260.527 345.209 252.721 349.149 251.764 349.434L251.378 349.584L251.008 349.551L240.602 351.391ZM210.044 315.089C203.398 314.481 196.718 316.29 193.577 320.098C190.453 323.722 192.28 328.17 194.242 331.142C197.043 335.121 200.029 337.069 203.403 336.819C210.133 336.504 217.74 328.637 223.668 320.803C221.79 318.956 219.659 317.83 217.864 317.108C215.548 315.965 212.813 315.343 210.044 315.089Z" fill="#16110D"/>
  <path d="M234.25 306.879C233.545 306.442 233.243 305.67 233.311 304.932C233.58 304.026 233.513 302.717 233.43 301.592C233.33 300.652 234.153 299.797 234.908 299.68C236.033 299.596 236.888 300.419 236.988 301.359C237.072 302.484 236.936 303.96 236.801 305.437C236.683 306.729 235.323 307.35 234.25 306.879Z" fill="#16110D"/>
  <path d="M239.861 359.513C239.19 358.707 239.476 357.617 240.282 356.946C244.059 354.313 251.564 349.601 255.289 351.617C255.993 352.054 257.033 352.894 257.268 354.404C257.535 355.546 256.511 356.569 255.403 356.468L255.219 356.451C254.48 356.383 253.793 355.762 253.676 355.006C253.693 354.822 253.508 354.805 253.525 354.62C252.283 353.948 247.23 356.278 242.445 359.75C241.639 360.421 240.532 360.319 239.861 359.513Z" fill="#16110D"/>
</svg>
