<svg width="40" height="40" viewBox="0 0 40 40" fill="none"
  xmlns="http://www.w3.org/2000/svg">
  <g clip-path="url(#clip0_1134_10160)">
    <path d="M32.9099 36.0969L28.5963 2.43446C28.5523 2.08991 28.2374 1.84669 27.8931 1.89094L2.95783 5.08613C2.61359 5.13038 2.37036 5.44502 2.41431 5.78925L6.72766 39.452C6.7713 39.791 7.09143 40.0391 7.43109 39.9955L32.3664 36.8003C32.7058 36.7567 32.9533 36.4365 32.9099 36.0969Z" fill="#D2CAD0"/>
    <path d="M31.2074 4.89294L6.24829 1.89031C5.90313 1.84881 5.59063 2.09448 5.54943 2.43902L1.49578 36.1341C1.45428 36.4786 1.69995 36.7917 2.04449 36.8329L27.0036 39.8359C27.0286 39.8386 27.054 39.8401 27.0787 39.8401C27.2187 39.8401 27.3555 39.7934 27.4669 39.7062C27.5981 39.603 27.6829 39.4523 27.7028 39.2869L31.7564 5.5921C31.7979 5.24725 31.5519 4.93444 31.2074 4.89294Z" fill="#E1DCE0"/>
    <path d="M26.0019 0H0.862732C0.515747 0 0.234375 0.281372 0.234375 0.628357V34.5663C0.234375 34.9133 0.515747 35.1947 0.862732 35.1947H26.0019C26.3492 35.1947 26.6306 34.9133 26.6306 34.5663V0.628357C26.6306 0.281372 26.3492 0 26.0019 0V0Z" fill="#F0EDEF"/>
    <path d="M3.37677 34.5663V0.628357C3.37677 0.281372 3.65814 0 4.00513 0H0.862732C0.515747 0 0.234375 0.281372 0.234375 0.628357V34.5663C0.234375 34.9133 0.515747 35.1947 0.862732 35.1947H4.00513C3.65814 35.1947 3.37677 34.9133 3.37677 34.5663Z" fill="#D2CAD0"/>
    <path d="M13.4321 11.3125C10.6599 11.3125 8.4043 13.5681 8.4043 16.3403C8.4043 18.1353 9.37903 19.8028 10.9183 20.6948V22.6251C10.9183 22.9724 11.1997 23.2537 11.5467 23.2537H15.3177C15.6647 23.2537 15.9461 22.9724 15.9461 22.6251V20.6948C17.4854 19.8028 18.4601 18.1353 18.4601 16.3403C18.4601 13.5681 16.2046 11.3125 13.4321 11.3125Z" fill="#FFE06F"/>
    <path d="M12.8037 22.6251V20.6948C11.2644 19.8028 10.2897 18.1353 10.2897 16.3403C10.2897 13.8903 12.0518 11.845 14.3748 11.4025C14.0693 11.3442 13.7543 11.3125 13.4321 11.3125C10.6599 11.3125 8.4043 13.5681 8.4043 16.3403C8.4043 18.1353 9.37903 19.8028 10.9183 20.6948V22.6251C10.9183 22.9724 11.1997 23.2537 11.5467 23.2537H13.4321C13.0851 23.2537 12.8037 22.9724 12.8037 22.6251Z" fill="#FFCB0F"/>
    <path d="M15.3184 16.3398H11.5473C11.2003 16.3398 10.9189 16.6212 10.9189 16.9685C10.9189 17.3155 11.2003 17.5969 11.5473 17.5969H12.8043V21.3676C12.8043 21.7149 13.0857 21.9963 13.4327 21.9963C13.78 21.9963 14.0613 21.7149 14.0613 21.3676V17.5969H15.3184C15.6653 17.5969 15.9467 17.3155 15.9467 16.9685C15.9467 16.6212 15.6653 16.3398 15.3184 16.3398Z" fill="#FFB047"/>
    <path d="M15.9465 21.3682H10.9187C10.5714 21.3682 10.29 21.6498 10.29 21.9968V23.8822C10.29 25.2683 11.418 26.3962 12.8041 26.3962H14.0611C15.4472 26.3962 16.5748 25.2683 16.5748 23.8822V21.9968C16.5748 21.6498 16.2935 21.3682 15.9465 21.3682Z" fill="#867383"/>
    <path d="M12.1757 23.8822V21.9968C12.1757 21.6498 12.4571 21.3682 12.8041 21.3682H10.9187C10.5714 21.3682 10.29 21.6498 10.29 21.9968V23.8822C10.29 25.2683 11.418 26.3962 12.8041 26.3962H14.0611C14.1676 26.3962 14.2723 26.3886 14.3751 26.3758C13.137 26.2205 12.1757 25.1618 12.1757 23.8822Z" fill="#685064"/>
    <path d="M13.4321 10.684C13.0851 10.684 12.8037 10.4026 12.8037 10.0553V8.79858C12.8037 8.45129 13.0851 8.16992 13.4321 8.16992C13.7794 8.16992 14.0607 8.45129 14.0607 8.79858V10.0553C14.0607 10.4026 13.7794 10.684 13.4321 10.684Z" fill="#FFC475"/>
    <path d="M10.2897 11.5263C10.0724 11.5263 9.86126 11.4137 9.74499 11.212L9.11664 10.1235C8.94299 9.82286 9.04584 9.43864 9.34643 9.265C9.64734 9.09135 10.0316 9.1945 10.2049 9.4951L10.8336 10.5837C11.0072 10.8843 10.9041 11.2685 10.6035 11.4421C10.5046 11.4992 10.3962 11.5263 10.2897 11.5263Z" fill="#FFC475"/>
    <path d="M7.98904 13.8261C7.88223 13.8261 7.7742 13.7989 7.67532 13.7419L6.58676 13.1132C6.28616 12.9398 6.18332 12.5553 6.35666 12.2547C6.5303 11.9541 6.91482 11.8513 7.21542 12.0246L8.30368 12.6533C8.60428 12.8269 8.70743 13.2111 8.53378 13.5117C8.41751 13.7135 8.20602 13.8261 7.98904 13.8261Z" fill="#FFC475"/>
    <path d="M7.14709 16.9689H5.89038C5.54309 16.9689 5.26172 16.6876 5.26172 16.3403C5.26172 15.9933 5.54309 15.7119 5.89038 15.7119H7.14709C7.49438 15.7119 7.77576 15.9933 7.77576 16.3403C7.77576 16.6876 7.49438 16.9689 7.14709 16.9689Z" fill="#FFC475"/>
    <path d="M6.90184 20.74C6.68455 20.74 6.47337 20.6274 6.35679 20.4256C6.18315 20.125 6.2863 19.7408 6.5869 19.5672L7.67546 18.9388C7.97606 18.7652 8.36058 18.8683 8.53392 19.1689C8.70756 19.4692 8.60441 19.8537 8.30381 20.0274L7.21525 20.6557C7.11638 20.7128 7.00834 20.74 6.90184 20.74Z" fill="#FFC475"/>
    <path d="M19.9625 20.74C19.856 20.74 19.748 20.7128 19.6491 20.6557L18.5605 20.0274C18.2599 19.8537 18.1568 19.4692 18.3304 19.1689C18.5041 18.8683 18.8883 18.7652 19.1889 18.9388L20.2774 19.5672C20.578 19.7408 20.6812 20.125 20.5075 20.4256C20.391 20.6274 20.1798 20.74 19.9625 20.74Z" fill="#FFC475"/>
    <path d="M20.9733 16.9689H19.7162C19.3693 16.9689 19.0879 16.6876 19.0879 16.3403C19.0879 15.9933 19.3693 15.7119 19.7162 15.7119H20.9733C21.3203 15.7119 21.6016 15.9933 21.6016 16.3403C21.6016 16.6876 21.3203 16.9689 20.9733 16.9689Z" fill="#FFC475"/>
    <path d="M18.8752 13.826C18.6579 13.826 18.4467 13.7134 18.3304 13.5117C18.1568 13.2111 18.2599 12.8269 18.5605 12.6532L19.6488 12.0246C19.9497 11.8512 20.3339 11.9544 20.5075 12.2547C20.6809 12.5553 20.578 12.9398 20.2774 13.1131L19.1889 13.7418C19.09 13.7989 18.9817 13.826 18.8752 13.826Z" fill="#FFC475"/>
    <path d="M16.5732 11.5263C16.4667 11.5263 16.3586 11.4992 16.2597 11.4421C15.9591 11.2685 15.856 10.8843 16.0296 10.5837L16.658 9.4951C16.8316 9.1945 17.2159 9.09135 17.5165 9.265C17.8171 9.43864 17.9202 9.82286 17.7466 10.1235L17.1182 11.212C17.0016 11.4137 16.7904 11.5263 16.5732 11.5263Z" fill="#FFC475"/>
    <path d="M39.8286 33.9373V10.0551C39.8286 9.70813 39.5472 9.42676 39.1999 9.42676H35.4291C35.0822 9.42676 34.8008 9.70813 34.8008 10.0551V33.9373C34.8008 34.977 35.6464 35.8229 36.6862 35.8229H37.9429C38.9826 35.8229 39.8286 34.977 39.8286 33.9373Z" fill="#E1DCE0"/>
    <path d="M36.6862 33.9373V10.0551C36.6862 9.70813 36.9675 9.42676 37.3145 9.42676H35.4291C35.0822 9.42676 34.8008 9.70813 34.8008 10.0551V33.9373C34.8008 34.977 35.6464 35.8229 36.6862 35.8229H37.9429C38.05 35.8229 38.155 35.8135 38.2572 35.7961C37.3667 35.6459 36.6862 34.8699 36.6862 33.9373Z" fill="#C3B9C1"/>
    <path d="M39.7166 10.4135C39.834 10.2441 39.8606 10.0281 39.7886 9.8349L37.9029 4.80713C37.812 4.56451 37.5736 4.39941 37.3145 4.39941C37.0554 4.39941 36.8171 4.56451 36.7261 4.80713L34.8408 9.8349C34.8139 9.90662 34.8008 9.98138 34.8008 10.0555C34.8008 10.1819 34.8386 10.307 34.9125 10.4135C35.03 10.5832 35.2228 10.6842 35.4291 10.6842H39.1999C39.4062 10.6842 39.5991 10.5829 39.7166 10.4135Z" fill="#FFEBD1"/>
    <path d="M38.1919 6.59546L38.3787 6.07452L37.9032 4.80713C37.8123 4.56451 37.5739 4.39941 37.3148 4.39941C37.0557 4.39941 36.8174 4.56451 36.7261 4.80713L34.8408 9.8349C34.8142 9.90662 34.8008 9.98138 34.8008 10.0555C34.8008 10.1819 34.8389 10.307 34.9128 10.4135C35.0303 10.5832 35.2231 10.6842 35.4294 10.6842H36.3166L38.1919 6.59546Z" fill="#FFD8A3"/>
    <path d="M37.9028 4.80713C37.8119 4.56451 37.5735 4.39941 37.3145 4.39941C37.0554 4.39941 36.817 4.56451 36.7258 4.80713L36.1719 6.28479H38.457L37.9028 4.80713Z" fill="#958492"/>
    <path d="M34.8008 10.0557H39.8286V32.0524H34.8008V10.0557Z" fill="#A79BED"/>
    <path d="M34.8008 10.0557H36.6862V32.0524H34.8008V10.0557Z" fill="#6C58E0"/>
  </g>
  <defs>
    <clipPath id="clip0_1134_10160">
      <rect width="40" height="40" fill="white"/>
    </clipPath>
  </defs>
</svg>
