<svg width="40" height="40" viewBox="0 0 40 40" fill="none"
  xmlns="http://www.w3.org/2000/svg">
  <path d="M20 40C31.0457 40 40 31.0457 40 20C40 8.9543 31.0457 0 20 0C8.9543 0 0 8.9543 0 20C0 31.0457 8.9543 40 20 40Z" fill="#FDBF00"/>
  <path d="M39.9644 18.819L30.492 9.34668L9.1333 30.7054L18.3605 39.9325C18.9013 39.9764 19.4479 39.9998 20 39.9998C31.0457 39.9998 40 31.0455 40 19.9998C40 19.6033 39.9871 19.2099 39.9644 18.819Z" fill="#FF9100"/>
  <path d="M13.1299 30.3724L11.0553 32.647L9.13416 30.7106L7.19775 28.7895L9.47229 26.7148L12.8379 27.0068L13.1299 30.3724Z" fill="#3E5959"/>
  <path d="M12.838 27.0068L13.13 30.3725L11.0554 32.6471L9.13428 30.7107L12.838 27.0068Z" fill="#293939"/>
  <path d="M18.5804 24.3834L13.1297 30.3719L11.301 28.543L9.47217 26.7143L15.4607 21.2637L18.5804 24.3834Z" fill="#00C0F1"/>
  <path d="M17.0285 22.8311L18.5807 24.3832L13.13 30.3717L11.3013 28.5429L17.0285 22.8311Z" fill="#009AE4"/>
  <path d="M30.4935 9.34886C26.5878 5.44417 20.2833 5.44503 16.3786 9.35073C12.474 13.2564 12.4748 19.5609 16.3805 23.4656C20.2862 27.3703 26.5907 27.3694 30.4954 23.4637C34.4001 19.558 34.3992 13.2535 30.4935 9.34886Z" fill="#537983"/>
  <path d="M30.4909 23.4616C26.5873 27.3652 20.2864 27.3805 16.3828 23.4616L30.4909 9.35352C34.3945 13.2571 34.4098 19.558 30.4909 23.4616Z" fill="#3E5959"/>
  <path d="M29.4137 10.4307C26.1063 7.12336 20.7669 7.12336 17.4595 10.4307C14.1522 13.738 14.1522 19.0775 17.4595 22.3848C20.7669 25.6922 26.1063 25.6922 29.4137 22.3848C32.721 19.0775 32.721 13.7381 29.4137 10.4307Z" fill="#E0F4FF"/>
  <path d="M29.4151 22.3862C26.1108 25.6904 20.7627 25.6904 17.4585 22.3862L29.4151 10.4297C32.7192 13.7339 32.7192 19.082 29.4151 22.3862Z" fill="#BBDCFF"/>
  <path d="M25.7406 13.3342C25.7406 12.0593 24.7116 11.0303 23.4367 11.0303C22.1619 11.0303 21.1328 12.0593 21.1328 13.3342C21.1328 14.609 22.1619 15.6381 23.4367 15.6381C24.7116 15.6381 25.7406 14.609 25.7406 13.3342Z" fill="#00C0F1"/>
  <path d="M24.1437 15.7011C23.9132 15.655 23.6826 15.6396 23.4368 15.6396C21.3159 15.6396 19.5947 17.3609 19.5947 19.4817V21.7869H27.2789V19.4817C27.2789 17.6067 25.9264 16.0392 24.1437 15.7011Z" fill="#25D9F8"/>
  <path d="M27.2789 19.4808V21.7861H19.5947V20.2493L24.1438 15.7002C25.9264 16.0383 27.2789 17.6058 27.2789 19.4808Z" fill="#00C0F1"/>
</svg>
