<svg width="46" height="46" viewBox="0 0 46 46" fill="none"
  xmlns="http://www.w3.org/2000/svg">
  <path d="M22.9984 46.0002L11.0486 33.8351C9.58252 32.398 8.9547 30.3383 9.32584 28.3116L7.02539 26.0098L16.5497 20.2954L16.9459 20.6916C18.97 20.3205 21.031 20.9482 22.48 22.4249L24.9056 24.8504L20.4849 29.2711L21.4193 30.2054C21.9272 30.7134 22.8327 30.7134 23.3407 30.2054L24.9345 28.6788L30.628 34.3733C31.6804 35.4259 31.6803 37.1324 30.6278 38.1849L22.9984 46.0002Z" fill="#FFD9B3"/>
  <path d="M35.1559 22.1821L31.6762 31.0524L24.8867 32.4513C23.2964 33.6912 20.9785 33.5832 19.523 32.1009L16.666 29.2708L23.5391 22.4248C24.9675 20.9423 27.043 20.3224 29.0645 20.6998L29.4574 20.3022L35.1559 22.1821Z" fill="#FFBB99"/>
  <path d="M7.0097 29.7959L0 22.6535L9.53629 13.1172L16.5473 20.2978L7.0097 29.7959Z" fill="#82E1D8"/>
  <path d="M38.9832 26.0095L35.1559 22.1821L24.8867 32.4513L30.6277 38.1923L34.9401 33.8528C36.4226 32.3973 37.0426 30.3489 36.6651 28.3005L38.9832 26.0095Z" fill="#FF9680"/>
  <path d="M38.9903 29.7959L29.4526 20.2978L36.4637 12.8477L46 22.3839L38.9903 29.7959Z" fill="#4D5E80"/>
  <path d="M23 18.8672C28.21 18.8672 32.4336 14.6436 32.4336 9.43359C32.4336 4.22356 28.21 0 23 0C17.79 0 13.5664 4.22356 13.5664 9.43359C13.5664 14.6436 17.79 18.8672 23 18.8672Z" fill="#A0E65C"/>
  <path d="M32.4336 9.43359C32.4336 4.22355 28.21 0 23 0V18.8672C28.21 18.8672 32.4336 14.6436 32.4336 9.43359Z" fill="#79CC52"/>
  <path d="M21.7864 13.7649L17.9751 9.95353L19.8808 8.04785L21.7864 9.95353L25.715 6.02637L27.6206 7.93204L21.7864 13.7649Z" fill="#F3F5F9"/>
  <path d="M23 12.5518L27.6208 7.93204L25.7151 6.02637L23 8.74046V12.5518Z" fill="#E1E6F0"/>
</svg>
