<svg width="65" height="65" viewBox="0 0 65 65" fill="none" xmlns="http://www.w3.org/2000/svg">
<g clip-path="url(#clip0_376_8653)">
<path d="M37 0C36.2988 0 35.7305 0.568314 35.7305 1.26953C35.7305 1.97075 36.2988 2.53906 37 2.53906C51.0397 2.53906 62.4615 13.9614 62.4615 28.0006C62.4615 28.7018 63.0303 29.2701 63.7311 29.2701C64.4323 29.2701 65.0006 28.7018 65.0006 28.0006C65.0006 12.5614 52.4397 0 37 0Z" fill="white"/>
<path d="M56.094 29.2706C56.7953 29.2706 57.3636 28.7018 57.3636 28.0011C57.3636 16.7722 48.2284 7.63702 37 7.63702C36.2988 7.63702 35.7305 8.20583 35.7305 8.90656C35.7305 9.60777 36.2988 10.1761 37 10.1761C46.8285 10.1761 54.8245 18.1721 54.8245 28.0011C54.8245 28.7018 55.3928 29.2706 56.094 29.2706Z" fill="white"/>
<path d="M47.186 28.0011C47.186 28.7018 47.7543 29.2706 48.4555 29.2706C49.1568 29.2706 49.7251 28.7018 49.7251 28.0011C49.7251 20.9844 44.0166 15.276 37 15.276C36.2988 15.276 35.7305 15.8443 35.7305 16.545C35.7305 17.2463 36.2988 17.8146 37 17.8146C42.6167 17.8146 47.186 22.3839 47.186 28.0011Z" fill="white"/>
<path d="M35.7305 24.1826C35.7305 24.8833 36.2988 25.4517 37 25.4517C38.4054 25.4517 39.549 26.5952 39.549 28.0011C39.549 28.7019 40.1173 29.2707 40.8185 29.2707C41.5192 29.2707 42.088 28.7019 42.088 28.0011C42.088 25.1953 39.8054 22.9131 37 22.9131C36.2988 22.9131 35.7305 23.4814 35.7305 24.1826Z" fill="white"/>
<path d="M23.7949 41.2191C23.7949 41.9203 23.2266 42.4886 22.5254 42.4886C21.8242 42.4886 21.2559 41.9203 21.2559 41.2191C21.2559 40.5184 21.8242 39.9496 22.5254 39.9496C23.2266 39.9496 23.7949 40.5184 23.7949 41.2191Z" fill="white"/>
<path d="M34.7893 63.4587C40.5701 66.2919 47.5247 65.1131 52.0961 60.5418L54.7209 57.9169C56.1462 56.4932 56.1466 54.1867 54.7214 52.7619L44.579 42.6206C43.1563 41.1958 40.8493 41.1938 39.425 42.6201L35.1156 46.93C34.2715 47.7741 32.9688 47.9461 32.0186 47.3396C30.4694 46.3493 28.9623 45.2573 27.5395 44.0939C26.9965 43.6501 26.1971 43.7304 25.7533 44.2729C25.3094 44.816 25.3898 45.6159 25.9323 46.0592C27.4314 47.2851 29.0188 48.4356 30.6519 49.479C32.5983 50.7222 35.2306 50.4054 36.9108 48.7252L41.2212 44.4148C41.6522 43.9833 42.3504 43.9823 42.7833 44.4153L52.9262 54.5571C53.3581 54.9896 53.3591 55.6888 52.9262 56.1207L50.3009 58.7466C46.4928 62.5547 40.7085 63.5321 35.9066 61.179C18.3151 52.5527 8.74404 38.8744 3.8127 28.9185C1.45366 24.1573 2.43308 18.3948 6.2501 14.5788L8.81793 12.0115C9.24838 11.58 9.94712 11.5785 10.3795 12.012L20.5234 22.1553C20.9529 22.5843 20.9573 23.2835 20.5224 23.7174L16.2129 28.0274C14.5328 29.7075 14.2159 32.3398 15.4592 34.2868C16.1916 35.4328 16.9811 36.5635 17.8063 37.6471C18.2308 38.205 19.0272 38.3126 19.5851 37.8881C20.143 37.4636 20.2511 36.6671 19.8262 36.1088C19.0436 35.0807 18.2938 34.0076 17.5985 32.92C16.992 31.9694 17.1641 30.6666 18.0081 29.8226L22.3171 25.5136C23.7419 24.0909 23.7434 21.7834 22.3181 20.3596L12.1752 10.2173C10.753 8.79251 8.4455 8.79052 7.02174 10.2168L4.45491 12.7836C-0.133259 17.3703 -1.30559 24.3076 1.53746 30.0457C6.64386 40.3542 16.5571 54.5184 34.7893 63.4587Z" fill="white"/>
</g>
<defs>
<clipPath id="clip0_376_8653">
<rect width="65" height="65" fill="white"/>
</clipPath>
</defs>
</svg>
