<svg width="48" height="12" viewBox="0 0 48 12" fill="none"
  xmlns="http://www.w3.org/2000/svg">
  <path d="M17.5249 1.52441L17.4958 2.16756H15.292V9.48202H14.4981V2.18028H12.2471V1.52441H17.5249Z" fill="#FF9900"/>
  <path d="M15.5613 9.75089H14.2295V2.44006H11.9785V1.25732H17.805L17.7541 2.43643H15.5613V9.75089ZM14.7673 9.20585H15.0235V1.89866H17.24V1.79328H12.5163V1.90411H14.7673V9.20585Z" fill="#FF9900"/>
  <path d="M25.2536 9.51469H24.4941V1.58252H25.2772C26.7306 3.78691 28.1938 5.99736 29.6666 8.21386L29.712 8.20114V1.58252H30.4896V9.51469H29.712C28.2501 7.29819 26.7815 5.07503 25.3063 2.8452L25.2536 2.85792V9.51469Z" fill="#FF9900"/>
  <path d="M30.753 9.78161H29.563L25.5169 3.65716V9.78161H24.2197V1.31348H25.4152L29.4321 7.39251V1.31348H30.7475L30.753 9.78161ZM29.8446 9.23657H30.2079V1.85125H29.9772V8.40265L29.5484 8.52801L25.1263 1.85125H24.763V9.24565H24.9864V2.65065L25.4279 2.53619L29.8446 9.23657Z" fill="#FF9900"/>
  <path d="M42.5495 6.68951C42.4168 7.59791 43.1436 8.59352 44.1174 8.86968C45.0912 9.14583 46.3884 8.89875 46.8317 7.57975H47.6293C47.5191 8.07076 47.2588 8.51527 46.8844 8.85151C46.2249 9.45287 45.4309 9.64182 44.557 9.59277C44.0889 9.57215 43.6318 9.44343 43.2217 9.21669C42.9037 9.04274 42.6233 8.80758 42.3966 8.52476C42.1699 8.24195 42.0014 7.91707 41.9009 7.56884C41.6381 6.75978 41.6541 5.886 41.9463 5.08709C42.3423 4.00791 43.1436 3.39928 44.2754 3.23395C45.0773 3.08979 45.9036 3.26734 46.5755 3.72812C46.9063 3.9585 47.1808 4.26071 47.3784 4.61213C47.576 4.96356 47.6915 5.3551 47.7165 5.75749C47.7455 6.05726 47.7165 6.36067 47.7165 6.68588L42.5495 6.68951ZM46.9534 6.05545C46.9534 5.25787 46.6918 4.61835 46.0141 4.19685C45.6233 3.96406 45.1751 3.84558 44.7203 3.8549C44.2655 3.86421 43.8224 4.00094 43.4415 4.24954C42.8274 4.68921 42.564 5.30692 42.5204 6.05545H46.9534Z" fill="#FF9900"/>
  <path d="M44.8135 9.87073C44.7244 9.87073 44.6318 9.87073 44.5428 9.87073C44.0334 9.84709 43.5363 9.70726 43.0893 9.46195C42.7402 9.27173 42.4321 9.01443 42.1827 8.70484C41.9333 8.39525 41.7474 8.03945 41.6359 7.65786C41.3549 6.79299 41.3728 5.85879 41.6867 5.00532C42.1046 3.86074 42.9839 3.15945 44.2303 2.97959C45.1011 2.82547 45.9976 3.02134 46.7247 3.52463C47.0874 3.7774 47.3885 4.10852 47.6058 4.49346C47.8232 4.8784 47.9511 5.30731 47.9802 5.7484C47.9959 5.96666 47.9989 6.18565 47.9892 6.40426C47.9892 6.50055 47.9892 6.6023 47.9892 6.70222V6.95839H42.8041C42.8313 7.66149 43.4291 8.39367 44.1885 8.60441C45.0751 8.8515 46.2015 8.60441 46.5776 7.4889L46.6394 7.30722H47.9638L47.8911 7.63061C47.7686 8.17702 47.4798 8.67207 47.0645 9.04772C46.4495 9.60402 45.6422 9.89919 44.8135 9.87073ZM44.8444 3.46467C44.6668 3.4649 44.4895 3.47826 44.3138 3.50464C43.2637 3.65544 42.5515 4.22046 42.1991 5.18337C41.9269 5.92616 41.9129 6.73895 42.1591 7.49071C42.2499 7.80599 42.4021 8.10022 42.6069 8.3565C42.8118 8.61279 43.0652 8.82608 43.3528 8.98413C43.7275 9.19026 44.1446 9.30773 44.5718 9.3275C45.4566 9.37656 46.1543 9.15672 46.7029 8.65529C46.9523 8.43256 47.1458 8.15439 47.268 7.84317H47.0173C46.9041 8.12322 46.7337 8.37651 46.5168 8.58677C46.3 8.79703 46.0416 8.95961 45.7582 9.06407C45.2068 9.25995 44.6083 9.28025 44.045 9.1222C42.9385 8.81516 42.1319 7.68329 42.2845 6.65135L42.3172 6.42243H47.4569C47.4569 6.4079 47.4569 6.39336 47.4569 6.37883C47.4659 6.1814 47.4628 5.98361 47.4478 5.78655C47.4254 5.42306 47.3213 5.06929 47.1433 4.75159C46.9653 4.43389 46.7179 4.16044 46.4195 3.95158C45.9593 3.62653 45.4077 3.45604 44.8444 3.46467ZM47.2244 6.32432H42.2354L42.2518 6.03909C42.3045 5.14885 42.6442 4.49117 43.2855 4.0406C43.7109 3.76353 44.2052 3.61078 44.7127 3.59954C45.2202 3.58831 45.7207 3.71904 46.1579 3.97701C46.8701 4.42213 47.2189 5.10343 47.2226 6.0627L47.2244 6.32432ZM42.8186 5.77928H46.6739C46.6636 5.50358 46.585 5.23474 46.4452 4.99691C46.3053 4.75908 46.1086 4.5597 45.8727 4.41668C45.5272 4.21101 45.1311 4.1061 44.7291 4.11381C44.3271 4.12151 43.9353 4.24153 43.598 4.46028C43.3815 4.61341 43.2 4.81087 43.0656 5.03953C42.9312 5.2682 42.847 5.52285 42.8186 5.78655V5.77928Z" fill="#FF9900"/>
  <path d="M17.4414 6.40975C17.4414 5.48863 17.6994 4.66744 18.3825 4.01702C18.9138 3.51357 19.6129 3.22489 20.3446 3.20672C21.4492 3.15767 22.3976 3.49923 23.0698 4.41308C23.4201 4.89727 23.6215 5.47309 23.6494 6.07001C23.7235 6.75969 23.5894 7.45577 23.2642 8.0685C23.0342 8.48789 22.7049 8.84458 22.3052 9.10744C21.9056 9.37029 21.4476 9.53131 20.9714 9.57644C20.3792 9.66585 19.7738 9.58782 19.2237 9.35116C18.1336 8.87152 17.5885 7.99219 17.4505 6.8367C17.4414 6.73314 17.4414 6.6314 17.4414 6.52966C17.4305 6.48969 17.4414 6.44972 17.4414 6.40975ZM22.87 6.35888C22.87 6.30438 22.8591 6.21172 22.8536 6.11725C22.7791 4.87274 22.0234 4.03519 20.7897 3.88258C20.3038 3.81033 19.8076 3.90226 19.3798 4.14381C18.952 4.38535 18.617 4.7627 18.4279 5.21611C18.1712 5.85134 18.1285 6.55291 18.3062 7.2146C18.5169 8.05214 19.0329 8.62626 19.8795 8.84972C20.7589 9.07319 21.5601 8.89696 22.2105 8.23746C22.7101 7.73057 22.8591 7.0856 22.87 6.35888Z" fill="#FF9900"/>
  <path d="M20.4821 9.87466C20.0115 9.87677 19.5455 9.78087 19.114 9.59306C17.9876 9.10071 17.339 8.18322 17.1809 6.86785C17.1809 6.78428 17.1682 6.70252 17.1664 6.62258C17.1664 6.59715 17.1664 6.57171 17.1664 6.54628C17.1646 6.5136 17.1646 6.48085 17.1664 6.44817V6.41365C17.1664 5.32357 17.5007 4.4842 18.1911 3.82652C18.7687 3.27794 19.5294 2.9633 20.3258 2.94355C21.5976 2.88541 22.595 3.3269 23.2872 4.2571C23.6684 4.78228 23.8875 5.40752 23.9177 6.05574C23.9954 6.79604 23.8499 7.54267 23.4998 8.19957C23.2481 8.65388 22.8897 9.04013 22.4554 9.325C22.0211 9.60986 21.5241 9.7848 21.0071 9.8347C20.8332 9.85975 20.6578 9.87311 20.4821 9.87466ZM20.5475 3.47224C20.4803 3.47224 20.4149 3.47224 20.3476 3.47224C19.6805 3.4873 19.0428 3.74951 18.5581 4.20805C17.9803 4.75309 17.6987 5.47981 17.6987 6.40457V6.51357C17.6987 6.54083 17.6987 6.56808 17.6987 6.59533C17.6987 6.66619 17.6987 6.73341 17.7114 6.797C17.8459 7.92705 18.3746 8.67921 19.3248 9.09526C19.83 9.31159 20.3856 9.38269 20.929 9.30055C21.8919 9.17156 22.5787 8.72099 23.0238 7.92705C23.3248 7.36208 23.4471 6.71901 23.3744 6.08299C23.3519 5.5376 23.1686 5.01105 22.8476 4.56959C22.3007 3.83379 21.5467 3.47224 20.5475 3.47224ZM20.5766 9.20971C20.319 9.20866 20.0626 9.17508 19.8135 9.10979C18.9051 8.87542 18.2892 8.24499 18.0476 7.29298C17.8549 6.57469 17.9015 5.8132 18.1802 5.12372C18.391 4.61563 18.7653 4.19237 19.2437 3.9209C19.7222 3.64943 20.2775 3.54525 20.8218 3.62485C22.179 3.79382 23.0383 4.72402 23.1201 6.11024C23.1201 6.17747 23.1201 6.2465 23.1328 6.29192V6.35551V6.35915C23.1328 6.93326 23.0383 7.76899 22.4061 8.42122C22.1713 8.67078 21.8877 8.86951 21.5731 9.00513C21.2584 9.14076 20.9192 9.21038 20.5766 9.20971ZM20.5002 4.13538C20.1133 4.12675 19.7328 4.23524 19.4086 4.44662C19.0844 4.658 18.8316 4.96241 18.6834 5.31993C18.449 5.9035 18.4101 6.54737 18.5726 7.15491C18.767 7.9216 19.2303 8.40487 19.9534 8.58837C20.3153 8.70026 20.7014 8.7085 21.0678 8.61217C21.4342 8.51583 21.7663 8.31877 22.0264 8.04333C22.4133 7.64908 22.5932 7.13492 22.6059 6.3646V6.32463C22.6059 6.27012 22.6059 6.19927 22.5932 6.13023C22.5278 5.00563 21.8665 4.28254 20.7637 4.14446C20.6761 4.13642 20.5882 4.13338 20.5002 4.13538Z" fill="#FF9900"/>
  <path d="M31.4907 6.40975C31.4907 5.48863 31.7487 4.66744 32.4336 4.01702C32.9643 3.51369 33.6627 3.22499 34.3939 3.20672C35.5004 3.15767 36.4469 3.49923 37.1191 4.41308C37.4701 4.89688 37.6716 5.47293 37.6987 6.07001C37.7725 6.75947 37.639 7.45528 37.3153 8.0685C36.8121 8.96236 36.029 9.44018 35.0207 9.57644C34.4285 9.66575 33.8231 9.58772 33.273 9.35116C32.1829 8.87152 31.6378 7.99219 31.5016 6.8367C31.4888 6.73678 31.4888 6.63504 31.4834 6.5333C31.4888 6.48969 31.4907 6.44972 31.4907 6.40975ZM36.9284 6.35888C36.9284 6.30438 36.9175 6.21172 36.912 6.11725C36.8393 4.87274 36.0817 4.03519 34.8481 3.88258C34.3621 3.81001 33.8659 3.9018 33.438 4.14338C33.0101 4.38497 32.6752 4.76251 32.4863 5.21611C32.2287 5.85113 32.1859 6.553 32.3646 7.2146C32.5753 8.05214 33.0913 8.62626 33.9361 8.84972C34.8172 9.07319 35.6166 8.89696 36.267 8.23746C36.7703 7.73057 36.9193 7.0856 36.9284 6.35888Z" fill="#FF9900"/>
  <path d="M34.5413 9.87466C34.0706 9.87677 33.6047 9.78087 33.1732 9.59306C32.0486 9.10071 31.3982 8.18322 31.2419 6.86785C31.231 6.78428 31.2292 6.70252 31.2256 6.62258C31.2256 6.59715 31.2256 6.57171 31.2256 6.54628C31.2256 6.52084 31.2256 6.47724 31.2256 6.44817V6.41365C31.2256 5.32357 31.5599 4.4842 32.2521 3.82652C32.8295 3.27764 33.5904 2.96295 34.3868 2.94355C35.6586 2.88541 36.656 3.3269 37.3464 4.2571C37.7274 4.78252 37.9471 5.40751 37.9787 6.05574C38.0555 6.796 37.91 7.54237 37.5608 8.19957C37.309 8.65378 36.9505 9.03995 36.5163 9.3248C36.082 9.60965 35.585 9.78464 35.0681 9.8347C34.8936 9.85969 34.7176 9.87305 34.5413 9.87466ZM34.6067 3.47224C34.5413 3.47224 34.474 3.47224 34.4068 3.47224C33.7403 3.4874 33.1032 3.74963 32.6191 4.20805C32.0395 4.75309 31.7597 5.47981 31.7597 6.40457V6.44454C31.7597 6.46816 31.7597 6.48996 31.7597 6.51357C31.7597 6.53719 31.7597 6.56808 31.7597 6.59533C31.7597 6.66619 31.7597 6.73341 31.7706 6.79518C31.9069 7.92705 32.4338 8.67921 33.3858 9.09526C33.8903 9.31172 34.4454 9.38283 34.9882 9.30055C35.9529 9.17156 36.6378 8.72099 37.0848 7.92705C37.3847 7.3617 37.5069 6.71896 37.4354 6.08299C37.4129 5.5376 37.2296 5.01105 36.9086 4.56959C36.3617 3.83379 35.6095 3.47224 34.6067 3.47224ZM34.6357 9.20971C34.3788 9.20854 34.123 9.17497 33.8745 9.10979C32.9661 8.87542 32.3484 8.24499 32.1067 7.29298C31.9147 6.57449 31.9619 5.813 32.2412 5.12372C32.4505 4.61409 32.8242 4.18905 33.3029 3.91616C33.7815 3.64327 34.3376 3.53818 34.8828 3.61759C36.24 3.78655 37.0993 4.71675 37.1811 6.10298C37.1811 6.16838 37.1811 6.2356 37.1938 6.28466V6.35188V6.35915C37.1938 6.93326 37.1011 7.76899 36.4671 8.42122C36.2319 8.67083 35.9481 8.86958 35.6331 9.0052C35.3181 9.14081 34.9787 9.21042 34.6357 9.20971ZM34.5594 4.13538C34.1724 4.12625 33.7917 4.23453 33.4674 4.44597C33.1431 4.65742 32.8904 4.96211 32.7426 5.31993C32.5063 5.90309 32.4674 6.54756 32.6318 7.15491C32.8244 7.9216 33.2895 8.40487 34.0107 8.58837C34.3727 8.70026 34.7588 8.7085 35.1251 8.61217C35.4915 8.51583 35.8236 8.31877 36.0837 8.04333C36.4725 7.64908 36.6506 7.13492 36.6633 6.36278V6.31918C36.6633 6.26649 36.6542 6.19745 36.6506 6.1375C36.5833 5.01289 35.9238 4.28981 34.821 4.15173C34.7342 4.14144 34.6469 4.13598 34.5594 4.13538Z" fill="#FF9900"/>
  <path d="M38.7215 3.94079H37.8604V3.29765H38.7179V1.74609H39.49V3.29583H41.2124V3.93534H39.5173C39.5173 4.0498 39.5009 4.13701 39.5009 4.2224C39.5009 5.38879 39.5009 6.55518 39.5009 7.71975C39.5012 7.9081 39.5188 8.09603 39.5536 8.28114C39.5716 8.42065 39.637 8.54972 39.7389 8.64667C39.8408 8.74361 39.973 8.80251 40.1132 8.81347C40.373 8.84617 40.6382 8.84435 40.9017 8.85525C40.9998 8.85525 41.0997 8.85525 41.2105 8.85525V9.47297C41.1586 9.48514 41.1057 9.49304 41.0525 9.49659C40.7491 9.49659 40.4439 9.49659 40.1441 9.49659C39.2502 9.46025 38.7433 8.95154 38.7324 8.06131C38.7161 6.78955 38.7324 5.52868 38.7233 4.26055L38.7215 3.94079Z" fill="#FF9900"/>
  <path d="M40.5873 9.76895C40.4365 9.76895 40.2839 9.76895 40.1313 9.76895C39.083 9.72716 38.4743 9.10763 38.4616 8.06842C38.4507 7.17819 38.4507 6.27342 38.4616 5.39772C38.4616 5.01982 38.4616 4.64193 38.4616 4.26403V4.21679H37.5986V3.03587H38.4562V1.47705H39.7661V3.02679H41.4884V4.20408H39.7697V4.64011C39.7697 5.65025 39.7697 6.6931 39.7697 7.72868C39.7714 7.90055 39.7878 8.07196 39.8188 8.24102C39.8303 8.32186 39.8699 8.39606 39.9307 8.45056C39.9915 8.50506 40.0696 8.53637 40.1512 8.53897C40.3329 8.56259 40.5146 8.56623 40.6963 8.57349H40.9107C40.9706 8.57349 41.0342 8.57349 41.1033 8.57349H41.4775V9.70173L41.2522 9.73988H41.2104C41.1586 9.75216 41.1056 9.75886 41.0524 9.75987H40.5873V9.76895ZM38.1291 3.67175H38.9903V5.39227C38.9903 6.26433 38.9903 7.16729 38.9903 8.0557C38.9994 8.80059 39.3864 9.19484 40.144 9.22391C40.3729 9.22391 40.6091 9.22391 40.8362 9.22391H40.9361V9.12035H40.8834H40.6745C40.4729 9.11822 40.2716 9.10548 40.0713 9.0822C39.8745 9.0646 39.6895 8.98112 39.5461 8.84528C39.4026 8.70944 39.3092 8.52918 39.281 8.33367C39.2498 8.13116 39.237 7.92623 39.2428 7.72141C39.2428 6.69492 39.2428 5.65025 39.2428 4.63284V4.21498C39.2428 4.14775 39.2428 4.08235 39.2537 4.01331C39.2537 3.98243 39.2537 3.94791 39.2537 3.91157L39.2701 3.66085H40.947V3.55729H39.2247V2.01301H38.9885V3.56638H38.1328L38.1291 3.67175Z" fill="#FF9900"/>
  <path d="M11.0406 6.12646C10.9684 6.24504 10.9218 6.37747 10.904 6.51517C10.8861 6.65287 10.8974 6.79279 10.9371 6.92586C10.9928 7.10401 10.9883 7.29554 10.9243 7.4709C10.8507 7.64999 10.7239 7.80218 10.561 7.90693C10.4363 7.9834 10.333 8.09009 10.2606 8.21713C10.1882 8.34418 10.149 8.48744 10.1467 8.63366C10.1355 8.82722 10.0609 9.01172 9.93451 9.15878C9.80813 9.30583 9.63695 9.4073 9.44728 9.44759C9.30562 9.48042 9.17407 9.54718 9.06393 9.64213C8.9538 9.73707 8.86838 9.85736 8.81503 9.99263C8.73206 10.1775 8.5928 10.3313 8.41715 10.4323C8.2368 10.5282 8.03109 10.5657 7.82851 10.5395C7.71186 10.5199 7.59223 10.5283 7.47947 10.564C7.3667 10.5997 7.26403 10.6616 7.17991 10.7448C7.08744 10.8461 6.97532 10.9274 6.85038 10.984C6.72544 11.0405 6.5903 11.071 6.45318 11.0736C6.34994 11.0729 6.24728 11.0582 6.14796 11.03C5.79725 10.933 5.42676 10.933 5.07605 11.03C4.98869 11.052 4.89905 11.0636 4.80898 11.0645C4.67225 11.0637 4.53717 11.0347 4.41214 10.9794C4.28711 10.9241 4.17481 10.8436 4.08225 10.743C4.00216 10.6595 3.90272 10.5972 3.79276 10.5613C3.68279 10.5255 3.56568 10.5174 3.45182 10.5377C3.23904 10.5649 3.023 10.5269 2.83229 10.4287C2.6488 10.326 2.50348 10.1666 2.41806 9.97446C2.36266 9.84433 2.27763 9.72893 2.16976 9.63746C2.06189 9.54599 1.93415 9.48097 1.79671 9.44759C1.60434 9.40194 1.43211 9.29477 1.30617 9.14236C1.18272 8.98006 1.11059 8.78456 1.09906 8.58097C1.09411 8.45717 1.06013 8.33626 0.999853 8.22801C0.939575 8.11976 0.854689 8.0272 0.752049 7.9578C0.568876 7.83971 0.42771 7.66675 0.348718 7.46363C0.276713 7.25621 0.270369 7.03164 0.33055 6.82048C0.364594 6.69793 0.368834 6.56902 0.342919 6.4445C0.317003 6.31997 0.261682 6.20345 0.181572 6.10466C0.0871174 5.98957 0.0262775 5.85064 0.00576042 5.70317C-0.0147567 5.5557 0.00584592 5.40544 0.0652967 5.26893C0.246848 4.85718 0.328403 4.40832 0.303298 3.95902C0.292901 3.8041 0.324758 3.64927 0.395472 3.51104C0.466186 3.37281 0.573102 3.25637 0.704812 3.17416C0.823013 3.09681 0.920977 2.9923 0.990514 2.86934C1.06005 2.74639 1.09914 2.60857 1.10451 2.46742C1.11485 2.27303 1.18603 2.08681 1.30799 1.93509C1.43559 1.78569 1.60737 1.68071 1.79853 1.63532C1.93952 1.60566 2.07121 1.54222 2.18229 1.45045C2.29336 1.35868 2.3805 1.24132 2.43623 1.10845C2.50624 0.925416 2.63503 0.770804 2.80239 0.668871C2.96976 0.566939 3.16623 0.523453 3.36098 0.545238C3.71344 0.574307 3.92601 0.508902 4.11859 0.307236C4.25641 0.158409 4.43756 0.0567115 4.63638 0.0165476C4.83745 -0.016224 5.04374 0.0162468 5.22502 0.109205C5.35039 0.170244 5.48801 0.201964 5.62745 0.201964C5.76689 0.201964 5.9045 0.170244 6.02987 0.109205C6.21122 0.00882912 6.42205 -0.0246925 6.62559 0.0144875C6.82912 0.0536675 7.01244 0.163062 7.14357 0.323588C7.22349 0.410835 7.32295 0.477895 7.4338 0.519266C7.54465 0.560637 7.66373 0.575142 7.78127 0.561589C8.00628 0.532589 8.23468 0.575852 8.4335 0.685132C8.62655 0.803878 8.77624 0.981604 8.86045 1.19202C8.9047 1.29776 8.97393 1.39118 9.06222 1.46428C9.1505 1.53738 9.25521 1.58796 9.36734 1.6117C9.58709 1.65792 9.78633 1.77314 9.936 1.94054C10.0765 2.11056 10.1553 2.32318 10.1595 2.54372C10.1898 2.78569 10.3137 3.00615 10.5047 3.1578C10.6392 3.29538 10.7608 3.44498 10.868 3.60474L10.9389 3.70285C10.9724 3.75656 10.9932 3.81727 10.9995 3.88029C11.0058 3.9433 10.9975 4.00692 10.9752 4.06621C10.9161 4.21315 10.8924 4.37193 10.906 4.52972C10.9195 4.68752 10.97 4.83992 11.0533 4.97461C11.159 5.14864 11.2138 5.34878 11.2116 5.55235C11.2093 5.75593 11.1501 5.95481 11.0406 6.12646Z" fill="#FF9900"/>
  <path d="M11.0497 4.97684C10.9664 4.84215 10.9159 4.68975 10.9023 4.53195C10.8888 4.37415 10.9125 4.21537 10.9716 4.06844C10.9938 4.00914 11.0021 3.94553 10.9958 3.88251C10.9895 3.8195 10.9688 3.75879 10.9352 3.70507L10.8644 3.60697C10.7572 3.44721 10.6355 3.29761 10.501 3.16003C10.311 3.00731 10.1884 2.7862 10.1595 2.54414C10.1549 2.32422 10.0761 2.1123 9.936 1.94277C9.78633 1.77537 9.58709 1.66015 9.36734 1.61393C9.25521 1.59019 9.1505 1.5396 9.06222 1.46651C8.97393 1.39341 8.9047 1.29999 8.86045 1.19425C8.77624 0.983833 8.62654 0.806107 8.4335 0.687361C8.23468 0.578081 8.00628 0.534818 7.78127 0.563818C7.66373 0.577371 7.54465 0.562866 7.4338 0.521495C7.32295 0.480124 7.22349 0.413064 7.14357 0.325817C7.01269 0.164992 6.82948 0.0552429 6.62593 0.0157281C6.42238 -0.0237866 6.21142 0.00944326 6.02987 0.109617C5.9045 0.170656 5.76689 0.202376 5.62745 0.202376C5.48801 0.202376 5.35039 0.170656 5.22502 0.109617C5.04374 0.016659 4.83745 -0.0158118 4.63638 0.0169598C4.43665 0.0591093 4.25539 0.163412 4.11859 0.314916C3.92601 0.516581 3.71344 0.581986 3.36098 0.54565C3.16645 0.52374 2.97015 0.566963 2.80281 0.668549C2.63547 0.770136 2.50655 0.92435 2.43623 1.10704C2.38074 1.24025 2.29371 1.35798 2.18262 1.45008C2.07153 1.54218 1.93971 1.60589 1.79853 1.63573C1.60807 1.67965 1.43637 1.78266 1.30799 1.93006C1.18603 2.08178 1.11485 2.26799 1.10451 2.46238C1.09914 2.60353 1.06005 2.74135 0.990514 2.8643C0.920977 2.98726 0.823013 3.09178 0.704812 3.16912C0.573102 3.25134 0.466186 3.36777 0.395472 3.506C0.324758 3.64423 0.292901 3.79906 0.303298 3.95398C0.329272 4.40509 0.247699 4.85593 0.0652967 5.26934C0.00584592 5.40585 -0.0147567 5.55611 0.00576042 5.70358C0.0262775 5.85105 0.0871174 5.98998 0.181572 6.10507C0.260752 6.20435 0.315083 6.32109 0.340047 6.4456C0.365012 6.5701 0.359887 6.69877 0.3251 6.8209C0.264919 7.03205 0.271262 7.25662 0.343268 7.46405C0.423694 7.66794 0.566846 7.84099 0.752049 7.95822C0.855173 8.02798 0.940357 8.12111 1.00066 8.23003C1.06096 8.33896 1.09468 8.46059 1.09906 8.58501C1.11059 8.78861 1.18272 8.98411 1.30617 9.14641C1.43265 9.29747 1.60482 9.40332 1.79671 9.448C1.93456 9.47943 2.06317 9.54261 2.1723 9.6325C2.28143 9.72239 2.36807 9.83651 2.42533 9.96579C2.51074 10.1579 2.65606 10.3173 2.83956 10.42C3.02717 10.5199 3.24051 10.561 3.45182 10.5381C3.56544 10.5196 3.68184 10.5294 3.79081 10.5665C3.89978 10.6035 3.99799 10.6668 4.0768 10.7506C4.16936 10.8513 4.28166 10.9318 4.40669 10.9871C4.53172 11.0424 4.6668 11.0714 4.80352 11.0722C4.8936 11.0712 4.98324 11.0597 5.0706 11.0377C5.42131 10.9406 5.7918 10.9406 6.14251 11.0377C6.24182 11.0659 6.34449 11.0806 6.44773 11.0813C6.58485 11.0787 6.71999 11.0482 6.84493 10.9917C6.96987 10.9351 7.08199 10.8537 7.17446 10.7525C7.25828 10.6669 7.36147 10.6027 7.47531 10.5654C7.58914 10.5281 7.71028 10.5187 7.82851 10.5381C8.03109 10.5643 8.2368 10.5268 8.41715 10.4309C8.59252 10.3304 8.73174 10.1772 8.81503 9.99304C8.86838 9.85777 8.9538 9.73748 9.06393 9.64254C9.17407 9.5476 9.30562 9.48083 9.44728 9.448C9.63656 9.40693 9.80714 9.30489 9.93284 9.15753C10.0585 9.01017 10.1324 8.82564 10.1431 8.63225C10.1454 8.48604 10.1846 8.34277 10.257 8.21573C10.3294 8.08869 10.4327 7.98199 10.5573 7.90553C10.7202 7.80078 10.847 7.64859 10.9207 7.4695C10.9847 7.29414 10.9891 7.10261 10.9334 6.92445C10.8938 6.79138 10.8825 6.65147 10.9003 6.51376C10.9182 6.37606 10.9647 6.24364 11.037 6.12506C11.1457 5.95381 11.2045 5.75561 11.2068 5.55276C11.209 5.34991 11.1546 5.15045 11.0497 4.97684ZM10.8826 6.03967C10.7984 6.17932 10.7444 6.33505 10.7241 6.49682C10.7038 6.65859 10.7175 6.82282 10.7645 6.97896C10.8119 7.12465 10.8074 7.28226 10.7517 7.42501C10.6961 7.56775 10.5927 7.68683 10.4592 7.762C10.3123 7.8547 10.1905 7.98236 10.1049 8.13359C10.0193 8.28481 9.97253 8.45489 9.9687 8.62862C9.95918 8.78344 9.89938 8.93092 9.79838 9.04865C9.69738 9.16637 9.5607 9.2479 9.40913 9.28085C9.24203 9.31685 9.08608 9.39262 8.95451 9.50174C8.82294 9.61086 8.71963 9.7501 8.65334 9.90765C8.58917 10.0624 8.47457 10.191 8.32814 10.2725C8.1817 10.3539 8.01203 10.3835 7.84667 10.3564C7.70309 10.3337 7.55617 10.3452 7.41789 10.3901C7.2796 10.4349 7.15386 10.5118 7.05091 10.6144C6.94637 10.7334 6.80937 10.8193 6.65673 10.8615C6.50409 10.9038 6.34243 10.9006 6.19156 10.8524C6.01406 10.8032 5.83073 10.7781 5.64652 10.7779C5.43802 10.7793 5.2305 10.8068 5.02881 10.8597C4.95652 10.879 4.882 10.8888 4.80716 10.8887C4.69572 10.8879 4.58567 10.8639 4.48402 10.8182C4.38236 10.7726 4.29132 10.7062 4.2167 10.6235C4.11847 10.5197 3.99663 10.4413 3.86156 10.3948C3.72649 10.3483 3.58218 10.3351 3.44092 10.3564C3.26748 10.3861 3.08911 10.3567 2.93432 10.2731C2.77952 10.1894 2.65724 10.0563 2.58702 9.89493C2.51952 9.74127 2.417 9.60554 2.28766 9.4986C2.15831 9.39165 2.00574 9.31646 1.84213 9.27903C1.68061 9.24347 1.53604 9.15388 1.43232 9.02505C1.3286 8.89623 1.27192 8.73587 1.27166 8.57048C1.26608 8.42032 1.22537 8.27357 1.1528 8.142C1.08023 8.01042 0.977816 7.8977 0.85379 7.81287C0.696959 7.718 0.577018 7.57266 0.513638 7.40067C0.450257 7.22869 0.447198 7.04027 0.504964 6.86632C0.545625 6.71752 0.550358 6.56119 0.518771 6.41021C0.487185 6.25922 0.420182 6.1179 0.323283 5.99788C0.248103 5.9075 0.199056 5.79829 0.181445 5.68205C0.163833 5.56582 0.178327 5.44698 0.223359 5.33838C0.41705 4.90183 0.503633 4.42531 0.475895 3.94853C0.468356 3.82511 0.494455 3.70197 0.551408 3.59222C0.608361 3.48247 0.694032 3.39024 0.799286 3.32536C0.939803 3.23296 1.05639 3.10852 1.13945 2.96229C1.22252 2.81605 1.26969 2.6522 1.27711 2.48418C1.27999 2.32466 1.33804 2.17106 1.44138 2.04951C1.54472 1.92795 1.68697 1.84594 1.84395 1.81741C2.01129 1.78137 2.16743 1.70538 2.29904 1.59592C2.43065 1.48646 2.53382 1.34678 2.59974 1.1888C2.65482 1.0407 2.75747 0.915058 2.89161 0.83155C3.02575 0.748043 3.18379 0.711389 3.341 0.727331C3.50479 0.757544 3.67353 0.746636 3.83207 0.695585C3.99061 0.644534 4.13401 0.554936 4.2494 0.434825C4.35747 0.308155 4.50576 0.222436 4.66946 0.192011C4.83317 0.161585 5.00235 0.188298 5.14872 0.267679C5.29708 0.340765 5.46025 0.378775 5.62563 0.378775C5.79101 0.378775 5.95418 0.340765 6.10254 0.267679C6.25074 0.184646 6.42374 0.157322 6.59032 0.190637C6.7569 0.223953 6.90608 0.315713 7.01094 0.449359C7.10915 0.55641 7.23129 0.638713 7.36737 0.689549C7.50346 0.740385 7.64965 0.758312 7.79399 0.741865C7.98276 0.708485 8.17725 0.743581 8.34245 0.840835C8.50765 0.93809 8.63271 1.09112 8.69512 1.27237C8.75021 1.40378 8.83635 1.51987 8.94615 1.61069C9.05595 1.7015 9.18614 1.76433 9.32555 1.7938C9.50785 1.82313 9.67376 1.91638 9.79359 2.05685C9.91342 2.19732 9.97936 2.37585 9.9796 2.56049C10.0119 2.84593 10.1555 3.1071 10.3793 3.28721C10.5044 3.41771 10.6181 3.55873 10.719 3.70871L10.7881 3.80682C10.8046 3.83551 10.8145 3.86754 10.817 3.90055C10.8195 3.93356 10.8146 3.96672 10.8026 3.99758C10.7332 4.17099 10.7058 4.35841 10.7229 4.54443C10.74 4.73046 10.8009 4.90978 10.9007 5.06768C10.9901 5.21477 11.0358 5.38423 11.0326 5.55631C11.0294 5.72839 10.9774 5.89602 10.8826 6.03967Z" fill="#FF9900"/>
  <path d="M4.00586 6.14657L4.24386 5.92129L4.76892 6.46633L6.36952 4.22803L6.64568 4.42788L4.82887 6.9714L4.00586 6.14657Z" fill="white"/>
  <path d="M5.5996 9.54571H5.51058V9.15328H5.75948L5.7722 9.54571H5.59052H5.5996ZM5.5778 9.48031H5.70861L5.69953 9.22051H5.58143L5.5778 9.48031ZM5.22352 9.52936H5.19082L4.99097 9.50393H4.95827L5.01823 9.11513H5.05093L5.23261 9.13875H5.26531L5.22352 9.52936ZM5.04184 9.43852C5.08363 9.43852 5.12723 9.45124 5.17084 9.45487L5.19809 9.19689L5.08 9.18235L5.04184 9.43852ZM6.07197 9.52028L6.02292 9.12967H6.05744L6.23912 9.10241H6.27182L6.34086 9.48939H6.30816C6.24275 9.50029 6.17553 9.51119 6.11013 9.51846L6.07197 9.52028ZM6.09741 9.1878L6.12284 9.44761L6.25184 9.42762L6.20823 9.17145L6.09741 9.1878ZM4.67485 9.44761H4.64215C4.57856 9.43126 4.51315 9.41309 4.44956 9.3931H4.41686L4.5295 9.01702H4.56221L4.74389 9.06608H4.77659L4.67485 9.44761ZM4.49317 9.33133L4.61853 9.36767L4.68212 9.11513L4.57492 9.08425L4.49317 9.33133ZM6.6043 9.42581L6.50074 9.04609H6.53344L6.71512 8.9934L6.74782 8.9825L6.86955 9.35677L6.83866 9.36767C6.77508 9.38765 6.70967 9.40764 6.64427 9.42399L6.6043 9.42581ZM6.58976 9.08425L6.6588 9.33496L6.78416 9.29681L6.7024 9.05154L6.58976 9.08425ZM4.14434 9.26593H4.11346L3.93178 9.18599L3.90089 9.17145L4.06622 8.80809L4.09529 8.82081C4.15161 8.84806 4.20793 8.87168 4.26243 8.89348L4.29332 8.9062L4.14434 9.26593ZM3.99718 9.1333L4.11709 9.18599L4.21338 8.94435L4.0971 8.90257L3.99718 9.1333ZM7.1457 9.23867L6.99128 8.87531L7.02216 8.8626L7.18567 8.78811L7.21656 8.77357L7.38916 9.12603L7.36009 9.14057C7.30013 9.16964 7.23836 9.1987 7.17841 9.22414L7.1457 9.23867ZM7.07848 8.91347L7.18204 9.15147L7.30013 9.09696L7.18567 8.86441L7.07848 8.91347ZM3.65199 9.03337L3.62292 9.01702C3.56478 8.98432 3.50846 8.94798 3.45214 8.91165L3.42307 8.89348L3.63382 8.56464L3.66289 8.58281L3.81732 8.67728L3.84639 8.69363L3.65199 9.03337ZM3.51573 8.8735L3.62837 8.94253L3.74828 8.72088L3.64654 8.65911L3.51573 8.8735ZM7.63079 8.98977L7.42731 8.65366L7.45638 8.63549L7.60899 8.5392L7.63624 8.51922L7.85608 8.84443L7.82882 8.86441L7.65986 8.9716L7.63079 8.98977ZM7.51997 8.67546L7.65623 8.90257C7.69256 8.88076 7.7289 8.85714 7.76523 8.83171L7.61989 8.61733L7.51997 8.67546ZM3.17962 8.72088L3.15237 8.69908C3.09968 8.65911 3.04881 8.61551 2.99794 8.57191L2.9725 8.5501L3.22867 8.25215L3.25411 8.27395C3.29953 8.31392 3.34676 8.35207 3.394 8.39023L3.42125 8.41021L3.17962 8.72088ZM3.06698 8.5392C3.09968 8.56827 3.1342 8.59552 3.16872 8.62278L3.32678 8.41748L3.23594 8.34299L3.06698 8.5392ZM8.08863 8.66275L7.84154 8.35752H7.86698C7.91421 8.31937 7.95963 8.2794 8.00505 8.23943L8.02867 8.21581L8.29211 8.50832L8.26849 8.53012C8.21762 8.57615 8.16675 8.61975 8.11588 8.66093L8.08863 8.66275ZM7.9342 8.36661L8.09953 8.56827L8.19763 8.48288L8.02504 8.2903C7.99415 8.32664 7.96508 8.35752 7.9342 8.37751V8.36661ZM2.76357 8.35752L2.73995 8.3339C2.69271 8.28667 2.64729 8.2358 2.60369 8.18674L2.58189 8.16131L2.87621 7.90151L2.89801 7.92694C2.93798 7.97236 2.97977 8.01778 3.02156 8.06138L3.04517 8.085L2.76357 8.35752ZM2.67636 8.17584L2.76357 8.27213L2.94525 8.09045L2.87076 7.99416L2.67636 8.17584ZM8.49014 8.30484L8.20308 8.03595L8.22489 8.01233C8.26607 7.96873 8.30604 7.92331 8.3448 7.87607L8.3666 7.85063L8.66819 8.10317L8.64639 8.12861C8.60278 8.18129 8.55736 8.23035 8.51376 8.2794L8.49014 8.30484ZM8.29574 8.03231L8.47742 8.214L8.56463 8.11589L8.36478 7.94874C8.35751 7.96691 8.33026 7.99416 8.30301 8.02505L8.29574 8.03231ZM2.39476 7.94511L2.37477 7.91967C2.3348 7.86517 2.29665 7.80885 2.26031 7.75434L2.24215 7.72528L2.56917 7.51089L2.58916 7.53814C2.62004 7.5872 2.65456 7.63807 2.6909 7.68712L2.71088 7.71437L2.39476 7.94511ZM2.3348 7.74526C2.35842 7.7816 2.38386 7.81793 2.40929 7.85245L2.61822 7.69984L2.551 7.60173L2.3348 7.74526ZM8.8426 7.87425L8.52103 7.64897L8.53919 7.62172C8.57371 7.57266 8.60823 7.52179 8.63912 7.47092L8.65729 7.44367L8.98976 7.65079L8.97341 7.67985C8.93707 7.73618 8.90074 7.7925 8.86259 7.847L8.8426 7.87425ZM8.62095 7.6308L8.83352 7.77978C8.85895 7.74344 8.88257 7.70711 8.90619 7.67077L8.68636 7.53269L8.62095 7.6308ZM2.10225 7.47637L2.0859 7.44912C2.05502 7.39098 2.02413 7.33103 1.99506 7.26744L1.98053 7.23837L2.34389 7.06941L2.35842 7.10029C2.38386 7.15298 2.41111 7.20749 2.44018 7.26199L2.45471 7.29106L2.10225 7.47637ZM2.06955 7.26744L2.1295 7.38372L2.36206 7.26744L2.30755 7.16207L2.06955 7.26744ZM9.13874 7.39643L8.78991 7.21475L8.80445 7.18568C8.8317 7.13118 8.85713 7.07668 8.88257 7.02217L8.89529 6.99129L9.25865 7.15116L9.24411 7.18205C9.21868 7.242 9.18961 7.30378 9.15872 7.36373L9.13874 7.39643ZM8.87894 7.18932L9.10967 7.30741C9.12966 7.26744 9.14782 7.22747 9.16599 7.18932L8.92981 7.08576C8.91346 7.11483 8.90255 7.15116 8.87894 7.18568V7.18932ZM1.8697 6.96585L1.8588 6.93496C1.83458 6.87077 1.81277 6.80718 1.7934 6.7442V6.71331L2.16766 6.59704L2.17856 6.62792C2.19673 6.68606 2.21489 6.7442 2.2367 6.8096L2.2476 6.84049L1.8697 6.96585ZM1.8697 6.75692C1.88242 6.7987 1.89695 6.84049 1.91149 6.88046L2.15494 6.79144L2.11679 6.68061L1.8697 6.75692ZM9.36221 6.88228L8.98976 6.7551L9.00066 6.72421C9.02065 6.66789 9.03882 6.60976 9.05517 6.55162L9.06425 6.51892L9.44215 6.62792L9.43306 6.65881C9.41489 6.72422 9.39491 6.7878 9.37311 6.85139L9.36221 6.88228ZM9.07333 6.7224L9.3186 6.80779C9.33132 6.766 9.34586 6.72422 9.35676 6.68243L9.10785 6.61157C9.09695 6.63882 9.08424 6.67698 9.07333 6.7224ZM1.71164 6.43353V6.40082C1.6971 6.33724 1.68439 6.27001 1.67349 6.20461V6.17191L2.06228 6.10832V6.14102C2.06228 6.20097 2.08227 6.26093 2.09498 6.3227V6.3554L1.71164 6.43353ZM1.73889 6.22641C1.73889 6.27001 1.75343 6.3118 1.76251 6.3554L2.01686 6.3009C2.01686 6.26275 2.00051 6.22278 1.99506 6.18462L1.73889 6.22641ZM9.50755 6.34632L9.12057 6.27365V6.24094C9.13147 6.18281 9.14056 6.12285 9.14964 6.05926V6.02656L9.54025 6.08107V6.11377C9.54025 6.17917 9.52027 6.2464 9.50755 6.3118V6.34632ZM9.19869 6.22096L9.45305 6.2682C9.45305 6.22641 9.4694 6.18281 9.47485 6.1392L9.21868 6.10468C9.21323 6.14284 9.20596 6.17736 9.19869 6.22096ZM1.63533 5.88485V5.85215C1.63533 5.78493 1.63533 5.71771 1.63533 5.65048V5.61778L2.02776 5.6087V5.64322C2.02776 5.70317 2.02776 5.76313 2.02776 5.8249V5.85942L1.63533 5.88485ZM1.69165 5.68319V5.814L1.95146 5.79583C1.95146 5.75586 1.95146 5.71589 1.95146 5.67774L1.69165 5.68319ZM9.58386 5.79583L9.19143 5.77584V5.74314C9.19143 5.68319 9.19143 5.62323 9.19143 5.56146V5.50696H9.58386V5.56328C9.58386 5.6305 9.58386 5.69954 9.58386 5.76494V5.79583ZM9.26228 5.71407L9.52027 5.72679C9.52027 5.67592 9.52027 5.62323 9.52027 5.57236H9.26592C9.26592 5.6196 9.26592 5.66683 9.25501 5.71407H9.26228ZM2.0205 5.35071L1.62988 5.32528V5.29076C1.62988 5.22535 1.64078 5.15813 1.64805 5.09091V5.0582L2.03866 5.10362V5.13633C2.03866 5.19628 2.02595 5.25805 2.02231 5.31801L2.0205 5.35071ZM1.69347 5.26895L1.95146 5.28712L1.96236 5.16903L1.70437 5.13996L1.69347 5.26895ZM9.17871 5.25624V5.22353C9.17871 5.16358 9.16599 5.10181 9.15691 5.04185V5.00733L9.5457 4.95101V4.98372C9.5566 5.05094 9.56387 5.11816 9.56932 5.18356V5.21808L9.17871 5.25624ZM9.22413 5.06547C9.22413 5.10544 9.23503 5.14359 9.23866 5.18356L9.49665 5.15813C9.49665 5.11634 9.48757 5.07274 9.4803 5.02914L9.22413 5.06547ZM2.07682 4.86017L1.69165 4.77842V4.74571C1.70619 4.68213 1.72072 4.6149 1.73707 4.55132L1.74616 4.51861L2.12587 4.61854V4.64942C2.10952 4.70756 2.0968 4.76752 2.08408 4.8311L2.07682 4.86017ZM1.77159 4.72391L2.02595 4.7766C2.02595 4.73845 2.0423 4.70029 2.05138 4.66214L1.80066 4.59674C1.78976 4.64216 1.78068 4.68576 1.77159 4.72391ZM9.10059 4.75661V4.72391C9.08787 4.66577 9.07152 4.60582 9.05517 4.54223L9.04427 4.51135L9.42216 4.40052V4.43322C9.44215 4.49863 9.4585 4.56403 9.47485 4.62762V4.66032L9.10059 4.75661ZM9.12057 4.56222C9.13147 4.60037 9.14056 4.63852 9.15146 4.67486L9.40218 4.6149C9.3937 4.57372 9.3828 4.53194 9.36947 4.48954L9.12057 4.56222ZM2.20763 4.38054L1.84427 4.24609L1.85517 4.21521C1.87879 4.15344 1.9024 4.08985 1.92784 4.03353L1.94237 4.00264L2.30573 4.15344L2.29302 4.18432C2.2694 4.24064 2.2476 4.29696 2.22761 4.3551L2.20763 4.38054ZM1.92421 4.19886L2.16766 4.28788L2.21126 4.17705L1.97144 4.07713C1.95509 4.12073 1.93874 4.16252 1.92421 4.20249V4.19886ZM8.95524 4.27698L8.94434 4.24609C8.92254 4.18977 8.89892 4.13345 8.87349 4.07895L8.85895 4.04988L9.22231 3.88636L9.23685 3.91725C9.2641 3.97902 9.29135 4.04079 9.31497 4.09893L9.32769 4.12982L8.95524 4.27698ZM8.95524 4.08258C8.97159 4.11892 8.98613 4.15344 9.00066 4.18977L9.2423 4.0953C9.22595 4.05533 9.20959 4.01536 9.19143 3.97539L8.95524 4.08258ZM2.41474 3.91362L2.06773 3.73194L2.08408 3.70287C2.11497 3.64291 2.14949 3.58478 2.18219 3.52119L2.20036 3.49212L2.53647 3.69197L2.52012 3.72104C2.48923 3.77372 2.46016 3.82641 2.43109 3.8791L2.41474 3.91362ZM2.15857 3.70105L2.38749 3.82278L2.44563 3.71922L2.22216 3.58659L2.15857 3.70105ZM8.75358 3.82278L8.72087 3.79734C8.69181 3.74647 8.66092 3.69378 8.62822 3.64291L8.61005 3.61384L8.94252 3.40491L8.96069 3.43216C8.99703 3.48848 9.03155 3.54662 9.06425 3.60476L9.08424 3.63383L8.75358 3.82278ZM8.71906 3.6411C8.73904 3.6738 8.76084 3.70832 8.77901 3.74102L9.00611 3.61384L8.93889 3.50302L8.71906 3.6411ZM2.66728 3.48848L2.34752 3.25775L2.36751 3.2305C2.40748 3.17781 2.44745 3.12331 2.48923 3.07062L2.51103 3.04518L2.81807 3.29045L2.79627 3.31771C2.75812 3.36313 2.72178 3.41218 2.68726 3.46123L2.66728 3.48848ZM2.44199 3.24322L2.65274 3.39583C2.67455 3.36313 2.69998 3.33224 2.7236 3.30135L2.52193 3.13966L2.44199 3.24322ZM8.47379 3.40673L8.4538 3.38129C8.41747 3.33406 8.3775 3.285 8.33935 3.23958L8.31754 3.21415L8.61732 2.95979L8.63912 2.98523C8.68272 3.0361 8.72451 3.08879 8.76448 3.14148L8.78446 3.16873L8.47379 3.40673ZM8.41202 3.22505L8.48469 3.31771L8.69181 3.15964L8.61005 3.0579L8.41202 3.22505ZM2.9834 3.10514L2.69998 2.83262L2.7236 2.809C2.77084 2.75995 2.81807 2.71271 2.86713 2.66729L2.89075 2.64367L3.15963 2.92891L3.13601 2.95253L3.00702 3.0797L2.9834 3.10514ZM2.80172 2.8308L2.9834 3.01248C3.01065 2.98341 3.03972 2.95616 3.06698 2.92891L2.8853 2.74723L2.80172 2.8308ZM8.15221 3.03247L8.1286 3.00885C8.08681 2.96706 8.04321 2.92528 7.99597 2.88531L7.97235 2.86169L8.23397 2.56918L8.25759 2.59098C8.30846 2.6364 8.35751 2.68182 8.40475 2.72906L8.42837 2.75268L8.15221 3.03247ZM8.06682 2.85079L8.15221 2.93073L8.33389 2.74904L8.23942 2.66002L8.06682 2.85079ZM3.35948 2.75631L3.10876 2.45291L3.1342 2.4311C3.18688 2.39113 3.24139 2.34935 3.29589 2.31119L3.32315 2.29121L3.55025 2.61278L3.52299 2.63095L3.37765 2.73996L3.35948 2.75631ZM3.2105 2.46017L3.37038 2.66366L3.46486 2.5928L3.31406 2.38205L3.2105 2.46017ZM7.77614 2.69454L7.74888 2.67456C7.70165 2.64004 7.65078 2.6037 7.59991 2.571L7.57265 2.55283L7.79067 2.2258L7.81974 2.24397C7.87424 2.28031 7.92875 2.32028 7.98325 2.36025L8.0105 2.38023L7.77614 2.69454ZM7.65804 2.54375C7.69075 2.56555 7.72345 2.58735 7.75433 2.61097L7.90876 2.40385C7.87424 2.3766 7.83791 2.35116 7.80157 2.32755L7.65804 2.54375ZM3.76281 2.48016L3.56478 2.14042L3.59385 2.12406C3.65199 2.09136 3.71013 2.05866 3.77553 2.02777L3.8046 2.01142L3.98628 2.36025L3.95539 2.3766L3.79733 2.46381L3.76281 2.48016ZM3.65562 2.16585L3.78643 2.38932L3.88999 2.333L3.77008 2.10226L3.65562 2.16585ZM7.34919 2.42929L7.32012 2.41475C7.26743 2.38568 7.21293 2.35661 7.15842 2.33118L7.12935 2.31665L7.30013 1.95328L7.3292 1.96782C7.39097 1.99689 7.45153 2.02777 7.51088 2.06048L7.53995 2.07683L7.34919 2.42929ZM7.21838 2.28576C7.2529 2.30393 7.28741 2.32028 7.32193 2.34026L7.44911 2.1059L7.33284 2.04594L7.21838 2.28576ZM4.20975 2.25487L4.06077 1.89151L4.09165 1.8788C4.15343 1.85336 4.2152 1.82974 4.27333 1.80794L4.30604 1.79522L4.43503 2.16767L4.40414 2.17857L4.23518 2.24216L4.20975 2.25487ZM4.14798 1.92785L4.24608 2.16767L4.35691 2.12588L4.2697 1.88061L4.14798 1.92785ZM6.90407 2.21127L6.87137 2.20037C6.81505 2.17857 6.75872 2.15858 6.70059 2.14042L6.66788 2.12951L6.78779 1.75525L6.8205 1.76615C6.88469 1.78553 6.94525 1.80733 7.00218 1.83156L7.03306 1.84428L6.90407 2.21127ZM6.75327 2.08591L6.8641 2.12588L6.95494 1.88243L6.8314 1.84064L6.75327 2.08591ZM4.6912 2.08591L4.58764 1.70802L4.61853 1.69893L4.81474 1.65533H4.84745L4.92557 2.04049H4.89287C4.83291 2.05139 4.77477 2.06593 4.71118 2.08046L4.6912 2.08591ZM4.67485 1.75344L4.7239 2.00779L4.83836 1.98235L4.78931 1.728C4.75297 1.73527 4.71118 1.74617 4.66758 1.75525L4.67485 1.75344ZM6.42443 2.06229H6.39173C6.33359 2.04957 6.27364 2.03686 6.21005 2.02777H6.17735L6.24093 1.63534H6.27364L6.46985 1.67531H6.50255L6.42443 2.06229ZM6.2591 1.96055L6.37356 1.98235L6.42988 1.72982L6.30271 1.70438L6.2591 1.96055ZM5.17447 1.9987L5.13268 1.60809H5.16539C5.232 1.60082 5.29922 1.59537 5.36705 1.59174H5.39975L5.42156 1.98417H5.38885L5.20717 1.9987H5.17447ZM5.20717 1.66805L5.23442 1.92603L5.35252 1.91513L5.33617 1.65351C5.29256 1.65533 5.24896 1.65896 5.20717 1.66441V1.66805ZM5.92299 1.9878H5.89029C5.83034 1.9878 5.77038 1.97872 5.70861 1.9769H5.67591L5.68681 1.58447H5.72133C5.78673 1.58447 5.85577 1.58447 5.92118 1.59537H5.95388L5.92299 1.9878ZM5.74131 1.90968H5.85759L5.87939 1.65169H5.74858L5.74131 1.90968Z" fill="white"/>
</svg>
