<!-- <svg width="100" height="23" viewBox="0 0 100 23" fill="none" xmlns="http://www.w3.org/2000/svg">
<g clip-path="url(#clip0_72_8004)">
<path d="M36.4241 3.16821L36.3636 4.50494H31.7833V19.7074H30.1331V4.53137H25.4546V3.16821H36.4241Z" fill="white"/>
<path d="M32.3419 20.2661H29.574V5.07125H24.8955V2.61304H37.0053L36.8996 5.0637H32.3419V20.2661ZM30.6918 19.1333H31.2242V3.94599H35.831V3.72698H26.0132V3.95732H30.6918V19.1333Z" fill="white"/>
<path d="M52.4873 19.7754H50.9089V3.28906H52.5364C55.5573 7.87069 58.5983 12.4649 61.6594 17.0717L61.7538 17.0453V3.28906H63.3699V19.7754H61.7538C58.7153 15.1686 55.663 10.5479 52.5968 5.91343L52.4873 5.93986V19.7754Z" fill="white"/>
<path d="M63.9173 20.3305H61.444L53.0347 7.60135V20.3305H50.3386V2.73022H52.8233L61.1721 15.3649V2.73022H63.906L63.9173 20.3305ZM62.0293 19.1976H62.7845V3.84794H62.305V17.4644L61.4138 17.725L52.2229 3.84794H51.4677V19.2165H51.9321V5.50941L52.8497 5.27152L62.0293 19.1976Z" fill="white"/>
<path d="M88.4354 13.9036C88.1597 15.7916 89.6701 17.8609 91.6941 18.4348C93.7181 19.0088 96.4142 18.4952 97.3355 15.7538H98.9932C98.7643 16.7744 98.2232 17.6982 97.4451 18.3971C96.0743 19.6469 94.4242 20.0397 92.6079 19.9377C91.6349 19.8949 90.6849 19.6273 89.8325 19.1561C89.1716 18.7945 88.5888 18.3058 88.1176 17.718C87.6465 17.1302 87.2963 16.4549 87.0873 15.7312C86.5412 14.0496 86.5745 12.2335 87.1817 10.5731C88.0049 8.33008 89.6701 7.0651 92.0226 6.72148C93.6892 6.42187 95.4067 6.79088 96.8031 7.74857C97.4907 8.22741 98.0612 8.85552 98.4719 9.58592C98.8825 10.3163 99.1227 11.1301 99.1745 11.9664C99.2349 12.5895 99.1745 13.2201 99.1745 13.896L88.4354 13.9036ZM97.5885 12.5857C97.5885 10.928 97.0448 9.59884 95.6363 8.7228C94.8241 8.23895 93.8924 7.99272 92.9472 8.01207C92.002 8.03143 91.0811 8.31561 90.2894 8.8323C89.0131 9.74611 88.4656 11.03 88.3749 12.5857H97.5885Z" fill="white"/>
<path d="M93.1404 20.5153C92.9554 20.5153 92.7628 20.5153 92.5778 20.5153C91.5192 20.4662 90.4859 20.1756 89.5569 19.6657C88.8313 19.2703 88.191 18.7356 87.6726 18.0921C87.1542 17.4487 86.768 16.7092 86.5361 15.9161C85.9522 14.1185 85.9894 12.1768 86.6418 10.403C87.5103 8.02408 89.3379 6.56652 91.9283 6.19269C93.7382 5.87237 95.6014 6.27948 97.1128 7.32551C97.8666 7.85087 98.4924 8.53908 98.9441 9.33914C99.3958 10.1392 99.6617 11.0306 99.7221 11.9474C99.7547 12.4011 99.761 12.8562 99.741 13.3106C99.741 13.5107 99.741 13.7222 99.741 13.9298V14.4623H88.9641C89.0207 15.9236 90.2631 17.4454 91.8414 17.8834C93.6842 18.3969 96.0253 17.8834 96.807 15.5649L96.9354 15.1873H99.6881L99.5371 15.8594C99.2823 16.9951 98.6821 18.024 97.8189 18.8047C96.5408 19.961 94.8629 20.5745 93.1404 20.5153ZM93.2046 7.2009C92.8355 7.20137 92.467 7.22913 92.102 7.28397C89.9194 7.59739 88.4392 8.77174 87.7067 10.7731C87.141 12.3169 87.1118 14.0062 87.6236 15.5687C87.8123 16.2239 88.1286 16.8355 88.5544 17.3681C88.9801 17.9008 89.5069 18.3441 90.1045 18.6726C90.8834 19.101 91.7502 19.3452 92.6382 19.3863C94.4771 19.4882 95.9271 19.0313 97.0675 17.9891C97.5857 17.5262 97.988 16.948 98.2419 16.3012H97.7208C97.4857 16.8833 97.1314 17.4097 96.6807 17.8467C96.2301 18.2837 95.693 18.6216 95.104 18.8387C93.958 19.2458 92.7141 19.2881 91.5431 18.9596C89.2435 18.3214 87.5669 15.9689 87.8841 13.8241L87.9521 13.3483H98.6346C98.6346 13.3181 98.6346 13.2879 98.6346 13.2577C98.6532 12.8474 98.6469 12.4363 98.6157 12.0267C98.5691 11.2712 98.3528 10.536 97.9828 9.87565C97.6127 9.21534 97.0985 8.64698 96.4785 8.21289C95.5219 7.53731 94.3755 7.18296 93.2046 7.2009ZM98.1512 13.1444H87.7822L87.8162 12.5516C87.9257 10.7013 88.6318 9.33438 89.9647 8.39791C90.8488 7.82206 91.8761 7.50456 92.9309 7.48121C93.9857 7.45786 95.026 7.72958 95.9347 8.26575C97.4149 9.19089 98.1399 10.6069 98.1475 12.6007L98.1512 13.1444ZM88.9943 12.0116H97.0071C96.9857 11.4386 96.8224 10.8798 96.5317 10.3855C96.2411 9.8912 95.8322 9.47682 95.3419 9.17956C94.6239 8.7521 93.8006 8.53405 92.9651 8.55007C92.1296 8.56608 91.3153 8.81552 90.6142 9.27018C90.1641 9.58845 89.7869 9.99884 89.5076 10.4741C89.2283 10.9494 89.0533 11.4786 88.9943 12.0267V12.0116Z" fill="white"/>
<path d="M36.2503 13.322C36.2503 11.4075 36.7865 9.70074 38.2063 8.34891C39.3107 7.30254 40.7636 6.70253 42.2845 6.66478C44.5803 6.56283 46.5514 7.27273 47.9485 9.17209C48.6764 10.1784 49.0951 11.3752 49.1531 12.6159C49.3072 14.0493 49.0284 15.496 48.3526 16.7695C47.8744 17.6412 47.1901 18.3826 46.3594 18.9289C45.5288 19.4752 44.577 19.8099 43.5872 19.9037C42.3564 20.0895 41.0981 19.9273 39.9546 19.4354C37.689 18.4385 36.5562 16.6109 36.2692 14.2094C36.2503 13.9941 36.2503 13.7827 36.2503 13.5712C36.2276 13.4881 36.2503 13.4051 36.2503 13.322ZM47.5332 13.2163C47.5332 13.103 47.5105 12.9104 47.4992 12.714C47.3444 10.1274 45.7735 8.38667 43.2096 8.06948C42.1996 7.91933 41.1684 8.1104 40.2793 8.61242C39.3901 9.11445 38.6938 9.89874 38.3007 10.8411C37.7672 12.1614 37.6784 13.6195 38.0477 14.9948C38.4857 16.7355 39.5581 17.9288 41.3178 18.3932C43.1454 18.8577 44.8106 18.4914 46.1625 17.1207C47.2009 16.0672 47.5105 14.7267 47.5332 13.2163Z" fill="white"/>
<path d="M42.5714 20.5229C41.5933 20.5273 40.6249 20.328 39.728 19.9376C37.3869 18.9143 36.0388 17.0074 35.7103 14.2735C35.7103 14.0998 35.6839 13.9299 35.6801 13.7638C35.6801 13.7109 35.6801 13.658 35.6801 13.6052C35.6763 13.5373 35.6763 13.4692 35.6801 13.4013V13.3295C35.6801 11.0639 36.3749 9.31934 37.8098 7.95241C39.0104 6.81223 40.5914 6.15828 42.2467 6.11724C44.8899 5.99641 46.963 6.91399 48.4016 8.84733C49.1939 9.93886 49.6493 11.2384 49.7119 12.5856C49.8735 14.1243 49.5711 15.6761 48.8434 17.0414C48.3204 17.9856 47.5754 18.7884 46.6728 19.3805C45.7702 19.9726 44.7371 20.3361 43.6627 20.4398C43.3012 20.4919 42.9366 20.5197 42.5714 20.5229ZM42.7073 7.21607C42.5676 7.21607 42.4317 7.21607 42.292 7.21607C40.9055 7.24736 39.58 7.79235 38.5726 8.74538C37.3718 9.8782 36.7865 11.3886 36.7865 13.3106V13.5372C36.7865 13.5938 36.7865 13.6505 36.7865 13.7071C36.7865 13.8544 36.7865 13.9941 36.8129 14.1263C37.0923 16.475 38.1912 18.0383 40.1661 18.903C41.2161 19.3526 42.3708 19.5004 43.5003 19.3297C45.5016 19.0616 46.929 18.1251 47.8541 16.475C48.4797 15.3007 48.7339 13.9642 48.5829 12.6423C48.5361 11.5087 48.1551 10.4143 47.4878 9.49682C46.3512 7.96751 44.7842 7.21607 42.7073 7.21607ZM42.7678 19.1409C42.2325 19.1387 41.6996 19.0689 41.1818 18.9332C39.2938 18.4461 38.0137 17.1358 37.5115 15.1571C37.1111 13.6642 37.2079 12.0815 37.7871 10.6485C38.2254 9.59251 39.0032 8.71279 39.9977 8.14856C40.9921 7.58433 42.1462 7.36781 43.2775 7.53326C46.0982 7.88444 47.8843 9.81778 48.0542 12.6989C48.0542 12.8386 48.0542 12.9821 48.0807 13.0765V13.2087V13.2162C48.0807 14.4095 47.8843 16.1465 46.5703 17.5021C46.0822 18.0207 45.4929 18.4338 44.8389 18.7157C44.1849 18.9976 43.48 19.1423 42.7678 19.1409ZM42.6092 8.59434C41.805 8.57641 41.0141 8.80189 40.3403 9.24122C39.6665 9.68056 39.1411 10.3132 38.8331 11.0563C38.3458 12.2692 38.265 13.6074 38.6028 14.8702C39.0068 16.4637 39.9697 17.4681 41.4726 17.8495C42.2248 18.082 43.0272 18.0992 43.7887 17.8989C44.5503 17.6987 45.2404 17.2891 45.7811 16.7166C46.5854 15.8972 46.9592 14.8286 46.9856 13.2276V13.1445C46.9856 13.0312 46.9856 12.8839 46.9592 12.7405C46.8232 10.4031 45.4488 8.9002 43.1567 8.61322C42.9747 8.59649 42.7919 8.59019 42.6092 8.59434Z" fill="white"/>
<path d="M65.4504 13.322C65.4504 11.4075 65.9866 9.70074 67.4102 8.34891C68.5132 7.30279 69.9648 6.70274 71.4846 6.66478C73.7842 6.56283 75.7515 7.27273 77.1487 9.17209C77.8781 10.1776 78.2969 11.3749 78.3532 12.6159C78.5066 14.0488 78.2292 15.495 77.5565 16.7695C76.5105 18.6274 74.883 19.6205 72.7873 19.9037C71.5565 20.0893 70.2983 19.9271 69.1547 19.4354C66.8891 18.4385 65.7563 16.6109 65.4731 14.2094C65.4466 14.0017 65.4466 13.7902 65.4353 13.5788C65.4466 13.4881 65.4504 13.4051 65.4504 13.322ZM76.7522 13.2163C76.7522 13.103 76.7295 12.9104 76.7182 12.714C76.5671 10.1274 74.9925 8.38667 72.4286 8.06948C71.4185 7.91866 70.387 8.10944 69.4977 8.61154C68.6084 9.11365 67.9123 9.89834 67.5197 10.8411C66.9843 12.1609 66.8954 13.6197 67.2667 14.9948C67.7047 16.7355 68.7771 17.9288 70.533 18.3932C72.3644 18.8577 74.0258 18.4914 75.3777 17.1207C76.4236 16.0672 76.7333 14.7267 76.7522 13.2163Z" fill="white"/>
<path d="M71.7905 20.5229C70.8123 20.5273 69.844 20.328 68.9471 19.9376C66.6097 18.9143 65.2579 17.0074 64.9332 14.2735C64.9105 14.0998 64.9067 13.9299 64.8992 13.7638C64.8992 13.7109 64.8992 13.658 64.8992 13.6052C64.8992 13.5523 64.8992 13.4617 64.8992 13.4013V13.3295C64.8992 11.0639 65.594 9.31934 67.0326 7.95241C68.2328 6.81162 69.8142 6.15756 71.4695 6.11724C74.1128 5.99641 76.1858 6.91399 77.6207 8.84733C78.4125 9.93936 78.8691 11.2384 78.9348 12.5856C79.0945 14.1242 78.7922 15.6755 78.0663 17.0414C77.543 17.9854 76.7979 18.788 75.8954 19.3801C74.9929 19.9721 73.9599 20.3358 72.8855 20.4398C72.5228 20.4918 72.1569 20.5196 71.7905 20.5229ZM71.9264 7.21607C71.7905 7.21607 71.6508 7.21607 71.5111 7.21607C70.1257 7.24757 68.8015 7.7926 67.7954 8.74538C66.5908 9.8782 66.0093 11.3886 66.0093 13.3106V13.3937C66.0093 13.4428 66.0093 13.4881 66.0093 13.5372C66.0093 13.5863 66.0093 13.6505 66.0093 13.7071C66.0093 13.8544 66.0093 13.9941 66.032 14.1225C66.3152 16.475 67.4103 18.0383 69.3889 18.903C70.4376 19.3529 71.5912 19.5007 72.7194 19.3297C74.7245 19.0616 76.1481 18.1251 77.077 16.475C77.7003 15.3 77.9543 13.9641 77.8058 12.6423C77.759 11.5087 77.378 10.4143 76.7107 9.49682C75.5741 7.96751 74.0108 7.21607 71.9264 7.21607ZM71.9868 19.1409C71.4528 19.1384 70.9212 19.0687 70.4047 18.9332C68.5166 18.4461 67.2328 17.1358 66.7306 15.1571C66.3314 13.6638 66.4295 12.0811 67.01 10.6485C67.4451 9.58929 68.2218 8.7059 69.2166 8.13872C70.2114 7.57153 71.3672 7.35311 72.5004 7.51816C75.3211 7.86933 77.1072 9.80268 77.2771 12.6838C77.2771 12.8198 77.2771 12.9595 77.3035 13.0614V13.2011V13.2162C77.3035 14.4095 77.111 16.1465 75.7931 17.5021C75.3043 18.0209 74.7144 18.4339 74.0598 18.7158C73.4051 18.9977 72.6996 19.1423 71.9868 19.1409ZM71.8282 8.59434C71.0238 8.57536 70.2325 8.80042 69.5585 9.23988C68.8845 9.67935 68.3593 10.3126 68.0522 11.0563C67.5611 12.2684 67.4802 13.6078 67.8218 14.8702C68.2221 16.4637 69.1888 17.4681 70.6879 17.8495C71.4402 18.082 72.2425 18.0992 73.0041 17.8989C73.7656 17.6987 74.4558 17.2891 74.9964 16.7166C75.8044 15.8972 76.1745 14.8286 76.2009 13.2238V13.1332C76.2009 13.0237 76.182 12.8802 76.1745 12.7556C76.0348 10.4182 74.6641 8.9153 72.372 8.62832C72.1915 8.60694 72.01 8.59559 71.8282 8.59434Z" fill="white"/>
<path d="M80.4793 8.19039H78.6895V6.85366H80.4718V3.62891H82.0766V6.84989H85.6563V8.17906H82.1332C82.1332 8.41695 82.0992 8.59821 82.0992 8.77568C82.0992 11.1999 82.0992 13.6241 82.0992 16.0446C82.0997 16.4361 82.1364 16.8267 82.2087 17.2114C82.246 17.5014 82.382 17.7696 82.5938 17.9711C82.8056 18.1726 83.0803 18.295 83.3718 18.3178C83.9117 18.3858 84.4631 18.382 85.0106 18.4046C85.2145 18.4046 85.4222 18.4046 85.6525 18.4046V19.6885C85.5445 19.7138 85.4347 19.7302 85.324 19.7376C84.6934 19.7376 84.059 19.7376 83.436 19.7376C81.5781 19.6621 80.5246 18.6048 80.502 16.7545C80.468 14.1113 80.502 11.4907 80.4831 8.85498L80.4793 8.19039Z" fill="white"/>
<path d="M84.3571 20.304C84.0437 20.304 83.7265 20.304 83.4093 20.304C81.2306 20.2172 79.9656 18.9295 79.9391 16.7696C79.9165 14.9194 79.9165 13.0389 79.9391 11.2188C79.9391 10.4334 79.9391 9.64797 79.9391 8.86255V8.76437H78.1455V6.30993H79.9278V3.07007H82.6504V6.29105H86.2301V8.73794H82.6579V9.6442C82.6579 11.7437 82.6579 13.9111 82.6579 16.0635C82.6614 16.4207 82.6955 16.777 82.7599 17.1284C82.7838 17.2964 82.8662 17.4506 82.9926 17.5639C83.1189 17.6771 83.2812 17.7422 83.4509 17.7476C83.8285 17.7967 84.2061 17.8043 84.5837 17.8194H85.0293C85.1539 17.8194 85.286 17.8194 85.4295 17.8194H86.2074V20.1643L85.7392 20.2436H85.6523C85.5446 20.2691 85.4345 20.2831 85.3238 20.2851H84.3571V20.304ZM79.2481 7.63155H81.038V11.2075C81.038 13.02 81.038 14.8967 81.038 16.7432C81.0569 18.2914 81.8612 19.1108 83.4358 19.1712C83.9116 19.1712 84.4024 19.1712 84.8745 19.1712H85.0821V18.956H84.9726H84.5384C84.1194 18.9515 83.7009 18.9251 83.2847 18.8767C82.8758 18.8401 82.4912 18.6666 82.1931 18.3843C81.895 18.1019 81.7009 17.7273 81.6421 17.3209C81.5773 16.9 81.5507 16.4741 81.5628 16.0484C81.5628 13.9149 81.5628 11.7437 81.5628 9.62909V8.7606C81.5628 8.62088 81.5628 8.48494 81.5855 8.34145C81.5855 8.27726 81.5855 8.20551 81.5855 8.12999L81.6195 7.6089H85.1048V7.39366H81.5251V4.18401H81.0342V7.41254H79.2557L79.2481 7.63155Z" fill="white"/>
<path d="M22.9483 12.7339C22.7981 12.9803 22.7014 13.2556 22.6643 13.5418C22.6272 13.828 22.6506 14.1188 22.7331 14.3954C22.8488 14.7656 22.8395 15.1637 22.7066 15.5282C22.5535 15.9004 22.2899 16.2167 21.9514 16.4344C21.6923 16.5934 21.4776 16.8151 21.3271 17.0792C21.1766 17.3432 21.0952 17.641 21.0905 17.9449C21.067 18.3472 20.912 18.7306 20.6493 19.0363C20.3867 19.3419 20.0309 19.5528 19.6367 19.6365C19.3423 19.7048 19.0688 19.8435 18.8399 20.0409C18.611 20.2382 18.4335 20.4882 18.3226 20.7694C18.1502 21.1535 17.8607 21.4733 17.4957 21.6832C17.1208 21.8825 16.6933 21.9604 16.2722 21.906C16.0298 21.8652 15.7811 21.8827 15.5468 21.9569C15.3124 22.031 15.099 22.1598 14.9242 22.3326C14.732 22.5431 14.4989 22.7123 14.2393 22.8298C13.9796 22.9473 13.6987 23.0107 13.4137 23.0161C13.1992 23.0146 12.9858 22.9841 12.7793 22.9255C12.0504 22.7238 11.2804 22.7238 10.5515 22.9255C10.3699 22.9711 10.1836 22.9952 9.99639 22.9972C9.71222 22.9955 9.43146 22.9353 9.1716 22.8203C8.91174 22.7053 8.67834 22.538 8.48596 22.3289C8.3195 22.1555 8.11283 22.0258 7.88427 21.9514C7.65571 21.877 7.41232 21.8601 7.17567 21.9022C6.73342 21.9588 6.2844 21.8798 5.88803 21.6756C5.50665 21.4622 5.20462 21.131 5.02709 20.7316C4.91194 20.4611 4.73522 20.2213 4.51102 20.0312C4.28682 19.8411 4.02132 19.7059 3.73568 19.6365C3.33585 19.5417 2.97789 19.3189 2.71614 19.0022C2.45955 18.6648 2.30964 18.2585 2.28567 17.8354C2.27539 17.578 2.20476 17.3268 2.07948 17.1018C1.95419 16.8768 1.77777 16.6844 1.56444 16.5402C1.18373 16.2947 0.890329 15.9352 0.726153 15.5131C0.576496 15.082 0.563311 14.6152 0.688392 14.1764C0.759148 13.9216 0.767962 13.6537 0.714098 13.3949C0.660235 13.1361 0.545256 12.8939 0.378755 12.6886C0.182439 12.4494 0.0559892 12.1606 0.0133464 11.8541C-0.0292965 11.5476 0.0135241 11.2353 0.137087 10.9516C0.514425 10.0958 0.68393 9.16288 0.631751 8.22905C0.610141 7.90707 0.676355 7.58527 0.823327 7.29797C0.970299 7.01068 1.19251 6.76868 1.46626 6.59779C1.71193 6.43705 1.91554 6.21981 2.06007 5.96427C2.20459 5.70872 2.28583 5.42228 2.297 5.1289C2.31849 4.72489 2.46644 4.33786 2.71991 4.02252C2.98511 3.71199 3.34214 3.49381 3.73945 3.39947C4.0325 3.33782 4.3062 3.20597 4.53706 3.01523C4.76792 2.82449 4.94903 2.58057 5.06485 2.30441C5.21036 1.92399 5.47804 1.60265 5.82589 1.39079C6.17375 1.17893 6.5821 1.08855 6.98687 1.13383C7.71942 1.19425 8.16122 1.05831 8.56148 0.639166C8.84793 0.329841 9.22443 0.118473 9.63766 0.0349957C10.0556 -0.033117 10.4843 0.0343707 10.8611 0.227575C11.1217 0.35444 11.4077 0.420367 11.6975 0.420367C11.9873 0.420367 12.2733 0.35444 12.5339 0.227575C12.9108 0.0189537 13.349 -0.050718 13.772 0.0307141C14.1951 0.112146 14.5761 0.339513 14.8486 0.67315C15.0147 0.854487 15.2215 0.993864 15.4518 1.07985C15.6822 1.16584 15.9297 1.19598 16.174 1.16781C16.6417 1.10754 17.1164 1.19746 17.5296 1.42459C17.9309 1.67139 18.242 2.04078 18.417 2.47811C18.509 2.69787 18.6529 2.89205 18.8364 3.04397C19.0199 3.1959 19.2375 3.30104 19.4705 3.35038C19.9273 3.44645 20.3414 3.68591 20.6524 4.03385C20.9445 4.38721 21.1082 4.82913 21.1169 5.2875C21.1799 5.79041 21.4374 6.24861 21.8343 6.56381C22.1139 6.84975 22.3667 7.16068 22.5896 7.49272L22.7368 7.69663C22.8066 7.80826 22.8496 7.93445 22.8627 8.06542C22.8758 8.19639 22.8586 8.32861 22.8123 8.45184C22.6895 8.75724 22.6402 9.08725 22.6684 9.41522C22.6966 9.74319 22.8015 10.0599 22.9747 10.3399C23.1943 10.7016 23.3082 11.1175 23.3036 11.5407C23.2989 11.9638 23.1758 12.3771 22.9483 12.7339Z" fill="white"/>
<path d="M22.9672 10.3432C22.794 10.0633 22.6891 9.74652 22.6608 9.41855C22.6326 9.09058 22.6819 8.76058 22.8048 8.45518C22.851 8.33195 22.8683 8.19972 22.8552 8.06876C22.8421 7.93779 22.799 7.8116 22.7293 7.69996L22.582 7.49606C22.3591 7.16402 22.1064 6.85308 21.8268 6.56714C21.4319 6.24972 21.177 5.79018 21.1169 5.28706C21.1074 4.82999 20.9437 4.38954 20.6524 4.03718C20.3414 3.68924 19.9273 3.44978 19.4705 3.35371C19.2375 3.30438 19.0199 3.19923 18.8364 3.04731C18.6529 2.89538 18.509 2.70121 18.417 2.48144C18.242 2.04411 17.9309 1.67473 17.5296 1.42792C17.1164 1.20079 16.6417 1.11088 16.174 1.17115C15.9297 1.19932 15.6822 1.16917 15.4518 1.08319C15.2215 0.9972 15.0147 0.857822 14.8486 0.676486C14.5766 0.342227 14.1958 0.114123 13.7728 0.0319953C13.3497 -0.0501325 12.9112 0.0189328 12.5339 0.227134C12.2733 0.353999 11.9873 0.419926 11.6975 0.419926C11.4077 0.419926 11.1217 0.353999 10.8611 0.227134C10.4843 0.0339301 10.0556 -0.0335576 9.63766 0.0345552C9.22254 0.122159 8.84582 0.338942 8.56148 0.65383C8.16122 1.07297 7.71942 1.20891 6.98687 1.13339C6.58255 1.08785 6.17455 1.17769 5.82676 1.38882C5.47896 1.59996 5.211 1.92048 5.06485 2.30019C4.94953 2.57706 4.76863 2.82174 4.53774 3.01316C4.30685 3.20458 4.03289 3.337 3.73945 3.39903C3.34359 3.4903 2.98673 3.70441 2.71991 4.01075C2.46644 4.32609 2.31849 4.71312 2.297 5.11714C2.28583 5.41051 2.20459 5.69695 2.06007 5.9525C1.91554 6.20805 1.71193 6.42528 1.46626 6.58602C1.19251 6.75691 0.970299 6.99891 0.823327 7.2862C0.676355 7.5735 0.610141 7.8953 0.631751 8.21728C0.685736 9.15489 0.516193 10.0919 0.137087 10.9512C0.0135241 11.2349 -0.0292965 11.5472 0.0133464 11.8537C0.0559892 12.1602 0.182439 12.4489 0.378755 12.6881C0.543322 12.8945 0.656245 13.1371 0.708131 13.3959C0.760017 13.6547 0.749366 13.9221 0.677064 14.1759C0.551983 14.6148 0.565168 15.0815 0.714825 15.5126C0.881984 15.9364 1.17951 16.2961 1.56444 16.5397C1.77877 16.6847 1.95582 16.8783 2.08115 17.1047C2.20649 17.3311 2.27656 17.5839 2.28567 17.8425C2.30964 18.2656 2.45955 18.6719 2.71614 19.0093C2.97902 19.3232 3.33685 19.5432 3.73568 19.6361C4.02218 19.7014 4.28947 19.8327 4.51629 20.0196C4.74311 20.2064 4.92319 20.4436 5.04219 20.7123C5.21972 21.1117 5.52176 21.4428 5.90314 21.6563C6.29308 21.8639 6.73647 21.9495 7.17567 21.9017C7.41181 21.8634 7.65374 21.8837 7.88022 21.9607C8.10671 22.0377 8.31082 22.1692 8.47463 22.3435C8.66701 22.5527 8.90041 22.72 9.16027 22.835C9.42013 22.9499 9.7009 23.0102 9.98506 23.0119C10.1723 23.0099 10.3586 22.9858 10.5401 22.9402C11.2691 22.7384 12.0391 22.7384 12.768 22.9402C12.9744 22.9988 13.1878 23.0293 13.4024 23.0308C13.6874 23.0254 13.9683 22.962 14.2279 22.8444C14.4876 22.7269 14.7206 22.5578 14.9128 22.3473C15.0871 22.1694 15.3015 22.0361 15.5381 21.9586C15.7747 21.881 16.0265 21.8615 16.2722 21.9017C16.6933 21.9562 17.1208 21.8783 17.4956 21.6789C17.8601 21.4701 18.1495 21.1517 18.3226 20.7689C18.4335 20.4878 18.611 20.2378 18.8399 20.0404C19.0688 19.8431 19.3423 19.7043 19.6367 19.6361C20.0301 19.5507 20.3846 19.3387 20.6459 19.0324C20.9071 18.7261 21.0606 18.3426 21.0829 17.9406C21.0876 17.6368 21.169 17.339 21.3195 17.0749C21.47 16.8109 21.6848 16.5891 21.9439 16.4302C22.2824 16.2125 22.546 15.8962 22.6991 15.524C22.832 15.1595 22.8413 14.7614 22.7255 14.3911C22.6431 14.1146 22.6197 13.8238 22.6567 13.5376C22.6938 13.2514 22.7906 12.9761 22.9407 12.7297C23.1668 12.3738 23.289 11.9618 23.2937 11.5402C23.2983 11.1186 23.1853 10.7041 22.9672 10.3432ZM22.6198 12.5522C22.4449 12.8425 22.3327 13.1661 22.2904 13.5023C22.2482 13.8386 22.2767 14.1799 22.3743 14.5044C22.4729 14.8072 22.4635 15.1348 22.3479 15.4315C22.2322 15.7282 22.0174 15.9757 21.7399 16.1319C21.4345 16.3246 21.1814 16.5899 21.0035 16.9042C20.8256 17.2185 20.7284 17.572 20.7204 17.9331C20.7006 18.2549 20.5763 18.5614 20.3664 18.8061C20.1565 19.0508 19.8724 19.2202 19.5574 19.2887C19.2101 19.3635 18.886 19.521 18.6125 19.7478C18.339 19.9746 18.1243 20.264 17.9865 20.5914C17.8532 20.9132 17.615 21.1804 17.3106 21.3497C17.0063 21.519 16.6537 21.5805 16.31 21.5241C16.0115 21.4769 15.7062 21.5009 15.4188 21.5941C15.1314 21.6873 14.87 21.847 14.656 22.0603C14.4388 22.3076 14.154 22.4861 13.8368 22.574C13.5195 22.6619 13.1835 22.6553 12.87 22.555C12.501 22.4527 12.12 22.4006 11.7372 22.4002C11.3038 22.4031 10.8725 22.4602 10.4533 22.5701C10.303 22.6103 10.1482 22.6307 9.99261 22.6305C9.761 22.6288 9.53227 22.5789 9.32099 22.484C9.10971 22.3891 8.9205 22.2512 8.76539 22.0792C8.56123 21.8636 8.30801 21.7006 8.02727 21.6039C7.74654 21.5073 7.44661 21.4799 7.15301 21.5241C6.79254 21.5858 6.42181 21.5248 6.10009 21.3509C5.77836 21.177 5.52421 20.9003 5.37826 20.565C5.23797 20.2456 5.02489 19.9635 4.75606 19.7413C4.48723 19.519 4.17011 19.3627 3.83008 19.2849C3.49436 19.211 3.1939 19.0248 2.97832 18.7571C2.76274 18.4893 2.64495 18.156 2.64439 17.8123C2.6328 17.5002 2.54819 17.1952 2.39735 16.9217C2.24652 16.6482 2.03368 16.4139 1.7759 16.2376C1.44994 16.0405 1.20065 15.7384 1.06892 15.3809C0.937192 15.0235 0.930835 14.6319 1.05089 14.2703C1.13541 13.9611 1.14524 13.6361 1.07959 13.3223C1.01394 13.0085 0.874685 12.7148 0.673288 12.4654C0.517033 12.2775 0.415094 12.0505 0.37849 11.8089C0.341887 11.5673 0.37201 11.3204 0.465604 11.0946C0.868175 10.1873 1.04813 9.19691 0.990477 8.20596C0.974809 7.94945 1.02905 7.6935 1.14742 7.4654C1.2658 7.23731 1.44386 7.04561 1.66262 6.91077C1.95467 6.71871 2.19697 6.46008 2.36962 6.15615C2.54226 5.85222 2.64032 5.51165 2.65572 5.16245C2.66172 4.8309 2.78237 4.51166 2.99715 4.25902C3.21194 4.00637 3.50759 3.83592 3.83385 3.77663C4.18166 3.70173 4.50618 3.54378 4.77971 3.31627C5.05325 3.08877 5.26768 2.79845 5.4047 2.47012C5.51917 2.16231 5.73252 1.90117 6.01131 1.72761C6.29011 1.55404 6.6186 1.47786 6.94533 1.511C7.28576 1.57379 7.63646 1.55112 7.96598 1.44502C8.29549 1.33891 8.59353 1.15269 8.83336 0.90305C9.05797 0.639777 9.36618 0.46162 9.70642 0.398383C10.0467 0.335146 10.3983 0.390665 10.7025 0.555652C11.0109 0.707554 11.35 0.786556 11.6937 0.786556C12.0375 0.786556 12.3766 0.707554 12.6849 0.555652C12.993 0.383076 13.3525 0.326285 13.6987 0.395528C14.045 0.464771 14.355 0.655487 14.573 0.933258C14.7771 1.15575 15.0309 1.32681 15.3138 1.43247C15.5966 1.53813 15.9005 1.57539 16.2005 1.5412C16.5928 1.47183 16.997 1.54477 17.3404 1.7469C17.6837 1.94904 17.9437 2.26709 18.0734 2.64381C18.1879 2.91694 18.3669 3.15822 18.5951 3.34697C18.8233 3.53572 19.0939 3.66631 19.3837 3.72754C19.7626 3.78852 20.1074 3.98232 20.3565 4.27427C20.6055 4.56623 20.7426 4.93729 20.7431 5.32104C20.8101 5.91431 21.1087 6.45712 21.5738 6.83147C21.8339 7.10269 22.0701 7.39579 22.2799 7.70752L22.4234 7.91142C22.4577 7.97106 22.4783 8.03763 22.4835 8.10624C22.4887 8.17485 22.4785 8.24376 22.4536 8.30791C22.3093 8.66833 22.2525 9.05786 22.2879 9.4445C22.3234 9.83113 22.4501 10.2038 22.6575 10.532C22.8433 10.8377 22.9383 11.1899 22.9316 11.5476C22.9249 11.9052 22.8168 12.2536 22.6198 12.5522Z" fill="white"/>
<path d="M8.32617 12.7744L8.82084 12.3062L9.91212 13.439L13.2388 8.78687L13.8128 9.20223L10.0367 14.4887L8.32617 12.7744Z" fill="#03060B"/>
<path d="M11.6379 19.8394H11.4529V19.0238H11.9702L11.9966 19.8394H11.619H11.6379ZM11.5926 19.7035H11.8645L11.8456 19.1635H11.6001L11.5926 19.7035ZM10.8563 19.8054H10.7883L10.3729 19.7526H10.305L10.4296 18.9445H10.4975L10.8751 18.9936H10.9431L10.8563 19.8054ZM10.4787 19.6166C10.5655 19.6166 10.6561 19.6431 10.7468 19.6506L10.8034 19.1144L10.558 19.0842L10.4787 19.6166ZM12.6197 19.7866L12.5177 18.9747H12.5895L12.9671 18.9181H13.035L13.1785 19.7224H13.1106C12.9746 19.745 12.8349 19.7677 12.699 19.7828L12.6197 19.7866ZM12.6725 19.0955L12.7254 19.6355L12.9935 19.594L12.9029 19.0616L12.6725 19.0955ZM9.71589 19.6355H9.64792C9.51576 19.6015 9.37982 19.5638 9.24766 19.5222H9.17969L9.4138 18.7406H9.48177L9.85938 18.8426H9.92735L9.71589 19.6355ZM9.33828 19.3939L9.59883 19.4694L9.73099 18.9445L9.50821 18.8803L9.33828 19.3939ZM13.7261 19.5902L13.5108 18.801H13.5788L13.9564 18.6915L14.0244 18.6689L14.2774 19.4467L14.2132 19.4694C14.081 19.5109 13.9451 19.5525 13.8091 19.5864L13.7261 19.5902ZM13.6959 18.8803L13.8394 19.4014L14.0999 19.3221L13.93 18.8123L13.6959 18.8803ZM8.61328 19.2579H8.54909L8.17148 19.0918L8.10729 19.0616L8.45091 18.3064L8.51133 18.3328C8.62838 18.3894 8.74544 18.4385 8.85872 18.4838L8.92292 18.5103L8.61328 19.2579ZM8.30742 18.9823L8.55664 19.0918L8.75677 18.5896L8.5151 18.5027L8.30742 18.9823ZM14.8513 19.2013L14.5304 18.4461L14.5946 18.4196L14.9344 18.2648L14.9986 18.2346L15.3573 18.9672L15.2969 18.9974C15.1723 19.0578 15.0439 19.1182 14.9193 19.1711L14.8513 19.2013ZM14.7116 18.5254L14.9269 19.02L15.1723 18.9067L14.9344 18.4234L14.7116 18.5254ZM7.58997 18.7746L7.52955 18.7406C7.40871 18.6726 7.29166 18.5971 7.1746 18.5216L7.11418 18.4838L7.5522 17.8004L7.61262 17.8381L7.93359 18.0345L7.994 18.0685L7.58997 18.7746ZM7.30676 18.4423L7.54088 18.5858L7.7901 18.1251L7.57864 17.9967L7.30676 18.4423ZM15.8595 18.684L15.4366 17.9854L15.497 17.9476L15.8142 17.7475L15.8709 17.706L16.3278 18.3819L16.2711 18.4234L15.92 18.6462L15.8595 18.684ZM15.6292 18.0307L15.9124 18.5027C15.9879 18.4574 16.0635 18.4083 16.139 18.3554L15.8369 17.9099L15.6292 18.0307ZM6.60819 18.1251L6.55155 18.0798C6.44204 17.9967 6.33631 17.9061 6.23058 17.8155L6.17772 17.7702L6.71014 17.1509L6.76301 17.1962C6.85741 17.2793 6.95559 17.3586 7.05376 17.4379L7.11041 17.4794L6.60819 18.1251ZM6.37407 17.7475C6.44204 17.8079 6.51379 17.8646 6.58553 17.9212L6.91405 17.4945L6.72525 17.3397L6.37407 17.7475ZM16.8111 18.0043L16.2976 17.3699H16.3504C16.4486 17.2906 16.543 17.2075 16.6374 17.1244L16.6865 17.0754L17.234 17.6833L17.1849 17.7286C17.0792 17.8243 16.9735 17.9149 16.8678 18.0005L16.8111 18.0043ZM16.4901 17.3888L16.8338 17.8079L17.0377 17.6304L16.6789 17.2302C16.6148 17.3057 16.5543 17.3699 16.4901 17.4114V17.3888ZM5.74347 17.3699L5.69438 17.3208C5.5962 17.2226 5.5018 17.1169 5.41118 17.0149L5.36586 16.9621L5.97759 16.4221L6.0229 16.475C6.10597 16.5694 6.19282 16.6638 6.27967 16.7544L6.32876 16.8035L5.74347 17.3699ZM5.56222 16.9923L5.74347 17.1924L6.12108 16.8148L5.96626 16.6147L5.56222 16.9923ZM17.6456 17.2604L17.049 16.7015L17.0943 16.6524C17.1799 16.5618 17.263 16.4674 17.3435 16.3692L17.3888 16.3164L18.0157 16.8412L17.9704 16.8941C17.8797 17.0036 17.7853 17.1056 17.6947 17.2075L17.6456 17.2604ZM17.2416 16.694L17.6192 17.0716L17.8004 16.8677L17.3851 16.5203C17.37 16.558 17.3133 16.6147 17.2567 16.6789L17.2416 16.694ZM4.97693 16.5127L4.93539 16.4599C4.85232 16.3466 4.77302 16.2295 4.6975 16.1162L4.65974 16.0558L5.33943 15.6102L5.38097 15.6669C5.44516 15.7688 5.51691 15.8746 5.59243 15.9765L5.63396 16.0332L4.97693 16.5127ZM4.85232 16.0974C4.90141 16.1729 4.95427 16.2484 5.00714 16.3201L5.44139 16.003L5.30167 15.799L4.85232 16.0974ZM18.3782 16.3655L17.7098 15.8972L17.7476 15.8406C17.8193 15.7386 17.8911 15.6329 17.9553 15.5272L17.993 15.4705L18.684 15.901L18.6501 15.9614C18.5745 16.0785 18.499 16.1955 18.4197 16.3088L18.3782 16.3655ZM17.9175 15.8595L18.3593 16.1691C18.4122 16.0936 18.4613 16.0181 18.5103 15.9425L18.0534 15.6556L17.9175 15.8595ZM4.36898 15.5385L4.335 15.4819C4.27081 15.361 4.20661 15.2364 4.1462 15.1042L4.11599 15.0438L4.8712 14.6927L4.90141 14.7569C4.95427 14.8664 5.01091 14.9796 5.07133 15.0929L5.10154 15.1533L4.36898 15.5385ZM4.30101 15.1042L4.42562 15.3459L4.90896 15.1042L4.79568 14.8852L4.30101 15.1042ZM18.9937 15.3724L18.2687 14.9947L18.2989 14.9343C18.3555 14.821 18.4084 14.7078 18.4613 14.5945L18.4877 14.5303L19.2429 14.8626L19.2127 14.9268C19.1598 15.0514 19.0994 15.1798 19.0352 15.3044L18.9937 15.3724ZM18.4537 14.9419L18.9333 15.1873C18.9748 15.1043 19.0126 15.0212 19.0503 14.9419L18.5594 14.7266C18.5254 14.7871 18.5028 14.8626 18.4537 14.9343V14.9419ZM3.88565 14.4774L3.86299 14.4132C3.81264 14.2798 3.76733 14.1476 3.72705 14.0167V13.9526L4.50492 13.7109L4.52758 13.7751C4.56534 13.8959 4.6031 14.0167 4.64841 14.1527L4.67107 14.2169L3.88565 14.4774ZM3.88565 14.0432C3.91208 14.13 3.94229 14.2169 3.9725 14.2999L4.47849 14.1149L4.39919 13.8846L3.88565 14.0432ZM19.4581 14.3037L18.684 14.0394L18.7067 13.9752C18.7482 13.8581 18.786 13.7373 18.82 13.6165L18.8389 13.5485L19.6243 13.7751L19.6054 13.8393C19.5676 13.9752 19.5261 14.1074 19.4808 14.2395L19.4581 14.3037ZM18.8577 13.9714L19.3675 14.1489C19.3939 14.0621 19.4241 13.9752 19.4468 13.8884L18.9295 13.7411C18.9068 13.7977 18.8804 13.877 18.8577 13.9714ZM3.55713 13.371V13.3031C3.52692 13.1709 3.50049 13.0312 3.47783 12.8953V12.8273L4.28591 12.6951V12.7631C4.28591 12.8877 4.32745 13.0123 4.35388 13.1407V13.2087L3.55713 13.371ZM3.61377 12.9406C3.61377 13.0312 3.64398 13.118 3.66286 13.2087L4.19151 13.0954C4.19151 13.0161 4.15752 12.933 4.1462 12.8537L3.61377 12.9406ZM19.7602 13.1898L18.9559 13.0387V12.9708C18.9786 12.8499 18.9975 12.7253 19.0163 12.5932V12.5252L19.8282 12.6385V12.7065C19.8282 12.8424 19.7866 12.9821 19.7602 13.118V13.1898ZM19.1183 12.9292L19.6469 13.0274C19.6469 12.9406 19.6809 12.8499 19.6922 12.7593L19.1598 12.6876C19.1485 12.7669 19.1334 12.8386 19.1183 12.9292ZM3.39854 12.2307V12.1627C3.39854 12.023 3.39854 11.8833 3.39854 11.7436V11.6756L4.21416 11.6567V11.7284C4.21416 11.8531 4.21416 11.9777 4.21416 12.1061V12.1778L3.39854 12.2307ZM3.51559 11.8115V12.0834L4.05557 12.0456C4.05557 11.9626 4.05557 11.8795 4.05557 11.8002L3.51559 11.8115ZM19.9188 12.0456L19.1032 12.0041V11.9361C19.1032 11.8115 19.1032 11.6869 19.1032 11.5585V11.4452H19.9188V11.5623C19.9188 11.702 19.9188 11.8455 19.9188 11.9814V12.0456ZM19.2504 11.8757L19.7866 11.9021C19.7866 11.7964 19.7866 11.6869 19.7866 11.5812H19.258C19.258 11.6794 19.258 11.7775 19.2353 11.8757H19.2504ZM4.19906 11.1205L3.38721 11.0676V10.9959C3.38721 10.86 3.40986 10.7202 3.42497 10.5805V10.5126L4.23682 10.607V10.6749C4.23682 10.7995 4.21039 10.9279 4.20284 11.0525L4.19906 11.1205ZM3.51937 10.9506L4.05557 10.9883L4.07823 10.7429L3.54203 10.6825L3.51937 10.9506ZM19.0767 10.9241V10.8562C19.0767 10.7316 19.0503 10.6032 19.0314 10.4786V10.4068L19.8395 10.2898V10.3577C19.8622 10.4975 19.8773 10.6372 19.8886 10.7731V10.8449L19.0767 10.9241ZM19.1712 10.5277C19.1712 10.6107 19.1938 10.69 19.2014 10.7731L19.7376 10.7202C19.7376 10.6334 19.7187 10.5428 19.7036 10.4521L19.1712 10.5277ZM4.31612 10.101L3.51559 9.93104V9.86308C3.5458 9.73091 3.57601 9.5912 3.60999 9.45904L3.62887 9.39107L4.41807 9.59875V9.66294C4.38409 9.78378 4.35766 9.90839 4.33122 10.0405L4.31612 10.101ZM3.68174 9.81776L4.21039 9.92727C4.21039 9.84797 4.24437 9.76867 4.26325 9.68938L3.74216 9.55344C3.7195 9.64784 3.70062 9.73846 3.68174 9.81776ZM18.9144 9.88573V9.81776C18.8879 9.69693 18.854 9.57232 18.82 9.44016L18.7973 9.37596L19.5827 9.14562V9.21359C19.6243 9.34953 19.6583 9.48547 19.6922 9.61763V9.6856L18.9144 9.88573ZM18.9559 9.48169C18.9786 9.56099 18.9975 9.64029 19.0201 9.71581L19.5412 9.5912C19.5236 9.50561 19.5009 9.41876 19.4732 9.33065L18.9559 9.48169ZM4.58799 9.10409L3.83278 8.82466L3.85544 8.76046C3.90453 8.63208 3.95362 8.49992 4.00648 8.38286L4.03669 8.31867L4.7919 8.63208L4.76547 8.69627C4.71638 8.81333 4.67107 8.93039 4.62953 9.05122L4.58799 9.10409ZM3.99893 8.72648L4.50492 8.91151L4.59555 8.68117L4.09711 8.47348C4.06312 8.56411 4.02914 8.65096 3.99893 8.73403V8.72648ZM18.6123 8.88885L18.5896 8.82466C18.5443 8.7076 18.4952 8.59054 18.4424 8.47726L18.4122 8.41684L19.1674 8.077L19.1976 8.14119C19.2542 8.26958 19.3109 8.39796 19.36 8.5188L19.3864 8.58299L18.6123 8.88885ZM18.6123 8.48481C18.6463 8.56033 18.6765 8.63208 18.7067 8.7076L19.2089 8.51124C19.1749 8.42817 19.1409 8.3451 19.1032 8.26202L18.6123 8.48481ZM5.01847 8.13364L4.29724 7.75603L4.33122 7.69561C4.39542 7.571 4.46716 7.45017 4.53513 7.31801L4.57289 7.25759L5.27146 7.67296L5.23748 7.73337C5.17328 7.84288 5.11287 7.95239 5.05245 8.06189L5.01847 8.13364ZM4.48604 7.69184L4.96183 7.94483L5.08266 7.7296L4.6182 7.45395L4.48604 7.69184ZM18.1932 7.94483L18.1252 7.89197C18.0648 7.78624 18.0006 7.67673 17.9326 7.571L17.8948 7.51059L18.5859 7.07634L18.6236 7.13298C18.6991 7.25004 18.7709 7.37087 18.8389 7.49171L18.8804 7.55212L18.1932 7.94483ZM18.1214 7.56723C18.1629 7.6352 18.2083 7.70694 18.246 7.77491L18.718 7.51059L18.5783 7.28025L18.1214 7.56723ZM5.54334 7.25004L4.87875 6.77048L4.92029 6.71384C5.00336 6.60433 5.08644 6.49105 5.17328 6.38154L5.2186 6.32868L5.85675 6.83845L5.81144 6.89509C5.73214 6.98949 5.65662 7.09144 5.58488 7.1934L5.54334 7.25004ZM5.07511 6.74027L5.51313 7.05746C5.55844 6.98949 5.61131 6.9253 5.6604 6.8611L5.24125 6.52503L5.07511 6.74027ZM17.6116 7.08012L17.5701 7.02725C17.4946 6.92907 17.4115 6.82712 17.3322 6.73272L17.2869 6.67985L17.9099 6.1512L17.9553 6.20407C18.0459 6.3098 18.1327 6.41931 18.2158 6.52881L18.2573 6.58545L17.6116 7.08012ZM17.4833 6.70251L17.6343 6.89509L18.0648 6.56657L17.8948 6.35511L17.4833 6.70251ZM6.20037 6.45329L5.61131 5.88688L5.6604 5.83779C5.75857 5.73584 5.85675 5.63766 5.95871 5.54326L6.00779 5.49417L6.56665 6.08701L6.51756 6.1361L6.24946 6.40042L6.20037 6.45329ZM5.82277 5.8831L6.20037 6.26071C6.25701 6.20029 6.31743 6.14365 6.37407 6.08701L5.99647 5.7094L5.82277 5.8831ZM16.9433 6.30225L16.8942 6.25316C16.8073 6.16631 16.7167 6.07946 16.6185 5.99639L16.5694 5.9473L17.1132 5.33935L17.1623 5.38466C17.268 5.47907 17.37 5.57347 17.4681 5.67164L17.5172 5.72073L16.9433 6.30225ZM16.7658 5.92464L16.9433 6.09079L17.3209 5.71318L17.1245 5.52815L16.7658 5.92464ZM6.98202 5.72829L6.46092 5.09768L6.51379 5.05237C6.62329 4.9693 6.73657 4.88245 6.84986 4.80315L6.9065 4.76161L7.37851 5.42998L7.32186 5.46774L7.01978 5.6943L6.98202 5.72829ZM6.67238 5.11279L7.00468 5.53571L7.20103 5.38844L6.88762 4.95042L6.67238 5.11279ZM16.1616 5.5999L16.105 5.55836C16.0068 5.48662 15.9011 5.4111 15.7954 5.34313L15.7387 5.30537L16.1918 4.62567L16.2523 4.66344C16.3655 4.73896 16.4788 4.82203 16.5921 4.9051L16.6487 4.94664L16.1616 5.5999ZM15.9162 5.28649C15.9842 5.3318 16.0521 5.37711 16.1163 5.4262L16.4373 4.99573C16.3655 4.93909 16.29 4.88622 16.2145 4.83713L15.9162 5.28649ZM7.8203 5.15432L7.40871 4.4482L7.46913 4.41422C7.58997 4.34625 7.7108 4.27828 7.84674 4.21408L7.90716 4.1801L8.28476 4.9051L8.22057 4.93909L7.89205 5.12034L7.8203 5.15432ZM7.59752 4.50106L7.86939 4.96552L8.08463 4.84846L7.83541 4.3689L7.59752 4.50106ZM15.2743 5.04859L15.2138 5.01839C15.1043 4.95797 14.991 4.89755 14.8778 4.84469L14.8174 4.81448L15.1723 4.05927L15.2327 4.08947C15.3611 4.14989 15.487 4.21408 15.6103 4.28205L15.6707 4.31604L15.2743 5.04859ZM15.0024 4.75028C15.0741 4.78805 15.1459 4.82203 15.2176 4.86357L15.4819 4.37645L15.2403 4.25184L15.0024 4.75028ZM8.74922 4.68609L8.43958 3.93088L8.50377 3.90445C8.63216 3.85158 8.76055 3.80249 8.88138 3.75718L8.94935 3.73075L9.21745 4.50484L9.15326 4.5275L8.80208 4.65966L8.74922 4.68609ZM8.62083 4.0064L8.82474 4.50484L9.05508 4.41799L8.87383 3.90822L8.62083 4.0064ZM14.3491 4.59547L14.2811 4.57281C14.1641 4.5275 14.047 4.48596 13.9262 4.4482L13.8582 4.42554L14.1075 3.64767L14.1754 3.67033C14.3088 3.71061 14.4347 3.75592 14.553 3.80627L14.6172 3.8327L14.3491 4.59547ZM14.0357 4.33492L14.266 4.41799L14.4548 3.912L14.1981 3.82515L14.0357 4.33492ZM9.74987 4.33492L9.53464 3.5495L9.59883 3.53062L10.0066 3.43999H10.0746L10.237 4.24052H10.169C10.0444 4.26317 9.92357 4.29338 9.79141 4.32359L9.74987 4.33492ZM9.71589 3.6439L9.81784 4.17255L10.0557 4.11968L9.95378 3.59103C9.87826 3.60614 9.79141 3.62879 9.70079 3.64767L9.71589 3.6439ZM13.3522 4.28583H13.2843C13.1634 4.2594 13.0388 4.23296 12.9067 4.21408H12.8387L12.9709 3.39845H13.0388L13.4466 3.48153H13.5146L13.3522 4.28583ZM13.0086 4.07437L13.2465 4.11968L13.3636 3.59481L13.0992 3.54194L13.0086 4.07437ZM10.7543 4.15367L10.6675 3.34181H10.7354C10.8739 3.32671 11.0136 3.31538 11.1546 3.30783H11.2225L11.2679 4.12346H11.1999L10.8223 4.15367H10.7543ZM10.8223 3.46642L10.8789 4.00262L11.1244 3.97997L11.0904 3.43622C10.9998 3.43999 10.9091 3.44754 10.8223 3.45887V3.46642ZM12.31 4.13101H12.2421C12.1175 4.13101 11.9929 4.11213 11.8645 4.10835H11.7965L11.8192 3.29272H11.8909C12.0268 3.29272 12.1703 3.29272 12.3063 3.31538H12.3742L12.31 4.13101ZM11.9324 3.96864H12.1741L12.2194 3.43244H11.9475L11.9324 3.96864Z" fill="#03060B"/>
</g>
<defs>
<clipPath id="clip0_72_8004">
<rect width="99.7636" height="23" fill="white"/>
</clipPath>
</defs>
</svg> -->

<svg width="100" height="23" viewBox="0 0 100 23" fill="none" xmlns="http://www.w3.org/2000/svg">
<path d="M36.4245 3.16809L36.3641 4.50482H31.7838V19.7072H30.1336V4.53125H25.4551V3.16809H36.4245Z" fill="white"/>
<path d="M32.3429 20.2661H29.575V5.07125H24.8965V2.61304H37.0063L36.9006 5.0637H32.3429V20.2661ZM30.6927 19.1333H31.2252V3.94599H35.832V3.72698H26.0142V3.95732H30.6927V19.1333Z" fill="white"/>
<path d="M52.4885 19.7752H50.9102V3.28891H52.5376C55.5585 7.87053 58.5995 12.4647 61.6606 17.0715L61.755 17.0451V3.28891H63.3712V19.7752H61.755C58.7165 15.1684 55.6642 10.5478 52.5981 5.91327L52.4885 5.93971V19.7752Z" fill="white"/>
<path d="M63.9186 20.3303H61.4452L53.036 7.60122V20.3303H50.3398V2.7301H52.8245L61.1734 15.3648V2.7301H63.9072L63.9186 20.3303ZM62.0305 19.1975H62.7858V3.84782H62.3062V17.4643L61.415 17.7248L52.2241 3.84782H51.4689V19.2164H51.9333V5.50929L52.8509 5.27139L62.0305 19.1975Z" fill="white"/>
<path d="M88.4359 13.9035C88.1602 15.7915 89.6706 17.8608 91.6946 18.4348C93.7186 19.0087 96.4147 18.4952 97.336 15.7538H98.9937C98.7648 16.7743 98.2237 17.6982 97.4455 18.397C96.0748 19.6469 94.4247 20.0396 92.6084 19.9376C91.6353 19.8948 90.6854 19.6273 89.833 19.156C89.1721 18.7945 88.5893 18.3057 88.1181 17.7179C87.647 17.1301 87.2968 16.4549 87.0878 15.7311C86.5417 14.0495 86.5749 12.2335 87.1822 10.573C88.0054 8.33002 89.6706 7.06504 92.0231 6.72142C93.6897 6.42181 95.4072 6.79082 96.8036 7.74851C97.4912 8.22735 98.0617 8.85545 98.4724 9.58586C98.883 10.3163 99.1232 11.1301 99.175 11.9664C99.2354 12.5894 99.175 13.22 99.175 13.8959L88.4359 13.9035ZM97.589 12.5856C97.589 10.928 97.0453 9.59878 95.6368 8.72273C94.8246 8.23889 93.8929 7.99265 92.9477 8.01201C92.0025 8.03137 91.0816 8.31555 90.2899 8.83224C89.0136 9.74605 88.4661 11.0299 88.3754 12.5856H97.589Z" fill="white"/>
<path d="M93.1416 20.5154C92.9566 20.5154 92.764 20.5154 92.579 20.5154C91.5204 20.4662 90.4871 20.1756 89.5581 19.6657C88.8326 19.2704 88.1922 18.7356 87.6738 18.0922C87.1554 17.4487 86.7692 16.7092 86.5373 15.9161C85.9534 14.1186 85.9906 12.1769 86.643 10.4031C87.5115 8.02414 89.3391 6.56658 91.9295 6.19275C93.7394 5.87243 95.6027 6.27954 97.114 7.32557C97.8678 7.85093 98.4937 8.53914 98.9453 9.3392C99.397 10.1393 99.6629 11.0307 99.7233 11.9475C99.756 12.4011 99.7623 12.8563 99.7422 13.3106C99.7422 13.5108 99.7422 13.7222 99.7422 13.9299V14.4623H88.9653C89.022 15.9237 90.2643 17.4454 91.8427 17.8834C93.6854 18.397 96.0265 17.8834 96.8082 15.5649L96.9366 15.1873H99.6893L99.5383 15.8595C99.2836 16.9952 98.6834 18.0241 97.8202 18.8048C96.542 19.961 94.8641 20.5745 93.1416 20.5154ZM93.2058 7.20096C92.8367 7.20143 92.4682 7.22919 92.1032 7.28404C89.9207 7.59745 88.4404 8.7718 87.7079 10.7731C87.1423 12.3169 87.113 14.0062 87.6248 15.5687C87.8135 16.224 88.1298 16.8355 88.5556 17.3682C88.9813 17.9008 89.5081 18.3442 90.1057 18.6726C90.8846 19.1011 91.7514 19.3452 92.6394 19.3863C94.4784 19.4883 95.9284 19.0314 97.0687 17.9892C97.587 17.5263 97.9892 16.9481 98.2431 16.3013H97.722C97.4869 16.8833 97.1326 17.4098 96.6819 17.8468C96.2313 18.2838 95.6942 18.6217 95.1052 18.8388C93.9592 19.2459 92.7153 19.2881 91.5444 18.9596C89.2447 18.3215 87.5682 15.969 87.8854 13.8242L87.9533 13.3484H98.6358C98.6358 13.3182 98.6358 13.288 98.6358 13.2578C98.6544 12.8474 98.6481 12.4363 98.6169 12.0268C98.5704 11.2713 98.354 10.536 97.984 9.87571C97.6139 9.2154 97.0998 8.64704 96.4797 8.21295C95.5231 7.53737 94.3767 7.18302 93.2058 7.20096ZM98.1525 13.1445H87.7834L87.8174 12.5516C87.9269 10.7014 88.633 9.33444 89.966 8.39797C90.85 7.82212 91.8773 7.50462 92.9321 7.48127C93.9869 7.45792 95.0273 7.72964 95.9359 8.26581C97.4161 9.19095 98.1411 10.607 98.1487 12.6007L98.1525 13.1445ZM88.9955 12.0117H97.0083C96.987 11.4386 96.8236 10.8799 96.533 10.3856C96.2423 9.89127 95.8334 9.47688 95.3431 9.17962C94.6251 8.75216 93.8018 8.53411 92.9663 8.55013C92.1309 8.56614 91.3165 8.81558 90.6154 9.27024C90.1653 9.58851 89.7881 9.9989 89.5088 10.4742C89.2295 10.9494 89.0545 11.4787 88.9955 12.0268V12.0117Z" fill="white"/>
<path d="M36.2503 13.322C36.2503 11.4075 36.7865 9.70071 38.2063 8.34888C39.3107 7.30251 40.7636 6.7025 42.2845 6.66475C44.5803 6.5628 46.5514 7.2727 47.9485 9.17206C48.6764 10.1784 49.0951 11.3752 49.1531 12.6158C49.3072 14.0493 49.0284 15.496 48.3526 16.7695C47.8744 17.6412 47.1901 18.3825 46.3594 18.9288C45.5288 19.4752 44.577 19.8098 43.5872 19.9036C42.3564 20.0895 41.0981 19.9273 39.9546 19.4354C37.689 18.4385 36.5562 16.6109 36.2692 14.2093C36.2503 13.9941 36.2503 13.7826 36.2503 13.5712C36.2276 13.4881 36.2503 13.405 36.2503 13.322ZM47.5332 13.2162C47.5332 13.1029 47.5105 12.9104 47.4992 12.714C47.3444 10.1274 45.7735 8.38664 43.2096 8.06945C42.1996 7.9193 41.1684 8.11037 40.2793 8.61239C39.3901 9.11442 38.6938 9.89871 38.3007 10.8411C37.7672 12.1613 37.6784 13.6195 38.0477 14.9948C38.4857 16.7355 39.5581 17.9288 41.3178 18.3932C43.1454 18.8577 44.8106 18.4914 46.1625 17.1207C47.2009 16.0672 47.5105 14.7266 47.5332 13.2162Z" fill="white"/>
<path d="M42.5719 20.5229C41.5937 20.5272 40.6254 20.3279 39.7285 19.9376C37.3874 18.9143 36.0393 17.0073 35.7108 14.2735C35.7108 14.0998 35.6844 13.9299 35.6806 13.7637C35.6806 13.7108 35.6806 13.658 35.6806 13.6051C35.6768 13.5372 35.6768 13.4691 35.6806 13.4012V13.3295C35.6806 11.0638 36.3754 9.31928 37.8103 7.95234C39.0109 6.81217 40.5919 6.15821 42.2471 6.11718C44.8904 5.99634 46.9635 6.91393 48.4021 8.84727C49.1944 9.9388 49.6498 11.2383 49.7124 12.5856C49.874 14.1242 49.5716 15.676 48.8439 17.0413C48.3208 17.9856 47.5759 18.7884 46.6733 19.3804C45.7707 19.9725 44.7376 20.3361 43.6632 20.4398C43.3017 20.4919 42.9371 20.5196 42.5719 20.5229ZM42.7078 7.21601C42.5681 7.21601 42.4322 7.21601 42.2925 7.21601C40.906 7.2473 39.5805 7.79229 38.573 8.74532C37.3723 9.87814 36.787 11.3886 36.787 13.3106V13.5371C36.787 13.5938 36.787 13.6504 36.787 13.7071C36.787 13.8543 36.787 13.994 36.8134 14.1262C37.0928 16.4749 38.1917 18.0382 40.1665 18.9029C41.2166 19.3526 42.3713 19.5003 43.5008 19.3296C45.5021 19.0615 46.9295 18.1251 47.8546 16.4749C48.4802 15.3007 48.7344 13.9641 48.5834 12.6422C48.5366 11.5087 48.1556 10.4143 47.4883 9.49675C46.3517 7.96745 44.7847 7.21601 42.7078 7.21601ZM42.7682 19.1408C42.233 19.1386 41.7001 19.0688 41.1823 18.9331C39.2943 18.446 38.0142 17.1357 37.512 15.1571C37.1116 13.6642 37.2084 12.0815 37.7876 10.6485C38.2259 9.59245 39.0037 8.71273 39.9981 8.1485C40.9926 7.58427 42.1467 7.36775 43.278 7.5332C46.0987 7.88438 47.8848 9.81772 48.0547 12.6989C48.0547 12.8386 48.0547 12.9821 48.0812 13.0765V13.2086V13.2162C48.0812 14.4094 47.8848 16.1464 46.5707 17.502C46.0827 18.0207 45.4934 18.4337 44.8394 18.7156C44.1854 18.9975 43.4804 19.1422 42.7682 19.1408ZM42.6096 8.59428C41.8055 8.57635 41.0146 8.80183 40.3408 9.24116C39.667 9.6805 39.1416 10.3132 38.8336 11.0563C38.3463 12.2692 38.2654 13.6074 38.6032 14.8701C39.0073 16.4636 39.9702 17.468 41.4731 17.8494C42.2253 18.082 43.0277 18.0991 43.7892 17.8989C44.5507 17.6986 45.2409 17.2891 45.7815 16.7166C46.5858 15.8972 46.9597 14.8286 46.9861 13.2275V13.1444C46.9861 13.0312 46.9861 12.8839 46.9597 12.7404C46.8237 10.403 45.4493 8.90014 43.1572 8.61316C42.9752 8.59643 42.7924 8.59013 42.6096 8.59428Z" fill="white"/>
<path d="M65.4507 13.322C65.4507 11.4075 65.9869 9.70071 67.4104 8.34888C68.5134 7.30276 69.9651 6.70271 71.4848 6.66475C73.7844 6.5628 75.7518 7.2727 77.1489 9.17206C77.8784 10.1776 78.2972 11.3748 78.3535 12.6158C78.5068 14.0488 78.2294 15.495 77.5567 16.7695C76.5107 18.6273 74.8833 19.6204 72.7875 19.9036C71.5567 20.0893 70.2985 19.9271 69.155 19.4354C66.8893 18.4385 65.7565 16.6109 65.4733 14.2093C65.4469 14.0016 65.4469 13.7902 65.4355 13.5787C65.4469 13.4881 65.4507 13.405 65.4507 13.322ZM76.7524 13.2162C76.7524 13.1029 76.7298 12.9104 76.7184 12.714C76.5674 10.1274 74.9928 8.38664 72.4288 8.06945C71.4188 7.91863 70.3873 8.10941 69.498 8.61151C68.6087 9.11362 67.9125 9.8983 67.5199 10.8411C66.9845 12.1609 66.8957 13.6197 67.2669 14.9948C67.705 16.7355 68.7774 17.9288 70.5332 18.3932C72.3646 18.8577 74.0261 18.4914 75.3779 17.1207C76.4239 16.0672 76.7335 14.7266 76.7524 13.2162Z" fill="white"/>
<path d="M71.7917 20.5229C70.8136 20.5272 69.8452 20.3279 68.9483 19.9376C66.6109 18.9143 65.2591 17.0073 64.9344 14.2735C64.9117 14.0998 64.9079 13.9299 64.9004 13.7637C64.9004 13.7108 64.9004 13.658 64.9004 13.6051C64.9004 13.5522 64.9004 13.4616 64.9004 13.4012V13.3295C64.9004 11.0638 65.5952 9.31928 67.0339 7.95234C68.2341 6.81155 69.8154 6.1575 71.4707 6.11718C74.114 5.99634 76.187 6.91393 77.6219 8.84727C78.4138 9.9393 78.8704 11.2383 78.936 12.5856C79.0958 14.1241 78.7934 15.6754 78.0675 17.0413C77.5442 17.9854 76.7991 18.788 75.8966 19.38C74.9941 19.9721 73.9611 20.3358 72.8868 20.4398C72.524 20.4917 72.1582 20.5195 71.7917 20.5229ZM71.9276 7.21601C71.7917 7.21601 71.652 7.21601 71.5123 7.21601C70.127 7.24751 68.8028 7.79254 67.7966 8.74532C66.5921 9.87814 66.0106 11.3886 66.0106 13.3106V13.3937C66.0106 13.4427 66.0106 13.4881 66.0106 13.5371C66.0106 13.5862 66.0106 13.6504 66.0106 13.7071C66.0106 13.8543 66.0106 13.994 66.0332 14.1224C66.3164 16.4749 67.4115 18.0382 69.3901 18.9029C70.4388 19.3528 71.5924 19.5006 72.7206 19.3296C74.7257 19.0615 76.1493 18.1251 77.0782 16.4749C77.7015 15.2999 77.9556 13.964 77.807 12.6422C77.7602 11.5087 77.3792 10.4143 76.7119 9.49675C75.5753 7.96745 74.012 7.21601 71.9276 7.21601ZM71.9881 19.1408C71.454 19.1384 70.9225 19.0686 70.4059 18.9331C68.5179 18.446 67.234 17.1357 66.7318 15.1571C66.3326 13.6638 66.4307 12.0811 67.0112 10.6485C67.4464 9.58923 68.223 8.70584 69.2178 8.13865C70.2126 7.57147 71.3684 7.35305 72.5016 7.5181C75.3223 7.86927 77.1084 9.80262 77.2783 12.6838C77.2783 12.8197 77.2783 12.9594 77.3048 13.0614V13.2011V13.2162C77.3048 14.4094 77.1122 16.1464 75.7943 17.502C75.3056 18.0208 74.7156 18.4339 74.061 18.7157C73.4063 18.9976 72.7008 19.1423 71.9881 19.1408ZM71.8295 8.59428C71.0251 8.5753 70.2337 8.80035 69.5597 9.23982C68.8857 9.67929 68.3605 10.3126 68.0534 11.0563C67.5623 12.2683 67.4814 13.6078 67.8231 14.8701C68.2233 16.4636 69.19 17.468 70.6891 17.8494C71.4414 18.082 72.2438 18.0991 73.0053 17.8989C73.7668 17.6986 74.457 17.2891 74.9976 16.7166C75.8057 15.8972 76.1757 14.8286 76.2022 13.2237V13.1331C76.2022 13.0236 76.1833 12.8801 76.1757 12.7555C76.036 10.4181 74.6653 8.91524 72.3732 8.62826C72.1927 8.60688 72.0112 8.59553 71.8295 8.59428Z" fill="white"/>
<path d="M80.4793 8.1903H78.6895V6.85357H80.4718V3.62881H82.0766V6.8498H85.6563V8.17897H82.1332C82.1332 8.41686 82.0992 8.59811 82.0992 8.77559C82.0992 11.1998 82.0992 13.6241 82.0992 16.0445C82.0997 16.436 82.1364 16.8266 82.2087 17.2113C82.246 17.5013 82.382 17.7695 82.5938 17.971C82.8056 18.1725 83.0803 18.2949 83.3718 18.3177C83.9117 18.3857 84.4631 18.3819 85.0106 18.4045C85.2145 18.4045 85.4222 18.4045 85.6525 18.4045V19.6884C85.5445 19.7137 85.4347 19.7301 85.324 19.7375C84.6934 19.7375 84.059 19.7375 83.436 19.7375C81.5781 19.662 80.5246 18.6047 80.502 16.7544C80.468 14.1112 80.502 11.4906 80.4831 8.85489L80.4793 8.1903Z" fill="white"/>
<path d="M84.3581 20.3039C84.0447 20.3039 83.7275 20.3039 83.4103 20.3039C81.2315 20.217 79.9665 18.9294 79.9401 16.7695C79.9175 14.9192 79.9175 13.0387 79.9401 11.2187C79.9401 10.4332 79.9401 9.64782 79.9401 8.8624V8.76422H78.1465V6.30978H79.9288V3.06992H82.6513V6.2909H86.231V8.73779H82.6589V9.64404C82.6589 11.7435 82.6589 13.911 82.6589 16.0634C82.6623 16.4206 82.6964 16.7768 82.7608 17.1282C82.7847 17.2962 82.8671 17.4504 82.9935 17.5637C83.1199 17.677 83.2822 17.7421 83.4519 17.7475C83.8295 17.7966 84.2071 17.8041 84.5847 17.8192H85.0302C85.1549 17.8192 85.287 17.8192 85.4305 17.8192H86.2084V20.1642L85.7401 20.2435H85.6533C85.5456 20.269 85.4355 20.2829 85.3248 20.285H84.3581V20.3039ZM79.2491 7.6314H81.039V11.2073C81.039 13.0198 81.039 14.8965 81.039 16.743C81.0578 18.2912 81.8621 19.1106 83.4368 19.1711C83.9125 19.1711 84.4034 19.1711 84.8754 19.1711H85.0831V18.9558H84.9736H84.5394C84.1204 18.9514 83.7019 18.9249 83.2857 18.8765C82.8768 18.8399 82.4921 18.6664 82.194 18.3841C81.896 18.1018 81.7018 17.7271 81.6431 17.3208C81.5782 16.8999 81.5517 16.4739 81.5638 16.0482C81.5638 13.9148 81.5638 11.7435 81.5638 9.62894V8.76044C81.5638 8.62073 81.5638 8.48479 81.5865 8.3413C81.5865 8.27711 81.5865 8.20536 81.5865 8.12984L81.6205 7.60874H85.1058V7.39351H81.5261V4.18385H81.0352V7.41239H79.2566L79.2491 7.6314Z" fill="white"/>
<path d="M22.949 12.7339C22.7989 12.9803 22.7021 13.2555 22.665 13.5418C22.628 13.828 22.6514 14.1188 22.7338 14.3953C22.8496 14.7656 22.8403 15.1637 22.7073 15.5282C22.5542 15.9004 22.2907 16.2167 21.9521 16.4344C21.6931 16.5933 21.4783 16.8151 21.3278 17.0791C21.1773 17.3432 21.0959 17.6409 21.0912 17.9448C21.0677 18.3471 20.9127 18.7306 20.6501 19.0362C20.3874 19.3419 20.0316 19.5528 19.6374 19.6365C19.343 19.7048 19.0696 19.8435 18.8407 20.0408C18.6118 20.2382 18.4342 20.4882 18.3233 20.7693C18.1509 21.1535 17.8615 21.4733 17.4964 21.6831C17.1215 21.8825 16.694 21.9604 16.2729 21.9059C16.0305 21.8652 15.7819 21.8826 15.5475 21.9568C15.3131 22.031 15.0997 22.1598 14.9249 22.3326C14.7327 22.5431 14.4997 22.7123 14.24 22.8298C13.9803 22.9473 13.6994 23.0107 13.4145 23.0161C13.1999 23.0146 12.9865 22.9841 12.7801 22.9255C12.0512 22.7237 11.2811 22.7237 10.5522 22.9255C10.3706 22.9711 10.1843 22.9952 9.99712 22.9972C9.71296 22.9955 9.4322 22.9352 9.17233 22.8203C8.91247 22.7053 8.67907 22.538 8.4867 22.3288C8.32023 22.1554 8.11356 22.0258 7.885 21.9514C7.65644 21.8769 7.41305 21.86 7.1764 21.9021C6.73415 21.9588 6.28513 21.8798 5.88876 21.6756C5.50739 21.4621 5.20535 21.1309 5.02782 20.7316C4.91267 20.4611 4.73595 20.2213 4.51175 20.0312C4.28755 19.841 4.02205 19.7059 3.73641 19.6365C3.33658 19.5416 2.97862 19.3189 2.71687 19.0021C2.46028 18.6648 2.31037 18.2585 2.2864 17.8353C2.27612 17.578 2.20549 17.3267 2.08021 17.1017C1.95493 16.8768 1.7785 16.6844 1.56517 16.5401C1.18446 16.2947 0.891062 15.9352 0.726885 15.5131C0.577228 15.0819 0.564043 14.6152 0.689125 14.1763C0.759881 13.9216 0.768695 13.6537 0.714831 13.3949C0.660967 13.1361 0.545988 12.8939 0.379487 12.6886C0.183172 12.4494 0.0567217 12.1606 0.0140788 11.8541C-0.0285641 11.5476 0.0142565 11.2353 0.137819 10.9516C0.515157 10.0958 0.684662 9.16285 0.632484 8.22902C0.610873 7.90704 0.677087 7.58524 0.824059 7.29794C0.971031 7.01065 1.19325 6.76865 1.46699 6.59776C1.71266 6.43702 1.91627 6.21978 2.0608 5.96424C2.20533 5.70869 2.28657 5.42225 2.29773 5.12887C2.31922 4.72486 2.46717 4.33782 2.72065 4.02249C2.98584 3.71196 3.34288 3.49377 3.74018 3.39944C4.03323 3.33779 4.30694 3.20594 4.53779 3.0152C4.76865 2.82446 4.94977 2.58054 5.06558 2.30438C5.21109 1.92396 5.47877 1.60262 5.82663 1.39076C6.17448 1.1789 6.58283 1.08852 6.9876 1.1338C7.72015 1.19422 8.16195 1.05828 8.56222 0.639135C8.84866 0.329811 9.22516 0.118442 9.6384 0.0349652C10.0563 -0.0331476 10.4851 0.0343402 10.8618 0.227544C11.1224 0.354409 11.4084 0.420336 11.6982 0.420336C11.9881 0.420336 12.2741 0.354409 12.5346 0.227544C12.9116 0.0189231 13.3497 -0.0507486 13.7728 0.0306836C14.1958 0.112116 14.5768 0.339482 14.8494 0.67312C15.0155 0.854456 15.2222 0.993834 15.4526 1.07982C15.683 1.16581 15.9305 1.19595 16.1748 1.16778C16.6424 1.10751 17.1171 1.19743 17.5304 1.42456C17.9316 1.67136 18.2427 2.04075 18.4177 2.47808C18.5097 2.69784 18.6536 2.89201 18.8371 3.04394C19.0206 3.19587 19.2382 3.30101 19.4713 3.35035C19.928 3.44642 20.3421 3.68588 20.6532 4.03382C20.9453 4.38718 21.109 4.8291 21.1176 5.28747C21.1806 5.79038 21.4382 6.24858 21.8351 6.56378C22.1146 6.84972 22.3674 7.16065 22.5903 7.49269L22.7376 7.6966C22.8073 7.80823 22.8504 7.93442 22.8635 8.06539C22.8766 8.19636 22.8593 8.32858 22.8131 8.45181C22.6902 8.75721 22.6409 9.08722 22.6691 9.41519C22.6973 9.74316 22.8023 10.0599 22.9755 10.3398C23.195 10.7015 23.309 11.1175 23.3043 11.5406C23.2996 11.9637 23.1765 12.3771 22.949 12.7339Z" fill="white"/>
<path d="M22.9679 10.3433C22.7947 10.0634 22.6898 9.74661 22.6616 9.41864C22.6334 9.09067 22.6827 8.76067 22.8055 8.45527C22.8518 8.33204 22.869 8.19981 22.8559 8.06885C22.8428 7.93788 22.7997 7.81169 22.73 7.70005L22.5827 7.49615C22.3599 7.16411 22.1071 6.85318 21.8275 6.56724C21.4326 6.24981 21.1777 5.79027 21.1176 5.28715C21.1081 4.83008 20.9445 4.38963 20.6532 4.03727C20.3421 3.68934 19.928 3.44987 19.4713 3.35381C19.2382 3.30447 19.0206 3.19932 18.8371 3.0474C18.6536 2.89547 18.5097 2.7013 18.4177 2.48154C18.2427 2.0442 17.9316 1.67482 17.5304 1.42801C17.1171 1.20089 16.6424 1.11097 16.1748 1.17124C15.9305 1.19941 15.683 1.16926 15.4526 1.08328C15.2222 0.997291 15.0155 0.857914 14.8494 0.676577C14.5773 0.342318 14.1966 0.114215 13.7735 0.0320869C13.3504 -0.0500409 12.912 0.0190244 12.5346 0.227226C12.2741 0.354091 11.988 0.420018 11.6982 0.420018C11.4084 0.420018 11.1224 0.354091 10.8618 0.227226C10.4851 0.0340217 10.0563 -0.033466 9.63839 0.0346467C9.22328 0.122251 8.84655 0.339034 8.56222 0.653921C8.16195 1.07306 7.72015 1.209 6.9876 1.13348C6.58329 1.08794 6.17529 1.17778 5.82749 1.38892C5.47969 1.60005 5.21174 1.92057 5.06558 2.30028C4.95026 2.57715 4.76936 2.82183 4.53847 3.01325C4.30758 3.20467 4.03362 3.3371 3.74018 3.39912C3.34432 3.49039 2.98746 3.7045 2.72065 4.01084C2.46717 4.32618 2.31922 4.71321 2.29773 5.11723C2.28657 5.4106 2.20533 5.69704 2.0608 5.95259C1.91627 6.20814 1.71266 6.42537 1.46699 6.58612C1.19325 6.757 0.971031 6.999 0.824059 7.28629C0.677087 7.57359 0.610873 7.89539 0.632484 8.21738C0.686468 9.15498 0.516925 10.092 0.137819 10.9512C0.0142565 11.235 -0.0285641 11.5473 0.0140788 11.8538C0.0567216 12.1603 0.183172 12.449 0.379487 12.6882C0.544055 12.8946 0.656978 13.1372 0.708864 13.396C0.76075 13.6548 0.750099 13.9222 0.677796 14.176C0.552715 14.6149 0.5659 15.0816 0.715557 15.5127C0.882716 15.9365 1.18024 16.2962 1.56517 16.5398C1.77951 16.6848 1.95655 16.8784 2.08189 17.1048C2.20722 17.3312 2.27729 17.584 2.2864 17.8426C2.31037 18.2657 2.46028 18.672 2.71687 19.0094C2.97975 19.3233 3.33758 19.5433 3.73641 19.6362C4.02291 19.7015 4.29021 19.8328 4.51703 20.0197C4.74384 20.2065 4.92392 20.4437 5.04293 20.7124C5.22045 21.1117 5.52249 21.4429 5.90387 21.6564C6.29381 21.864 6.7372 21.9496 7.1764 21.9018C7.41254 21.8635 7.65447 21.8838 7.88096 21.9608C8.10744 22.0378 8.31155 22.1693 8.47537 22.3436C8.66775 22.5528 8.90114 22.7201 9.161 22.835C9.42087 22.95 9.70163 23.0103 9.98579 23.012C10.173 23.01 10.3593 22.9859 10.5409 22.9402C11.2698 22.7385 12.0398 22.7385 12.7688 22.9402C12.9752 22.9989 13.1886 23.0294 13.4031 23.0309C13.6881 23.0254 13.969 22.962 14.2287 22.8445C14.4883 22.727 14.7214 22.5579 14.9136 22.3474C15.0878 22.1695 15.3022 22.0362 15.5388 21.9586C15.7754 21.8811 16.0272 21.8616 16.2729 21.9018C16.694 21.9563 17.1215 21.8784 17.4964 21.679C17.8609 21.4702 18.1502 21.1518 18.3233 20.769C18.4342 20.4879 18.6118 20.2379 18.8407 20.0405C19.0696 19.8432 19.343 19.7044 19.6374 19.6362C20.0308 19.5508 20.3853 19.3388 20.6466 19.0325C20.9078 18.7262 21.0614 18.3427 21.0836 17.9407C21.0884 17.6369 21.1698 17.3391 21.3203 17.075C21.4708 16.811 21.6855 16.5892 21.9446 16.4303C22.2831 16.2126 22.5467 15.8963 22.6998 15.5241C22.8327 15.1596 22.842 14.7615 22.7262 14.3912C22.6438 14.1147 22.6204 13.8239 22.6575 13.5377C22.6946 13.2515 22.7913 12.9762 22.9415 12.7298C23.1675 12.3738 23.2897 11.9619 23.2944 11.5403C23.2991 11.1187 23.186 10.7041 22.9679 10.3433ZM22.6205 12.5523C22.4456 12.8426 22.3334 13.1662 22.2912 13.5024C22.2489 13.8387 22.2775 14.18 22.3751 14.5045C22.4736 14.8073 22.4642 15.1349 22.3486 15.4316C22.233 15.7283 22.0181 15.9758 21.7407 16.132C21.4352 16.3247 21.1822 16.59 21.0043 16.9043C20.8264 17.2186 20.7291 17.5721 20.7211 17.9332C20.7014 18.255 20.5771 18.5615 20.3671 18.8062C20.1572 19.0509 19.8731 19.2203 19.5581 19.2888C19.2108 19.3636 18.8867 19.5211 18.6132 19.7479C18.3398 19.9747 18.125 20.2641 17.9873 20.5915C17.8539 20.9133 17.6157 21.1805 17.3114 21.3498C17.007 21.5191 16.6544 21.5806 16.3107 21.5242C16.0123 21.477 15.7069 21.501 15.4195 21.5942C15.1321 21.6874 14.8708 21.8471 14.6568 22.0604C14.4395 22.3077 14.1548 22.4862 13.8375 22.5741C13.5203 22.662 13.1843 22.6554 12.8707 22.5551C12.5018 22.4528 12.1207 22.4007 11.7379 22.4003C11.3045 22.4032 10.8732 22.4603 10.454 22.5702C10.3038 22.6104 10.1489 22.6307 9.99334 22.6306C9.76173 22.6289 9.53301 22.579 9.32172 22.4841C9.11044 22.3892 8.92123 22.2513 8.76612 22.0793C8.56197 21.8637 8.30874 21.7007 8.02801 21.604C7.74727 21.5074 7.44734 21.48 7.15374 21.5242C6.79327 21.5859 6.42255 21.5249 6.10082 21.351C5.77909 21.1771 5.52494 20.9004 5.37899 20.5651C5.2387 20.2457 5.02562 19.9636 4.75679 19.7414C4.48796 19.5191 4.17085 19.3628 3.83081 19.285C3.49509 19.2111 3.19463 19.0249 2.97905 18.7571C2.76348 18.4894 2.64568 18.1561 2.64513 17.8124C2.63353 17.5003 2.54892 17.1952 2.39809 16.9218C2.24726 16.6483 2.03441 16.414 1.77663 16.2377C1.45067 16.0406 1.20139 15.7385 1.06965 15.381C0.937924 15.0236 0.931567 14.6319 1.05163 14.2704C1.13614 13.9611 1.14597 13.6362 1.08032 13.3224C1.01467 13.0086 0.875417 12.7149 0.67402 12.4654C0.517766 12.2776 0.415827 12.0506 0.379223 11.809C0.342619 11.5674 0.372742 11.3204 0.466337 11.0947C0.868907 10.1874 1.04886 9.19701 0.99121 8.20605C0.975542 7.94954 1.02979 7.69359 1.14816 7.4655C1.26653 7.2374 1.44459 7.04571 1.66335 6.91086C1.9554 6.7188 2.19771 6.46017 2.37035 6.15624C2.543 5.85231 2.64105 5.51174 2.65645 5.16254C2.66246 4.83099 2.7831 4.51175 2.99789 4.25911C3.21267 4.00647 3.50832 3.83601 3.83458 3.77673C4.18239 3.70182 4.50691 3.54387 4.78045 3.31637C5.05398 3.08886 5.26841 2.79855 5.40543 2.47021C5.51991 2.1624 5.73325 1.90126 6.01205 1.7277C6.29084 1.55414 6.61933 1.47795 6.94606 1.51109C7.2865 1.57388 7.63719 1.55121 7.96671 1.44511C8.29623 1.339 8.59426 1.15278 8.83409 0.903141C9.05871 0.639868 9.36691 0.461711 9.70716 0.398474C10.0474 0.335237 10.399 0.390757 10.7032 0.555743C11.0116 0.707646 11.3507 0.786647 11.6945 0.786647C12.0382 0.786647 12.3773 0.707646 12.6857 0.555743C12.9937 0.383167 13.3533 0.326376 13.6995 0.395619C14.0457 0.464863 14.3558 0.655579 14.5737 0.93335C14.7778 1.15584 15.0317 1.3269 15.3145 1.43256C15.5974 1.53822 15.9012 1.57548 16.2012 1.5413C16.5935 1.47192 16.9978 1.54486 17.3411 1.747C17.6845 1.94913 17.9444 2.26718 18.0741 2.64391C18.1886 2.91703 18.3677 3.15831 18.5959 3.34706C18.8241 3.53581 19.0947 3.6664 19.3844 3.72764C19.7633 3.78861 20.1081 3.98241 20.3572 4.27437C20.6062 4.56632 20.7433 4.93738 20.7438 5.32114C20.8109 5.9144 21.1094 6.45721 21.5745 6.83156C21.8346 7.10279 22.0708 7.39588 22.2807 7.70761L22.4241 7.91151C22.4585 7.97115 22.479 8.03772 22.4842 8.10633C22.4895 8.17494 22.4792 8.24385 22.4544 8.308C22.31 8.66843 22.2532 9.05795 22.2887 9.44459C22.3241 9.83122 22.4508 10.2039 22.6583 10.5321C22.844 10.8378 22.939 11.19 22.9324 11.5477C22.9257 11.9053 22.8175 12.2537 22.6205 12.5523Z" fill="white"/>
<path d="M8.32617 12.7744L8.82084 12.3062L9.91212 13.439L13.2388 8.7869L13.8128 9.20226L10.0367 14.4888L8.32617 12.7744Z" fill="#03060B"/>
<path d="M11.6394 19.8394H11.4543V19.0238H11.9717L11.9981 19.8394H11.6205H11.6394ZM11.5941 19.7035H11.8659L11.8471 19.1635H11.6016L11.5941 19.7035ZM10.8577 19.8054H10.7898L10.3744 19.7526H10.3064L10.431 18.9445H10.499L10.8766 18.9936H10.9446L10.8577 19.8054ZM10.4801 19.6166C10.567 19.6166 10.6576 19.643 10.7482 19.6506L10.8049 19.1144L10.5594 19.0842L10.4801 19.6166ZM12.6211 19.7865L12.5192 18.9747H12.5909L12.9685 18.918H13.0365L13.18 19.7223H13.112C12.9761 19.745 12.8364 19.7677 12.7004 19.7828L12.6211 19.7865ZM12.674 19.0955L12.7269 19.6355L12.995 19.594L12.9044 19.0615L12.674 19.0955ZM9.71735 19.6355H9.64938C9.51722 19.6015 9.38128 19.5638 9.24912 19.5222H9.18115L9.41527 18.7406H9.48324L9.86084 18.8425H9.92881L9.71735 19.6355ZM9.33975 19.3938L9.6003 19.4693L9.73246 18.9445L9.50967 18.8803L9.33975 19.3938ZM13.7275 19.5902L13.5123 18.801H13.5803L13.9579 18.6915L14.0258 18.6688L14.2788 19.4467L14.2146 19.4693C14.0825 19.5109 13.9465 19.5524 13.8106 19.5864L13.7275 19.5902ZM13.6973 18.8803L13.8408 19.4014L14.1014 19.3221L13.9314 18.8123L13.6973 18.8803ZM8.61474 19.2579H8.55055L8.17294 19.0917L8.10875 19.0615L8.45237 18.3063L8.51279 18.3328C8.62985 18.3894 8.74691 18.4385 8.86019 18.4838L8.92438 18.5102L8.61474 19.2579ZM8.30888 18.9822L8.5581 19.0917L8.75823 18.5895L8.51657 18.5027L8.30888 18.9822ZM14.8528 19.2012L14.5318 18.446L14.596 18.4196L14.9359 18.2648L15.0001 18.2346L15.3588 18.9671L15.2984 18.9973C15.1738 19.0578 15.0454 19.1182 14.9208 19.171L14.8528 19.2012ZM14.7131 18.5253L14.9283 19.02L15.1738 18.9067L14.9359 18.4234L14.7131 18.5253ZM7.59143 18.7746L7.53101 18.7406C7.41018 18.6726 7.29312 18.5971 7.17606 18.5216L7.11565 18.4838L7.55367 17.8003L7.61409 17.8381L7.93505 18.0344L7.99547 18.0684L7.59143 18.7746ZM7.30823 18.4423L7.54234 18.5858L7.79156 18.1251L7.5801 17.9967L7.30823 18.4423ZM15.861 18.6839L15.4381 17.9854L15.4985 17.9476L15.8157 17.7475L15.8723 17.7059L16.3292 18.3818L16.2726 18.4234L15.9214 18.6462L15.861 18.6839ZM15.6307 18.0307L15.9139 18.5027C15.9894 18.4574 16.0649 18.4083 16.1404 18.3554L15.8384 17.9098L15.6307 18.0307ZM6.60965 18.1251L6.55301 18.0798C6.44351 17.9967 6.33778 17.9061 6.23205 17.8154L6.17918 17.7701L6.71161 17.1508L6.76447 17.1962C6.85887 17.2792 6.95705 17.3585 7.05523 17.4378L7.11187 17.4794L6.60965 18.1251ZM6.37554 17.7475C6.44351 17.8079 6.51525 17.8645 6.587 17.9212L6.91551 17.4945L6.72671 17.3396L6.37554 17.7475ZM16.8126 18.0042L16.299 17.3699H16.3519C16.4501 17.2906 16.5445 17.2075 16.6389 17.1244L16.688 17.0753L17.2355 17.6833L17.1864 17.7286C17.0807 17.8242 16.9749 17.9149 16.8692 18.0005L16.8126 18.0042ZM16.4916 17.3887L16.8352 17.8079L17.0391 17.6304L16.6804 17.2301C16.6162 17.3057 16.5558 17.3699 16.4916 17.4114V17.3887ZM5.74494 17.3699L5.69585 17.3208C5.59767 17.2226 5.50327 17.1169 5.41264 17.0149L5.36733 16.962L5.97905 16.4221L6.02436 16.4749C6.10744 16.5693 6.19429 16.6637 6.28114 16.7544L6.33023 16.8034L5.74494 17.3699ZM5.56368 16.9923L5.74494 17.1924L6.12254 16.8148L5.96772 16.6146L5.56368 16.9923ZM17.6471 17.2604L17.0505 16.7015L17.0958 16.6524C17.1814 16.5618 17.2644 16.4674 17.345 16.3692L17.3903 16.3163L18.0171 16.8412L17.9718 16.8941C17.8812 17.0036 17.7868 17.1055 17.6962 17.2075L17.6471 17.2604ZM17.243 16.6939L17.6207 17.0715L17.8019 16.8676L17.3865 16.5202C17.3714 16.558 17.3148 16.6146 17.2582 16.6788L17.243 16.6939ZM4.97839 16.5127L4.93686 16.4598C4.85378 16.3465 4.77449 16.2295 4.69897 16.1162L4.66121 16.0558L5.3409 15.6102L5.38243 15.6669C5.44663 15.7688 5.51837 15.8745 5.59389 15.9765L5.63543 16.0331L4.97839 16.5127ZM4.85378 16.0973C4.90287 16.1728 4.95574 16.2484 5.0086 16.3201L5.44285 16.0029L5.30314 15.799L4.85378 16.0973ZM18.3796 16.3654L17.7113 15.8972L17.749 15.8406C17.8208 15.7386 17.8925 15.6329 17.9567 15.5271L17.9945 15.4705L18.6855 15.901L18.6515 15.9614C18.576 16.0784 18.5005 16.1955 18.4212 16.3088L18.3796 16.3654ZM17.919 15.8594L18.3608 16.1691C18.4136 16.0935 18.4627 16.018 18.5118 15.9425L18.0549 15.6555L17.919 15.8594ZM4.37045 15.5385L4.33646 15.4818C4.27227 15.361 4.20808 15.2364 4.14766 15.1042L4.11745 15.0438L4.87266 14.6926L4.90287 14.7568C4.95574 14.8663 5.01238 14.9796 5.0728 15.0929L5.103 15.1533L4.37045 15.5385ZM4.30248 15.1042L4.42709 15.3459L4.91043 15.1042L4.79714 14.8852L4.30248 15.1042ZM18.9951 15.3723L18.2701 14.9947L18.3003 14.9343C18.357 14.821 18.4099 14.7077 18.4627 14.5945L18.4891 14.5303L19.2444 14.8626L19.2142 14.9267C19.1613 15.0514 19.1009 15.1797 19.0367 15.3044L18.9951 15.3723ZM18.4552 14.9418L18.9347 15.1873C18.9763 15.1042 19.014 15.0211 19.0518 14.9418L18.5609 14.7266C18.5269 14.787 18.5043 14.8626 18.4552 14.9343V14.9418ZM3.88711 14.4774L3.86446 14.4132C3.81411 14.2798 3.7688 14.1476 3.72852 14.0167V13.9525L4.50639 13.7109L4.52904 13.775C4.5668 13.8959 4.60456 14.0167 4.64988 14.1527L4.67253 14.2168L3.88711 14.4774ZM3.88711 14.0431C3.91354 14.13 3.94375 14.2168 3.97396 14.2999L4.47995 14.1149L4.40066 13.8846L3.88711 14.0431ZM19.4596 14.3037L18.6855 14.0394L18.7082 13.9752C18.7497 13.8581 18.7875 13.7373 18.8214 13.6165L18.8403 13.5485L19.6257 13.775L19.6069 13.8392C19.5691 13.9752 19.5276 14.1073 19.4823 14.2395L19.4596 14.3037ZM18.8592 13.9714L19.369 14.1489C19.3954 14.062 19.4256 13.9752 19.4483 13.8883L18.9309 13.7411C18.9083 13.7977 18.8819 13.877 18.8592 13.9714ZM3.55859 13.371V13.303C3.52839 13.1709 3.50195 13.0312 3.4793 12.8952V12.8273L4.28737 12.6951V12.7631C4.28737 12.8877 4.32891 13.0123 4.35534 13.1407V13.2086L3.55859 13.371ZM3.61524 12.9405C3.61524 13.0312 3.64544 13.118 3.66432 13.2086L4.19297 13.0954C4.19297 13.0161 4.15899 12.933 4.14766 12.8537L3.61524 12.9405ZM19.7617 13.1898L18.9574 13.0387V12.9707C18.98 12.8499 18.9989 12.7253 19.0178 12.5931V12.5252L19.8297 12.6385V12.7064C19.8297 12.8424 19.7881 12.9821 19.7617 13.118V13.1898ZM19.1198 12.9292L19.6484 13.0274C19.6484 12.9405 19.6824 12.8499 19.6937 12.7593L19.1613 12.6875C19.15 12.7668 19.1349 12.8386 19.1198 12.9292ZM3.4 12.2306V12.1627C3.4 12.023 3.4 11.8832 3.4 11.7435V11.6756L4.21563 11.6567V11.7284C4.21563 11.853 4.21563 11.9776 4.21563 12.106V12.1778L3.4 12.2306ZM3.51706 11.8115V12.0834L4.05703 12.0456C4.05703 11.9625 4.05703 11.8795 4.05703 11.8002L3.51706 11.8115ZM19.9203 12.0456L19.1046 12.0041V11.9361C19.1046 11.8115 19.1046 11.6869 19.1046 11.5585V11.4452H19.9203V11.5623C19.9203 11.702 19.9203 11.8455 19.9203 11.9814V12.0456ZM19.2519 11.8757L19.7881 11.9021C19.7881 11.7964 19.7881 11.6869 19.7881 11.5812H19.2595C19.2595 11.6793 19.2595 11.7775 19.2368 11.8757H19.2519ZM4.20053 11.1205L3.38867 11.0676V10.9959C3.38867 10.8599 3.41133 10.7202 3.42643 10.5805V10.5125L4.23829 10.6069V10.6749C4.23829 10.7995 4.21185 10.9279 4.2043 11.0525L4.20053 11.1205ZM3.52083 10.9506L4.05703 10.9883L4.07969 10.7429L3.54349 10.6824L3.52083 10.9506ZM19.0782 10.9241V10.8561C19.0782 10.7315 19.0518 10.6032 19.0329 10.4785V10.4068L19.841 10.2897V10.3577C19.8636 10.4974 19.8787 10.6371 19.8901 10.7731V10.8448L19.0782 10.9241ZM19.1726 10.5276C19.1726 10.6107 19.1953 10.69 19.2028 10.7731L19.739 10.7202C19.739 10.6334 19.7201 10.5427 19.705 10.4521L19.1726 10.5276ZM4.31758 10.1009L3.51706 9.93101V9.86304C3.54727 9.73088 3.57748 9.59117 3.61146 9.459L3.63034 9.39104L4.41954 9.59872V9.66291C4.38555 9.78375 4.35912 9.90836 4.33269 10.0405L4.31758 10.1009ZM3.6832 9.81773L4.21185 9.92724C4.21185 9.84794 4.24584 9.76864 4.26472 9.68934L3.74362 9.55341C3.72097 9.64781 3.70209 9.73843 3.6832 9.81773ZM18.9158 9.8857V9.81773C18.8894 9.6969 18.8554 9.57229 18.8214 9.44012L18.7988 9.37593L19.5842 9.14559V9.21356C19.6257 9.3495 19.6597 9.48544 19.6937 9.6176V9.68557L18.9158 9.8857ZM18.9574 9.48166C18.98 9.56096 18.9989 9.64026 19.0216 9.71578L19.5427 9.59117C19.525 9.50558 19.5024 9.41873 19.4747 9.33062L18.9574 9.48166ZM4.58946 9.10406L3.83425 8.82463L3.8569 8.76043C3.90599 8.63205 3.95508 8.49989 4.00795 8.38283L4.03815 8.31863L4.79337 8.63205L4.76693 8.69624C4.71785 8.8133 4.67253 8.93036 4.631 9.05119L4.58946 9.10406ZM4.00039 8.72645L4.50639 8.91148L4.59701 8.68114L4.09857 8.47345C4.06459 8.56408 4.0306 8.65093 4.00039 8.734V8.72645ZM18.6138 8.88882L18.5911 8.82463C18.5458 8.70757 18.4967 8.59051 18.4438 8.47723L18.4136 8.41681L19.1688 8.07697L19.199 8.14116C19.2557 8.26955 19.3123 8.39793 19.3614 8.51877L19.3879 8.58296L18.6138 8.88882ZM18.6138 8.48478C18.6477 8.5603 18.678 8.63205 18.7082 8.70757L19.2104 8.51121C19.1764 8.42814 19.1424 8.34507 19.1046 8.26199L18.6138 8.48478ZM5.01993 8.13361L4.2987 7.756L4.33269 7.69558C4.39688 7.57097 4.46863 7.45014 4.5366 7.31798L4.57436 7.25756L5.27293 7.67293L5.23894 7.73334C5.17475 7.84285 5.11433 7.95236 5.05392 8.06186L5.01993 8.13361ZM4.48751 7.69181L4.96329 7.9448L5.08412 7.72957L4.61967 7.45392L4.48751 7.69181ZM18.1946 7.9448L18.1266 7.89194C18.0662 7.78621 18.002 7.6767 17.9341 7.57097L17.8963 7.51056L18.5873 7.07631L18.6251 7.13295C18.7006 7.25001 18.7724 7.37084 18.8403 7.49168L18.8819 7.55209L18.1946 7.9448ZM18.1229 7.5672C18.1644 7.63517 18.2097 7.70691 18.2475 7.77488L18.7195 7.51056L18.5798 7.28022L18.1229 7.5672ZM5.5448 7.25001L4.88022 6.77045L4.92175 6.71381C5.00483 6.6043 5.0879 6.49102 5.17475 6.38151L5.22006 6.32865L5.85822 6.83842L5.8129 6.89506C5.73361 6.98946 5.65809 7.09141 5.58634 7.19337L5.5448 7.25001ZM5.07657 6.74024L5.5146 7.05743C5.55991 6.98946 5.61277 6.92527 5.66186 6.86107L5.24272 6.525L5.07657 6.74024ZM17.6131 7.08009L17.5716 7.02722C17.496 6.92904 17.413 6.82709 17.3337 6.73269L17.2884 6.67982L17.9114 6.15117L17.9567 6.20404C18.0473 6.30977 18.1342 6.41927 18.2173 6.52878L18.2588 6.58542L17.6131 7.08009ZM17.4847 6.70248L17.6358 6.89506L18.0662 6.56654L17.8963 6.35508L17.4847 6.70248ZM6.20184 6.45326L5.61277 5.88685L5.66186 5.83776C5.76004 5.73581 5.85822 5.63763 5.96017 5.54323L6.00926 5.49414L6.56812 6.08698L6.51903 6.13607L6.25093 6.40039L6.20184 6.45326ZM5.82423 5.88307L6.20184 6.26068C6.25848 6.20026 6.3189 6.14362 6.37554 6.08698L5.99793 5.70937L5.82423 5.88307ZM16.9447 6.30222L16.8957 6.25313C16.8088 6.16628 16.7182 6.07943 16.62 5.99636L16.5709 5.94727L17.1147 5.33932L17.1638 5.38463C17.2695 5.47903 17.3714 5.57344 17.4696 5.67161L17.5187 5.7207L16.9447 6.30222ZM16.7673 5.92461L16.9447 6.09076L17.3223 5.71315L17.126 5.52812L16.7673 5.92461ZM6.98348 5.72825L6.46239 5.09765L6.51525 5.05234C6.62476 4.96927 6.73804 4.88242 6.85132 4.80312L6.90796 4.76158L7.37997 5.42995L7.32333 5.46771L7.02124 5.69427L6.98348 5.72825ZM6.67385 5.11276L7.00614 5.53568L7.2025 5.38841L6.88908 4.95039L6.67385 5.11276ZM16.1631 5.59987L16.1065 5.55833C16.0083 5.48659 15.9025 5.41107 15.7968 5.3431L15.7402 5.30534L16.1933 4.62564L16.2537 4.66341C16.367 4.73893 16.4803 4.822 16.5936 4.90507L16.6502 4.94661L16.1631 5.59987ZM15.9177 5.28646C15.9856 5.33177 16.0536 5.37708 16.1178 5.42617L16.4387 4.9957C16.367 4.93906 16.2915 4.88619 16.216 4.8371L15.9177 5.28646ZM7.82177 5.15429L7.41018 4.44817L7.4706 4.41418C7.59143 4.34622 7.71226 4.27825 7.8482 4.21405L7.90862 4.18007L8.28623 4.90507L8.22203 4.93906L7.89352 5.12031L7.82177 5.15429ZM7.59898 4.50103L7.87086 4.96549L8.08609 4.84843L7.83687 4.36887L7.59898 4.50103ZM15.2757 5.04856L15.2153 5.01835C15.1058 4.95794 14.9925 4.89752 14.8792 4.84466L14.8188 4.81445L15.1738 4.05923L15.2342 4.08944C15.3626 4.14986 15.4884 4.21405 15.6118 4.28202L15.6722 4.31601L15.2757 5.04856ZM15.0038 4.75025C15.0756 4.78802 15.1473 4.822 15.2191 4.86354L15.4834 4.37642L15.2417 4.25181L15.0038 4.75025ZM8.75068 4.68606L8.44104 3.93085L8.50524 3.90442C8.63362 3.85155 8.76201 3.80246 8.88284 3.75715L8.95081 3.73072L9.21891 4.50481L9.15472 4.52747L8.80355 4.65963L8.75068 4.68606ZM8.6223 4.00637L8.8262 4.50481L9.05654 4.41796L8.87529 3.90819L8.6223 4.00637ZM14.3506 4.59544L14.2826 4.57278C14.1656 4.52747 14.0485 4.48593 13.9277 4.44817L13.8597 4.42551L14.1089 3.64764L14.1769 3.6703C14.3103 3.71058 14.4362 3.75589 14.5545 3.80624L14.6187 3.83267L14.3506 4.59544ZM14.0372 4.33489L14.2675 4.41796L14.4563 3.91197L14.1995 3.82512L14.0372 4.33489ZM9.75134 4.33489L9.5361 3.54947L9.6003 3.53059L10.0081 3.43996H10.0761L10.2385 4.24049H10.1705C10.0459 4.26314 9.92504 4.29335 9.79287 4.32356L9.75134 4.33489ZM9.71735 3.64387L9.81931 4.17252L10.0572 4.11965L9.95525 3.591C9.87972 3.60611 9.79288 3.62876 9.70225 3.64764L9.71735 3.64387ZM13.3537 4.2858H13.2857C13.1649 4.25937 13.0403 4.23293 12.9081 4.21405H12.8402L12.9723 3.39842H13.0403L13.4481 3.4815H13.5161L13.3537 4.2858ZM13.0101 4.07434L13.248 4.11965L13.365 3.59478L13.1007 3.54191L13.0101 4.07434ZM10.7558 4.15364L10.6689 3.34178H10.7369C10.8753 3.32668 11.0151 3.31535 11.156 3.3078H11.224L11.2693 4.12343H11.2013L10.8237 4.15364H10.7558ZM10.8237 3.46639L10.8804 4.00259L11.1258 3.97994L11.0918 3.43618C11.0012 3.43996 10.9106 3.44751 10.8237 3.45884V3.46639ZM12.3115 4.13098H12.2435C12.1189 4.13098 11.9943 4.1121 11.8659 4.10832H11.798L11.8206 3.29269H11.8924C12.0283 3.29269 12.1718 3.29269 12.3077 3.31535H12.3757L12.3115 4.13098ZM11.9339 3.96861H12.1756L12.2209 3.43241H11.949L11.9339 3.96861Z" fill="#03060B"/>
</svg>

