<svg width="24" height="24" viewBox="0 0 24 24" fill="none" xmlns="http://www.w3.org/2000/svg">
<path d="M18.4261 17.9488L6.93028 6.67683C6.55565 6.3095 5.95417 6.31541 5.58684 6.69004L5.51683 6.76144C5.14949 7.13607 5.15541 7.73755 5.53003 8.10488L17.0258 19.3768C17.4004 19.7442 18.0019 19.7383 18.3693 19.3636L18.4393 19.2922C18.8066 18.9176 18.8007 18.3161 18.4261 17.9488Z" fill="black"/>
<path d="M16.896 6.52867L5.67159 18.0709C5.3058 18.447 5.3142 19.0485 5.69034 19.4143L5.76203 19.484C6.13817 19.8498 6.73962 19.8414 7.1054 19.4652L18.3298 7.92301C18.6956 7.54687 18.6872 6.94542 18.3111 6.57964L18.2394 6.50992C17.8632 6.14414 17.2618 6.15253 16.896 6.52867Z" fill="black"/>
</svg>
