<svg width="100" height="23" viewBox="0 0 100 23" fill="none" xmlns="http://www.w3.org/2000/svg">
<g clip-path="url(#clip0_950_999)">
<path d="M36.4236 3.16809L36.3631 4.50482H31.7828V19.7072H30.1326V4.53125H25.4541V3.16809H36.4236Z" fill="#003BB3"/>
<path d="M32.3419 20.2661H29.574V5.07125H24.8955V2.61304H37.0053L36.8996 5.0637H32.3419V20.2661ZM30.6918 19.1333H31.2242V3.94599H35.831V3.72698H26.0132V3.95732H30.6918V19.1333Z" fill="#003BB3"/>
<path d="M52.4871 19.7752H50.9087V3.28891H52.5362C55.557 7.87053 58.598 12.4647 61.6591 17.0715L61.7535 17.0451V3.28891H63.3697V19.7752H61.7535C58.7151 15.1684 55.6627 10.5478 52.5966 5.91327L52.4871 5.93971V19.7752Z" fill="#003BB3"/>
<path d="M63.9171 20.3303H61.4438L53.0345 7.60122V20.3303H50.3384V2.7301H52.823L61.1719 15.3648V2.7301H63.9058L63.9171 20.3303ZM62.0291 19.1975H62.7843V3.84782H62.3047V17.4643L61.4136 17.7248L52.2226 3.84782H51.4674V19.2164H51.9319V5.50929L52.8495 5.27139L62.0291 19.1975Z" fill="#003BB3"/>
<path d="M88.4354 13.9035C88.1597 15.7915 89.6701 17.8608 91.6941 18.4348C93.7181 19.0087 96.4142 18.4952 97.3355 15.7538H98.9932C98.7643 16.7743 98.2232 17.6982 97.4451 18.397C96.0743 19.6469 94.4242 20.0396 92.6079 19.9376C91.6349 19.8948 90.6849 19.6273 89.8325 19.156C89.1716 18.7945 88.5888 18.3057 88.1176 17.7179C87.6465 17.1301 87.2963 16.4549 87.0873 15.7311C86.5412 14.0495 86.5745 12.2335 87.1817 10.573C88.0049 8.33002 89.6701 7.06504 92.0226 6.72142C93.6892 6.42181 95.4067 6.79082 96.8031 7.74851C97.4907 8.22735 98.0612 8.85545 98.4719 9.58586C98.8825 10.3163 99.1227 11.1301 99.1745 11.9664C99.2349 12.5894 99.1745 13.22 99.1745 13.8959L88.4354 13.9035ZM97.5885 12.5856C97.5885 10.928 97.0448 9.59878 95.6363 8.72273C94.8241 8.23889 93.8924 7.99265 92.9472 8.01201C92.002 8.03137 91.0811 8.31555 90.2894 8.83224C89.0131 9.74605 88.4656 11.0299 88.3749 12.5856H97.5885Z" fill="#003BB3"/>
<path d="M93.1402 20.5154C92.9551 20.5154 92.7626 20.5154 92.5775 20.5154C91.519 20.4662 90.4857 20.1756 89.5567 19.6657C88.8311 19.2704 88.1907 18.7356 87.6723 18.0922C87.1539 17.4487 86.7677 16.7092 86.5358 15.9161C85.9519 14.1186 85.9892 12.1769 86.6416 10.4031C87.5101 8.02414 89.3377 6.56658 91.9281 6.19275C93.738 5.87243 95.6012 6.27954 97.1126 7.32557C97.8663 7.85093 98.4922 8.53914 98.9439 9.3392C99.3955 10.1393 99.6614 11.0307 99.7218 11.9475C99.7545 12.4011 99.7608 12.8563 99.7407 13.3106C99.7407 13.5108 99.7407 13.7222 99.7407 13.9299V14.4623H88.9638C89.0205 15.9237 90.2628 17.4454 91.8412 17.8834C93.6839 18.397 96.0251 17.8834 96.8067 15.5649L96.9351 15.1873H99.6879L99.5368 15.8595C99.2821 16.9952 98.6819 18.0241 97.8187 18.8048C96.5406 19.961 94.8627 20.5745 93.1402 20.5154ZM93.2044 7.20096C92.8353 7.20143 92.4667 7.22919 92.1018 7.28404C89.9192 7.59745 88.439 8.7718 87.7064 10.7731C87.1408 12.3169 87.1115 14.0062 87.6233 15.5687C87.8121 16.224 88.1284 16.8355 88.5541 17.3682C88.9799 17.9008 89.5066 18.3442 90.1042 18.6726C90.8831 19.1011 91.7499 19.3452 92.638 19.3863C94.4769 19.4883 95.9269 19.0314 97.0673 17.9892C97.5855 17.5263 97.9878 16.9481 98.2416 16.3013H97.7205C97.4854 16.8833 97.1311 17.4098 96.6805 17.8468C96.2298 18.2838 95.6927 18.6217 95.1037 18.8388C93.9578 19.2459 92.7138 19.2881 91.5429 18.9596C89.2433 18.3215 87.5667 15.969 87.8839 13.8242L87.9519 13.3484H98.6343C98.6343 13.3182 98.6343 13.288 98.6343 13.2578C98.6529 12.8474 98.6466 12.4363 98.6155 12.0268C98.5689 11.2713 98.3525 10.536 97.9825 9.87571C97.6125 9.2154 97.0983 8.64704 96.4782 8.21295C95.5217 7.53737 94.3753 7.18302 93.2044 7.20096ZM98.151 13.1445H87.7819L87.8159 12.5516C87.9254 10.7014 88.6315 9.33444 89.9645 8.39797C90.8485 7.82212 91.8759 7.50462 92.9306 7.48127C93.9854 7.45792 95.0258 7.72964 95.9345 8.26581C97.4147 9.19095 98.1397 10.607 98.1472 12.6007L98.151 13.1445ZM88.994 12.0117H97.0069C96.9855 11.4386 96.8221 10.8799 96.5315 10.3856C96.2408 9.89127 95.832 9.47688 95.3416 9.17962C94.6236 8.75216 93.8003 8.53411 92.9649 8.55013C92.1294 8.56614 91.3151 8.81558 90.614 9.27024C90.1639 9.58851 89.7866 9.9989 89.5074 10.4742C89.2281 10.9494 89.0531 11.4787 88.994 12.0268V12.0117Z" fill="#003BB3"/>
<path d="M36.2498 13.322C36.2498 11.4075 36.786 9.70071 38.2058 8.34888C39.3102 7.30251 40.7631 6.7025 42.284 6.66475C44.5798 6.5628 46.5509 7.2727 47.9481 9.17206C48.676 10.1784 49.0946 11.3752 49.1526 12.6158C49.3067 14.0493 49.0279 15.496 48.3521 16.7695C47.8739 17.6412 47.1896 18.3825 46.3589 18.9288C45.5283 19.4752 44.5765 19.8098 43.5867 19.9036C42.3559 20.0895 41.0976 19.9273 39.9541 19.4354C37.6885 18.4385 36.5557 16.6109 36.2687 14.2093C36.2498 13.9941 36.2498 13.7826 36.2498 13.5712C36.2272 13.4881 36.2498 13.405 36.2498 13.322ZM47.5327 13.2162C47.5327 13.1029 47.51 12.9104 47.4987 12.714C47.3439 10.1274 45.773 8.38664 43.2091 8.06945C42.1991 7.9193 41.1679 8.11037 40.2788 8.61239C39.3896 9.11442 38.6933 9.89871 38.3002 10.8411C37.7667 12.1613 37.6779 13.6195 38.0472 14.9948C38.4852 16.7355 39.5576 17.9288 41.3173 18.3932C43.1449 18.8577 44.8102 18.4914 46.162 17.1207C47.2004 16.0672 47.51 14.7266 47.5327 13.2162Z" fill="#003BB3"/>
<path d="M42.5709 20.5229C41.5928 20.5272 40.6244 20.3279 39.7275 19.9376C37.3864 18.9143 36.0383 17.0073 35.7098 14.2735C35.7098 14.0998 35.6834 13.9299 35.6796 13.7637C35.6796 13.7108 35.6796 13.658 35.6796 13.6051C35.6758 13.5372 35.6758 13.4691 35.6796 13.4012V13.3295C35.6796 11.0638 36.3744 9.31928 37.8093 7.95234C39.0099 6.81217 40.591 6.15821 42.2462 6.11718C44.8894 5.99634 46.9625 6.91393 48.4012 8.84727C49.1934 9.9388 49.6489 11.2383 49.7114 12.5856C49.873 14.1242 49.5706 15.676 48.843 17.0413C48.3199 17.9856 47.5749 18.7884 46.6723 19.3804C45.7697 19.9725 44.7366 20.3361 43.6622 20.4398C43.3007 20.4919 42.9361 20.5196 42.5709 20.5229ZM42.7069 7.21601C42.5671 7.21601 42.4312 7.21601 42.2915 7.21601C40.905 7.2473 39.5795 7.79229 38.5721 8.74532C37.3713 9.87814 36.786 11.3886 36.786 13.3106V13.5371C36.786 13.5938 36.786 13.6504 36.786 13.7071C36.786 13.8543 36.786 13.994 36.8124 14.1262C37.0918 16.4749 38.1907 18.0382 40.1656 18.9029C41.2157 19.3526 42.3703 19.5003 43.4998 19.3296C45.5011 19.0615 46.9285 18.1251 47.8536 16.4749C48.4792 15.3007 48.7334 13.9641 48.5824 12.6422C48.5356 11.5087 48.1546 10.4143 47.4873 9.49675C46.3508 7.96745 44.7837 7.21601 42.7069 7.21601ZM42.7673 19.1408C42.232 19.1386 41.6991 19.0688 41.1813 18.9331C39.2933 18.446 38.0132 17.1357 37.511 15.1571C37.1106 13.6642 37.2074 12.0815 37.7866 10.6485C38.2249 9.59245 39.0028 8.71273 39.9972 8.1485C40.9916 7.58427 42.1457 7.36775 43.277 7.5332C46.0978 7.88438 47.8838 9.81772 48.0538 12.6989C48.0538 12.8386 48.0538 12.9821 48.0802 13.0765V13.2086V13.2162C48.0802 14.4094 47.8838 16.1464 46.5698 17.502C46.0817 18.0207 45.4925 18.4337 44.8384 18.7156C44.1844 18.9975 43.4795 19.1422 42.7673 19.1408ZM42.6087 8.59428C41.8045 8.57635 41.0136 8.80183 40.3398 9.24116C39.666 9.6805 39.1406 10.3132 38.8326 11.0563C38.3453 12.2692 38.2645 13.6074 38.6023 14.8701C39.0063 16.4636 39.9692 17.468 41.4721 17.8494C42.2244 18.082 43.0267 18.0991 43.7883 17.8989C44.5498 17.6986 45.24 17.2891 45.7806 16.7166C46.5849 15.8972 46.9587 14.8286 46.9851 13.2275V13.1444C46.9851 13.0312 46.9851 12.8839 46.9587 12.7404C46.8228 10.403 45.4483 8.90014 43.1562 8.61316C42.9742 8.59643 42.7914 8.59013 42.6087 8.59428Z" fill="#003BB3"/>
<path d="M65.4502 13.322C65.4502 11.4075 65.9864 9.70071 67.4099 8.34888C68.5129 7.30276 69.9646 6.70271 71.4843 6.66475C73.7839 6.5628 75.7513 7.2727 77.1484 9.17206C77.8779 10.1776 78.2967 11.3748 78.353 12.6158C78.5063 14.0488 78.2289 15.495 77.5562 16.7695C76.5103 18.6273 74.8828 19.6204 72.7871 19.9036C71.5562 20.0893 70.298 19.9271 69.1545 19.4354C66.8888 18.4385 65.756 16.6109 65.4728 14.2093C65.4464 14.0016 65.4464 13.7902 65.4351 13.5787C65.4464 13.4881 65.4502 13.405 65.4502 13.322ZM76.7519 13.2162C76.7519 13.1029 76.7293 12.9104 76.7179 12.714C76.5669 10.1274 74.9923 8.38664 72.4283 8.06945C71.4183 7.91863 70.3868 8.10941 69.4975 8.61151C68.6082 9.11362 67.912 9.8983 67.5194 10.8411C66.984 12.1609 66.8952 13.6197 67.2665 14.9948C67.7045 16.7355 68.7769 17.9288 70.5327 18.3932C72.3641 18.8577 74.0256 18.4914 75.3774 17.1207C76.4234 16.0672 76.733 14.7266 76.7519 13.2162Z" fill="#003BB3"/>
<path d="M71.7902 20.5229C70.8121 20.5272 69.8438 20.3279 68.9469 19.9376C66.6095 18.9143 65.2577 17.0073 64.9329 14.2735C64.9103 14.0998 64.9065 13.9299 64.8989 13.7637C64.8989 13.7108 64.8989 13.658 64.8989 13.6051C64.8989 13.5522 64.8989 13.4616 64.8989 13.4012V13.3295C64.8989 11.0638 65.5937 9.31928 67.0324 7.95234C68.2326 6.81155 69.8139 6.1575 71.4693 6.11718C74.1125 5.99634 76.1856 6.91393 77.6205 8.84727C78.4123 9.9393 78.8689 11.2383 78.9346 12.5856C79.0943 14.1241 78.7919 15.6754 78.0661 17.0413C77.5427 17.9854 76.7977 18.788 75.8951 19.38C74.9926 19.9721 73.9597 20.3358 72.8853 20.4398C72.5225 20.4917 72.1567 20.5195 71.7902 20.5229ZM71.9262 7.21601C71.7902 7.21601 71.6505 7.21601 71.5108 7.21601C70.1255 7.24751 68.8013 7.79254 67.7952 8.74532C66.5906 9.87814 66.0091 11.3886 66.0091 13.3106V13.3937C66.0091 13.4427 66.0091 13.4881 66.0091 13.5371C66.0091 13.5862 66.0091 13.6504 66.0091 13.7071C66.0091 13.8543 66.0091 13.994 66.0317 14.1224C66.3149 16.4749 67.41 18.0382 69.3887 18.9029C70.4374 19.3528 71.5909 19.5006 72.7192 19.3296C74.7242 19.0615 76.1478 18.1251 77.0767 16.4749C77.7001 15.2999 77.9541 13.964 77.8055 12.6422C77.7587 11.5087 77.3777 10.4143 76.7105 9.49675C75.5739 7.96745 74.0106 7.21601 71.9262 7.21601ZM71.9866 19.1408C71.4526 19.1384 70.921 19.0686 70.4044 18.9331C68.5164 18.446 67.2325 17.1357 66.7303 15.1571C66.3312 13.6638 66.4293 12.0811 67.0097 10.6485C67.4449 9.58923 68.2216 8.70584 69.2164 8.13865C70.2112 7.57147 71.367 7.35305 72.5001 7.5181C75.3209 7.86927 77.1069 9.80262 77.2769 12.6838C77.2769 12.8197 77.2769 12.9594 77.3033 13.0614V13.2011V13.2162C77.3033 14.4094 77.1107 16.1464 75.7929 17.502C75.3041 18.0208 74.7142 18.4339 74.0595 18.7157C73.4049 18.9976 72.6994 19.1423 71.9866 19.1408ZM71.828 8.59428C71.0236 8.5753 70.2323 8.80035 69.5583 9.23982C68.8842 9.67929 68.3591 10.3126 68.0519 11.0563C67.5608 12.2683 67.4799 13.6078 67.8216 14.8701C68.2219 16.4636 69.1885 17.468 70.6876 17.8494C71.4399 18.082 72.2423 18.0991 73.0038 17.8989C73.7653 17.6986 74.4555 17.2891 74.9961 16.7166C75.8042 15.8972 76.1743 14.8286 76.2007 13.2237V13.1331C76.2007 13.0236 76.1818 12.8801 76.1743 12.7555C76.0345 10.4181 74.6638 8.91524 72.3718 8.62826C72.1913 8.60688 72.0097 8.59553 71.828 8.59428Z" fill="#003BB3"/>
<path d="M80.4788 8.1903H78.689V6.85357H80.4713V3.62881H82.0761V6.8498H85.6558V8.17897H82.1327C82.1327 8.41686 82.0987 8.59811 82.0987 8.77559C82.0987 11.1998 82.0987 13.6241 82.0987 16.0445C82.0993 16.436 82.1359 16.8266 82.2083 17.2113C82.2455 17.5013 82.3815 17.7695 82.5933 17.971C82.8051 18.1725 83.0798 18.2949 83.3713 18.3177C83.9113 18.3857 84.4626 18.3819 85.0101 18.4045C85.214 18.4045 85.4217 18.4045 85.652 18.4045V19.6884C85.544 19.7137 85.4342 19.7301 85.3235 19.7375C84.6929 19.7375 84.0585 19.7375 83.4355 19.7375C81.5777 19.662 80.5241 18.6047 80.5015 16.7544C80.4675 14.1112 80.5015 11.4906 80.4826 8.85489L80.4788 8.1903Z" fill="#003BB3"/>
<path d="M84.3571 20.3039C84.0437 20.3039 83.7265 20.3039 83.4093 20.3039C81.2306 20.217 79.9656 18.9294 79.9391 16.7695C79.9165 14.9192 79.9165 13.0387 79.9391 11.2187C79.9391 10.4332 79.9391 9.64782 79.9391 8.8624V8.76422H78.1455V6.30978H79.9278V3.06992H82.6504V6.2909H86.2301V8.73779H82.6579V9.64404C82.6579 11.7435 82.6579 13.911 82.6579 16.0634C82.6614 16.4206 82.6955 16.7768 82.7599 17.1282C82.7838 17.2962 82.8662 17.4504 82.9926 17.5637C83.1189 17.677 83.2812 17.7421 83.4509 17.7475C83.8285 17.7966 84.2061 17.8041 84.5837 17.8192H85.0293C85.1539 17.8192 85.286 17.8192 85.4295 17.8192H86.2074V20.1642L85.7392 20.2435H85.6523C85.5446 20.269 85.4345 20.2829 85.3238 20.285H84.3571V20.3039ZM79.2481 7.6314H81.038V11.2073C81.038 13.0198 81.038 14.8965 81.038 16.743C81.0569 18.2912 81.8612 19.1106 83.4358 19.1711C83.9116 19.1711 84.4024 19.1711 84.8745 19.1711H85.0821V18.9558H84.9726H84.5384C84.1194 18.9514 83.7009 18.9249 83.2847 18.8765C82.8758 18.8399 82.4912 18.6664 82.1931 18.3841C81.895 18.1018 81.7009 17.7271 81.6421 17.3208C81.5773 16.8999 81.5507 16.4739 81.5628 16.0482C81.5628 13.9148 81.5628 11.7435 81.5628 9.62894V8.76044C81.5628 8.62073 81.5628 8.48479 81.5855 8.3413C81.5855 8.27711 81.5855 8.20536 81.5855 8.12984L81.6195 7.60874H85.1048V7.39351H81.5251V4.18385H81.0342V7.41239H79.2557L79.2481 7.6314Z" fill="#003BB3"/>
<path d="M22.948 12.7339C22.7979 12.9803 22.7011 13.2555 22.6641 13.5418C22.627 13.828 22.6504 14.1188 22.7328 14.3953C22.8486 14.7656 22.8393 15.1637 22.7064 15.5282C22.5533 15.9004 22.2897 16.2167 21.9512 16.4344C21.6921 16.5933 21.4774 16.8151 21.3269 17.0791C21.1763 17.3432 21.095 17.6409 21.0902 17.9448C21.0667 18.3471 20.9118 18.7306 20.6491 19.0362C20.3864 19.3419 20.0306 19.5528 19.6364 19.6365C19.342 19.7048 19.0686 19.8435 18.8397 20.0408C18.6108 20.2382 18.4332 20.4882 18.3224 20.7693C18.1499 21.1535 17.8605 21.4733 17.4954 21.6831C17.1206 21.8825 16.693 21.9604 16.272 21.9059C16.0295 21.8652 15.7809 21.8826 15.5465 21.9568C15.3121 22.031 15.0988 22.1598 14.9239 22.3326C14.7317 22.5431 14.4987 22.7123 14.239 22.8298C13.9793 22.9473 13.6985 23.0107 13.4135 23.0161C13.1989 23.0146 12.9855 22.9841 12.7791 22.9255C12.0502 22.7237 11.2802 22.7237 10.5512 22.9255C10.3697 22.9711 10.1833 22.9952 9.99614 22.9972C9.71198 22.9955 9.43122 22.9352 9.17136 22.8203C8.91149 22.7053 8.6781 22.538 8.48572 22.3288C8.31925 22.1554 8.11258 22.0258 7.88403 21.9514C7.65547 21.8769 7.41208 21.86 7.17543 21.9021C6.73317 21.9588 6.28415 21.8798 5.88779 21.6756C5.50641 21.4621 5.20437 21.1309 5.02684 20.7316C4.91169 20.4611 4.73498 20.2213 4.51078 20.0312C4.28657 19.841 4.02108 19.7059 3.73543 19.6365C3.33561 19.5416 2.97765 19.3189 2.71589 19.0021C2.4593 18.6648 2.3094 18.2585 2.28542 17.8353C2.27515 17.578 2.20452 17.3267 2.07923 17.1017C1.95395 16.8768 1.77752 16.6844 1.56419 16.5401C1.18349 16.2947 0.890085 15.9352 0.725909 15.5131C0.576252 15.0819 0.563067 14.6152 0.688148 14.1763C0.758904 13.9216 0.767718 13.6537 0.713854 13.3949C0.659991 13.1361 0.545011 12.8939 0.378511 12.6886C0.182195 12.4494 0.0557451 12.1606 0.0131022 11.8541C-0.0295407 11.5476 0.0132799 11.2353 0.136843 10.9516C0.514181 10.0958 0.683686 9.16285 0.631507 8.22902C0.609897 7.90704 0.67611 7.58524 0.823083 7.29794C0.970055 7.01065 1.19227 6.76865 1.46602 6.59776C1.71169 6.43702 1.9153 6.21978 2.05982 5.96424C2.20435 5.70869 2.28559 5.42225 2.29675 5.12887C2.31825 4.72486 2.46619 4.33782 2.71967 4.02249C2.98486 3.71196 3.3419 3.49377 3.73921 3.39944C4.03225 3.33779 4.30596 3.20594 4.53682 3.0152C4.76768 2.82446 4.94879 2.58054 5.06461 2.30438C5.21011 1.92396 5.47779 1.60262 5.82565 1.39076C6.17351 1.1789 6.58185 1.08852 6.98662 1.1338C7.71918 1.19422 8.16098 1.05828 8.56124 0.639135C8.84768 0.329811 9.22418 0.118442 9.63742 0.0349652C10.0553 -0.0331476 10.4841 0.0343402 10.8609 0.227544C11.1214 0.354409 11.4074 0.420336 11.6973 0.420336C11.9871 0.420336 12.2731 0.354409 12.5337 0.227544C12.9106 0.0189231 13.3488 -0.0507486 13.7718 0.0306836C14.1948 0.112116 14.5759 0.339482 14.8484 0.67312C15.0145 0.854456 15.2212 0.993834 15.4516 1.07982C15.682 1.16581 15.9295 1.19595 16.1738 1.16778C16.6414 1.10751 17.1162 1.19743 17.5294 1.42456C17.9306 1.67136 18.2417 2.04075 18.4168 2.47808C18.5087 2.69784 18.6526 2.89201 18.8361 3.04394C19.0196 3.19587 19.2372 3.30101 19.4703 3.35035C19.927 3.44642 20.3411 3.68588 20.6522 4.03382C20.9443 4.38718 21.108 4.8291 21.1166 5.28747C21.1796 5.79038 21.4372 6.24858 21.8341 6.56378C22.1137 6.84972 22.3665 7.16065 22.5893 7.49269L22.7366 7.6966C22.8063 7.80823 22.8494 7.93442 22.8625 8.06539C22.8756 8.19636 22.8583 8.32858 22.8121 8.45181C22.6893 8.75721 22.6399 9.08722 22.6682 9.41519C22.6964 9.74316 22.8013 10.0599 22.9745 10.3398C23.1941 10.7015 23.308 11.1175 23.3033 11.5406C23.2986 11.9637 23.1756 12.3771 22.948 12.7339Z" fill="#003BB3"/>
<path d="M22.9669 10.3433C22.7937 10.0634 22.6888 9.74661 22.6606 9.41864C22.6324 9.09067 22.6817 8.76067 22.8045 8.45527C22.8508 8.33204 22.868 8.19981 22.8549 8.06885C22.8418 7.93788 22.7988 7.81169 22.729 7.70005L22.5818 7.49615C22.3589 7.16411 22.1061 6.85318 21.8265 6.56724C21.4316 6.24981 21.1768 5.79027 21.1166 5.28715C21.1072 4.83008 20.9435 4.38963 20.6522 4.03727C20.3411 3.68934 19.927 3.44987 19.4703 3.35381C19.2372 3.30447 19.0196 3.19932 18.8361 3.0474C18.6526 2.89547 18.5087 2.7013 18.4168 2.48154C18.2417 2.0442 17.9306 1.67482 17.5294 1.42801C17.1162 1.20089 16.6414 1.11097 16.1738 1.17124C15.9295 1.19941 15.682 1.16926 15.4516 1.08328C15.2212 0.997291 15.0145 0.857914 14.8484 0.676577C14.5764 0.342318 14.1956 0.114215 13.7725 0.0320869C13.3495 -0.0500409 12.911 0.0190244 12.5337 0.227226C12.2731 0.354091 11.9871 0.420018 11.6973 0.420018C11.4074 0.420018 11.1214 0.354091 10.8609 0.227226C10.4841 0.0340217 10.0553 -0.033466 9.63742 0.0346467C9.2223 0.122251 8.84557 0.339034 8.56124 0.653921C8.16098 1.07306 7.71918 1.209 6.98662 1.13348C6.58231 1.08794 6.17431 1.17778 5.82651 1.38892C5.47872 1.60005 5.21076 1.92057 5.0646 2.30028C4.94928 2.57715 4.76839 2.82183 4.5375 3.01325C4.30661 3.20467 4.03264 3.3371 3.73921 3.39912C3.34335 3.49039 2.98649 3.7045 2.71967 4.01084C2.46619 4.32618 2.31825 4.71321 2.29675 5.11723C2.28559 5.4106 2.20435 5.69704 2.05982 5.95259C1.9153 6.20814 1.71169 6.42537 1.46602 6.58612C1.19227 6.757 0.970055 6.999 0.823083 7.28629C0.67611 7.57359 0.609897 7.89539 0.631507 8.21738C0.685492 9.15498 0.515949 10.092 0.136843 10.9512C0.0132799 11.235 -0.0295407 11.5473 0.0131022 11.8538C0.0557451 12.1603 0.182195 12.449 0.378511 12.6882C0.543078 12.8946 0.656001 13.1372 0.707887 13.396C0.759773 13.6548 0.749122 13.9222 0.67682 14.176C0.551739 14.6149 0.564924 15.0816 0.71458 15.5127C0.88174 15.9365 1.17927 16.2962 1.56419 16.5398C1.77853 16.6848 1.95558 16.8784 2.08091 17.1048C2.20624 17.3312 2.27632 17.584 2.28542 17.8426C2.3094 18.2657 2.4593 18.672 2.71589 19.0094C2.97877 19.3233 3.3366 19.5433 3.73543 19.6362C4.02193 19.7015 4.28923 19.8328 4.51605 20.0197C4.74287 20.2065 4.92295 20.4437 5.04195 20.7124C5.21948 21.1117 5.52151 21.4429 5.90289 21.6564C6.29283 21.864 6.73623 21.9496 7.17542 21.9018C7.41156 21.8635 7.6535 21.8838 7.87998 21.9608C8.10647 22.0378 8.31058 22.1693 8.47439 22.3436C8.66677 22.5528 8.90016 22.7201 9.16003 22.835C9.41989 22.95 9.70065 23.0103 9.98482 23.012C10.172 23.01 10.3583 22.9859 10.5399 22.9402C11.2688 22.7385 12.0388 22.7385 12.7678 22.9402C12.9742 22.9989 13.1876 23.0294 13.4022 23.0309C13.6871 23.0254 13.968 22.962 14.2277 22.8445C14.4874 22.727 14.7204 22.5579 14.9126 22.3474C15.0868 22.1695 15.3013 22.0362 15.5379 21.9586C15.7745 21.8811 16.0262 21.8616 16.272 21.9018C16.693 21.9563 17.1206 21.8784 17.4954 21.679C17.8599 21.4702 18.1493 21.1518 18.3224 20.769C18.4332 20.4879 18.6108 20.2379 18.8397 20.0405C19.0686 19.8432 19.342 19.7044 19.6364 19.6362C20.0298 19.5508 20.3844 19.3388 20.6456 19.0325C20.9069 18.7262 21.0604 18.3427 21.0827 17.9407C21.0874 17.6369 21.1688 17.3391 21.3193 17.075C21.4698 16.811 21.6845 16.5892 21.9436 16.4303C22.2821 16.2126 22.5457 15.8963 22.6988 15.5241C22.8317 15.1596 22.841 14.7615 22.7253 14.3912C22.6428 14.1147 22.6194 13.8239 22.6565 13.5377C22.6936 13.2515 22.7903 12.9762 22.9405 12.7298C23.1665 12.3738 23.2887 11.9619 23.2934 11.5403C23.2981 11.1187 23.185 10.7041 22.9669 10.3433ZM22.6195 12.5523C22.4446 12.8426 22.3325 13.1662 22.2902 13.5024C22.2479 13.8387 22.2765 14.18 22.3741 14.5045C22.4726 14.8073 22.4633 15.1349 22.3476 15.4316C22.232 15.7283 22.0172 15.9758 21.7397 16.132C21.4342 16.3247 21.1812 16.59 21.0033 16.9043C20.8254 17.2186 20.7281 17.5721 20.7202 17.9332C20.7004 18.255 20.5761 18.5615 20.3662 18.8062C20.1562 19.0509 19.8722 19.2203 19.5571 19.2888C19.2098 19.3636 18.8857 19.5211 18.6123 19.7479C18.3388 19.9747 18.1241 20.2641 17.9863 20.5915C17.8529 20.9133 17.6147 21.1805 17.3104 21.3498C17.006 21.5191 16.6534 21.5806 16.3097 21.5242C16.0113 21.477 15.7059 21.501 15.4185 21.5942C15.1311 21.6874 14.8698 21.8471 14.6558 22.0604C14.4385 22.3077 14.1538 22.4862 13.8365 22.5741C13.5193 22.662 13.1833 22.6554 12.8697 22.5551C12.5008 22.4528 12.1198 22.4007 11.7369 22.4003C11.3035 22.4032 10.8722 22.4603 10.453 22.5702C10.3028 22.6104 10.1479 22.6307 9.99237 22.6306C9.76075 22.6289 9.53203 22.579 9.32075 22.4841C9.10947 22.3892 8.92025 22.2513 8.76515 22.0793C8.56099 21.8637 8.30777 21.7007 8.02703 21.604C7.74629 21.5074 7.44636 21.48 7.15277 21.5242C6.7923 21.5859 6.42157 21.5249 6.09984 21.351C5.77812 21.1771 5.52397 20.9004 5.37802 20.5651C5.23773 20.2457 5.02465 19.9636 4.75582 19.7414C4.48699 19.5191 4.16987 19.3628 3.82983 19.285C3.49412 19.2111 3.19365 19.0249 2.97808 18.7571C2.7625 18.4894 2.6447 18.1561 2.64415 17.8124C2.63255 17.5003 2.54794 17.1952 2.39711 16.9218C2.24628 16.6483 2.03343 16.414 1.77565 16.2377C1.44969 16.0406 1.20041 15.7385 1.06868 15.381C0.936948 15.0236 0.930591 14.6319 1.05065 14.2704C1.13516 13.9611 1.145 13.6362 1.07935 13.3224C1.0137 13.0086 0.87444 12.7149 0.673044 12.4654C0.516789 12.2776 0.41485 12.0506 0.378246 11.809C0.341642 11.5674 0.371766 11.3204 0.46536 11.0947C0.867931 10.1874 1.04788 9.19701 0.990233 8.20605C0.974565 7.94954 1.02881 7.69359 1.14718 7.4655C1.26555 7.2374 1.44361 7.04571 1.66237 6.91086C1.95442 6.7188 2.19673 6.46017 2.36937 6.15624C2.54202 5.85231 2.64007 5.51174 2.65548 5.16254C2.66148 4.83099 2.78213 4.51175 2.99691 4.25911C3.21169 4.00647 3.50735 3.83601 3.83361 3.77673C4.18142 3.70182 4.50594 3.54387 4.77947 3.31637C5.053 3.08886 5.26743 2.79855 5.40445 2.47021C5.51893 2.1624 5.73228 1.90126 6.01107 1.7277C6.28986 1.55414 6.61835 1.47795 6.94508 1.51109C7.28552 1.57388 7.63622 1.55121 7.96573 1.44511C8.29525 1.339 8.59328 1.15278 8.83312 0.903141C9.05773 0.639868 9.36594 0.461711 9.70618 0.398474C10.0464 0.335237 10.3981 0.390757 10.7023 0.555743C11.0106 0.707646 11.3498 0.786647 11.6935 0.786647C12.0372 0.786647 12.3764 0.707646 12.6847 0.555743C12.9927 0.383167 13.3523 0.326376 13.6985 0.395619C14.0447 0.464863 14.3548 0.655579 14.5727 0.93335C14.7768 1.15584 15.0307 1.3269 15.3135 1.43256C15.5964 1.53822 15.9002 1.57548 16.2002 1.5413C16.5926 1.47192 16.9968 1.54486 17.3401 1.747C17.6835 1.94913 17.9434 2.26718 18.0731 2.64391C18.1876 2.91703 18.3667 3.15831 18.5949 3.34706C18.8231 3.53581 19.0937 3.6664 19.3834 3.72764C19.7623 3.78861 20.1071 3.98241 20.3562 4.27437C20.6053 4.56632 20.7423 4.93738 20.7428 5.32114C20.8099 5.9144 21.1084 6.45721 21.5736 6.83156C21.8336 7.10279 22.0699 7.39588 22.2797 7.70761L22.4232 7.91151C22.4575 7.97115 22.478 8.03772 22.4833 8.10633C22.4885 8.17494 22.4783 8.24385 22.4534 8.308C22.309 8.66843 22.2523 9.05795 22.2877 9.44459C22.3231 9.83122 22.4498 10.2039 22.6573 10.5321C22.843 10.8378 22.9381 11.19 22.9314 11.5477C22.9247 11.9053 22.8165 12.2537 22.6195 12.5523Z" fill="#003BB3"/>
<path d="M8.32617 12.7744L8.82084 12.3062L9.91212 13.439L13.2388 8.7869L13.8128 9.20226L10.0367 14.4888L8.32617 12.7744Z" fill="white"/>
<path d="M11.6374 19.8394H11.4524V19.0238H11.9697L11.9961 19.8394H11.6185H11.6374ZM11.5921 19.7035H11.864L11.8451 19.1635H11.5997L11.5921 19.7035ZM10.8558 19.8054H10.7878L10.3724 19.7526H10.3045L10.4291 18.9445H10.497L10.8747 18.9936H10.9426L10.8558 19.8054ZM10.4782 19.6166C10.565 19.6166 10.6556 19.643 10.7463 19.6506L10.8029 19.1144L10.5575 19.0842L10.4782 19.6166ZM12.6192 19.7865L12.5172 18.9747H12.589L12.9666 18.918H13.0346L13.1781 19.7223H13.1101C12.9741 19.745 12.8344 19.7677 12.6985 19.7828L12.6192 19.7865ZM12.6721 19.0955L12.7249 19.6355L12.993 19.594L12.9024 19.0615L12.6721 19.0955ZM9.7154 19.6355H9.64743C9.51527 19.6015 9.37933 19.5638 9.24717 19.5222H9.1792L9.41332 18.7406H9.48128L9.85889 18.8425H9.92686L9.7154 19.6355ZM9.33779 19.3938L9.59834 19.4693L9.7305 18.9445L9.50772 18.8803L9.33779 19.3938ZM13.7256 19.5902L13.5103 18.801H13.5783L13.9559 18.6915L14.0239 18.6688L14.2769 19.4467L14.2127 19.4693C14.0805 19.5109 13.9446 19.5524 13.8087 19.5864L13.7256 19.5902ZM13.6954 18.8803L13.8389 19.4014L14.0994 19.3221L13.9295 18.8123L13.6954 18.8803ZM8.61279 19.2579H8.5486L8.17099 19.0917L8.1068 19.0615L8.45042 18.3063L8.51084 18.3328C8.62789 18.3894 8.74495 18.4385 8.85823 18.4838L8.92243 18.5102L8.61279 19.2579ZM8.30693 18.9822L8.55615 19.0917L8.75628 18.5895L8.51461 18.5027L8.30693 18.9822ZM14.8508 19.2012L14.5299 18.446L14.5941 18.4196L14.9339 18.2648L14.9981 18.2346L15.3568 18.9671L15.2964 18.9973C15.1718 19.0578 15.0434 19.1182 14.9188 19.171L14.8508 19.2012ZM14.7111 18.5253L14.9264 19.02L15.1718 18.9067L14.9339 18.4234L14.7111 18.5253ZM7.58948 18.7746L7.52906 18.7406C7.40823 18.6726 7.29117 18.5971 7.17411 18.5216L7.11369 18.4838L7.55172 17.8003L7.61213 17.8381L7.9331 18.0344L7.99352 18.0684L7.58948 18.7746ZM7.30627 18.4423L7.54039 18.5858L7.78961 18.1251L7.57815 17.9967L7.30627 18.4423ZM15.8591 18.6839L15.4361 17.9854L15.4966 17.9476L15.8137 17.7475L15.8704 17.7059L16.3273 18.3818L16.2706 18.4234L15.9195 18.6462L15.8591 18.6839ZM15.6287 18.0307L15.9119 18.5027C15.9874 18.4574 16.063 18.4083 16.1385 18.3554L15.8364 17.9098L15.6287 18.0307ZM6.6077 18.1251L6.55106 18.0798C6.44155 17.9967 6.33582 17.9061 6.23009 17.8154L6.17723 17.7701L6.70965 17.1508L6.76252 17.1962C6.85692 17.2792 6.9551 17.3585 7.05328 17.4378L7.10992 17.4794L6.6077 18.1251ZM6.37358 17.7475C6.44155 17.8079 6.5133 17.8645 6.58504 17.9212L6.91356 17.4945L6.72476 17.3396L6.37358 17.7475ZM16.8106 18.0042L16.2971 17.3699H16.3499C16.4481 17.2906 16.5425 17.2075 16.6369 17.1244L16.686 17.0753L17.2335 17.6833L17.1845 17.7286C17.0787 17.8242 16.973 17.9149 16.8673 18.0005L16.8106 18.0042ZM16.4897 17.3887L16.8333 17.8079L17.0372 17.6304L16.6785 17.2301C16.6143 17.3057 16.5539 17.3699 16.4897 17.4114V17.3887ZM5.74298 17.3699L5.69389 17.3208C5.59572 17.2226 5.50131 17.1169 5.41069 17.0149L5.36538 16.962L5.9771 16.4221L6.02241 16.4749C6.10548 16.5693 6.19233 16.6637 6.27918 16.7544L6.32827 16.8034L5.74298 17.3699ZM5.56173 16.9923L5.74298 17.1924L6.12059 16.8148L5.96577 16.6146L5.56173 16.9923ZM17.6451 17.2604L17.0485 16.7015L17.0938 16.6524C17.1794 16.5618 17.2625 16.4674 17.343 16.3692L17.3884 16.3163L18.0152 16.8412L17.9699 16.8941C17.8792 17.0036 17.7848 17.1055 17.6942 17.2075L17.6451 17.2604ZM17.2411 16.6939L17.6187 17.0715L17.8 16.8676L17.3846 16.5202C17.3695 16.558 17.3128 16.6146 17.2562 16.6788L17.2411 16.6939ZM4.97644 16.5127L4.9349 16.4598C4.85183 16.3465 4.77253 16.2295 4.69701 16.1162L4.65925 16.0558L5.33894 15.6102L5.38048 15.6669C5.44467 15.7688 5.51642 15.8745 5.59194 15.9765L5.63348 16.0331L4.97644 16.5127ZM4.85183 16.0973C4.90092 16.1728 4.95379 16.2484 5.00665 16.3201L5.4409 16.0029L5.30118 15.799L4.85183 16.0973ZM18.3777 16.3654L17.7093 15.8972L17.7471 15.8406C17.8188 15.7386 17.8906 15.6329 17.9548 15.5271L17.9925 15.4705L18.6836 15.901L18.6496 15.9614C18.574 16.0784 18.4985 16.1955 18.4192 16.3088L18.3777 16.3654ZM17.917 15.8594L18.3588 16.1691C18.4117 16.0935 18.4608 16.018 18.5099 15.9425L18.0529 15.6555L17.917 15.8594ZM4.36849 15.5385L4.33451 15.4818C4.27032 15.361 4.20612 15.2364 4.14571 15.1042L4.1155 15.0438L4.87071 14.6926L4.90092 14.7568C4.95378 14.8663 5.01043 14.9796 5.07084 15.0929L5.10105 15.1533L4.36849 15.5385ZM4.30053 15.1042L4.42514 15.3459L4.90847 15.1042L4.79519 14.8852L4.30053 15.1042ZM18.9932 15.3723L18.2682 14.9947L18.2984 14.9343C18.355 14.821 18.4079 14.7077 18.4608 14.5945L18.4872 14.5303L19.2424 14.8626L19.2122 14.9267C19.1593 15.0514 19.0989 15.1797 19.0347 15.3044L18.9932 15.3723ZM18.4532 14.9418L18.9328 15.1873C18.9743 15.1042 19.0121 15.0211 19.0498 14.9418L18.5589 14.7266C18.525 14.787 18.5023 14.8626 18.4532 14.9343V14.9418ZM3.88516 14.4774L3.8625 14.4132C3.81215 14.2798 3.76684 14.1476 3.72656 14.0167V13.9525L4.50443 13.7109L4.52709 13.775C4.56485 13.8959 4.60261 14.0167 4.64792 14.1527L4.67058 14.2168L3.88516 14.4774ZM3.88516 14.0431C3.91159 14.13 3.9418 14.2168 3.97201 14.2999L4.478 14.1149L4.3987 13.8846L3.88516 14.0431ZM19.4576 14.3037L18.6836 14.0394L18.7062 13.9752C18.7477 13.8581 18.7855 13.7373 18.8195 13.6165L18.8384 13.5485L19.6238 13.775L19.6049 13.8392C19.5671 13.9752 19.5256 14.1073 19.4803 14.2395L19.4576 14.3037ZM18.8572 13.9714L19.367 14.1489C19.3935 14.062 19.4237 13.9752 19.4463 13.8883L18.929 13.7411C18.9063 13.7977 18.8799 13.877 18.8572 13.9714ZM3.55664 13.371V13.303C3.52643 13.1709 3.5 13.0312 3.47734 12.8952V12.8273L4.28542 12.6951V12.7631C4.28542 12.8877 4.32696 13.0123 4.35339 13.1407V13.2086L3.55664 13.371ZM3.61328 12.9405C3.61328 13.0312 3.64349 13.118 3.66237 13.2086L4.19102 13.0954C4.19102 13.0161 4.15704 12.933 4.14571 12.8537L3.61328 12.9405ZM19.7597 13.1898L18.9554 13.0387V12.9707C18.9781 12.8499 18.997 12.7253 19.0158 12.5931V12.5252L19.8277 12.6385V12.7064C19.8277 12.8424 19.7862 12.9821 19.7597 13.118V13.1898ZM19.1178 12.9292L19.6464 13.0274C19.6464 12.9405 19.6804 12.8499 19.6918 12.7593L19.1593 12.6875C19.148 12.7668 19.1329 12.8386 19.1178 12.9292ZM3.39805 12.2306V12.1627C3.39805 12.023 3.39805 11.8832 3.39805 11.7435V11.6756L4.21368 11.6567V11.7284C4.21368 11.853 4.21368 11.9776 4.21368 12.106V12.1778L3.39805 12.2306ZM3.5151 11.8115V12.0834L4.05508 12.0456C4.05508 11.9625 4.05508 11.8795 4.05508 11.8002L3.5151 11.8115ZM19.9183 12.0456L19.1027 12.0041V11.9361C19.1027 11.8115 19.1027 11.6869 19.1027 11.5585V11.4452H19.9183V11.5623C19.9183 11.702 19.9183 11.8455 19.9183 11.9814V12.0456ZM19.25 11.8757L19.7862 11.9021C19.7862 11.7964 19.7862 11.6869 19.7862 11.5812H19.2575C19.2575 11.6793 19.2575 11.7775 19.2349 11.8757H19.25ZM4.19857 11.1205L3.38672 11.0676V10.9959C3.38672 10.8599 3.40937 10.7202 3.42448 10.5805V10.5125L4.23633 10.6069V10.6749C4.23633 10.7995 4.2099 10.9279 4.20235 11.0525L4.19857 11.1205ZM3.51888 10.9506L4.05508 10.9883L4.07774 10.7429L3.54154 10.6824L3.51888 10.9506ZM19.0763 10.9241V10.8561C19.0763 10.7315 19.0498 10.6032 19.0309 10.4785V10.4068L19.839 10.2897V10.3577C19.8617 10.4974 19.8768 10.6371 19.8881 10.7731V10.8448L19.0763 10.9241ZM19.1707 10.5276C19.1707 10.6107 19.1933 10.69 19.2009 10.7731L19.7371 10.7202C19.7371 10.6334 19.7182 10.5427 19.7031 10.4521L19.1707 10.5276ZM4.31563 10.1009L3.5151 9.93101V9.86304C3.54531 9.73088 3.57552 9.59117 3.60951 9.459L3.62839 9.39104L4.41758 9.59872V9.66291C4.3836 9.78375 4.35717 9.90836 4.33073 10.0405L4.31563 10.1009ZM3.68125 9.81773L4.2099 9.92724C4.2099 9.84794 4.24388 9.76864 4.26277 9.68934L3.74167 9.55341C3.71901 9.64781 3.70013 9.73843 3.68125 9.81773ZM18.9139 9.8857V9.81773C18.8875 9.6969 18.8535 9.57229 18.8195 9.44012L18.7968 9.37593L19.5823 9.14559V9.21356C19.6238 9.3495 19.6578 9.48544 19.6918 9.6176V9.68557L18.9139 9.8857ZM18.9554 9.48166C18.9781 9.56096 18.997 9.64026 19.0196 9.71578L19.5407 9.59117C19.5231 9.50558 19.5004 9.41873 19.4727 9.33062L18.9554 9.48166ZM4.58751 9.10406L3.83229 8.82463L3.85495 8.76043C3.90404 8.63205 3.95313 8.49989 4.00599 8.38283L4.0362 8.31863L4.79141 8.63205L4.76498 8.69624C4.71589 8.8133 4.67058 8.93036 4.62904 9.05119L4.58751 9.10406ZM3.99844 8.72645L4.50443 8.91148L4.59506 8.68114L4.09662 8.47345C4.06263 8.56408 4.02865 8.65093 3.99844 8.734V8.72645ZM18.6118 8.88882L18.5891 8.82463C18.5438 8.70757 18.4947 8.59051 18.4419 8.47723L18.4117 8.41681L19.1669 8.07697L19.1971 8.14116C19.2537 8.26955 19.3104 8.39793 19.3595 8.51877L19.3859 8.58296L18.6118 8.88882ZM18.6118 8.48478C18.6458 8.5603 18.676 8.63205 18.7062 8.70757L19.2084 8.51121C19.1744 8.42814 19.1405 8.34507 19.1027 8.26199L18.6118 8.48478ZM5.01798 8.13361L4.29675 7.756L4.33073 7.69558C4.39493 7.57097 4.46667 7.45014 4.53464 7.31798L4.5724 7.25756L5.27097 7.67293L5.23699 7.73334C5.1728 7.84285 5.11238 7.95236 5.05196 8.06186L5.01798 8.13361ZM4.48555 7.69181L4.96134 7.9448L5.08217 7.72957L4.61772 7.45392L4.48555 7.69181ZM18.1927 7.9448L18.1247 7.89194C18.0643 7.78621 18.0001 7.6767 17.9321 7.57097L17.8944 7.51056L18.5854 7.07631L18.6231 7.13295C18.6987 7.25001 18.7704 7.37084 18.8384 7.49168L18.8799 7.55209L18.1927 7.9448ZM18.1209 7.5672C18.1625 7.63517 18.2078 7.70691 18.2455 7.77488L18.7175 7.51056L18.5778 7.28022L18.1209 7.5672ZM5.54285 7.25001L4.87826 6.77045L4.9198 6.71381C5.00287 6.6043 5.08595 6.49102 5.1728 6.38151L5.21811 6.32865L5.85626 6.83842L5.81095 6.89506C5.73165 6.98946 5.65613 7.09141 5.58439 7.19337L5.54285 7.25001ZM5.07462 6.74024L5.51264 7.05743C5.55796 6.98946 5.61082 6.92527 5.65991 6.86107L5.24077 6.525L5.07462 6.74024ZM17.6111 7.08009L17.5696 7.02722C17.4941 6.92904 17.411 6.82709 17.3317 6.73269L17.2864 6.67982L17.9095 6.15117L17.9548 6.20404C18.0454 6.30977 18.1322 6.41927 18.2153 6.52878L18.2569 6.58542L17.6111 7.08009ZM17.4828 6.70248L17.6338 6.89506L18.0643 6.56654L17.8944 6.35508L17.4828 6.70248ZM6.19989 6.45326L5.61082 5.88685L5.65991 5.83776C5.75809 5.73581 5.85626 5.63763 5.95822 5.54323L6.00731 5.49414L6.56616 6.08698L6.51708 6.13607L6.24897 6.40039L6.19989 6.45326ZM5.82228 5.88307L6.19989 6.26068C6.25653 6.20026 6.31694 6.14362 6.37358 6.08698L5.99598 5.70937L5.82228 5.88307ZM16.9428 6.30222L16.8937 6.25313C16.8068 6.16628 16.7162 6.07943 16.618 5.99636L16.569 5.94727L17.1127 5.33932L17.1618 5.38463C17.2675 5.47903 17.3695 5.57344 17.4677 5.67161L17.5167 5.7207L16.9428 6.30222ZM16.7653 5.92461L16.9428 6.09076L17.3204 5.71315L17.124 5.52812L16.7653 5.92461ZM6.98153 5.72825L6.46043 5.09765L6.5133 5.05234C6.6228 4.96927 6.73609 4.88242 6.84937 4.80312L6.90601 4.76158L7.37802 5.42995L7.32138 5.46771L7.01929 5.69427L6.98153 5.72825ZM6.67189 5.11276L7.00419 5.53568L7.20054 5.38841L6.88713 4.95039L6.67189 5.11276ZM16.1611 5.59987L16.1045 5.55833C16.0063 5.48659 15.9006 5.41107 15.7949 5.3431L15.7382 5.30534L16.1913 4.62564L16.2518 4.66341C16.365 4.73893 16.4783 4.822 16.5916 4.90507L16.6483 4.94661L16.1611 5.59987ZM15.9157 5.28646C15.9837 5.33177 16.0516 5.37708 16.1158 5.42617L16.4368 4.9957C16.365 4.93906 16.2895 4.88619 16.214 4.8371L15.9157 5.28646ZM7.81982 5.15429L7.40823 4.44817L7.46864 4.41418C7.58948 4.34622 7.71031 4.27825 7.84625 4.21405L7.90667 4.18007L8.28427 4.90507L8.22008 4.93906L7.89156 5.12031L7.81982 5.15429ZM7.59703 4.50103L7.86891 4.96549L8.08414 4.84843L7.83492 4.36887L7.59703 4.50103ZM15.2738 5.04856L15.2133 5.01835C15.1038 4.95794 14.9906 4.89752 14.8773 4.84466L14.8169 4.81445L15.1718 4.05923L15.2322 4.08944C15.3606 4.14986 15.4865 4.21405 15.6098 4.28202L15.6703 4.31601L15.2738 5.04856ZM15.0019 4.75025C15.0736 4.78802 15.1454 4.822 15.2171 4.86354L15.4814 4.37642L15.2398 4.25181L15.0019 4.75025ZM8.74873 4.68606L8.43909 3.93085L8.50328 3.90442C8.63167 3.85155 8.76006 3.80246 8.88089 3.75715L8.94886 3.73072L9.21696 4.50481L9.15277 4.52747L8.80159 4.65963L8.74873 4.68606ZM8.62034 4.00637L8.82425 4.50481L9.05459 4.41796L8.87334 3.90819L8.62034 4.00637ZM14.3486 4.59544L14.2807 4.57278C14.1636 4.52747 14.0465 4.48593 13.9257 4.44817L13.8577 4.42551L14.107 3.64764L14.1749 3.6703C14.3084 3.71058 14.4342 3.75589 14.5525 3.80624L14.6167 3.83267L14.3486 4.59544ZM14.0352 4.33489L14.2656 4.41796L14.4544 3.91197L14.1976 3.82512L14.0352 4.33489ZM9.74938 4.33489L9.53415 3.54947L9.59834 3.53059L10.0062 3.43996H10.0741L10.2365 4.24049H10.1685C10.0439 4.26314 9.92308 4.29335 9.79092 4.32356L9.74938 4.33489ZM9.7154 3.64387L9.81735 4.17252L10.0552 4.11965L9.95329 3.591C9.87777 3.60611 9.79092 3.62876 9.7003 3.64764L9.7154 3.64387ZM13.3517 4.2858H13.2838C13.1629 4.25937 13.0383 4.23293 12.9062 4.21405H12.8382L12.9704 3.39842H13.0383L13.4462 3.4815H13.5141L13.3517 4.2858ZM13.0081 4.07434L13.246 4.11965L13.3631 3.59478L13.0988 3.54191L13.0081 4.07434ZM10.7538 4.15364L10.667 3.34178H10.7349C10.8734 3.32668 11.0131 3.31535 11.1541 3.3078H11.2221L11.2674 4.12343H11.1994L10.8218 4.15364H10.7538ZM10.8218 3.46639L10.8784 4.00259L11.1239 3.97994L11.0899 3.43618C10.9993 3.43996 10.9086 3.44751 10.8218 3.45884V3.46639ZM12.3096 4.13098H12.2416C12.117 4.13098 11.9924 4.1121 11.864 4.10832H11.796L11.8187 3.29269H11.8904C12.0264 3.29269 12.1698 3.29269 12.3058 3.31535H12.3737L12.3096 4.13098ZM11.932 3.96861H12.1736L12.2189 3.43241H11.9471L11.932 3.96861Z" fill="white"/>
</g>
<defs>
<clipPath id="clip0_950_999">
<rect width="99.7636" height="23" fill="white"/>
</clipPath>
</defs>
</svg>
