<svg width="43" height="43" viewBox="0 0 43 43" fill="none"
  xmlns="http://www.w3.org/2000/svg">
  <g clip-path="url(#clip0_1134_10096)">
    <path d="M27.1119 41.5427L25.1439 34.9834H17.8558L15.8879 41.5427H13.4829V43.0003H29.5168V41.5427H27.1119Z" fill="#E0E0DE"/>
    <path d="M25.8001 37.1698L25.1442 34.9834H17.8561L17.2002 37.1698H25.8001Z" fill="#D6D6D4"/>
    <path d="M36.8049 5.83057H40.449C41.6565 5.83057 42.6354 6.80955 42.6354 8.01701V30.6102H0.364258V8.01701C0.364258 6.80955 1.34325 5.83057 2.5507 5.83057H4.73714" fill="#348FD9"/>
    <path d="M0.364258 30.6104V32.7968C0.364258 34.0042 1.34325 34.9832 2.5507 34.9832H40.449C41.6565 34.9832 42.6354 34.0042 42.6354 32.7968V30.6104H0.364258Z" fill="#E0E0DE"/>
    <path d="M30.9746 0H6.92375C5.71629 0 4.7373 0.978987 4.7373 2.18644V30.6102H38.2627V7.28814L30.9746 0Z" fill="#60D1E0"/>
    <path d="M9.83887 30.6102H38.2626V7.28815L35.7118 4.7373L9.83887 30.6102Z" fill="#5AC6D4"/>
    <path d="M6.92383 2.18652H8.38146V3.64415H6.92383V2.18652Z" fill="#419BC2"/>
    <path d="M9.83887 2.18652H11.2965V3.64415H9.83887V2.18652Z" fill="#419BC2"/>
    <path d="M12.7544 2.18652H14.212V3.64415H12.7544V2.18652Z" fill="#419BC2"/>
    <path d="M33.1609 4.37305H24.4151L9.83887 18.9493L18.5846 27.6951L33.1609 13.1188V4.37305Z" fill="#FFB531"/>
    <path d="M28.6836 4.37305L16.5308 25.6414L18.5845 27.6951L33.1607 13.1188V4.37305H28.6836Z" fill="#FFA912"/>
    <path d="M29.5172 9.47434C28.7122 9.47434 28.0596 8.82168 28.0596 8.01671C28.0596 7.21174 28.7122 6.55908 29.5172 6.55908C30.3222 6.55908 30.9748 7.21174 30.9748 8.01671C30.9748 8.82168 30.3222 9.47434 29.5172 9.47434Z" fill="#60D1E0"/>
    <path d="M13.6963 18.7352L14.7269 17.7046L19.8282 22.8059L18.7976 23.8365L13.6963 18.7352Z" fill="#F98500"/>
    <path d="M15.8833 16.549L16.9139 15.5181L22.0152 20.6198L20.9846 21.6503L15.8833 16.549Z" fill="#F98500"/>
    <path d="M25.1444 16.7624L21.5003 16.0336L20.7715 12.3896L22.9579 10.2031L26.602 10.9319L27.3308 14.576L25.1444 16.7624Z" fill="#F98500"/>
    <path d="M6.92383 6.55908H14.212V8.01671H6.92383V6.55908Z" fill="#419BC2"/>
    <path d="M6.92383 9.47412H14.212V10.9317H6.92383V9.47412Z" fill="#419BC2"/>
    <path d="M6.92383 12.3896H11.2967V13.8473H6.92383V12.3896Z" fill="#419BC2"/>
    <path d="M34.6187 21.1357H36.0763V22.5934H34.6187V21.1357Z" fill="#419BC2"/>
    <path d="M28.7881 24.0508H36.0762V25.5084H28.7881V24.0508Z" fill="#419BC2"/>
    <path d="M28.7881 26.9658H36.0762V28.4234H28.7881V26.9658Z" fill="#419BC2"/>
    <path d="M28.7881 21.1357H33.161V22.5934H28.7881V21.1357Z" fill="#419BC2"/>
    <path d="M6.92383 24.0508H12.0255V25.5084H6.92383V24.0508Z" fill="#419BC2"/>
    <path d="M6.92383 26.9658H14.212V28.4234H6.92383V26.9658Z" fill="#419BC2"/>
    <path d="M38.2627 7.28814H33.8899C32.2799 7.28814 30.9746 5.98282 30.9746 4.37288V0L38.2627 7.28814Z" fill="#9FE4ED"/>
    <path d="M4.7373 29.1523H38.2627V30.61H4.7373V29.1523Z" fill="#5AC6D4"/>
    <path d="M0.364258 29.1523H4.73714V30.61H0.364258V29.1523Z" fill="#3086CD"/>
    <path d="M38.2627 5.83057H39.7203V30.6102H38.2627V5.83057Z" fill="#3086CD"/>
    <path d="M38.2627 29.1523H42.6356V30.61H38.2627V29.1523Z" fill="#3086CD"/>
    <path d="M42.183 39.6323L35.3476 32.7969L33.1611 34.9833L39.9966 41.8188C40.6005 42.4227 41.5795 42.4227 42.183 41.8188C42.787 41.2152 42.787 40.2363 42.183 39.6323Z" fill="#F35244"/>
    <path d="M37.5251 34.9744L35.3476 32.7969L33.1611 34.9833L35.3387 37.1609C36.1671 36.5388 36.9031 35.8029 37.5251 34.9744Z" fill="#DE4132"/>
    <path d="M38.2628 27.6949C38.2628 33.7325 33.3683 38.6271 27.3306 38.6271C21.293 38.6271 16.3984 33.7325 16.3984 27.6949C16.3984 21.6573 21.293 16.7627 27.3306 16.7627C33.3683 16.7627 38.2628 21.6573 38.2628 27.6949Z" fill="#F35244"/>
    <path d="M35.3474 27.6947C35.3474 32.1224 31.7581 35.7116 27.3304 35.7116C22.9027 35.7116 19.3135 32.1224 19.3135 27.6947C19.3135 23.267 22.9027 19.6777 27.3304 19.6777C31.7581 19.6777 35.3474 23.267 35.3474 27.6947Z" fill="#48ADD9"/>
    <path d="M33.8901 27.6951C33.8901 31.3178 30.9535 34.2544 27.3308 34.2544C23.7081 34.2544 20.7715 31.3178 20.7715 27.6951C20.7715 24.0723 23.7081 21.1357 27.3308 21.1357C30.9535 21.1357 33.8901 24.0723 33.8901 27.6951Z" fill="#4DB7E5"/>
    <path d="M19.3135 27.695C23.1906 22.836 31.4702 22.836 35.3474 27.695C31.4702 32.554 23.1906 32.554 19.3135 27.695Z" fill="#D6D6D4"/>
    <path d="M30.9747 27.6948C30.9747 29.7073 29.343 31.3389 27.3306 31.3389C25.3182 31.3389 23.6865 29.7073 23.6865 27.6948C23.6865 25.6824 25.3182 24.0508 27.3306 24.0508C29.343 24.0508 30.9747 25.6824 30.9747 27.6948Z" fill="#348FD9"/>
    <path d="M29.5516 24.8252C28.5484 27.091 26.8128 28.9543 24.6235 30.1148C25.5388 31.1493 26.9616 31.5745 28.2943 31.213C29.6274 30.8511 30.6394 29.7646 30.9063 28.4095C31.1729 27.0543 30.648 25.665 29.5516 24.8252Z" fill="#3086CD"/>
    <path d="M27.3307 29.1526C26.5257 29.1526 25.873 28.4999 25.873 27.6949C25.873 26.89 26.5257 26.2373 27.3307 26.2373C28.1356 26.2373 28.7883 26.89 28.7883 27.6949C28.7883 28.4999 28.1356 29.1526 27.3307 29.1526Z" fill="#2A71AD"/>
  </g>
  <defs>
    <clipPath id="clip0_1134_10096">
      <rect width="43" height="43" fill="white"/>
    </clipPath>
  </defs>
</svg>
