<svg width="40" height="40" viewBox="0 0 40 40" fill="none"
  xmlns="http://www.w3.org/2000/svg">
  <g clip-path="url(#clip0_1134_10143)">
    <path d="M11.8749 38.2421V26.3672C11.8749 25.7195 11.3508 25.1953 10.703 25.1953H3.51562C2.86789 25.1953 2.34375 25.7195 2.34375 26.3672V38.2421H11.8749Z" fill="#FEDB41"/>
    <path d="M23.5937 38.2421V19.3359C23.5937 18.6882 23.0695 18.1641 22.4218 18.1641H15.3906C14.7429 18.1641 14.2188 18.6882 14.2188 19.3359V38.2421H23.5937Z" fill="#1DE8F1"/>
    <path d="M22.4222 11.1328H25.9378V38.242H35.3127V11.1328H38.8283C39.3021 11.1328 39.7301 10.8478 39.9109 10.4095C40.0929 9.97119 39.9922 9.4676 39.6569 9.13229L31.4538 0.929238C30.9961 0.471504 30.2544 0.471504 29.7967 0.929238L21.5936 9.13229C21.2583 9.4676 21.1576 9.97111 21.3395 10.4095C21.5204 10.8478 21.9484 11.1328 22.4222 11.1328Z" fill="#FD003A"/>
    <path d="M10.7031 25.1953H7.10938V38.2421H11.875V26.3672C11.875 25.7195 11.3509 25.1953 10.7031 25.1953Z" fill="#FFCC33"/>
    <path d="M22.4219 18.1641H18.9062V38.2421H23.5937V19.3359C23.5937 18.6881 23.0696 18.1641 22.4219 18.1641Z" fill="#1BD9DE"/>
    <path d="M35.3124 38.242V11.1328H38.828C39.3018 11.1328 39.7298 10.8479 39.9106 10.4095C40.0926 9.97125 39.9919 9.46766 39.6566 9.13234L31.4535 0.929297C31.2246 0.700391 30.9248 0.585938 30.625 0.585938V38.242H35.3125V38.242H35.3124Z" fill="#E50027"/>
    <path d="M38.8279 37.0703C8.53359 37.0703 8.75805 37.0703 1.17188 37.0703C0.524141 37.0703 0 37.5945 0 38.2422C0 38.8899 0.524141 39.4141 1.17188 39.4141H38.8279C39.4756 39.4141 39.9998 38.8899 39.9998 38.2422C39.9998 37.5945 39.4756 37.0703 38.8279 37.0703Z" fill="#0D70B2"/>
    <path d="M38.828 37.0703C29.7989 37.0703 23.5087 37.0703 18.9062 37.0703V39.4141H38.828C39.4758 39.4141 39.9999 38.8899 39.9999 38.2422C39.9999 37.5945 39.4758 37.0703 38.828 37.0703Z" fill="#095C92"/>
  </g>
  <defs>
    <clipPath id="clip0_1134_10143">
      <rect width="40" height="40" fill="white"/>
    </clipPath>
  </defs>
</svg>
