<svg width="41" height="41" viewBox="0 0 41 41" fill="none"
  xmlns="http://www.w3.org/2000/svg">
  <path d="M1.41406 29.6899H39.5865V38.1727H1.41406V29.6899Z" fill="#F0C419"/>
  <path d="M41 39.5862C40.9977 40.366 40.3661 40.9976 39.5862 40.9999H1.41381C1.03874 41.0019 0.678966 40.8514 0.417089 40.5829C0.148568 40.321 -0.00197603 39.9612 1.95907e-05 39.5862C0.00234867 38.8063 0.633963 38.1747 1.41381 38.1724H39.5862C40.3646 38.1781 40.9942 38.8077 41 39.5862Z" fill="#3F5C6C"/>
  <path d="M4.94819 11.3102V26.8619H2.12061V11.2183L4.94819 11.3102Z" fill="#A56A43"/>
  <path d="M38.8793 11.2183V26.8619H36.0518V11.3102L38.8793 11.2183Z" fill="#A56A43"/>
  <path d="M10.8862 0L8.05862 7.06897L7.77586 7.77586V8.48276C7.77586 10.0444 6.50991 11.3103 4.94828 11.3103H2.82759C2.07738 11.3113 1.35762 11.0137 0.827146 10.4832C0.296667 9.95272 -0.000937304 9.23297 2.21778e-06 8.48276C0.00122968 8.02176 0.133628 7.57062 0.381726 7.18207L3.90914 1.64C4.55362 0.618458 5.67733 -0.000782117 6.88517 7.42241e-07L10.8862 0Z" fill="#E64C3C"/>
  <path d="M16.2581 0V8.48276C16.2581 10.0444 14.9922 11.3103 13.4306 11.3103H10.603C9.04134 11.3103 7.77539 10.0444 7.77539 8.48276V7.77586L10.8857 0H16.2581Z" fill="#ECF0F1"/>
  <path d="M24.7415 0V8.48276C24.7415 10.0444 23.4756 11.3103 21.914 11.3103H19.0864C17.5247 11.3103 16.2588 10.0444 16.2588 8.48276V0H24.7415Z" fill="#E64C3C"/>
  <path d="M33.224 7.77586V8.48276C33.224 10.0444 31.958 11.3103 30.3964 11.3103H27.5688C26.0072 11.3103 24.7412 10.0444 24.7412 8.48276V0H30.1136L33.224 7.77586Z" fill="#ECF0F1"/>
  <path d="M41.0005 8.48276C41.0014 9.23297 40.7038 9.95272 40.1733 10.4832C39.6428 11.0137 38.9231 11.3113 38.1729 11.3103H36.0522C34.4906 11.3103 33.2246 10.0444 33.2246 8.48276V7.77586L32.9418 7.06897L30.1143 0L34.1153 7.42241e-07C35.3231 -0.000782117 36.4469 0.618458 37.0913 1.64L40.6187 7.18207C40.8668 7.57062 40.9992 8.02176 41.0005 8.48276Z" fill="#E64C3C"/>
  <path d="M33.224 7.77574V8.48264H24.7412V7.06885H32.9412L33.224 7.77574Z" fill="#BDC3C7"/>
  <path d="M16.2581 7.06885V8.48264H7.77539V7.77574L8.05815 7.06885H16.2581Z" fill="#BDC3C7"/>
  <path d="M2.12096 7.06885H8.05889L7.77613 7.77574V8.48264H2.12096C1.73055 8.48264 1.41406 8.16615 1.41406 7.77574C1.41406 7.38534 1.73055 7.06885 2.12096 7.06885Z" fill="#C03A2B"/>
  <path d="M16.2588 7.06885H24.7415V8.48264H16.2588V7.06885Z" fill="#C03A2B"/>
  <path d="M39.5862 7.77574C39.5862 8.16615 39.2697 8.48264 38.8793 8.48264H33.2242V7.77574L32.9414 7.06885H38.8793C39.2697 7.06885 39.5862 7.38534 39.5862 7.77574Z" fill="#C03A2B"/>
  <path d="M39.5862 26.8623H1.41379C0.632977 26.8623 0 27.4953 0 28.2761C0 29.0569 0.632977 29.6899 1.41379 29.6899H39.5862C40.367 29.6899 41 29.0569 41 28.2761C41 27.4953 40.367 26.8623 39.5862 26.8623Z" fill="#547580"/>
  <path d="M8.48229 22.6206H21.2064C21.5968 22.6206 21.9133 22.9371 21.9133 23.3275V26.862H7.77539V23.3275C7.77539 22.9371 8.09188 22.6206 8.48229 22.6206Z" fill="#35495E"/>
  <path d="M14.1375 15.5518H8.48229C8.09188 15.5518 7.77539 15.8682 7.77539 16.2587V17.6724C7.77539 18.0629 8.09188 18.3793 8.48229 18.3793H14.1375C14.5279 18.3793 14.8444 18.0629 14.8444 17.6724V16.2587C14.8444 15.8682 14.5279 15.5518 14.1375 15.5518Z" fill="#2FA8CC"/>
  <path d="M9.89648 18.3794H12.7241V22.6208H9.89648V18.3794Z" fill="#2C3E50"/>
  <path d="M28.2754 21.207L28.9823 26.8622H30.3961H31.8099L32.5168 21.207H28.2754Z" fill="#2FA8CC"/>
</svg>
