<svg width="19" height="18" viewBox="0 0 19 18" fill="none"
  xmlns="http://www.w3.org/2000/svg">
  <path d="M17.9356 9.95314C17.8183 10.1457 17.7427 10.3608 17.7137 10.5845C17.6847 10.8081 17.703 11.0354 17.7674 11.2515C17.8579 11.5409 17.8506 11.852 17.7468 12.1368C17.6271 12.4277 17.4211 12.6749 17.1566 12.845C16.9541 12.9692 16.7863 13.1425 16.6687 13.3489C16.5511 13.5552 16.4875 13.7879 16.4838 14.0254C16.4654 14.3398 16.3443 14.6394 16.1391 14.8783C15.9338 15.1172 15.6557 15.282 15.3477 15.3474C15.1176 15.4007 14.9039 15.5092 14.725 15.6634C14.5462 15.8176 14.4074 16.0129 14.3208 16.2327C14.186 16.5329 13.9598 16.7828 13.6745 16.9468C13.3816 17.1026 13.0475 17.1634 12.7184 17.1209C12.529 17.0891 12.3347 17.1027 12.1515 17.1607C11.9684 17.2186 11.8016 17.3193 11.665 17.4543C11.5148 17.6188 11.3327 17.751 11.1297 17.8428C10.9268 17.9347 10.7073 17.9842 10.4846 17.9884C10.3169 17.9873 10.1502 17.9634 9.98885 17.9176C9.41921 17.76 8.81745 17.76 8.24782 17.9176C8.10593 17.9533 7.96033 17.9721 7.81403 17.9737C7.59197 17.9723 7.37256 17.9253 7.16948 17.8354C6.9664 17.7456 6.78401 17.6148 6.63367 17.4514C6.50358 17.3159 6.34208 17.2145 6.16346 17.1564C5.98485 17.0982 5.79465 17.085 5.60971 17.1179C5.2641 17.1622 4.9132 17.1004 4.60345 16.9409C4.30541 16.7741 4.06938 16.5153 3.93065 16.2031C3.84066 15.9918 3.70256 15.8044 3.52735 15.6558C3.35214 15.5072 3.14466 15.4016 2.92144 15.3474C2.60898 15.2732 2.32925 15.0992 2.1247 14.8516C1.92418 14.588 1.80703 14.2705 1.78829 13.9398C1.78026 13.7387 1.72507 13.5423 1.62716 13.3665C1.52925 13.1907 1.39138 13.0404 1.22467 12.9276C0.927155 12.7358 0.697869 12.4549 0.56957 12.125C0.452616 11.7881 0.442313 11.4233 0.540061 11.0804C0.595355 10.8813 0.602243 10.6719 0.560149 10.4697C0.518056 10.2674 0.428203 10.0782 0.298087 9.91773C0.144671 9.7308 0.0458529 9.50513 0.0125285 9.26561C-0.0207958 9.02609 0.0126674 8.78203 0.109229 8.56031C0.404109 7.89154 0.536573 7.16248 0.495797 6.43271C0.478909 6.18109 0.530653 5.92961 0.645509 5.7051C0.760364 5.48058 0.93402 5.29147 1.14795 5.15792C1.33993 5.0323 1.49905 4.86254 1.61199 4.66284C1.72494 4.46313 1.78842 4.23929 1.79714 4.01002C1.81394 3.6943 1.92956 3.39184 2.12765 3.14541C2.33489 2.90274 2.6139 2.73223 2.92439 2.65851C3.1534 2.61033 3.36729 2.50729 3.5477 2.35824C3.72811 2.20918 3.86965 2.01856 3.96016 1.80275C4.07387 1.50546 4.28305 1.25434 4.55489 1.08878C4.82673 0.923216 5.14585 0.852586 5.46217 0.887969C6.03464 0.935183 6.3799 0.828951 6.69269 0.501401C6.91654 0.259671 7.21077 0.0944915 7.5337 0.0292562C7.86029 -0.0239723 8.19534 0.0287677 8.48979 0.179752C8.69342 0.278894 8.91693 0.330414 9.14342 0.330414C9.3699 0.330414 9.59341 0.278894 9.79704 0.179752C10.0916 0.0167197 10.434 -0.037727 10.7646 0.0259102C11.0952 0.0895474 11.393 0.267229 11.6059 0.527959C11.7357 0.669669 11.8973 0.778589 12.0773 0.845785C12.2574 0.912981 12.4508 0.936539 12.6417 0.914527C13.0072 0.867424 13.3782 0.937693 13.7011 1.11519C14.0146 1.30806 14.2578 1.59673 14.3945 1.93849C14.4664 2.11023 14.5789 2.26197 14.7223 2.3807C14.8657 2.49942 15.0357 2.58159 15.2178 2.62015C15.5748 2.69522 15.8984 2.88236 16.1415 3.15426C16.3697 3.43041 16.4977 3.77575 16.5044 4.13396C16.5536 4.52698 16.7549 4.88505 17.0651 5.13137C17.2836 5.35482 17.4811 5.59781 17.6553 5.85729L17.7704 6.01664C17.8249 6.10388 17.8585 6.20249 17.8688 6.30484C17.879 6.40719 17.8655 6.51052 17.8294 6.60682C17.7334 6.84548 17.6949 7.10337 17.7169 7.35967C17.7389 7.61597 17.8209 7.8635 17.9563 8.08227C18.1279 8.36493 18.2169 8.69 18.2133 9.02065C18.2096 9.35131 18.1134 9.67434 17.9356 9.95314Z" fill="#003BB3"/>
  <path d="M17.9504 8.08516C17.815 7.86639 17.733 7.61886 17.711 7.36256C17.689 7.10626 17.7275 6.84837 17.8235 6.6097C17.8596 6.5134 17.8731 6.41007 17.8629 6.30773C17.8526 6.20538 17.819 6.10676 17.7645 6.01952L17.6494 5.86018C17.4752 5.6007 17.2777 5.35771 17.0592 5.13425C16.7506 4.88619 16.5514 4.52707 16.5044 4.1339C16.497 3.77671 16.3691 3.43251 16.1415 3.15715C15.8984 2.88524 15.5748 2.69811 15.2178 2.62304C15.0357 2.58448 14.8657 2.50231 14.7223 2.38359C14.5789 2.26486 14.4664 2.11312 14.3945 1.94138C14.2578 1.59961 14.0146 1.31095 13.7011 1.11808C13.3782 0.940582 13.0072 0.870313 12.6417 0.917415C12.4508 0.939428 12.2574 0.91587 12.0773 0.848674C11.8973 0.781477 11.7357 0.672557 11.6059 0.530847C11.3934 0.269632 11.0958 0.0913745 10.7652 0.0271936C10.4346 -0.0369873 10.0919 0.0169856 9.79704 0.17969C9.59341 0.278832 9.3699 0.330352 9.14342 0.330352C8.91693 0.330352 8.69342 0.278832 8.48979 0.17969C8.19534 0.0287056 7.86029 -0.0240344 7.5337 0.0291941C7.20929 0.0976544 6.91489 0.267065 6.69269 0.513142C6.3799 0.840692 6.03464 0.946925 5.46217 0.887906C5.1462 0.85232 4.82736 0.922523 4.55557 1.08752C4.28377 1.25252 4.07437 1.503 3.96016 1.79974C3.87003 2.0161 3.72867 2.20731 3.54823 2.3569C3.3678 2.50649 3.1537 2.60998 2.92439 2.65845C2.61503 2.72977 2.33616 2.8971 2.12765 3.13649C1.92956 3.38292 1.81394 3.68538 1.79714 4.00111C1.78842 4.23037 1.72494 4.45422 1.61199 4.65392C1.49905 4.85363 1.33993 5.02339 1.14795 5.14901C0.93402 5.28255 0.760364 5.47167 0.645509 5.69618C0.530653 5.92069 0.478909 6.17218 0.495797 6.4238C0.537985 7.15652 0.405491 7.88877 0.109229 8.56025C0.0126674 8.78196 -0.0207958 9.02603 0.0125285 9.26555C0.0458529 9.50507 0.144671 9.73073 0.298087 9.91767C0.426692 10.0789 0.514939 10.2685 0.555486 10.4708C0.596034 10.673 0.58771 10.882 0.531208 11.0803C0.43346 11.4233 0.443764 11.788 0.560717 12.1249C0.691348 12.4561 0.923858 12.7372 1.22467 12.9276C1.39217 13.0409 1.53052 13.1922 1.62847 13.3691C1.72642 13.546 1.78118 13.7436 1.78829 13.9456C1.80703 14.2763 1.92418 14.5939 2.1247 14.8575C2.33013 15.1028 2.60976 15.2748 2.92144 15.3473C3.14533 15.3984 3.35422 15.501 3.53147 15.647C3.70873 15.793 3.84945 15.9784 3.94245 16.1883C4.08118 16.5004 4.31722 16.7592 4.61526 16.9261C4.91999 17.0883 5.26649 17.1552 5.60971 17.1179C5.79425 17.0879 5.98331 17.1038 6.1603 17.164C6.3373 17.2242 6.4968 17.3269 6.62482 17.4631C6.77516 17.6266 6.95755 17.7573 7.16063 17.8472C7.36371 17.937 7.58312 17.9841 7.80518 17.9854C7.95148 17.9838 8.09707 17.965 8.23896 17.9294C8.8086 17.7717 9.41036 17.7717 9.98 17.9294C10.1413 17.9752 10.3081 17.999 10.4757 18.0002C10.6984 17.9959 10.918 17.9464 11.1209 17.8546C11.3238 17.7627 11.5059 17.6306 11.6561 17.4661C11.7923 17.3271 11.9599 17.2229 12.1448 17.1623C12.3297 17.1017 12.5264 17.0864 12.7184 17.1179C13.0475 17.1604 13.3816 17.0996 13.6745 16.9438C13.9594 16.7806 14.1855 16.5317 14.3208 16.2326C14.4074 16.0129 14.5462 15.8175 14.725 15.6633C14.9039 15.5091 15.1176 15.4007 15.3477 15.3473C15.6551 15.2806 15.9322 15.1149 16.1363 14.8755C16.3405 14.6362 16.4605 14.3365 16.4779 14.0224C16.4816 13.7849 16.5452 13.5522 16.6628 13.3458C16.7804 13.1395 16.9482 12.9662 17.1507 12.842C17.4152 12.6719 17.6212 12.4247 17.7409 12.1338C17.8447 11.849 17.852 11.5379 17.7615 11.2485C17.6971 11.0324 17.6788 10.8051 17.7078 10.5815C17.7368 10.3578 17.8124 10.1427 17.9297 9.95013C18.1064 9.67198 18.2019 9.35006 18.2055 9.02058C18.2092 8.69111 18.1208 8.36715 17.9504 8.08516ZM17.6789 9.81143C17.5422 10.0383 17.4546 10.2912 17.4215 10.5539C17.3885 10.8167 17.4108 11.0834 17.4871 11.337C17.5641 11.5737 17.5568 11.8297 17.4664 12.0615C17.376 12.2934 17.2082 12.4868 16.9913 12.6089C16.7526 12.7594 16.5549 12.9668 16.4159 13.2124C16.2768 13.4581 16.2008 13.7343 16.1946 14.0165C16.1791 14.2679 16.082 14.5075 15.9179 14.6987C15.7539 14.8899 15.5319 15.0223 15.2857 15.0758C15.0143 15.1343 14.761 15.2574 14.5473 15.4346C14.3336 15.6118 14.1658 15.838 14.0581 16.0939C13.9539 16.3453 13.7678 16.5541 13.5299 16.6865C13.2921 16.8188 13.0165 16.8668 12.7479 16.8228C12.5147 16.7859 12.2761 16.8046 12.0515 16.8774C11.8269 16.9503 11.6227 17.0751 11.4554 17.2418C11.2856 17.4351 11.0631 17.5746 10.8152 17.6432C10.5673 17.7119 10.3047 17.7067 10.0597 17.6284C9.77136 17.5484 9.47359 17.5077 9.1744 17.5074C8.83574 17.5097 8.49869 17.5543 8.17109 17.6402C8.05368 17.6716 7.93264 17.6875 7.81108 17.6874C7.63008 17.6861 7.45134 17.6471 7.28623 17.5729C7.12112 17.4987 6.97325 17.391 6.85204 17.2566C6.6925 17.0881 6.49461 16.9607 6.27522 16.8851C6.05583 16.8096 5.82144 16.7882 5.59201 16.8228C5.31031 16.8709 5.02059 16.8233 4.76917 16.6874C4.51775 16.5515 4.31914 16.3353 4.20508 16.0732C4.09545 15.8237 3.92893 15.6032 3.71884 15.4295C3.50876 15.2558 3.26094 15.1337 2.99521 15.0729C2.73286 15.0151 2.49805 14.8696 2.32958 14.6604C2.16112 14.4511 2.06906 14.1907 2.06863 13.922C2.05957 13.6782 1.99344 13.4398 1.87557 13.2261C1.7577 13.0124 1.59137 12.8293 1.38992 12.6915C1.13519 12.5374 0.94038 12.3014 0.837436 12.022C0.734491 11.7427 0.729524 11.4366 0.823347 11.1541C0.889391 10.9124 0.897078 10.6585 0.845774 10.4133C0.79447 10.168 0.685644 9.9385 0.528257 9.74356C0.406148 9.59676 0.326485 9.41938 0.29788 9.23058C0.269275 9.04179 0.292815 8.84877 0.365957 8.67239C0.680556 7.96332 0.821186 7.18936 0.776133 6.41495C0.763889 6.21449 0.806279 6.01448 0.898783 5.83622C0.991287 5.65797 1.13044 5.50817 1.30139 5.40279C1.52962 5.2527 1.71898 5.05059 1.8539 4.81307C1.98882 4.57556 2.06544 4.30941 2.07748 4.03652C2.08217 3.77742 2.17645 3.52795 2.3443 3.33051C2.51215 3.13307 2.7432 2.99987 2.99816 2.95354C3.26996 2.895 3.52357 2.77157 3.73733 2.59378C3.95109 2.41599 4.11866 2.18911 4.22574 1.93253C4.3152 1.69198 4.48192 1.48791 4.69979 1.35227C4.91767 1.21664 5.17437 1.1571 5.42971 1.183C5.69575 1.23207 5.96981 1.21435 6.22732 1.13143C6.48483 1.04852 6.71773 0.902989 6.90516 0.707901C7.08069 0.50216 7.32154 0.362935 7.58743 0.313517C7.85332 0.264098 8.12812 0.307485 8.36585 0.436419C8.60682 0.555127 8.87185 0.616864 9.14046 0.616864C9.40908 0.616864 9.67411 0.555127 9.91508 0.436419C10.1558 0.301554 10.4368 0.257174 10.7073 0.311285C10.9779 0.365397 11.2202 0.514437 11.3905 0.731509C11.55 0.905382 11.7484 1.03906 11.9695 1.12163C12.1905 1.2042 12.4279 1.23332 12.6624 1.2066C12.969 1.15239 13.2849 1.20939 13.5532 1.36735C13.8215 1.52532 14.0246 1.77387 14.126 2.06827C14.2155 2.28171 14.3554 2.47026 14.5337 2.61776C14.7121 2.76527 14.9235 2.86732 15.15 2.91518C15.4461 2.96282 15.7155 3.11428 15.9102 3.34243C16.1048 3.57059 16.2119 3.86056 16.2123 4.16046C16.2647 4.62408 16.498 5.04827 16.8615 5.34082C17.0647 5.55277 17.2494 5.78182 17.4133 6.02543L17.5255 6.18478C17.5523 6.23138 17.5683 6.2834 17.5724 6.33702C17.5765 6.39064 17.5685 6.44449 17.5491 6.49462C17.4363 6.77628 17.3919 7.08069 17.4196 7.38283C17.4473 7.68498 17.5463 7.97624 17.7084 8.2327C17.8536 8.47161 17.9278 8.74685 17.9226 9.02635C17.9174 9.30585 17.8329 9.57811 17.6789 9.81143Z" fill="#003BB3"/>
  <path d="M6.50879 9.9848L6.89536 9.61889L7.74817 10.5042L10.3479 6.86865L10.7965 7.19325L7.84555 11.3245L6.50879 9.9848Z" fill="white"/>
  <path d="M9.09713 15.5059H8.95254V14.8685H9.35681L9.37747 15.5059H9.08238H9.09713ZM9.06172 15.3997H9.27419L9.25944 14.9777H9.06763L9.06172 15.3997ZM8.4863 15.4794H8.43318L8.10858 15.4381H8.05547L8.15285 14.8066H8.20596L8.50105 14.8449H8.55417L8.4863 15.4794ZM8.19121 15.3318C8.25908 15.3318 8.3299 15.3525 8.40072 15.3584L8.44499 14.9394L8.25318 14.9157L8.19121 15.3318ZM9.86437 15.4646L9.7847 14.8302H9.84076L10.1359 14.7859H10.189L10.3011 15.4144H10.248C10.1418 15.4322 10.0326 15.4499 9.92634 15.4617L9.86437 15.4646ZM9.90568 14.9246L9.94699 15.3466L10.1565 15.3141L10.0857 14.898L9.90568 14.9246ZM7.59513 15.3466H7.54201C7.43873 15.32 7.3325 15.2905 7.22921 15.258H7.1761L7.35905 14.6472H7.41217L7.70726 14.7269H7.76038L7.59513 15.3466ZM7.30004 15.1577L7.50365 15.2167L7.60693 14.8066L7.43283 14.7564L7.30004 15.1577ZM10.729 15.3112L10.5608 14.6944H10.6139L10.909 14.6089L10.9621 14.5911L11.1598 15.199L11.1096 15.2167C11.0064 15.2492 10.9001 15.2817 10.7939 15.3082L10.729 15.3112ZM10.7054 14.7564L10.8175 15.1636L11.0211 15.1017L10.8883 14.7033L10.7054 14.7564ZM6.73346 15.0515H6.6833L6.38821 14.9216L6.33804 14.898L6.60657 14.3079L6.65379 14.3285C6.74527 14.3728 6.83674 14.4111 6.92527 14.4466L6.97544 14.4672L6.73346 15.0515ZM6.49444 14.8361L6.6892 14.9216L6.8456 14.5292L6.65674 14.4613L6.49444 14.8361ZM11.6084 15.0072L11.3575 14.417L11.4077 14.3964L11.6733 14.2754L11.7234 14.2518L12.0038 14.8243L11.9566 14.8479C11.8592 14.8951 11.7588 14.9423 11.6615 14.9836L11.6084 15.0072ZM11.4992 14.479L11.6674 14.8656L11.8592 14.7771L11.6733 14.3993L11.4992 14.479ZM5.93377 14.6738L5.88655 14.6472C5.79212 14.5941 5.70065 14.5351 5.60917 14.4761L5.56195 14.4466L5.90426 13.9124L5.95147 13.9419L6.2023 14.0954L6.24951 14.122L5.93377 14.6738ZM5.71245 14.4141L5.89541 14.5262L6.09017 14.1662L5.92492 14.0659L5.71245 14.4141ZM12.3962 14.6029L12.0657 14.057L12.113 14.0275L12.3608 13.8711L12.4051 13.8387L12.7622 14.3669L12.7179 14.3993L12.4435 14.5734L12.3962 14.6029ZM12.2162 14.0924L12.4376 14.4613C12.4966 14.4259 12.5556 14.3875 12.6146 14.3462L12.3785 13.998L12.2162 14.0924ZM5.16653 14.1662L5.12227 14.1308C5.03669 14.0659 4.95407 13.9951 4.87144 13.9242L4.83013 13.8888L5.24621 13.4049L5.28752 13.4403C5.36129 13.5052 5.43802 13.5672 5.51474 13.6292L5.559 13.6616L5.16653 14.1662ZM4.98358 13.8711C5.03669 13.9183 5.09276 13.9626 5.14883 14.0069L5.40556 13.6734L5.25801 13.5524L4.98358 13.8711ZM13.1399 14.0718L12.7385 13.576H12.7799C12.8566 13.5141 12.9304 13.4491 13.0041 13.3842L13.0425 13.3459L13.4704 13.821L13.432 13.8564C13.3494 13.9311 13.2668 14.0019 13.1841 14.0688L13.1399 14.0718ZM12.889 13.5908L13.1576 13.9183L13.3169 13.7796L13.0366 13.4669C12.9864 13.5259 12.9392 13.576 12.889 13.6085V13.5908ZM4.49078 13.576L4.45242 13.5377C4.37569 13.4609 4.30192 13.3783 4.2311 13.2987L4.19569 13.2573L4.67373 12.8354L4.70914 12.8767C4.77406 12.9504 4.84193 13.0242 4.9098 13.095L4.94817 13.1334L4.49078 13.576ZM4.34913 13.2809L4.49078 13.4373L4.78587 13.1423L4.66488 12.9859L4.34913 13.2809ZM13.792 13.4905L13.3258 13.0537L13.3612 13.0154C13.4281 12.9445 13.493 12.8708 13.5559 12.794L13.5914 12.7527L14.0812 13.1629L14.0458 13.2042C13.975 13.2898 13.9012 13.3695 13.8304 13.4491L13.792 13.4905ZM13.4763 13.0478L13.7714 13.3429L13.913 13.1836L13.5884 12.9121C13.5766 12.9416 13.5323 12.9859 13.4881 13.036L13.4763 13.0478ZM3.89174 12.9062L3.85928 12.8649C3.79436 12.7763 3.73239 12.6849 3.67338 12.5963L3.64387 12.5491L4.17503 12.2009L4.20749 12.2452C4.25766 12.3249 4.31372 12.4075 4.37274 12.4872L4.4052 12.5314L3.89174 12.9062ZM3.79436 12.5816C3.83273 12.6406 3.87404 12.6996 3.91535 12.7557L4.2547 12.5078L4.14552 12.3485L3.79436 12.5816ZM14.3645 12.7911L13.8422 12.4252L13.8717 12.3809C13.9278 12.3012 13.9838 12.2186 14.034 12.136L14.0635 12.0917L14.6035 12.4281L14.577 12.4753C14.5179 12.5668 14.4589 12.6583 14.397 12.7468L14.3645 12.7911ZM14.0045 12.3957L14.3497 12.6376C14.3911 12.5786 14.4294 12.5196 14.4678 12.4606L14.1107 12.2363L14.0045 12.3957ZM3.41665 12.1448L3.39009 12.1006C3.33992 12.0062 3.28976 11.9088 3.24255 11.8055L3.21894 11.7583L3.80912 11.4838L3.83273 11.534C3.87404 11.6196 3.9183 11.7081 3.96552 11.7966L3.98912 11.8439L3.41665 12.1448ZM3.36353 11.8055L3.46091 11.9944L3.83863 11.8055L3.7501 11.6343L3.36353 11.8055ZM14.8455 12.015L14.2789 11.7199L14.3025 11.6727C14.3468 11.5842 14.3881 11.4957 14.4294 11.4071L14.4501 11.357L15.0403 11.6166L15.0166 11.6668C14.9753 11.7642 14.9281 11.8645 14.878 11.9619L14.8455 12.015ZM14.4235 11.6786L14.7983 11.8704C14.8307 11.8055 14.8602 11.7406 14.8898 11.6786L14.5061 11.5104C14.4796 11.5576 14.4619 11.6166 14.4235 11.6727V11.6786ZM3.03893 11.3156L3.02123 11.2655C2.98188 11.1612 2.94647 11.0579 2.915 10.9556V10.9055L3.52288 10.7166L3.54059 10.7668C3.5701 10.8612 3.5996 10.9556 3.63502 11.0619L3.65272 11.112L3.03893 11.3156ZM3.03893 10.9763C3.05959 11.0442 3.0832 11.112 3.1068 11.177L3.50222 11.0324L3.44026 10.8524L3.03893 10.9763ZM15.2085 11.1799L14.6035 10.9733L14.6212 10.9232C14.6537 10.8317 14.6832 10.7373 14.7098 10.6428L14.7245 10.5897L15.3383 10.7668L15.3235 10.8169C15.294 10.9232 15.2616 11.0265 15.2262 11.1297L15.2085 11.1799ZM14.7393 10.9202L15.1376 11.0589C15.1583 10.991 15.1819 10.9232 15.1996 10.8553L14.7953 10.7402C14.7776 10.7845 14.757 10.8465 14.7393 10.9202ZM2.7822 10.451V10.3979C2.7586 10.2946 2.73794 10.1854 2.72024 10.0792V10.0261L3.35173 9.92282V9.97593C3.35173 10.0733 3.38419 10.1707 3.40484 10.271V10.3241L2.7822 10.451ZM2.82647 10.1146C2.82647 10.1854 2.85008 10.2533 2.86483 10.3241L3.27796 10.2356C3.27796 10.1736 3.2514 10.1087 3.24255 10.0468L2.82647 10.1146ZM15.4445 10.3094L14.816 10.1914V10.1382C14.8337 10.0438 14.8484 9.94643 14.8632 9.84314V9.79003L15.4976 9.87856V9.93167C15.4976 10.0379 15.4652 10.1471 15.4445 10.2533V10.3094ZM14.9429 10.1058L15.356 10.1825C15.356 10.1146 15.3826 10.0438 15.3914 9.97298L14.9753 9.91692C14.9665 9.97889 14.9547 10.035 14.9429 10.1058ZM2.65827 9.55986V9.50674C2.65827 9.39756 2.65827 9.28838 2.65827 9.17919V9.12608L3.29566 9.11132V9.16739C3.29566 9.26477 3.29566 9.36215 3.29566 9.46248V9.51855L2.65827 9.55986ZM2.74974 9.23231V9.44477L3.17172 9.41526C3.17172 9.35034 3.17172 9.28542 3.17172 9.22345L2.74974 9.23231ZM15.5685 9.41526L14.9311 9.3828V9.32969C14.9311 9.23231 14.9311 9.13493 14.9311 9.0346V8.94607H15.5685V9.03755C15.5685 9.14673 15.5685 9.25887 15.5685 9.3651V9.41526ZM15.0462 9.28247L15.4652 9.30313C15.4652 9.2205 15.4652 9.13493 15.4652 9.0523H15.0521C15.0521 9.12903 15.0521 9.20575 15.0343 9.28247H15.0462ZM3.28386 8.69229L2.64941 8.65098V8.59491C2.64941 8.48868 2.66712 8.3795 2.67892 8.27031V8.2172L3.31337 8.29097V8.34409C3.31337 8.44147 3.29271 8.5418 3.28681 8.63918L3.28386 8.69229ZM2.7527 8.5595L3.17172 8.58901L3.18943 8.3972L2.7704 8.34999L2.7527 8.5595ZM14.9104 8.53885V8.48573C14.9104 8.38835 14.8898 8.28802 14.875 8.19064V8.13457L15.5065 8.04309V8.09621C15.5242 8.20539 15.536 8.31458 15.5449 8.42081V8.47688L14.9104 8.53885ZM14.9842 8.229C14.9842 8.29392 15.0019 8.35589 15.0078 8.42081L15.4268 8.3795C15.4268 8.31163 15.4121 8.2408 15.4003 8.16998L14.9842 8.229ZM3.37534 7.89555L2.74974 7.76276V7.70964C2.77335 7.60636 2.79696 7.49718 2.82352 7.3939L2.83827 7.34078L3.45501 7.50308V7.55324C3.42845 7.64767 3.4078 7.74505 3.38714 7.84833L3.37534 7.89555ZM2.87958 7.67423L3.29271 7.75981C3.29271 7.69784 3.31927 7.63587 3.33402 7.5739L2.9268 7.46767C2.90909 7.54144 2.89434 7.61226 2.87958 7.67423ZM14.7835 7.72735V7.67423C14.7629 7.5798 14.7363 7.48242 14.7098 7.37914L14.692 7.32898L15.3058 7.14897V7.20209C15.3383 7.30832 15.3649 7.41455 15.3914 7.51783V7.57095L14.7835 7.72735ZM14.816 7.4116C14.8337 7.47357 14.8484 7.53554 14.8661 7.59456L15.2734 7.49718C15.2596 7.43029 15.2419 7.36242 15.2203 7.29357L14.816 7.4116ZM3.5878 7.11651L2.99762 6.89814L3.01533 6.84798C3.05369 6.74765 3.09205 6.64437 3.13336 6.55289L3.15697 6.50272L3.74715 6.74765L3.72649 6.79781C3.68813 6.88929 3.65272 6.98077 3.62026 7.0752L3.5878 7.11651ZM3.12746 6.82142L3.52288 6.96602L3.5937 6.78601L3.20418 6.62371C3.17763 6.69453 3.15107 6.7624 3.12746 6.82732V6.82142ZM14.5475 6.94831L14.5297 6.89814C14.4943 6.80667 14.456 6.71519 14.4147 6.62666L14.3911 6.57945L14.9812 6.31387L15.0048 6.36403C15.0491 6.46436 15.0934 6.56469 15.1317 6.65912L15.1524 6.70929L14.5475 6.94831ZM14.5475 6.63256C14.574 6.69158 14.5976 6.74765 14.6212 6.80667L15.0137 6.65322C14.9871 6.5883 14.9606 6.52338 14.9311 6.45846L14.5475 6.63256ZM3.9242 6.35813L3.36058 6.06304L3.38714 6.01582C3.4373 5.91844 3.49337 5.82402 3.54649 5.72073L3.576 5.67352L4.12191 5.99812L4.09536 6.04533C4.04519 6.13091 3.99798 6.21649 3.95076 6.30206L3.9242 6.35813ZM3.50813 6.01287L3.87994 6.21058L3.97437 6.04238L3.61141 5.82697L3.50813 6.01287ZM14.2199 6.21058L14.1668 6.16927C14.1196 6.08665 14.0694 6.00107 14.0163 5.91844L13.9868 5.87123L14.5268 5.53188L14.5563 5.57614C14.6153 5.66762 14.6714 5.76205 14.7245 5.85648L14.757 5.90369L14.2199 6.21058ZM14.1638 5.91549C14.1963 5.96861 14.2317 6.02468 14.2612 6.07779L14.6301 5.87123L14.5209 5.69123L14.1638 5.91549ZM4.33438 5.66762L3.81502 5.29285L3.84748 5.24859C3.9124 5.16301 3.97732 5.07449 4.04519 4.98891L4.0806 4.9476L4.5793 5.34597L4.54389 5.39023C4.48192 5.46401 4.42291 5.54368 4.36684 5.62335L4.33438 5.66762ZM3.96847 5.26925L4.31077 5.51712C4.34618 5.46401 4.3875 5.41384 4.42586 5.36368L4.09831 5.10105L3.96847 5.26925ZM13.7655 5.53483L13.733 5.49352C13.674 5.41679 13.6091 5.33712 13.5471 5.26334L13.5117 5.22203L13.9986 4.80891L14.034 4.85022C14.1048 4.93284 14.1727 5.01842 14.2376 5.104L14.2701 5.14826L13.7655 5.53483ZM13.6651 5.23974L13.7832 5.39023L14.1196 5.13351L13.9868 4.96825L13.6651 5.23974ZM4.84784 5.04498L4.3875 4.60234L4.42586 4.56398C4.50258 4.48431 4.5793 4.40758 4.65898 4.33381L4.69734 4.29545L5.13407 4.75874L5.09571 4.7971L4.8862 5.00367L4.84784 5.04498ZM4.55275 4.59939L4.84784 4.89448C4.8921 4.84727 4.93931 4.803 4.98358 4.75874L4.68849 4.46365L4.55275 4.59939ZM13.2432 4.92694L13.2048 4.88858C13.1369 4.82071 13.0661 4.75284 12.9894 4.68792L12.951 4.64956L13.3759 4.17446L13.4143 4.20987C13.4969 4.28365 13.5766 4.35742 13.6533 4.43414L13.6917 4.4725L13.2432 4.92694ZM13.1045 4.63185L13.2432 4.76169L13.5382 4.4666L13.3848 4.32201L13.1045 4.63185ZM5.45867 4.4784L5.05145 3.9856L5.09276 3.95019C5.17834 3.88527 5.26686 3.8174 5.35539 3.75543L5.39965 3.72297L5.76852 4.24528L5.72425 4.27479L5.48818 4.45185L5.45867 4.4784ZM5.2167 3.99741L5.47638 4.32791L5.62982 4.21282L5.3849 3.87052L5.2167 3.99741ZM12.6323 4.37807L12.5881 4.34561C12.5113 4.28955 12.4287 4.23053 12.3461 4.17741L12.3018 4.1479L12.6559 3.61674L12.7031 3.64625C12.7917 3.70527 12.8802 3.77019 12.9687 3.83511L13.013 3.86757L12.6323 4.37807ZM12.4405 4.13315C12.4936 4.16856 12.5467 4.20397 12.5969 4.24233L12.8477 3.90593C12.7917 3.86167 12.7326 3.82035 12.6736 3.78199L12.4405 4.13315ZM6.11377 4.02987L5.79212 3.47805L5.83934 3.45149C5.93377 3.39837 6.0282 3.34526 6.13443 3.29509L6.18164 3.26854L6.47673 3.83511L6.42657 3.86167L6.16984 4.00331L6.11377 4.02987ZM5.93967 3.51936L6.15213 3.88232L6.32034 3.79084L6.12558 3.41608L5.93967 3.51936ZM11.9389 3.94724L11.8916 3.92364C11.8061 3.87642 11.7175 3.82921 11.629 3.78789L11.5818 3.76429L11.8592 3.17411L11.9064 3.19771C12.0067 3.24493 12.1051 3.29509 12.2015 3.34821L12.2487 3.37477L11.9389 3.94724ZM11.7264 3.71412C11.7825 3.74363 11.8385 3.77019 11.8946 3.80265L12.1012 3.42198L11.9123 3.3246L11.7264 3.71412ZM6.83969 3.66396L6.59772 3.07378L6.64789 3.05312C6.74822 3.01181 6.84855 2.97344 6.94298 2.93803L6.99609 2.91738L7.20561 3.52231L7.15544 3.54002L6.88101 3.6433L6.83969 3.66396ZM6.73936 3.13279L6.89871 3.52231L7.07872 3.45444L6.93707 3.05607L6.73936 3.13279ZM11.2159 3.59313L11.1628 3.57543C11.0713 3.54002 10.9798 3.50756 10.8854 3.47805L10.8323 3.46034L11.027 2.85246L11.0801 2.87016C11.1844 2.90164 11.2828 2.93705 11.3752 2.9764L11.4254 2.99705L11.2159 3.59313ZM10.971 3.38952L11.151 3.45444L11.2985 3.05902L11.0978 2.99115L10.971 3.38952ZM7.62168 3.38952L7.45348 2.77573L7.50365 2.76098L7.82234 2.69016H7.87546L8.00235 3.31575H7.94923C7.85185 3.33345 7.75743 3.35706 7.65414 3.38067L7.62168 3.38952ZM7.59513 2.84951L7.6748 3.26263L7.86071 3.22132L7.78103 2.80819C7.72201 2.82 7.65414 2.8377 7.58332 2.85246L7.59513 2.84951ZM10.4368 3.35116H10.3837C10.2893 3.3305 10.1919 3.30985 10.0886 3.29509H10.0355L10.1388 2.6577H10.1919L10.5106 2.72262H10.5637L10.4368 3.35116ZM10.1683 3.18591L10.3542 3.22132L10.4457 2.81115L10.2391 2.76983L10.1683 3.18591ZM8.40662 3.24788L8.33875 2.61344H8.39187C8.50007 2.60163 8.60925 2.59278 8.71942 2.58688H8.77254L8.80795 3.22427H8.75483L8.45974 3.24788H8.40662ZM8.45974 2.71081L8.504 3.12984L8.69581 3.11214L8.66925 2.68721C8.59843 2.69016 8.52761 2.69606 8.45974 2.70491V2.71081ZM9.62239 3.23017H9.56928C9.4719 3.23017 9.37452 3.21542 9.27419 3.21247H9.22107L9.23878 2.57507H9.29485C9.40108 2.57507 9.51321 2.57507 9.61944 2.59278H9.67256L9.62239 3.23017ZM9.32731 3.10328H9.51616L9.55157 2.68426H9.33911L9.32731 3.10328Z" fill="white"/>
</svg>
