<svg width="40" height="40" viewBox="0 0 40 40" fill="none"
  xmlns="http://www.w3.org/2000/svg">
  <g clip-path="url(#clip0_1134_10152)">
    <path d="M35.3107 26.7117C34.2355 29.6256 32.6096 32.1591 30.4773 34.2413C28.0502 36.6113 24.8721 38.4946 21.0312 39.838C20.9052 39.8819 20.7736 39.9179 20.6415 39.9445C20.4669 39.979 20.2893 39.9976 20.1132 40H20.0787C19.8911 40 19.7025 39.9811 19.5154 39.9445C19.3832 39.9179 19.2535 39.8819 19.1281 39.8389C15.2826 38.4976 12.1005 36.6153 9.67101 34.2453C7.53783 32.1631 5.91216 29.6311 4.83855 26.7172C2.88634 21.4194 2.99743 15.5832 3.08684 10.8932L3.08837 10.8212C3.10637 10.4339 3.11797 10.0271 3.12438 9.57793C3.15703 7.37242 4.91057 5.54777 7.11639 5.42479C11.7154 5.16814 15.2731 3.6682 18.313 0.705241L18.3395 0.680826C18.8443 0.217874 19.4803 -0.00917668 20.1132 0.000283821C20.7236 0.00821842 21.3315 0.234964 21.8182 0.680826L21.8442 0.705241C24.8847 3.6682 28.4424 5.16814 33.0414 5.42479C35.2472 5.54777 37.0008 7.37242 37.0334 9.57793C37.0398 10.0302 37.0514 10.4364 37.0694 10.8212L37.0703 10.8517C37.1594 15.5505 37.2699 21.3983 35.3107 26.7117Z" fill="#00DD80"/>
    <path d="M35.3107 26.7114C34.2356 29.6253 32.6096 32.1588 30.4774 34.2411C28.0503 36.611 24.8722 38.4943 21.0313 39.8377C20.9052 39.8816 20.7737 39.9176 20.6415 39.9442C20.467 39.9787 20.2894 39.9973 20.1133 39.9997V0C20.7236 0.0079346 21.3315 0.23468 21.8183 0.680543L21.8442 0.704957C24.8847 3.66791 28.4425 5.16785 33.0415 5.4245C35.2473 5.54749 37.0008 7.37214 37.0335 9.57764C37.0399 10.0299 37.0515 10.4361 37.0695 10.8209L37.0704 10.8514C37.1595 15.5502 37.27 21.398 35.3107 26.7114Z" fill="#00AA63"/>
    <path d="M30.047 20.0001C30.047 25.4851 25.5935 29.9498 20.1132 29.9693H20.0781C14.5815 29.9693 10.1089 25.497 10.1089 20.0001C10.1089 14.5036 14.5815 10.0312 20.0781 10.0312H20.1132C25.5935 10.0508 30.047 14.5155 30.047 20.0001Z" fill="white"/>
    <path d="M30.0471 20.0001C30.0471 25.4851 25.5936 29.9498 20.1133 29.9693V10.0312C25.5936 10.0508 30.0471 14.5155 30.0471 20.0001Z" fill="#E1EBF0"/>
    <path d="M24.6028 18.5641L20.113 23.0545L19.1429 24.0246C18.9137 24.2538 18.6131 24.3682 18.3128 24.3682C18.0122 24.3682 17.7119 24.2538 17.4824 24.0246L15.3965 21.9378C14.9381 21.4795 14.9381 20.737 15.3965 20.2783C15.8543 19.8199 16.5977 19.8199 17.0561 20.2783L18.3128 21.535L22.9432 16.9046C23.4016 16.4459 24.145 16.4459 24.6028 16.9046C25.0611 17.3629 25.0611 18.1063 24.6028 18.5641Z" fill="#B4D2D7"/>
    <path d="M24.603 18.5641L20.1133 23.0545V19.7345L22.9435 16.9046C23.4019 16.4459 24.1453 16.4459 24.603 16.9046C25.0614 17.3629 25.0614 18.1063 24.603 18.5641Z" fill="#6FA5AA"/>
  </g>
  <defs>
    <clipPath id="clip0_1134_10152">
      <rect width="40" height="40" fill="white"/>
    </clipPath>
  </defs>
</svg>
