<svg width="41" height="41" viewBox="0 0 41 41" fill="none"
  xmlns="http://www.w3.org/2000/svg">
  <path d="M41 20.5C41 20.251 40.9955 20.0029 40.9868 19.756C40.5951 8.7788 31.5728 0 20.5 0C9.4272 0 0.404875 8.7788 0.013293 19.756C0.00448437 20.0029 0 20.251 0 20.5C0 31.8218 10.5304 40.2561 20.5 40.2561C30.6502 40.2561 41 31.8218 41 20.5Z" fill="#FF5876"/>
  <path d="M20.5 39.5121C9.42736 39.5121 0.406637 30.733 0.0148945 19.756C0.00600586 20.0031 0 20.2508 0 20.5C0 31.8218 9.17815 41 20.5 41C31.8218 41 41 31.8218 41 20.5C41 20.2508 40.994 20.0031 40.9852 19.7561C40.5934 30.7331 31.5726 39.5121 20.5 39.5121Z" fill="#E6485D"/>
  <path d="M37.5901 19.756C37.2006 10.6538 29.698 3.39392 20.4999 3.39392C11.3017 3.39392 3.79917 10.6538 3.40967 19.756C3.3991 20.0028 3.40959 36.5181 20.4999 36.5181C37.5901 36.5181 37.6006 20.0028 37.5901 19.756Z" fill="#E4EEF9"/>
  <path d="M20.4997 36.1182C11.3016 36.1182 3.80027 28.8581 3.41061 19.756C3.40004 20.0028 3.39355 20.2505 3.39355 20.4999C3.39355 29.9474 11.0522 37.606 20.4997 37.606C29.9471 37.606 37.6058 29.9474 37.6058 20.5C37.6058 20.2506 37.5992 20.0028 37.5888 19.7561C37.1991 28.8582 29.6978 36.1182 20.4997 36.1182Z" fill="#D5E0F2"/>
  <path d="M26.7138 14.4982C26.2262 14.0173 25.4411 14.0227 24.9603 14.5102L22.0508 17.46L22.3431 18.8643L23.7022 19.3171L26.7259 16.2516C27.2067 15.7641 27.2013 14.979 26.7138 14.4982Z" fill="#405B6C"/>
  <path d="M18.7445 17.573L12.1459 11.6927C11.6346 11.237 10.8508 11.2822 10.3953 11.7935C9.93972 12.3047 9.9848 13.0885 10.4961 13.5441L17.2247 19.5402L18.6268 19.0725L18.7445 17.573Z" fill="#405B6C"/>
  <path d="M29.2798 28.4947C29.139 28.4947 28.9976 28.4471 28.8814 28.3495L21.0279 21.7528C20.7658 21.5326 20.7316 21.1415 20.9519 20.8794C21.1721 20.6171 21.5631 20.5831 21.8254 20.8034L29.6789 27.4001C29.941 27.6204 29.9751 28.0115 29.7549 28.2736C29.6323 28.4195 29.4566 28.4947 29.2798 28.4947Z" fill="#86DCFF"/>
  <path d="M17.2246 19.5401L18.3825 20.572L19.8696 20.0667L19.789 18.5036L18.7445 17.5729C18.0178 18.0095 17.4677 18.7092 17.2246 19.5401Z" fill="#2D4456"/>
  <path d="M22.0509 17.4601L21.0664 18.4582V20.4174H22.6172L23.7024 19.3172C23.4042 18.5103 22.8095 17.8478 22.0509 17.4601Z" fill="#2D4456"/>
  <path d="M22.4842 19.756C22.1829 18.9528 21.408 18.3811 20.4996 18.3811C19.5912 18.3811 18.8163 18.9528 18.515 19.756C18.4282 19.9875 18.5093 21.875 20.4996 21.875C22.49 21.875 22.571 19.9875 22.4842 19.756Z" fill="#FF5876"/>
  <path d="M20.4998 21.131C19.5914 21.131 18.8168 20.5593 18.5156 19.7561C18.4287 19.9876 18.3809 20.2382 18.3809 20.5C18.3809 21.6703 19.3295 22.6189 20.4997 22.6189C21.67 22.6189 22.6186 21.6702 22.6186 20.5C22.6186 20.2382 22.5708 19.9876 22.484 19.7561C22.1828 20.5592 21.4082 21.131 20.4998 21.131Z" fill="#E6485D"/>
  <path d="M21.1212 7.4932V5.56916C21.1212 5.22611 20.8431 4.948 20.5001 4.948C20.157 4.948 19.8789 5.22611 19.8789 5.56916V7.4932C19.8789 7.83626 20.1569 8.11437 20.5001 8.11437C20.8432 8.11437 21.1212 7.83626 21.1212 7.4932Z" fill="#405B6C"/>
  <path d="M19.8789 33.5069V35.4309C19.8789 35.774 20.1569 36.0521 20.5001 36.0521C20.8432 36.0521 21.1212 35.774 21.1212 35.4309V33.5069C21.1212 33.1639 20.8431 32.8857 20.5001 32.8857C20.157 32.8857 19.8789 33.1639 19.8789 33.5069Z" fill="#405B6C"/>
  <path d="M35.4309 21.1212C35.7741 21.1212 36.0521 20.8431 36.0521 20.5001C36.0521 20.157 35.774 19.8789 35.4309 19.8789H33.5069C33.1639 19.8789 32.8857 20.157 32.8857 20.5001C32.8857 20.8431 33.1639 21.1212 33.5069 21.1212H35.4309Z" fill="#405B6C"/>
  <path d="M5.56941 19.8789C5.22627 19.8789 4.94824 20.157 4.94824 20.5001C4.94824 20.8431 5.22627 21.1212 5.56941 21.1212H7.49344C7.83658 21.1212 8.11461 20.8431 8.11461 20.5001C8.11461 20.157 7.8365 19.8789 7.49344 19.8789H5.56941Z" fill="#405B6C"/>
</svg>
