<svg width="40" height="40" viewBox="0 0 40 40" fill="none"
  xmlns="http://www.w3.org/2000/svg">
  <g clip-path="url(#clip0_615_8819)">
    <path d="M34.4827 6.21244L32.4135 7.59182L28.965 6.90213L26.8958 6.21244L24.137 6.90213L22.0679 6.21244L23.4472 3.45361H26.2061L28.9098 2.10181C30.9948 3.1329 32.8812 4.5247 34.4827 6.21244Z" fill="#03AA6F"/>
    <path d="M18.6189 3.45365L17.9292 5.5228L15.8601 6.21248L13.7909 9.66101L10.3424 11.7302L5.5145 12.4198V14.489L6.89388 15.8684V18.6272L4.82489 17.2477L2.75574 15.8684L1.55566 12.2612C3.62129 7.33874 7.56989 3.4474 12.5219 1.45349L14.4807 2.76396L18.6189 3.45365Z" fill="#03AA6F"/>
    <path d="M19.9984 22.7653L19.3087 26.2139L16.5499 28.9727V31.0418L13.7911 33.1109V36.5594L11.722 35.8697L10.3425 32.4212V25.5242L6.89403 24.8345L5.51465 22.0756V20.0065L6.89403 18.6271L8.96317 16.558L10.3425 19.3168H15.1704L17.2396 22.7653H19.9984Z" fill="#03AA6F"/>
    <path d="M37.448 10.2333C41.213 16.9504 40.7841 25.2331 36.3444 31.5245L34.4823 29.6623V26.9035L33.1029 24.1446L31.7235 21.3858V18.6269L29.6544 17.2476L26.8955 17.9373L22.0676 15.8681L21.3779 11.0402L23.4471 8.97107H27.5853L28.9647 11.0402L33.1029 11.7299L37.2411 10.3505L37.448 10.2333Z" fill="#03AA6F"/>
    <path d="M24.1368 6.90254L26.8957 6.21285L28.9648 6.90254L32.4133 7.59223L34.4825 6.21285C35.6377 7.42192 36.6344 8.77301 37.4482 10.2338L37.2413 10.3511L33.1031 11.7304L28.9649 11.0407L27.5855 8.97161H23.4473L21.3782 11.0407L22.0679 15.8687L26.8958 17.9378L29.6546 17.2481L31.7237 18.6275V21.3863L33.1031 24.1452L34.4825 26.904V29.6628L36.3447 31.525C29.9753 40.5505 17.495 42.7031 8.47025 36.3336C0.805546 30.9235 -2.06985 20.9138 1.55594 12.2615L2.75602 15.8687L4.82516 17.248L6.89431 18.6274L5.51485 20.0069V22.076L6.89423 24.8348L10.3428 25.5245V32.4216L11.7221 35.8701L13.7913 36.5598V33.1113L16.5501 31.0421V28.973L19.3089 26.2141L19.9986 22.7656H17.2398L15.1707 19.3171H10.3428L8.96338 16.5583L6.89423 18.6274V15.8686L5.51485 14.4893V12.4201L10.3428 11.7304L13.7913 9.66129L15.8604 6.21277L17.9296 5.52308L18.6193 3.45394L14.481 2.76425L12.5223 1.45378C17.8261 -0.682242 23.7907 -0.446382 28.9097 2.10214L26.206 3.45394H23.4472L22.0678 6.21277L24.1368 6.90254Z" fill="#86DAF1"/>
  </g>
  <defs>
    <clipPath id="clip0_615_8819">
      <rect width="40" height="40" fill="white"/>
    </clipPath>
  </defs>
</svg>
